<?xml version="1.0" encoding="UTF-8" standalone="no"?>
<!-- Created with Inkscape (http://www.inkscape.org/) -->

<svg
   xmlns:dc="http://purl.org/dc/elements/1.1/"
   xmlns:cc="http://creativecommons.org/ns#"
   xmlns:rdf="http://www.w3.org/1999/02/22-rdf-syntax-ns#"
   xmlns:svg="http://www.w3.org/2000/svg"
   xmlns="http://www.w3.org/2000/svg"
   xmlns:sodipodi="http://sodipodi.sourceforge.net/DTD/sodipodi-0.dtd"
   xmlns:inkscape="http://www.inkscape.org/namespaces/inkscape"
   width="600"
   height="600"
   viewBox="0 0 600 600"
   version="1.1"
   id="svg7211"
   inkscape:version="0.92.4 (5da689c313, 2019-01-14)"
   sodipodi:docname="d.svg">
  <defs
     id="defs7205" />
  <sodipodi:namedview
     id="base"
     pagecolor="#ffffff"
     bordercolor="#666666"
     borderopacity="1.0"
     inkscape:pageopacity="0.0"
     inkscape:pageshadow="2"
     inkscape:zoom="1.3466667"
     inkscape:cx="300"
     inkscape:cy="300"
     inkscape:document-units="mm"
     inkscape:current-layer="layer1"
     showgrid="false"
     units="px"
     inkscape:window-width="1920"
     inkscape:window-height="1001"
     inkscape:window-x="2391"
     inkscape:window-y="-9"
     inkscape:window-maximized="1" />
  <metadata
     id="metadata7208">
    <rdf:RDF>
      <cc:Work
         rdf:about="">
        <dc:format>image/svg+xml</dc:format>
        <dc:type
           rdf:resource="http://purl.org/dc/dcmitype/StillImage" />
        <dc:title></dc:title>
      </cc:Work>
    </rdf:RDF>
  </metadata>
  <g
     inkscape:label="Layer 1"
     inkscape:groupmode="layer"
     id="layer1"
     transform="translate(0,-138.24998)">
    <g
       id="hair-back"
       style="opacity:1">
      <path
         sodipodi:nodetypes="cccccccccccc"
         inkscape:connector-curvature="0"
         id="path7922"
         d="m 202.21639,304.35961 c -13.32094,25.07586 -2.50758,30.13791 7.752,35.65919 -1.41061,24.88814 20.16364,12.70394 35.88067,9.96686 l 92.80248,-9.74537 c 17.33801,-4.21882 13.06095,-9.18298 14.39657,-13.9536 6.11888,-9.14425 10.73264,-18.2366 0,-26.79976 -4.61684,6.13437 -9.04418,13.83213 -15.94697,1.10743 3.80205,-6.09148 5.65143,-21.94629 7.752,-36.54513 L 241.64083,221.96696 c -23.32347,13.44001 -19.067,25.56668 -18.60479,37.87404 13.81661,35.22617 9.09326,38.36395 8.41645,48.50536 -16.52561,16.75173 -20.78879,0.80366 -29.2361,-3.98675 z"
         style="opacity:1;fill:#d66529;fill-opacity:1;stroke:#000000;stroke-width:1px;stroke-linecap:butt;stroke-linejoin:miter;stroke-opacity:1" />
    </g>
    <g
       id="torso"
       style="opacity:1">
      <path
         sodipodi:nodetypes="cccccccccccccccccc"
         inkscape:connector-curvature="0"
         id="path7767"
         d="m 279.01676,315.20322 0.44114,25.80629 -45.43673,16.5425 c -14.48549,6.77478 -17.76066,11.94808 -24.70346,17.64533 1.91956,13.57767 8.24547,13.93627 12.79287,19.63043 l 31.76159,13.67513 8.38153,-7.05814 c -8.39476,-7.53809 -15.96633,-15.40545 -27.12969,-21.83609 l 13.45456,-13.8957 99.91668,-1.3234 7.49926,4.19077 c -10.74751,9.22068 -13.62046,14.94155 -19.63043,22.05666 l 11.2489,6.617 c 10.53087,-9.82619 23.50327,-15.99006 29.77649,-32.20273 -3.29172,-9.6039 -11.74361,-14.47764 -22.05666,-17.64532 l -55.58279,-13.8957 -0.88226,-12.13117 z"
         style="opacity:1;fill:#f4e3d7;stroke:#000000;stroke-width:1px;stroke-linecap:butt;stroke-linejoin:miter;stroke-opacity:1" />
    </g>
    <g
       id="right-hand">
      <path
         sodipodi:nodetypes="cccc"
         inkscape:connector-curvature="0"
         id="path7863"
         d="m 365.55332,399.96054 -7.02505,9.45036 -2.34168,-1.589 c 3.12281,-3.56715 4.45968,-7.69544 9.36673,-7.86136 z"
         style="fill:#ffffff;stroke:#000000;stroke-width:1px;stroke-linecap:butt;stroke-linejoin:miter;stroke-opacity:1" />
      <path
         sodipodi:nodetypes="cccc"
         inkscape:connector-curvature="0"
         id="path7861"
         d="m 358.52827,409.4109 c 5.21316,-4.95311 13.42337,-16.04305 14.46825,-12.4611 -3.73554,6.23467 -7.47108,9.73081 -11.20662,14.55188 z"
         style="fill:#ffffff;stroke:#000000;stroke-width:1px;stroke-linecap:butt;stroke-linejoin:miter;stroke-opacity:1" />
      <path
         sodipodi:nodetypes="cccc"
         inkscape:connector-curvature="0"
         id="path7859"
         d="m 376.42541,399.8769 c -0.67336,-3.65929 -9.14872,6.66 -14.63551,11.62478 l 2.84347,2.00716 c 5.01266,-4.67923 10.23999,-9.38529 11.79204,-13.63194 z"
         style="fill:#ffffff;stroke:#000000;stroke-width:1px;stroke-linecap:butt;stroke-linejoin:miter;stroke-opacity:1" />
      <path
         sodipodi:nodetypes="cccccc"
         inkscape:connector-curvature="0"
         id="path7857"
         d="m 336.70044,398.70606 c 10.29575,2.53416 22.12494,6.95336 27.51477,11.03936 10.81852,-4.68518 16.77781,-5.321 16.89357,-1.08721 -5.97433,2.28036 -12.01777,4.45211 -16.47541,9.11584 -5.34644,2.72669 -25.71855,-1.61748 -31.69635,-2.25805 z"
         style="fill:#ffffff;stroke:#000000;stroke-width:1px;stroke-linecap:butt;stroke-linejoin:miter;stroke-opacity:1" />
      <path
         sodipodi:nodetypes="cccccccccc"
         inkscape:connector-curvature="0"
         id="path7855"
         d="m 332.26798,385.07413 -0.83632,5.01789 c -3.30265,8.50672 -3.42752,5.8912 -5.10152,8.69767 l 6.02147,8.44679 c 3.67979,-0.8296 7.35957,-3.41567 11.03936,-2.25805 l 4.01431,-3.76342 8.11226,-1.75626 c -1.9689,-4.20632 -3.81284,-4.47842 -7.90456,-2.20475 1.02231,-4.78492 1.08165,-11.55159 -9.4908,-7.58014 -1.6679,-6.35281 -3.52038,-9.56754 -5.8542,-4.59973 z"
         style="fill:#ffffff;stroke:#000000;stroke-width:1px;stroke-linecap:butt;stroke-linejoin:miter;stroke-opacity:1" />
    </g>
    <g
       id="dress"
       style="opacity:1">
      <path
         sodipodi:nodetypes="ccccc"
         inkscape:connector-curvature="0"
         id="path7784"
         d="m 335.95516,321.48445 c 15.24116,5.75899 17.76906,17.71957 14.0199,32.74214 -1.39251,11.75588 -10.88109,12.34478 -18.63515,15.3261 l -28.12688,-29.52017 c 3.00208,-12.69842 13.94953,-18.8536 32.74213,-18.54807 z"
         style="opacity:1;fill:#ffcc00;stroke:#000000;stroke-width:1px;stroke-linecap:butt;stroke-linejoin:miter;stroke-opacity:1" />
      <path
         sodipodi:nodetypes="cccccccccccccc"
         inkscape:connector-curvature="0"
         id="path7772"
         d="m 306.80816,330.86345 c 8.63149,8.88737 18.54894,16.74598 24.48289,27.79139 0.25707,10.4994 1.76998,21.67502 -5.2936,28.23253 -4.75432,11.98087 -2.30005,12.24778 -2.86736,17.42476 l 47.86295,45.43672 c 41.31994,60.62906 51.22769,117.15664 68.01684,178.90074 -35.39992,72.97694 -195.91424,52.99395 -287.48062,19.38865 l 11.9106,-40.58426 -1.3234,-25.80629 c 13.14811,-38.62238 14.94636,-66.11317 56.46505,-132.56054 l 61.75865,-47.64239 c 3.07754,-4.84245 -5.74349,-15.94732 -13.45456,-26.46799 l 7.71983,-39.26086 z"
         style="opacity:1;fill:#ffcc00;stroke:#000000;stroke-width:1px;stroke-linecap:butt;stroke-linejoin:miter;stroke-opacity:1" />
      <path
         sodipodi:nodetypes="ccccccccc"
         inkscape:connector-curvature="0"
         id="path7774"
         d="m 313.20459,409.1646 c 9.53226,-14.99781 16.64124,-18.90628 23.38006,-3.3085 14.95504,1.73114 21.80248,9.29976 22.05666,21.61552 12.50507,6.39914 23.75394,13.83016 20.07156,33.52613 -24.27645,5.91064 -45.25729,-9.42509 -64.84658,-40.14312 -9.87119,45.03979 -77.85725,64.92335 -99.47554,36.83462 -3.70208,-9.66506 -1.17411,-19.52481 13.89569,-29.77649 -1.35279,-4.25304 0.007,-13.7668 20.73326,-20.07156 15.47101,-18.04734 41.87677,-15.98543 64.18489,1.3234 z"
         style="opacity:1;fill:#ff6600;stroke:#000000;stroke-width:1px;stroke-linecap:butt;stroke-linejoin:miter;stroke-opacity:1" />
      <path
         sodipodi:nodetypes="cc"
         inkscape:connector-curvature="0"
         id="path7776"
         d="m 298.86776,414.23763 c -20.0142,2.56059 -41.7041,7.43522 -49.84806,-6.39643"
         style="fill:none;stroke:#000000;stroke-width:1px;stroke-linecap:butt;stroke-linejoin:miter;stroke-opacity:1" />
      <path
         sodipodi:nodetypes="cc"
         inkscape:connector-curvature="0"
         id="path7778"
         d="m 294.01529,426.14823 c -32.37731,17.3801 -61.20898,29.0724 -65.72885,1.76453"
         style="fill:none;stroke:#000000;stroke-width:1px;stroke-linecap:butt;stroke-linejoin:miter;stroke-opacity:1" />
      <path
         sodipodi:nodetypes="cc"
         inkscape:connector-curvature="0"
         id="path7780"
         d="m 324.23292,412.91423 c 6.0182,-0.74421 13.61186,-0.15534 12.35173,-7.05813"
         style="fill:none;stroke:#000000;stroke-width:1px;stroke-linecap:butt;stroke-linejoin:miter;stroke-opacity:1" />
      <path
         sodipodi:nodetypes="cc"
         inkscape:connector-curvature="0"
         id="path7782"
         d="m 325.55632,420.85463 c 11.89174,4.79589 26.0555,16.40784 33.08499,6.61699"
         style="fill:none;stroke:#000000;stroke-width:1px;stroke-linecap:butt;stroke-linejoin:miter;stroke-opacity:1" />
      <path
         sodipodi:nodetypes="ccccccc"
         inkscape:connector-curvature="0"
         id="path7786"
         d="m 359.4668,338.378 c 0.88566,4.08051 1.38512,8.13132 -3.65737,11.75582 3.1328,7.93722 0.17448,11.22594 -5.48605,12.45246 0.25472,9.53675 -3.67562,10.70338 -7.48889,12.10414 -0.35988,-3.10181 -1.50021,-4.80995 1.21912,-13.41034 l 5.83437,-18.28683 c 3.19294,-2.6181 6.38588,-3.57521 9.57882,-4.61525 z"
         style="fill:#ffffff;stroke:#000000;stroke-width:1px;stroke-linecap:butt;stroke-linejoin:miter;stroke-opacity:1" />
      <path
         sodipodi:nodetypes="cccc"
         inkscape:connector-curvature="0"
         id="path7788"
         d="m 348.4947,339.07464 c 0.76316,2.46704 1.14877,5.15777 0.28049,7.48325 l -3.45283,9.94676 c -0.78954,3.18902 -3.0225,4.67127 -5.05404,6.57393"
         style="fill:none;stroke:#000000;stroke-width:1px;stroke-linecap:butt;stroke-linejoin:miter;stroke-opacity:1" />
      <path
         sodipodi:nodetypes="ccccccc"
         inkscape:connector-curvature="0"
         id="path7790"
         d="m 268.05591,336.05101 c 5.035,14.35306 11.35567,19.99857 20.87352,3.99052 6.11647,0.99181 10.14538,11.82502 18.80151,0.84415 8.04093,3.64112 8.53318,-0.26644 7.67409,-5.52534 l -12.73898,-7.67409 -26.47561,-0.92089 z"
         style="opacity:1;fill:#ffffff;stroke:#000000;stroke-width:1px;stroke-linecap:butt;stroke-linejoin:miter;stroke-opacity:1" />
      <path
         sodipodi:nodetypes="ccccc"
         inkscape:connector-curvature="0"
         id="path7794"
         d="m 234.32905,351.2291 c -0.14024,-8.52375 -3.87213,-17.78696 14.68606,-22.46103 34.33292,0.15193 32.18239,16.81767 33.04363,30.02003 -4.45338,19.90037 -16.08562,21.57749 -27.86032,22.89298 -8.64419,-7.96117 -17.90516,-15.25416 -19.86937,-30.45198 z"
         style="opacity:1;fill:#ffcc00;stroke:#000000;stroke-width:1px;stroke-linecap:butt;stroke-linejoin:miter;stroke-opacity:1" />
      <path
         sodipodi:nodetypes="ccccccc"
         inkscape:connector-curvature="0"
         id="path7796"
         d="m 226.36002,351.05376 c 4.74583,-0.27466 10.03714,-1.23117 13.71045,-0.16519 -0.31974,7.69361 0.32701,14.89551 8.2593,18.39072 0.22354,7.87189 -1.58216,9.04727 -2.69804,12.49908 -6.73997,0.35482 -5.43212,-5.79052 -4.79039,-11.39784 -5.94095,0.72207 -7.20798,-3.41308 -5.67139,-10.46179 -6.64063,-0.41512 -7.00791,-5.13196 -8.80993,-8.86498 z"
         style="fill:#ffffff;stroke:#000000;stroke-width:1px;stroke-linecap:butt;stroke-linejoin:miter;stroke-opacity:1" />
      <path
         sodipodi:nodetypes="cc"
         inkscape:connector-curvature="0"
         id="path7798"
         d="m 241.22677,346.86904 c -4.75892,15.86379 5.59336,25.37336 12.27883,21.36407"
         style="fill:none;stroke:#000000;stroke-width:1px;stroke-linecap:butt;stroke-linejoin:miter;stroke-opacity:1" />
      <path
         sodipodi:nodetypes="ccccccc"
         inkscape:connector-curvature="0"
         id="path7800"
         d="m 304.56964,350.79698 c -15.14745,3.6076 -5.98803,13.90454 -0.28457,15.86523 -1.66244,15.07179 4.48412,12.4232 9.46222,10.95625 5.83467,12.64712 12.86553,4.98138 12.23685,-3.34379 0.96895,-2.91484 3.14689,-4.75023 -0.92488,-12.16571 1.45274,-5.80905 0.49937,-12.28101 -9.10649,-13.80204 -7.84996,-9.84077 -13.55476,-5.78142 -11.38313,2.49006 z"
         style="fill:#ffffff;stroke:#000000;stroke-width:1px;stroke-linecap:butt;stroke-linejoin:miter;stroke-opacity:1" />
      <path
         transform="matrix(0.944625,-0.32815182,0.37758416,0.92597527,0,0)"
         d="m 159.68249,435.68448 a 7.2506266,13.792198 0 0 1 2.65571,18.83455 7.2506266,13.792198 0 0 1 -9.90009,5.06109 7.2506266,13.792198 0 0 1 -2.66556,-18.82951 7.2506266,13.792198 0 0 1 9.89744,-5.07983"
         sodipodi:open="true"
         sodipodi:end="5.2339981"
         sodipodi:start="5.2359878"
         sodipodi:ry="13.792198"
         sodipodi:rx="7.2506266"
         sodipodi:cy="447.62888"
         sodipodi:cx="156.05717"
         sodipodi:type="arc"
         id="path7802"
         style="opacity:1;fill:#008000;fill-opacity:1;stroke:#000000;stroke-width:1.03830862;stroke-linecap:round;stroke-linejoin:round;stroke-miterlimit:4;stroke-dasharray:none;stroke-dashoffset:0;stroke-opacity:1" />
      <path
         sodipodi:nodetypes="ccccccccc"
         inkscape:connector-curvature="0"
         id="path7806"
         d="m 154.11857,637.28659 c -33.738,32.26422 -3.10155,32.77038 24.21863,34.91257 -2.89431,23.71913 85.7012,22.80558 110.0847,7.23414 67.96342,34.13653 112.96649,12.58445 126.1256,-11.95205 41.02168,4.25569 56.02816,-18.83153 24.46238,-38.83166 -8.2956,16.85213 -21.54876,16.35275 -34.52726,16.81472 -12.38405,27.96926 -81.09058,33.76674 -116.37525,12.26658 -12.5375,8.34227 -102.33491,17.72246 -97.50359,-8.49225 -13.36058,0.0121 -27.71876,3.34959 -36.48521,-11.95205 z"
         style="fill:#ff6600;stroke:#000000;stroke-width:1px;stroke-linecap:butt;stroke-linejoin:miter;stroke-opacity:1" />
      <path
         sodipodi:nodetypes="cc"
         inkscape:connector-curvature="0"
         id="path7808"
         d="m 221.42438,509.57278 c -21.51737,41.22677 -30.81614,87.07137 -30.8206,139.66586"
         style="fill:none;stroke:#000000;stroke-width:1px;stroke-linecap:butt;stroke-linejoin:miter;stroke-opacity:1" />
      <path
         sodipodi:nodetypes="cc"
         inkscape:connector-curvature="0"
         id="path7810"
         d="m 290.11287,516.8256 c -2.202,50.03544 -2.00298,95.26881 -2.0055,140.90529"
         style="fill:none;stroke:#000000;stroke-width:1px;stroke-linecap:butt;stroke-linejoin:miter;stroke-opacity:1" />
      <path
         sodipodi:nodetypes="cc"
         inkscape:connector-curvature="0"
         id="path7812"
         d="m 365.20091,505.73305 c 18.32464,51.80783 33.40401,100.37037 39.28171,139.73126"
         style="fill:none;stroke:#000000;stroke-width:1px;stroke-linecap:butt;stroke-linejoin:miter;stroke-opacity:1" />
    </g>
    <path
       style="opacity:1;fill:#ff6600;stroke:#000000;stroke-width:1px;stroke-linecap:butt;stroke-linejoin:miter;stroke-opacity:1"
       d="m 396.3049,604.26118 c 10.22933,-1.53394 20.46849,-2.87124 29.88013,-20.75883 26.48704,16.77757 11.95178,21.68027 8.80677,29.88014 -6.74784,3.07868 -18.94587,3.04296 -31.45277,2.83074 3.07731,37.5851 -73.13411,40.9443 -115.43166,16.66997 -43.2563,16.11249 -114.85342,12.9623 -104.10867,-13.83922 -48.93393,0.54354 -35.25788,-14.56542 -22.01694,-29.5656 -0.40895,10.07663 17.50874,12.89518 32.08183,11.95205 -9.01646,24.76174 60.91353,22.35418 92.78567,16.35544 37.49978,12.58762 95.19812,13.00688 109.45564,-13.52469 z"
       id="path7804"
       inkscape:connector-curvature="0"
       sodipodi:nodetypes="cccccccccc" />
    <g
       id="left-hand">
      <path
         sodipodi:nodetypes="cccccc"
         inkscape:connector-curvature="0"
         id="path7837"
         d="m 233.76411,415.87113 c 2.25202,0.67431 2.64014,2.11424 5.96024,5.17139 2.62125,1.33404 6.20398,0.42465 9.46626,0.26295 l -1.92831,4.29488 -9.37862,0.96415 c -2.35401,-4.14141 -5.5453,-8.77534 -4.11957,-10.69337 z"
         style="fill:#ffffff;stroke:#000000;stroke-width:1px;stroke-linecap:butt;stroke-linejoin:miter;stroke-opacity:1" />
      <path
         sodipodi:nodetypes="ccccc"
         inkscape:connector-curvature="0"
         id="path7841"
         d="m 229.03098,426.0386 c 7.37055,-2.42716 11.69745,0.79818 17.53011,1.22711 l -1.31476,3.94428 -11.92048,-0.70121 c -1.0783,-2.02004 -2.78732,-3.09401 -4.29487,-4.47018 z"
         style="fill:#ffffff;stroke:#000000;stroke-width:1px;stroke-linecap:butt;stroke-linejoin:miter;stroke-opacity:1" />
      <path
         sodipodi:nodetypes="ccccc"
         inkscape:connector-curvature="0"
         id="path7839"
         d="m 223.42134,427.87926 c 8.33549,-1.01196 7.08505,0.15415 10.78102,0.96416 1.88227,3.19349 6.83557,0.23843 9.20331,1.49006 l -6.48614,6.48614 c -4.5253,-2.92165 -9.34917,-5.16931 -13.49819,-8.94036 z"
         style="fill:#ffffff;stroke:#000000;stroke-width:1px;stroke-linecap:butt;stroke-linejoin:miter;stroke-opacity:1" />
      <path
         sodipodi:nodetypes="ccccccccccc"
         inkscape:connector-curvature="0"
         id="path7835"
         d="m 257.86802,388.7871 c -3.13819,1.50363 -3.4475,4.67131 -2.62952,8.50211 -7.63363,-1.7196 -7.78541,4.87642 -6.2188,10.55199 -4.18615,1.35956 -7.04672,1.76781 -4.29927,6.36457 1.67286,0.70255 6.1025,-0.24897 9.99217,-0.8765 -10.17674,3.75937 -12.04466,9.99372 -11.30693,17.00421 -2.0534,1.66536 -4.09852,3.33072 -7.9762,4.99608 -5.87045,-1.02045 -10.74256,-1.04257 -11.74518,2.80482 3.04593,3.07628 10.1716,2.75622 17.88072,1.66531 13.24086,-6.12268 24.70532,-14.10634 28.22349,-30.4147 -0.51049,-2.98589 -1.07753,-9.6974 -11.92048,-20.59789 z"
         style="fill:#ffffff;stroke:#000000;stroke-width:1px;stroke-linecap:butt;stroke-linejoin:miter;stroke-opacity:1" />
    </g>
    <g
       id="crown"
       style="opacity:1">
      <path
         d="m 312.74141,197.69974 a 4.5289679,9.3104715 0 0 1 1.65885,12.71433 4.5289679,9.3104715 0 0 1 -6.18391,3.41651 4.5289679,9.3104715 0 0 1 -1.665,-12.71093 4.5289679,9.3104715 0 0 1 6.18225,-3.42915"
         sodipodi:open="true"
         sodipodi:end="5.2339981"
         sodipodi:start="5.2359878"
         sodipodi:ry="9.3104715"
         sodipodi:rx="4.5289679"
         sodipodi:cy="205.76285"
         sodipodi:cx="310.47693"
         sodipodi:type="arc"
         id="path7907"
         style="opacity:1;fill:#ff8080;fill-opacity:1;stroke:#000000;stroke-width:0.98100895;stroke-linecap:round;stroke-linejoin:round;stroke-miterlimit:4;stroke-dasharray:none;stroke-dashoffset:0;stroke-opacity:1" />
      <path
         inkscape:connector-curvature="0"
         id="path7897"
         d="m 246.72581,186.89962 10.80777,31.03372 53.26683,6.63906 -1.23517,-45.8558 -9.1094,13.12371 -15.43967,-17.13802 -14.05009,21.30673 z"
         style="opacity:1;fill:#ffd42a;stroke:#000000;stroke-width:1px;stroke-linecap:butt;stroke-linejoin:miter;stroke-opacity:1" />
      <path
         sodipodi:nodetypes="cc"
         inkscape:connector-curvature="0"
         id="path7899"
         d="m 254.75444,208.51515 c 4.40003,-1.22773 14.83409,-2.58956 55.89158,-4.6319"
         style="fill:none;stroke:#000000;stroke-width:1px;stroke-linecap:butt;stroke-linejoin:miter;stroke-opacity:1" />
      <path
         sodipodi:nodetypes="ccccc"
         inkscape:connector-curvature="0"
         id="path7905"
         d="m 284.24419,200.02333 c 0.32261,-12.23708 7.90732,-14.83028 12.11058,-1.25276 10.0162,1.16691 6.84246,13.50252 1.15071,13.27468 -1.67328,8.43147 -8.13489,4.06697 -12.6437,1.2562 -6.00096,-5.5402 -8.60762,-12.31119 -0.61759,-13.27812 z"
         style="fill:#ffffff;stroke:#000000;stroke-width:1px;stroke-linecap:butt;stroke-linejoin:miter;stroke-opacity:1" />
      <path
         d="m 294.51156,199.91823 a 5.0950885,7.2547803 0 0 1 1.8662,9.90708 5.0950885,7.2547803 0 0 1 -6.95689,2.66217 5.0950885,7.2547803 0 0 1 -1.87312,-9.90444 5.0950885,7.2547803 0 0 1 6.95503,-2.67202"
         sodipodi:open="true"
         sodipodi:end="5.2339981"
         sodipodi:start="5.2359878"
         sodipodi:ry="7.2547803"
         sodipodi:rx="5.0950885"
         sodipodi:cy="206.20105"
         sodipodi:cx="291.96402"
         sodipodi:type="arc"
         id="path7901"
         style="opacity:1;fill:#008000;fill-opacity:1;stroke:#000000;stroke-width:0.95669383;stroke-linecap:round;stroke-linejoin:round;stroke-miterlimit:4;stroke-dasharray:none;stroke-dashoffset:0;stroke-opacity:1" />
      <path
         d="m 258.81837,201.55649 a 5.1355257,8.3705025 0 0 1 1.88101,11.43071 5.1355257,8.3705025 0 0 1 -7.01211,3.07158 5.1355257,8.3705025 0 0 1 -1.88798,-11.42765 5.1355257,8.3705025 0 0 1 7.01023,-3.08295"
         sodipodi:open="true"
         sodipodi:end="5.2339981"
         sodipodi:start="5.2359878"
         sodipodi:ry="8.3705025"
         sodipodi:rx="5.1355257"
         sodipodi:cy="208.80556"
         sodipodi:cx="256.25061"
         sodipodi:type="arc"
         id="path7911"
         style="opacity:1;fill:#ff8080;fill-opacity:1;stroke:#000000;stroke-width:1.00157475;stroke-linecap:round;stroke-linejoin:round;stroke-miterlimit:4;stroke-dasharray:none;stroke-dashoffset:0;stroke-opacity:1" />
      <path
         d="m 256.55389,205.15017 a 4.3267817,4.4076562 0 0 1 1.58479,6.01907 4.3267817,4.4076562 0 0 1 -5.90784,1.61741 4.3267817,4.4076562 0 0 1 -1.59066,-6.01746 4.3267817,4.4076562 0 0 1 5.90625,-1.62339"
         sodipodi:open="true"
         sodipodi:end="5.2339981"
         sodipodi:start="5.2359878"
         sodipodi:ry="4.4076562"
         sodipodi:rx="4.3267817"
         sodipodi:cy="208.96732"
         sodipodi:cx="254.3905"
         sodipodi:type="arc"
         id="path7909"
         style="opacity:1;fill:#ff0000;fill-opacity:1;stroke:#000000;stroke-width:1.00157475;stroke-linecap:round;stroke-linejoin:round;stroke-miterlimit:4;stroke-dasharray:none;stroke-dashoffset:0;stroke-opacity:1" />
    </g>
    <g
       id="left-earing">
      <path
         sodipodi:nodetypes="ccccccc"
         inkscape:connector-curvature="0"
         id="path7929"
         d="m 248.19823,306.82145 c 3.10824,-4.32539 9.36723,-13.88094 13.47362,-0.38184 9.1468,0.28918 10.2155,5.82099 3.70934,9.70973 5.53524,9.49662 -1.30038,9.78782 -5.12762,7.52777 -3.5384,5.91304 -7.69158,4.40109 -9.81883,-0.1091 -2.40822,2.68305 -13.17776,2.31562 -5.61855,-6.92773 -4.23308,-1.98003 -4.38865,-10.12307 3.38204,-9.81883 z"
         style="opacity:1;fill:#ffffff;stroke:#000000;stroke-width:1px;stroke-linecap:butt;stroke-linejoin:miter;stroke-opacity:1" />
      <path
         d="m 256.66697,307.04802 a 5.8640242,7.391398 0 0 1 2.14784,10.09365 5.8640242,7.391398 0 0 1 -8.00681,2.7123 5.8640242,7.391398 0 0 1 -2.15581,-10.09096 5.8640242,7.391398 0 0 1 8.00467,-2.72233"
         sodipodi:open="true"
         sodipodi:end="5.2339981"
         sodipodi:start="5.2359878"
         sodipodi:ry="7.391398"
         sodipodi:rx="5.8640242"
         sodipodi:cy="313.44916"
         sodipodi:cx="253.73495"
         sodipodi:type="arc"
         id="path7927"
         style="opacity:1;fill:#008000;fill-opacity:1;stroke:#000000;stroke-width:1.00157475;stroke-linecap:round;stroke-linejoin:round;stroke-miterlimit:4;stroke-dasharray:none;stroke-dashoffset:0;stroke-opacity:1" />
    </g>
    <g
       id="right-earing">
      <path
         sodipodi:nodetypes="cccccc"
         inkscape:connector-curvature="0"
         id="path7933"
         d="m 334.93124,318.3313 c 4.309,5.41387 6.60025,5.31257 6.54589,-1.20008 2.26826,-2.77617 1.51023,-4.75101 -0.54549,-6.38224 1.74094,-6.53207 0.36571,-9.75719 -5.01852,-8.72785 -5.13788,-10.3906 -5.03695,-2.89699 -6.21859,0.2182 -2.45881,9.02234 -3.36665,16.69515 5.23671,16.09197 z"
         style="fill:#ffffff;stroke:#000000;stroke-width:1px;stroke-linecap:butt;stroke-linejoin:miter;stroke-opacity:1" />
      <path
         transform="rotate(-16.095143)"
         d="m 237.96385,384.47523 a 3.8457088,7.036829 0 0 1 1.40859,9.60946 3.8457088,7.036829 0 0 1 -5.25098,2.58219 3.8457088,7.036829 0 0 1 -1.41381,-9.60689 3.8457088,7.036829 0 0 1 5.24957,-2.59175"
         sodipodi:open="true"
         sodipodi:end="5.2339981"
         sodipodi:start="5.2359878"
         sodipodi:ry="7.036829"
         sodipodi:rx="3.8457088"
         sodipodi:cy="390.56931"
         sodipodi:cx="236.041"
         sodipodi:type="arc"
         id="path7931"
         style="opacity:1;fill:#008000;fill-opacity:1;stroke:#000000;stroke-width:1.00157475;stroke-linecap:round;stroke-linejoin:round;stroke-miterlimit:4;stroke-dasharray:none;stroke-dashoffset:0;stroke-opacity:1" />
    </g>
    <g
       id="face"
       style="opacity:1">
      <path
         d="m 331.68254,285.0693 a 2.701941,6.7162533 0 0 1 0.98965,9.17168 2.701941,6.7162533 0 0 1 -3.68926,2.46455 2.701941,6.7162533 0 0 1 -0.99332,-9.16923 2.701941,6.7162533 0 0 1 3.68828,-2.47367"
         sodipodi:open="true"
         sodipodi:end="5.2339981"
         sodipodi:start="5.2359878"
         sodipodi:ry="6.7162533"
         sodipodi:rx="2.701941"
         sodipodi:cy="290.88574"
         sodipodi:cx="330.33157"
         sodipodi:type="arc"
         id="path7878"
         style="opacity:1;fill:#f4e3d7;fill-opacity:1;stroke:#000000;stroke-width:1.00157475;stroke-linecap:round;stroke-linejoin:round;stroke-miterlimit:4;stroke-dasharray:none;stroke-dashoffset:0;stroke-opacity:1" />
      <path
         sodipodi:nodetypes="cc"
         inkscape:connector-curvature="0"
         id="path7876"
         d="m 245.95383,291.42614 c 7.18389,2.50461 9.84531,6.40074 6.33026,12.19733"
         style="fill:none;stroke:#000000;stroke-width:1px;stroke-linecap:butt;stroke-linejoin:miter;stroke-opacity:1" />
      <path
         sodipodi:nodetypes="cc"
         inkscape:connector-curvature="0"
         id="path7880"
         d="m 295.66954,308.87296 c 1.08545,5.41707 10.22392,1.31694 15.43966,1.85276"
         style="fill:none;stroke:#000000;stroke-width:1px;stroke-linecap:butt;stroke-linejoin:miter;stroke-opacity:1" />
      <path
         sodipodi:nodetypes="cc"
         inkscape:connector-curvature="0"
         id="path7882"
         d="m 301.9998,317.51917 c 3.35456,-0.0795 3.58961,-0.60474 4.16871,-1.08078"
         style="fill:none;stroke:#000000;stroke-width:1px;stroke-linecap:butt;stroke-linejoin:miter;stroke-opacity:1" />
      <path
         sodipodi:nodetypes="cc"
         inkscape:connector-curvature="0"
         id="path7884"
         d="m 308.79326,303.16028 c 2.8985,-0.95078 2.65266,-1.45237 2.77913,-2.00715"
         style="fill:none;stroke:#000000;stroke-width:1px;stroke-linecap:butt;stroke-linejoin:miter;stroke-opacity:1" />
      <path
         sodipodi:nodetypes="ccccccccccc"
         inkscape:connector-curvature="0"
         id="path7874"
         d="m 306.01412,326.78297 c 9.42787,-5.32345 19.72353,-10.02705 23.62268,-19.29958 -0.35199,-3.54285 1.48299,-4.89874 -3.39673,-12.96932 2.87347,-1.90425 3.77131,-6.17926 4.6319,-10.49897 l 2.62475,-32.73208 -42.15028,-12.35173 -29.95295,32.42329 c -0.54553,9.12998 -1.09344,18.26155 0.77198,25.78423 l -10.03578,-9.72698 c -14.10454,-7.06908 -16.6448,5.95336 -9.41819,13.2781 15.34702,16.71601 34.06689,23.42013 63.30262,26.09304 z"
         style="opacity:1;fill:#f4e3d7;fill-opacity:1;stroke:#000000;stroke-width:1px;stroke-linecap:butt;stroke-linejoin:miter;stroke-opacity:1" />
      <path
         inkscape:connector-curvature="0"
         id="path7886"
         d="m 306.9405,293.74209 1.08077,2.62474"
         style="fill:none;stroke:#000000;stroke-width:1px;stroke-linecap:butt;stroke-linejoin:miter;stroke-opacity:1" />
    </g>
    <g
       id="eyes">
      <path
         transform="rotate(7.9981131)"
         d="m 359.57931,227.04177 a 7.0773191,13.948001 0 0 1 2.59224,19.04732 7.0773191,13.948001 0 0 1 -9.66346,5.11826 7.0773191,13.948001 0 0 1 -2.60185,-19.04222 7.0773191,13.948001 0 0 1 9.66087,-5.13721"
         sodipodi:open="true"
         sodipodi:end="5.2339981"
         sodipodi:start="5.2359878"
         sodipodi:ry="13.948001"
         sodipodi:rx="7.0773191"
         sodipodi:cy="239.12109"
         sodipodi:cx="356.04065"
         sodipodi:type="arc"
         id="path7956"
         style="opacity:1;fill:#ffffff;fill-opacity:1;stroke:none;stroke-width:1.00157475;stroke-linecap:round;stroke-linejoin:round;stroke-miterlimit:4;stroke-dasharray:none;stroke-dashoffset:0;stroke-opacity:1" />
      <path
         transform="rotate(-18.564582)"
         d="m 178.52028,348.84417 a 10.641809,14.206297 0 0 1 3.89781,19.40004 10.641809,14.206297 0 0 1 -14.53045,5.21305 10.641809,14.206297 0 0 1 -3.91228,-19.39486 10.641809,14.206297 0 0 1 14.52657,-5.23234"
         sodipodi:open="true"
         sodipodi:end="5.2339981"
         sodipodi:start="5.2359878"
         sodipodi:ry="14.206297"
         sodipodi:rx="10.641809"
         sodipodi:cy="361.14719"
         sodipodi:cx="173.19937"
         sodipodi:type="arc"
         id="path7958"
         style="opacity:1;fill:#ffffff;fill-opacity:1;stroke:none;stroke-width:1.00157475;stroke-linecap:round;stroke-linejoin:round;stroke-miterlimit:4;stroke-dasharray:none;stroke-dashoffset:0;stroke-opacity:1" />
      <path
         d="m 280.17401,282.5387 a 5.6308599,9.4536448 0 0 1 2.06244,12.90985 5.6308599,9.4536448 0 0 1 -7.68845,3.46904 5.6308599,9.4536448 0 0 1 -2.07008,-12.90639 5.6308599,9.4536448 0 0 1 7.68638,-3.48189"
         sodipodi:open="true"
         sodipodi:end="5.2339981"
         sodipodi:start="5.2359878"
         sodipodi:ry="9.4536448"
         sodipodi:rx="5.6308599"
         sodipodi:cy="290.7258"
         sodipodi:cx="277.35858"
         sodipodi:type="arc"
         id="path7960"
         style="opacity:1;fill:#3c8ee7;fill-opacity:1;stroke:#000000;stroke-width:1.00157475;stroke-linecap:round;stroke-linejoin:round;stroke-miterlimit:4;stroke-dasharray:none;stroke-dashoffset:0;stroke-opacity:1" />
      <path
         d="m 318.78933,282.31079 a 4.2360597,8.523778 0 0 1 1.55155,11.64002 4.2360597,8.523778 0 0 1 -5.78396,3.12783 4.2360597,8.523778 0 0 1 -1.55732,-11.63691 4.2360597,8.523778 0 0 1 5.78242,-3.13941"
         sodipodi:open="true"
         sodipodi:end="5.2339981"
         sodipodi:start="5.2359878"
         sodipodi:ry="8.523778"
         sodipodi:rx="4.2360597"
         sodipodi:cy="289.6926"
         sodipodi:cx="316.6713"
         sodipodi:type="arc"
         id="path7962"
         style="opacity:1;fill:#3c8ee7;fill-opacity:1;stroke:#000000;stroke-width:1.00157475;stroke-linecap:round;stroke-linejoin:round;stroke-miterlimit:4;stroke-dasharray:none;stroke-dashoffset:0;stroke-opacity:1" />
      <path
         d="m 278.75337,287.70805 a 2.0663705,4.0810819 0 0 1 0.75686,5.5731 2.0663705,4.0810819 0 0 1 -2.82145,1.49757 2.0663705,4.0810819 0 0 1 -0.75966,-5.57161 2.0663705,4.0810819 0 0 1 2.82069,-1.50311"
         sodipodi:open="true"
         sodipodi:end="5.2339981"
         sodipodi:start="5.2359878"
         sodipodi:ry="4.0810819"
         sodipodi:rx="2.0663705"
         sodipodi:cy="291.24237"
         sodipodi:cx="277.72018"
         sodipodi:type="arc"
         id="path7964"
         style="opacity:1;fill:#000000;fill-opacity:1;stroke:none;stroke-width:1.00157475;stroke-linecap:round;stroke-linejoin:round;stroke-miterlimit:4;stroke-dasharray:none;stroke-dashoffset:0;stroke-opacity:1" />
      <path
         d="m 317.2137,286.81229 a 1.3948001,3.5644891 0 0 1 0.51088,4.86765 1.3948001,3.5644891 0 0 1 -1.90448,1.308 1.3948001,3.5644891 0 0 1 -0.51278,-4.86635 1.3948001,3.5644891 0 0 1 1.90397,-1.31284"
         sodipodi:open="true"
         sodipodi:end="5.2339981"
         sodipodi:start="5.2359878"
         sodipodi:ry="3.5644891"
         sodipodi:rx="1.3948001"
         sodipodi:cy="289.89923"
         sodipodi:cx="316.5163"
         sodipodi:type="arc"
         id="path7966"
         style="opacity:1;fill:#000000;fill-opacity:1;stroke:none;stroke-width:1.00157475;stroke-linecap:round;stroke-linejoin:round;stroke-miterlimit:4;stroke-dasharray:none;stroke-dashoffset:0;stroke-opacity:1" />
      <path
         d="m 277.77184,283.55355 a 2.3763261,2.3763261 0 0 1 0.87039,3.2451 2.3763261,2.3763261 0 0 1 -3.24467,0.872 2.3763261,2.3763261 0 0 1 -0.87361,-3.24423 2.3763261,2.3763261 0 0 1 3.2438,-0.87523"
         sodipodi:open="true"
         sodipodi:end="5.2339981"
         sodipodi:start="5.2359878"
         sodipodi:ry="2.3763261"
         sodipodi:rx="2.3763261"
         sodipodi:cy="285.61151"
         sodipodi:cx="276.58368"
         sodipodi:type="arc"
         id="path7985"
         style="opacity:1;fill:#ffffff;fill-opacity:1;stroke:none;stroke-width:1.00157475;stroke-linecap:round;stroke-linejoin:round;stroke-miterlimit:4;stroke-dasharray:none;stroke-dashoffset:0;stroke-opacity:1" />
      <path
         d="m 316.61963,284.10427 a 1.7564149,1.8597335 0 0 1 0.64333,2.53964 1.7564149,1.8597335 0 0 1 -2.39823,0.68243 1.7564149,1.8597335 0 0 1 -0.64571,-2.53896 1.7564149,1.8597335 0 0 1 2.39758,-0.68496"
         sodipodi:open="true"
         sodipodi:end="5.2339981"
         sodipodi:start="5.2359878"
         sodipodi:ry="1.8597335"
         sodipodi:rx="1.7564149"
         sodipodi:cy="285.71484"
         sodipodi:cx="315.74142"
         sodipodi:type="arc"
         id="path7985-4"
         style="opacity:1;fill:#ffffff;fill-opacity:1;stroke:none;stroke-width:0.76175666;stroke-linecap:round;stroke-linejoin:round;stroke-miterlimit:4;stroke-dasharray:none;stroke-dashoffset:0;stroke-opacity:1" />
      <path
         sodipodi:nodetypes="cc"
         inkscape:connector-curvature="0"
         id="path8002"
         d="m 290.73833,287.57458 c -6.95429,-23.30489 -28.0017,-16.94323 -20.97366,5.57919"
         style="fill:none;stroke:#000000;stroke-width:1px;stroke-linecap:butt;stroke-linejoin:miter;stroke-opacity:1" />
      <path
         sodipodi:nodetypes="cc"
         inkscape:connector-curvature="0"
         id="path8004"
         d="m 311.81531,285.40488 c 5.17429,-16.91257 15.2139,-17.13914 14.36127,2.7896"
         style="fill:none;stroke:#000000;stroke-width:1px;stroke-linecap:butt;stroke-linejoin:miter;stroke-opacity:1" />
      <path
         sodipodi:nodetypes="cc"
         inkscape:connector-curvature="0"
         id="path8006"
         d="m 262.63569,281.5821 c 1.03261,2.06041 3.64641,1.59091 5.99248,1.54978"
         style="fill:none;stroke:#000000;stroke-width:1px;stroke-linecap:butt;stroke-linejoin:miter;stroke-opacity:1" />
      <path
         sodipodi:nodetypes="cc"
         inkscape:connector-curvature="0"
         id="path8008"
         d="m 265.63193,276.62281 c 0.36516,2.24941 2.23641,1.78786 3.9261,1.6531"
         style="fill:none;stroke:#000000;stroke-width:1px;stroke-linecap:butt;stroke-linejoin:miter;stroke-opacity:1" />
      <path
         sodipodi:nodetypes="cc"
         inkscape:connector-curvature="0"
         id="path8010"
         d="m 326.2799,282.30533 c 2.66164,-0.19964 4.32955,-1.10909 5.06261,-2.68628"
         style="fill:none;stroke:#000000;stroke-width:1px;stroke-linecap:butt;stroke-linejoin:miter;stroke-opacity:1" />
      <path
         sodipodi:nodetypes="cc"
         inkscape:connector-curvature="0"
         id="path8012"
         d="m 329.5861,274.65976 c -0.34844,2.30341 -2.15606,3.14763 -4.13275,3.82278"
         style="fill:none;stroke:#000000;stroke-width:1px;stroke-linecap:butt;stroke-linejoin:miter;stroke-opacity:1" />
      <path
         sodipodi:nodetypes="cc"
         inkscape:connector-curvature="0"
         id="path8014"
         d="m 296.00758,266.39427 c -5.35873,-7.27199 -12.01217,-9.96937 -21.49026,-2.68628"
         style="fill:none;stroke:#000000;stroke-width:1px;stroke-linecap:butt;stroke-linejoin:miter;stroke-opacity:1" />
      <path
         sodipodi:nodetypes="cc"
         inkscape:connector-curvature="0"
         id="path8016"
         d="m 317.39451,265.15445 c 6.96532,-7.62997 10.23861,-2.86525 13.43141,2.16969"
         style="fill:none;stroke:#000000;stroke-width:1px;stroke-linecap:butt;stroke-linejoin:miter;stroke-opacity:1" />
    </g>
    <g
       id="hair-front">
      <path
         sodipodi:nodetypes="ccccccccccccccccccc"
         inkscape:connector-curvature="0"
         id="path7943"
         d="m 216.02294,258.2713 c 11.73877,4.13426 16.54517,4.80234 19.08636,4.33781 l -6.28982,-8.02495 9.1094,1.30135 c -8.97629,-12.22778 -7.1062,-53.9513 31.44912,-48.58347 25.73381,0.43842 25.71716,5.96742 34.2687,13.88099 24.75387,-27.48246 61.20389,-14.14957 46.41457,28.84643 3.0143,1.40159 5.29795,1.3419 7.15739,0.43378 -0.21568,2.83452 -1.45291,5.26042 -4.55471,6.9405 3.87395,1.86178 6.0583,-1.34527 8.89252,-2.60269 0.77302,9.0093 -4.67869,15.86054 -17.78503,22.55662 -5.19823,-0.31061 -10.052,-1.65461 -14.09788,-5.42227 l 4.77159,-3.90403 -14.31477,-13.23032 -0.21689,7.80806 -14.31477,-12.36276 c -2.9591,4.92817 -5.65166,10.06364 -13.66411,11.06142 l 1.08446,-11.27831 c -40.73498,53.59401 -70.60388,28.76995 -76.99613,8.24184 z"
         style="opacity:1;fill:#d66529;fill-opacity:1;stroke:#000000;stroke-width:1px;stroke-linecap:butt;stroke-linejoin:miter;stroke-opacity:1" />
      <path
         sodipodi:nodetypes="cc"
         inkscape:connector-curvature="0"
         id="path7945"
         d="m 317.3108,243.95653 c -1.59099,4.69949 0.42564,7.85286 2.81958,10.84452"
         style="fill:none;stroke:#000000;stroke-width:1px;stroke-linecap:butt;stroke-linejoin:miter;stroke-opacity:1" />
      <path
         sodipodi:nodetypes="cc"
         inkscape:connector-curvature="0"
         id="path7949"
         d="m 305.59872,250.24635 c 2.6508,-9.49357 5.02066,-19.00366 -1.95202,-29.06332"
         style="fill:none;stroke:#000000;stroke-width:1px;stroke-linecap:butt;stroke-linejoin:miter;stroke-opacity:1" />
    </g>
    <path
       style="fill:none;stroke:#000000;stroke-width:1px;stroke-linecap:butt;stroke-linejoin:miter;stroke-opacity:1"
       d="m 308.79326,303.16028 2.77913,-2.00715"
       id="path8040"
       inkscape:connector-curvature="0" />
    <path
       style="fill:none;stroke:#000000;stroke-width:1px;stroke-linecap:butt;stroke-linejoin:miter;stroke-opacity:1"
       d="m 295.66954,308.87296 c 2.12465,5.15044 10.2682,1.27253 15.43966,1.85276"
       id="path8042"
       inkscape:connector-curvature="0"
       sodipodi:nodetypes="cc" />
    <path
       style="fill:none;stroke:#000000;stroke-width:1px;stroke-linecap:butt;stroke-linejoin:miter;stroke-opacity:1"
       d="m 301.9998,317.51917 c 4.60643,-1.19426 5.30666,-1.3758 4.16871,-1.08078"
       id="path8044"
       inkscape:connector-curvature="0"
       sodipodi:nodetypes="cc" />
  </g>
</svg>
