<?xml version="1.0" encoding="UTF-8" standalone="no"?>
<!-- Created with Inkscape (http://www.inkscape.org/) -->

<svg
   xmlns:dc="http://purl.org/dc/elements/1.1/"
   xmlns:cc="http://creativecommons.org/ns#"
   xmlns:rdf="http://www.w3.org/1999/02/22-rdf-syntax-ns#"
   xmlns:svg="http://www.w3.org/2000/svg"
   xmlns="http://www.w3.org/2000/svg"
   xmlns:sodipodi="http://sodipodi.sourceforge.net/DTD/sodipodi-0.dtd"
   xmlns:inkscape="http://www.inkscape.org/namespaces/inkscape"
   width="600"
   height="600"
   viewBox="0 0 600 600"
   version="1.1"
   id="svg6494"
   inkscape:version="0.92.4 (5da689c313, 2019-01-14)"
   sodipodi:docname="e.svg">
  <defs
     id="defs6488" />
  <sodipodi:namedview
     id="base"
     pagecolor="#ffffff"
     bordercolor="#666666"
     borderopacity="1.0"
     inkscape:pageopacity="0.0"
     inkscape:pageshadow="2"
     inkscape:zoom="1.5239589"
     inkscape:cx="284.03465"
     inkscape:cy="292.31693"
     inkscape:document-units="mm"
     inkscape:current-layer="layer1"
     showgrid="false"
     units="px"
     inkscape:window-width="1920"
     inkscape:window-height="1001"
     inkscape:window-x="2391"
     inkscape:window-y="-9"
     inkscape:window-maximized="1" />
  <metadata
     id="metadata6491">
    <rdf:RDF>
      <cc:Work
         rdf:about="">
        <dc:format>image/svg+xml</dc:format>
        <dc:type
           rdf:resource="http://purl.org/dc/dcmitype/StillImage" />
        <dc:title></dc:title>
      </cc:Work>
    </rdf:RDF>
  </metadata>
  <g
     inkscape:label="Layer 1"
     inkscape:groupmode="layer"
     id="layer1"
     transform="translate(0,-138.24996)">
    <g
       transform="translate(23.172313,-125.36292)"
       id="pink-egg-8"
       style="opacity:1">
      <path
         sodipodi:nodetypes="csssc"
         inkscape:connector-curvature="0"
         id="path7050-4-9"
         d="m 346.67873,393.09562 c 41.89946,35.95569 71.2291,112.29672 41.75994,174.59166 -29.46914,62.29494 -94.77456,83.69041 -145.88995,47.7967 -51.11538,-35.89371 -61.48059,-96.46501 -32.06229,-158.79566 29.41828,-62.33064 85.04765,-99.4244 136.1923,-63.5927"
         style="opacity:1;fill:#f9f9f9;fill-opacity:1;stroke:#000000;stroke-width:1.1031301;stroke-linecap:round;stroke-linejoin:round;stroke-miterlimit:4;stroke-dasharray:none;stroke-dashoffset:0;stroke-opacity:1" />
      <path
         id="path7050-3"
         transform="translate(0,138.24996)"
         d="m 356,263.91992 a 58.975746,58.975746 0 0 0 -24.5625,23.19531 58.975746,58.975746 0 0 0 21.68164,80.51563 58.975746,58.975746 0 0 0 48.04688,4.79883 C 400.21879,330.78908 381.26333,290.03165 356,263.91992 Z"
         style="opacity:1;fill:#abc837;fill-opacity:1;stroke:#000000;stroke-width:1.1031301;stroke-linecap:round;stroke-linejoin:round;stroke-miterlimit:4;stroke-dasharray:none;stroke-dashoffset:0;stroke-opacity:1"
         inkscape:connector-curvature="0" />
      <path
         id="path7053-3-2"
         transform="translate(0,138.24996)"
         d="m 258.20508,364.44922 a 47.280983,47.280983 0 0 0 -38.68164,23.64648 47.280983,47.280983 0 0 0 17.38281,64.54883 47.280983,47.280983 0 0 0 64.55859,-17.34961 47.280983,47.280983 0 0 0 -17.31836,-64.5664 l -0.082,-0.0469 a 47.280983,47.280983 0 0 0 -25.85937,-6.23242 z"
         style="opacity:1;fill:#abc837;fill-opacity:1;stroke:#000000;stroke-width:0.93119675;stroke-linecap:round;stroke-linejoin:round;stroke-miterlimit:4;stroke-dasharray:none;stroke-dashoffset:0;stroke-opacity:1"
         inkscape:connector-curvature="0" />
      <path
         inkscape:connector-curvature="0"
         id="path7053-3-3-6"
         d="m 262.46107,393.8691 c -20.69424,13.55328 -38.91077,36.23397 -51.96485,63.89258 -1.60021,3.39048 -3.07677,6.77597 -4.4414,10.15234 a 47.280983,47.280983 0 0 0 62.59961,-18.38867 47.280983,47.280983 0 0 0 -6.19336,-55.65625 z"
         style="opacity:1;fill:#abc837;fill-opacity:1;stroke:#000000;stroke-width:0.93119675;stroke-linecap:round;stroke-linejoin:round;stroke-miterlimit:4;stroke-dasharray:none;stroke-dashoffset:0;stroke-opacity:1" />
    </g>
    <g
       transform="rotate(9.520105,552.73745,1279.4826)"
       id="pink-egg-0"
       style="opacity:1">
      <path
         sodipodi:nodetypes="csssc"
         inkscape:connector-curvature="0"
         id="path7050-4-8"
         d="m 346.67873,393.09562 c 41.89946,35.95569 71.2291,112.29672 41.75994,174.59166 -29.46914,62.29494 -94.77456,83.69041 -145.88995,47.7967 -51.11538,-35.89371 -61.48059,-96.46501 -32.06229,-158.79566 29.41828,-62.33064 85.04765,-99.4244 136.1923,-63.5927"
         style="opacity:1;fill:#f9f9f9;fill-opacity:1;stroke:#000000;stroke-width:1.1031301;stroke-linecap:round;stroke-linejoin:round;stroke-miterlimit:4;stroke-dasharray:none;stroke-dashoffset:0;stroke-opacity:1" />
      <path
         id="path7050-9"
         transform="translate(0,138.24996)"
         d="m 356,263.91992 a 58.975746,58.975746 0 0 0 -24.5625,23.19531 58.975746,58.975746 0 0 0 21.68164,80.51563 58.975746,58.975746 0 0 0 48.04688,4.79883 C 400.21879,330.78908 381.26333,290.03165 356,263.91992 Z"
         style="opacity:1;fill:#ffcc00;fill-opacity:1;stroke:#000000;stroke-width:1.1031301;stroke-linecap:round;stroke-linejoin:round;stroke-miterlimit:4;stroke-dasharray:none;stroke-dashoffset:0;stroke-opacity:1"
         inkscape:connector-curvature="0" />
      <path
         id="path7053-3-7"
         transform="translate(0,138.24996)"
         d="m 258.20508,364.44922 a 47.280983,47.280983 0 0 0 -38.68164,23.64648 47.280983,47.280983 0 0 0 17.38281,64.54883 47.280983,47.280983 0 0 0 64.55859,-17.34961 47.280983,47.280983 0 0 0 -17.31836,-64.5664 l -0.082,-0.0469 a 47.280983,47.280983 0 0 0 -25.85937,-6.23242 z"
         style="opacity:1;fill:#ffcc00;fill-opacity:1;stroke:#000000;stroke-width:0.93119675;stroke-linecap:round;stroke-linejoin:round;stroke-miterlimit:4;stroke-dasharray:none;stroke-dashoffset:0;stroke-opacity:1"
         inkscape:connector-curvature="0" />
      <path
         inkscape:connector-curvature="0"
         id="path7053-3-3-4"
         d="m 262.46107,393.8691 c -20.69424,13.55328 -38.91077,36.23397 -51.96485,63.89258 -1.60021,3.39048 -3.07677,6.77597 -4.4414,10.15234 a 47.280983,47.280983 0 0 0 62.59961,-18.38867 47.280983,47.280983 0 0 0 -6.19336,-55.65625 z"
         style="opacity:1;fill:#ffcc00;fill-opacity:1;stroke:#000000;stroke-width:0.93119675;stroke-linecap:round;stroke-linejoin:round;stroke-miterlimit:4;stroke-dasharray:none;stroke-dashoffset:0;stroke-opacity:1" />
    </g>
    <g
       transform="rotate(-33.695002,205.01066,686.90759)"
       id="pink-egg-2"
       style="opacity:1">
      <path
         sodipodi:nodetypes="csssc"
         inkscape:connector-curvature="0"
         id="path7050-4-5"
         d="m 346.67873,393.09562 c 41.89946,35.95569 71.2291,112.29672 41.75994,174.59166 -29.46914,62.29494 -94.77456,83.69041 -145.88995,47.7967 -51.11538,-35.89371 -61.48059,-96.46501 -32.06229,-158.79566 29.41828,-62.33064 85.04765,-99.4244 136.1923,-63.5927"
         style="opacity:1;fill:#f9f9f9;fill-opacity:1;stroke:#000000;stroke-width:1.1031301;stroke-linecap:round;stroke-linejoin:round;stroke-miterlimit:4;stroke-dasharray:none;stroke-dashoffset:0;stroke-opacity:1" />
      <path
         id="path7050-0"
         transform="translate(0,138.24996)"
         d="m 356,263.91992 a 58.975746,58.975746 0 0 0 -24.5625,23.19531 58.975746,58.975746 0 0 0 21.68164,80.51563 58.975746,58.975746 0 0 0 48.04688,4.79883 C 400.21879,330.78908 381.26333,290.03165 356,263.91992 Z"
         style="opacity:1;fill:#ab37c8;fill-opacity:1;stroke:#000000;stroke-width:1.1031301;stroke-linecap:round;stroke-linejoin:round;stroke-miterlimit:4;stroke-dasharray:none;stroke-dashoffset:0;stroke-opacity:1"
         inkscape:connector-curvature="0" />
      <path
         id="path7053-3-35"
         transform="translate(0,138.24996)"
         d="m 258.20508,364.44922 a 47.280983,47.280983 0 0 0 -38.68164,23.64648 47.280983,47.280983 0 0 0 17.38281,64.54883 47.280983,47.280983 0 0 0 64.55859,-17.34961 47.280983,47.280983 0 0 0 -17.31836,-64.5664 l -0.082,-0.0469 a 47.280983,47.280983 0 0 0 -25.85937,-6.23242 z"
         style="opacity:1;fill:#ab37c8;fill-opacity:1;stroke:#000000;stroke-width:0.93119675;stroke-linecap:round;stroke-linejoin:round;stroke-miterlimit:4;stroke-dasharray:none;stroke-dashoffset:0;stroke-opacity:1"
         inkscape:connector-curvature="0" />
      <path
         inkscape:connector-curvature="0"
         id="path7053-3-3-2"
         d="m 262.46107,393.8691 c -20.69424,13.55328 -38.91077,36.23397 -51.96485,63.89258 -1.60021,3.39048 -3.07677,6.77597 -4.4414,10.15234 a 47.280983,47.280983 0 0 0 62.59961,-18.38867 47.280983,47.280983 0 0 0 -6.19336,-55.65625 z"
         style="opacity:1;fill:#ab37c8;fill-opacity:1;stroke:#000000;stroke-width:0.93119675;stroke-linecap:round;stroke-linejoin:round;stroke-miterlimit:4;stroke-dasharray:none;stroke-dashoffset:0;stroke-opacity:1" />
    </g>
    <g
       id="pink-egg">
      <path
         sodipodi:nodetypes="csssc"
         inkscape:connector-curvature="0"
         id="path7050-4"
         d="m 346.67873,393.09562 c 41.89946,35.95569 71.2291,112.29672 41.75994,174.59166 -29.46914,62.29494 -94.77456,83.69041 -145.88995,47.7967 -51.11538,-35.89371 -61.48059,-96.46501 -32.06229,-158.79566 29.41828,-62.33064 85.04765,-99.4244 136.1923,-63.5927"
         style="opacity:1;fill:#f9f9f9;fill-opacity:1;stroke:#000000;stroke-width:1.1031301;stroke-linecap:round;stroke-linejoin:round;stroke-miterlimit:4;stroke-dasharray:none;stroke-dashoffset:0;stroke-opacity:1" />
      <path
         id="path7050"
         transform="translate(0,138.24996)"
         d="m 356,263.91992 a 58.975746,58.975746 0 0 0 -24.5625,23.19531 58.975746,58.975746 0 0 0 21.68164,80.51563 58.975746,58.975746 0 0 0 48.04688,4.79883 C 400.21879,330.78908 381.26333,290.03165 356,263.91992 Z"
         style="opacity:1;fill:#ff55dd;fill-opacity:1;stroke:#000000;stroke-width:1.1031301;stroke-linecap:round;stroke-linejoin:round;stroke-miterlimit:4;stroke-dasharray:none;stroke-dashoffset:0;stroke-opacity:1"
         inkscape:connector-curvature="0" />
      <path
         id="path7053-3"
         transform="translate(0,138.24996)"
         d="m 258.20508,364.44922 a 47.280983,47.280983 0 0 0 -38.68164,23.64648 47.280983,47.280983 0 0 0 17.38281,64.54883 47.280983,47.280983 0 0 0 64.55859,-17.34961 47.280983,47.280983 0 0 0 -17.31836,-64.5664 l -0.082,-0.0469 a 47.280983,47.280983 0 0 0 -25.85937,-6.23242 z"
         style="opacity:1;fill:#ff55dd;fill-opacity:1;stroke:#000000;stroke-width:0.93119675;stroke-linecap:round;stroke-linejoin:round;stroke-miterlimit:4;stroke-dasharray:none;stroke-dashoffset:0;stroke-opacity:1"
         inkscape:connector-curvature="0" />
      <path
         inkscape:connector-curvature="0"
         id="path7053-3-3"
         d="m 262.46107,393.8691 c -20.69424,13.55328 -38.91077,36.23397 -51.96485,63.89258 -1.60021,3.39048 -3.07677,6.77597 -4.4414,10.15234 a 47.280983,47.280983 0 0 0 62.59961,-18.38867 47.280983,47.280983 0 0 0 -6.19336,-55.65625 z"
         style="opacity:1;fill:#ff55dd;fill-opacity:1;stroke:#000000;stroke-width:0.93119675;stroke-linecap:round;stroke-linejoin:round;stroke-miterlimit:4;stroke-dasharray:none;stroke-dashoffset:0;stroke-opacity:1" />
    </g>
  </g>
</svg>
