<?xml version="1.0" encoding="UTF-8" standalone="no"?>
<!-- Created with Inkscape (http://www.inkscape.org/) -->

<svg
   xmlns:dc="http://purl.org/dc/elements/1.1/"
   xmlns:cc="http://creativecommons.org/ns#"
   xmlns:rdf="http://www.w3.org/1999/02/22-rdf-syntax-ns#"
   xmlns:svg="http://www.w3.org/2000/svg"
   xmlns="http://www.w3.org/2000/svg"
   xmlns:sodipodi="http://sodipodi.sourceforge.net/DTD/sodipodi-0.dtd"
   xmlns:inkscape="http://www.inkscape.org/namespaces/inkscape"
   width="600"
   height="600"
   viewBox="0 0 600 600"
   version="1.1"
   id="svg897"
   inkscape:version="0.92.4 (5da689c313, 2019-01-14)"
   sodipodi:docname="m.svg">
  <defs
     id="defs891" />
  <sodipodi:namedview
     id="base"
     pagecolor="#ffffff"
     bordercolor="#666666"
     borderopacity="1.0"
     inkscape:pageopacity="0.0"
     inkscape:pageshadow="2"
     inkscape:zoom="1.765"
     inkscape:cx="300"
     inkscape:cy="300"
     inkscape:document-units="mm"
     inkscape:current-layer="layer1"
     showgrid="false"
     units="px"
     inkscape:window-width="1917"
     inkscape:window-height="1252"
     inkscape:window-x="470"
     inkscape:window-y="3"
     inkscape:window-maximized="0" />
  <metadata
     id="metadata894">
    <rdf:RDF>
      <cc:Work
         rdf:about="">
        <dc:format>image/svg+xml</dc:format>
        <dc:type
           rdf:resource="http://purl.org/dc/dcmitype/StillImage" />
        <dc:title></dc:title>
      </cc:Work>
    </rdf:RDF>
  </metadata>
  <g
     inkscape:label="Layer 1"
     inkscape:groupmode="layer"
     id="layer1"
     transform="translate(0,-138.24998)">
    <g
       id="mario">
      <path
         sodipodi:nodetypes="cccccccccc"
         inkscape:connector-curvature="0"
         id="path1465"
         d="m 386.20088,293.25181 c -15.91827,16.08587 -26.30807,34.1821 -29.82164,54.77877 0.50269,8.36043 0.63185,17.18777 5.49902,20.0926 l 39.5507,23.47661 135.36066,-50.33725 c -7.2536,-15.69984 -15.82732,-31.10632 -28.12964,-45.68422 -8.89262,-9.65985 -17.60329,-17.95513 -25.38012,-19.24659 -2.78337,1.54542 -5.03669,0.97068 -6.13353,-4.23002 -32.11374,-9.35794 -59.9956,-6.55879 -85.23492,15.65107 0.73689,3.15321 -1.96604,4.58651 -5.71053,5.49903 z"
         style="opacity:1;fill:#008000;stroke:#000000;stroke-width:1px;stroke-linecap:butt;stroke-linejoin:miter;stroke-opacity:1" />
      <path
         inkscape:connector-curvature="0"
         id="path1453"
         d="m 325.6981,371.21909 14.19128,0.59355 1.56482,11.43936 -23.47228,-1.07918 z"
         style="opacity:1;fill:#ff0000;fill-opacity:1;stroke:#000000;stroke-width:1px;stroke-linecap:butt;stroke-linejoin:miter;stroke-opacity:1" />
      <path
         sodipodi:nodetypes="cccccc"
         inkscape:connector-curvature="0"
         id="path1457"
         d="m 505.73317,427.44127 c -1.75978,7.34317 -4.3632,13.44196 -14.27222,8.765 3.24863,12.89368 -5.09459,14.37662 -14.89276,14.42736 -4.30313,8.51676 -11.12262,9.04036 -18.92621,6.43801 -4.91957,4.1593 -10.41623,5.64959 -16.98705,2.17186 15.0123,-20.36447 42.91591,-21.88779 65.07824,-31.80223 z"
         style="opacity:1;fill:#ffffff;stroke:#000000;stroke-width:1px;stroke-linecap:butt;stroke-linejoin:miter;stroke-opacity:1" />
      <path
         sodipodi:nodetypes="cc"
         inkscape:connector-curvature="0"
         id="path1459"
         d="m 457.56441,447.53097 c 2.23549,3.18022 2.3919,6.36045 0.0776,9.54067"
         style="fill:none;stroke:#000000;stroke-width:1px;stroke-linecap:butt;stroke-linejoin:miter;stroke-opacity:1" />
      <path
         sodipodi:nodetypes="cc"
         inkscape:connector-curvature="0"
         id="path1461"
         d="m 473.62067,444.35075 c 1.9169,1.86069 2.67911,4.01006 2.94752,6.28288"
         style="fill:none;stroke:#000000;stroke-width:1px;stroke-linecap:butt;stroke-linejoin:miter;stroke-opacity:1" />
      <path
         inkscape:connector-curvature="0"
         id="path1471"
         d="m 466.14827,330.47599 33.20566,15.65108"
         style="fill:none;stroke:#000000;stroke-width:1px;stroke-linecap:butt;stroke-linejoin:miter;stroke-opacity:1" />
      <path
         inkscape:connector-curvature="0"
         id="path1469"
         d="m 407.35099,298.32784 47.58773,-10.15205 11.20955,42.3002 -6.55653,31.72516"
         style="fill:none;stroke:#000000;stroke-width:1px;stroke-linecap:butt;stroke-linejoin:miter;stroke-opacity:1" />
      <path
         inkscape:connector-curvature="0"
         id="path1475"
         d="m 407.35099,298.32784 -14.38207,49.27974 16.07407,32.35965"
         style="fill:none;stroke:#000000;stroke-width:1px;stroke-linecap:butt;stroke-linejoin:miter;stroke-opacity:1" />
      <path
         sodipodi:nodetypes="ccccccccccc"
         inkscape:connector-curvature="0"
         id="path1463"
         d="m 358.70575,339.57054 c -14.76677,4.11067 -18.10479,14.68106 -20.0926,26.01462 -0.12029,18.41543 6.09531,23.74208 11.84406,30.03315 21.60623,4.37059 39.1192,16.41606 64.93081,12.90156 48.65377,-1.787 81.71745,-14.15307 121.1901,-22.84211 9.47553,-5.85455 19.11337,-11.53723 19.24659,-27.28363 -1.85963,-13.07006 -9.21264,-21.89524 -23.47661,-25.38013 -21.08897,-1.79107 -43.38868,10.94668 -65.56532,22.20761 -19.94673,9.85195 -41.81839,17.56511 -66.83433,21.78461 -12.24751,0.16263 -22.99686,-3.42015 -32.99416,-8.88304 z"
         style="opacity:1;fill:#ffffff;stroke:#000000;stroke-width:1px;stroke-linecap:butt;stroke-linejoin:miter;stroke-opacity:1" />
      <path
         sodipodi:nodetypes="cc"
         inkscape:connector-curvature="0"
         id="path1467"
         d="m 407.35099,298.32784 -16.20663,-7.4635"
         style="fill:none;stroke:#000000;stroke-width:1px;stroke-linecap:butt;stroke-linejoin:miter;stroke-opacity:1" />
      <path
         sodipodi:nodetypes="cc"
         inkscape:connector-curvature="0"
         id="path1473"
         d="m 454.93872,288.17579 23.98091,-12.0383"
         style="fill:none;stroke:#000000;stroke-width:1px;stroke-linecap:butt;stroke-linejoin:miter;stroke-opacity:1" />
      <path
         sodipodi:nodetypes="cccccccc"
         inkscape:connector-curvature="0"
         id="path1477"
         d="m 420.48718,407.15114 c 24.79983,-3.7583 45.56815,-13.56387 66.69316,-22.8344 14.34614,-6.40603 29.13369,-14.28345 42.74489,-18.23968 9.07427,6.19868 6.02302,23.84344 5.15166,26.17602 -2.50707,9.54089 -6.37539,18.58027 -19.07508,24.36598 -5.70989,9.73802 -13.55156,14.27284 -24.54086,19.58721 -13.60356,8.68491 -25.39174,10.40594 -36.8614,10.90507 z"
         style="opacity:1;fill:#d0b480;fill-opacity:1;stroke:#000000;stroke-width:1px;stroke-linecap:butt;stroke-linejoin:miter;stroke-opacity:1" />
      <path
         sodipodi:nodetypes="cc"
         inkscape:connector-curvature="0"
         id="path1479"
         d="m 459.64044,412.29348 c 3.91743,16.36177 16.22947,24.65421 31.82051,23.91279"
         style="fill:none;stroke:#000000;stroke-width:1px;stroke-linecap:butt;stroke-linejoin:miter;stroke-opacity:1" />
      <path
         sodipodi:nodetypes="cc"
         inkscape:connector-curvature="0"
         id="path1481"
         d="m 485.21565,385.49555 c 4.94766,30.06901 16.6483,35.11228 30.78616,31.12351"
         style="fill:none;stroke:#000000;stroke-width:1px;stroke-linecap:butt;stroke-linejoin:miter;stroke-opacity:1" />
      <path
         sodipodi:nodetypes="ccc"
         inkscape:connector-curvature="0"
         id="path1483"
         d="m 438.03907,403.22498 c 8.78098,19.67106 41.18061,13.91706 37.08915,-13.24612 -12.20606,4.83402 -24.12465,10.43462 -37.08915,13.24612 z"
         style="opacity:1;fill:#000000;stroke:#000000;stroke-width:1px;stroke-linecap:butt;stroke-linejoin:miter;stroke-opacity:1" />
      <path
         sodipodi:nodetypes="ccccc"
         inkscape:connector-curvature="0"
         id="path1550"
         d="m 42.010877,621.68055 7.169091,2.86764 24.374912,-50.47041 c -6.141392,1.19303 -12.14322,0.43217 -18.639638,6.59557 -11.061053,16.76722 -10.388969,28.15674 -12.904365,41.0072 z"
         style="fill:#ca906e;fill-opacity:1;stroke:#000000;stroke-width:1px;stroke-linecap:butt;stroke-linejoin:miter;stroke-opacity:1" />
      <path
         sodipodi:nodetypes="cccc"
         inkscape:connector-curvature="0"
         id="path1552"
         d="m 46.742477,628.70626 c -4.85277,1.65643 -9.286931,8.85944 -12.617601,30.68371 -0.966546,22.99315 5.03048,25.86932 10.753637,29.53666 z"
         style="fill:#ca906e;fill-opacity:1;stroke:#000000;stroke-width:1px;stroke-linecap:butt;stroke-linejoin:miter;stroke-opacity:1" />
      <path
         sodipodi:nodetypes="cccccccc"
         inkscape:connector-curvature="0"
         id="path1548"
         d="m 57.352733,584.40127 c 11.767952,-11.97484 24.177866,-18.04363 37.852803,-12.47421 l 24.661674,84.16513 c 0.99136,14.72597 -2.87323,22.168 -5.44851,31.544 -8.16365,15.43633 -21.034572,19.10449 -35.271929,19.35655 -13.622487,1.17709 -24.849755,-5.48471 -34.268258,-18.06611 -9.919682,-18.84584 -5.548196,-41.91408 1.147055,-65.66888 3.350766,-13.28268 4.869406,-27.99035 11.327165,-38.85648 z"
         style="opacity:1;fill:#aa5431;fill-opacity:1;stroke:#000000;stroke-width:1px;stroke-linecap:butt;stroke-linejoin:miter;stroke-opacity:1" />
      <path
         sodipodi:nodetypes="ccccccccccccccccccccc"
         inkscape:connector-curvature="0"
         id="path1520"
         d="m 186.7135,439.18367 c -6.47348,1.12487 -4.37906,11.73563 -4.87079,19.48315 -10.2002,9.70966 -16.53779,20.96436 -24.67865,31.49775 -8.2419,14.34746 -8.60575,26.56572 -8.4427,38.64158 -14.20056,16.144 -28.77063,36.35253 -41.88877,40.58989 -5.91239,0.2768 -10.268266,0.97811 -13.638202,1.94831 -20.847388,5.08757 -22.191666,21.67698 -25.65281,37.01798 -1.750479,30.46398 6.621893,48.71074 25.003372,54.87753 10.77607,3.89801 20.94425,3.69281 29.87416,-4.87078 31.52097,-21.01504 62.33286,-42.94176 91.57079,-66.89214 17.88709,-1.66203 35.97276,-2.43046 52.6045,-9.74158 l 50.33146,9.09214 c 14.46509,29.30991 20.40954,25.92207 25.00338,38.96629 0.87497,9.58402 3.98265,11.64011 9.08453,13.74573 l 48.81539,-95.53911 c -1.68122,-2.62667 -2.9295,-3.27426 -9.19206,-3.28303 -5.80284,-1.67917 -14.05437,-11.28049 -17.18186,-18.30699 -11.20799,-12.0751 -26.12016,-15.18218 -43.54061,-12.2166 2.50236,-10.96652 5.50618,-21.58201 4.87079,-34.74495 0.28258,-21.00684 -11.47089,-33.64078 -17.85956,-50.00675 z"
         style="opacity:1;fill:#3b54f7;fill-opacity:1;stroke:#000000;stroke-width:1px;stroke-linecap:butt;stroke-linejoin:miter;stroke-opacity:1" />
      <path
         inkscape:connector-curvature="0"
         id="path1528"
         d="m 324.01084,450.41844 0.45796,25.41711 8.70136,8.70135 4.12169,-5.49559 -4.57966,-27.70694 z"
         style="opacity:1;fill:#3b54f7;fill-opacity:1;stroke:#000000;stroke-width:1px;stroke-linecap:butt;stroke-linejoin:miter;stroke-opacity:1" />
      <path
         d="m 335.03666,451.10431 a 5.3775721,13.013214 0 0 1 1.96966,17.77078 5.3775721,13.013214 0 0 1 -7.3426,4.77524 5.3775721,13.013214 0 0 1 -1.97697,-17.76603 5.3775721,13.013214 0 0 1 7.34063,-4.79291"
         sodipodi:open="true"
         sodipodi:end="5.2339981"
         sodipodi:start="5.2359878"
         sodipodi:ry="13.013214"
         sodipodi:rx="5.3775721"
         sodipodi:cy="462.37408"
         sodipodi:cx="332.34787"
         sodipodi:type="arc"
         id="path1532"
         style="opacity:1;fill:#ffff00;fill-opacity:1;stroke:#000000;stroke-width:0.97487956;stroke-linecap:round;stroke-linejoin:round;stroke-miterlimit:4;stroke-dasharray:none;stroke-dashoffset:0;stroke-opacity:1" />
      <path
         inkscape:connector-curvature="0"
         id="path1526"
         d="m 242.49292,447.44167 -4.80864,23.12727 23.12727,13.50999 16.25779,-8.24338 -0.68695,-31.14168 z"
         style="opacity:1;fill:#3b54f7;fill-opacity:1;stroke:#000000;stroke-width:1px;stroke-linecap:butt;stroke-linejoin:miter;stroke-opacity:1" />
      <path
         d="m 266.1,447.90183 a 14.227213,14.227213 0 0 1 5.21105,19.42861 14.227213,14.227213 0 0 1 -19.42601,5.22072 14.227213,14.227213 0 0 1 -5.23038,-19.42341 14.227213,14.227213 0 0 1 19.42081,-5.24005"
         sodipodi:open="true"
         sodipodi:end="5.2339981"
         sodipodi:start="5.2359878"
         sodipodi:ry="14.227213"
         sodipodi:rx="14.227213"
         sodipodi:cy="460.22296"
         sodipodi:cx="258.98639"
         sodipodi:type="arc"
         id="path1530"
         style="opacity:1;fill:#ffff00;fill-opacity:1;stroke:#000000;stroke-width:0.95244092;stroke-linecap:round;stroke-linejoin:round;stroke-miterlimit:4;stroke-dasharray:none;stroke-dashoffset:0;stroke-opacity:1" />
      <path
         sodipodi:nodetypes="ccccccc"
         inkscape:connector-curvature="0"
         id="path1554"
         d="m 178.96601,378.78013 c -1.90797,5.53754 -2.73973,10.73523 -1.40969,15.25024 2.10405,4.38695 7.22979,6.35655 15.31431,5.95912 l 6.27951,7.88143 31.07716,-12.49495 -29.73155,-26.0151 z"
         style="opacity:1;fill:#552200;fill-opacity:1;stroke:#000000;stroke-width:1px;stroke-linecap:butt;stroke-linejoin:miter;stroke-opacity:1" />
      <path
         sodipodi:nodetypes="cccccccccc"
         inkscape:connector-curvature="0"
         id="path1534"
         d="m 316.36315,391.02214 -51.7874,0.44516 -41.40025,2.07743 c -15.67431,1.97423 -24.60642,8.53316 -30.41953,17.21301 -6.32604,12.48802 -7.35183,23.65098 -7.4194,34.57439 2.42933,13.77209 7.42196,19.3416 13.80008,20.47754 10.66227,3.36054 22.29165,-1.98281 34.12923,-9.20005 l 10.38716,-4.45164 75.38109,-2.81937 z"
         style="opacity:1;fill:#ff0000;fill-opacity:1;stroke:#000000;stroke-width:1px;stroke-linecap:butt;stroke-linejoin:miter;stroke-opacity:1" />
      <path
         sodipodi:nodetypes="ccccsccccccc"
         inkscape:connector-curvature="0"
         id="path1556"
         d="m 199.34189,375.84899 c -7.46282,4.8515 -14.66249,7.59788 -21.55624,7.89684 -16.44916,-5.60798 -31.21299,-12.58027 -35.85593,-27.74566 -4.68227,-17.06504 -0.86686,-28.18172 11.52512,-33.29479 29.69596,-20.38341 79.04995,-77.53519 113.2025,-93.51201 17.25194,-8.07058 33.69235,5.10612 35.98377,16.46445 4.50327,20.78704 8.17343,29.91042 12.16541,43.53934 l 19.84882,48.23476 c 5.35842,12.23394 -4.0421,27.75391 -12.59226,43.32591 l -5.97599,16.86083 -80.88927,-0.21343 c -13.06607,-1.61492 -25.06621,-8.55953 -35.85593,-21.55624 z"
         style="opacity:1;fill:#ffc09c;fill-opacity:1;stroke:#000000;stroke-width:1px;stroke-linecap:butt;stroke-linejoin:miter;stroke-opacity:1" />
      <path
         sodipodi:nodetypes="ccccc"
         inkscape:connector-curvature="0"
         id="path1485"
         d="m 313.7731,388.59397 c 6.94933,-9.95973 15.10036,-10.0054 23.47228,-8.22879 l 4.18184,72.44031 c -5.72588,4.61242 -11.78282,7.43708 -19.29043,2.42817 -7.93403,-4.41007 -26.7976,-28.88198 -8.36369,-66.63969 z"
         style="opacity:1;fill:#ffffff;stroke:#000000;stroke-width:1px;stroke-linecap:butt;stroke-linejoin:miter;stroke-opacity:1" />
      <path
         sodipodi:nodetypes="cccccccccccccccc"
         inkscape:connector-curvature="0"
         id="path1487"
         d="m 376.09605,345.56146 c 22.00618,-5.05049 19.79157,6.04636 17.40186,16.86227 -5.8796,10.25852 -16.35985,12.80056 -15.37839,26.70983 4.52727,15.14906 15.88227,19.28566 30.21719,18.61595 l 25.63064,-0.80939 c 10.99531,0.32856 12.36911,7.41819 11.73614,15.91798 8.44018,2.58012 12.33109,7.8898 8.09389,18.07635 1.46936,3.37768 5.29343,8.49326 -3.64225,13.48982 -6.42967,4.04647 -9.21982,4.45342 -13.35491,6.20531 -5.9141,6.19029 -10.83737,5.44476 -16.18778,7.6892 -10.85219,1.87756 -22.46803,1.71872 -34.26413,1.07918 -11.82667,-2.65598 -23.70184,-5.55447 -36.15271,-11.33144 -9.73195,-3.57039 -16.80488,-11.97538 -23.06758,-21.8535 -5.03445,-14.07437 -7.17369,-28.14875 0.40469,-42.22312 6.55546,-8.6842 12.3658,-17.81547 20.36962,-25.63065 8.31759,-11.56041 17.97875,-18.19442 28.19372,-22.79779 z"
         style="opacity:1;fill:#ffffff;stroke:#000000;stroke-width:1px;stroke-linecap:butt;stroke-linejoin:miter;stroke-opacity:1" />
      <path
         sodipodi:nodetypes="cc"
         inkscape:connector-curvature="0"
         id="path1489"
         d="m 396.98451,464.74265 c 13.2719,0.65939 26.54381,3.07793 39.81571,-4.11307"
         style="fill:none;stroke:#000000;stroke-width:1px;stroke-linecap:butt;stroke-linejoin:miter;stroke-opacity:1" />
      <path
         sodipodi:nodetypes="ccc"
         inkscape:connector-curvature="0"
         id="path1491"
         d="m 391.50722,452.35921 21.31381,1.54793 c 15.55935,-2.78568 31.84651,-4.98217 40.97635,-12.97269"
         style="fill:none;stroke:#000000;stroke-width:1px;stroke-linecap:butt;stroke-linejoin:miter;stroke-opacity:1" />
      <path
         sodipodi:nodetypes="ccc"
         inkscape:connector-curvature="0"
         id="path1493"
         d="m 385.79179,435.92734 25.95759,0.95257 c 17.26844,-0.707 29.06528,-5.06173 33.95411,-14.02181"
         style="fill:none;stroke:#000000;stroke-width:1px;stroke-linecap:butt;stroke-linejoin:miter;stroke-opacity:1" />
      <path
         transform="rotate(14.407099)"
         d="m 457.12431,330.14868 a 5.8345056,2.6195738 0 0 1 2.13703,3.57728 5.8345056,2.6195738 0 0 1 -7.9665,0.96126 5.8345056,2.6195738 0 0 1 -2.14496,-3.57632 5.8345056,2.6195738 0 0 1 7.96438,-0.96482"
         sodipodi:open="true"
         sodipodi:end="5.2339981"
         sodipodi:start="5.2359878"
         sodipodi:ry="2.6195738"
         sodipodi:rx="5.8345056"
         sodipodi:cy="332.4173"
         sodipodi:cx="454.20706"
         sodipodi:type="arc"
         id="path1495"
         style="opacity:1;fill:#ffffff;fill-opacity:1;stroke:#000000;stroke-width:0.95244092;stroke-linecap:round;stroke-linejoin:round;stroke-miterlimit:4;stroke-dasharray:none;stroke-dashoffset:0;stroke-opacity:1" />
      <path
         transform="rotate(14.407099)"
         d="m 464.75191,344.04822 a 5.8345056,2.6195738 0 0 1 2.13703,3.57727 5.8345056,2.6195738 0 0 1 -7.96651,0.96126 5.8345056,2.6195738 0 0 1 -2.14495,-3.57632 5.8345056,2.6195738 0 0 1 7.96437,-0.96482"
         sodipodi:open="true"
         sodipodi:end="5.2339981"
         sodipodi:start="5.2359878"
         sodipodi:ry="2.6195738"
         sodipodi:rx="5.8345056"
         sodipodi:cy="346.31683"
         sodipodi:cx="461.83466"
         sodipodi:type="arc"
         id="path1495-4"
         style="opacity:1;fill:#ffffff;fill-opacity:1;stroke:#000000;stroke-width:0.95244092;stroke-linecap:round;stroke-linejoin:round;stroke-miterlimit:4;stroke-dasharray:none;stroke-dashoffset:0;stroke-opacity:1" />
      <path
         transform="matrix(0.97506893,0.2219022,-0.27850363,0.96043518,0,0)"
         d="m 483.63198,367.6615 a 5.3918805,2.1772878 0 0 1 1.9749,2.97329 5.3918805,2.1772878 0 0 1 -7.36214,0.79897 5.3918805,2.1772878 0 0 1 -1.98223,-2.9725 5.3918805,2.1772878 0 0 1 7.36017,-0.80192"
         sodipodi:open="true"
         sodipodi:end="5.2339981"
         sodipodi:start="5.2359878"
         sodipodi:ry="2.1772878"
         sodipodi:rx="5.3918805"
         sodipodi:cy="369.54709"
         sodipodi:cx="480.93604"
         sodipodi:type="arc"
         id="path1495-2"
         style="opacity:1;fill:#ffffff;fill-opacity:1;stroke:#000000;stroke-width:0.83473521;stroke-linecap:round;stroke-linejoin:round;stroke-miterlimit:4;stroke-dasharray:none;stroke-dashoffset:0;stroke-opacity:1" />
      <path
         sodipodi:nodetypes="ccccc"
         inkscape:connector-curvature="0"
         id="path1518"
         d="m 500.88358,377.90426 c 0.72503,8.80161 1.30936,17.72632 8.32033,21.02773 6.98281,2.44033 11.72417,-0.27466 14.67403,-7.1101 1.94776,-8.80792 0.21975,-16.10229 -4.68964,-22.08668 z"
         style="fill:#000000;stroke:#000000;stroke-width:1px;stroke-linecap:butt;stroke-linejoin:miter;stroke-opacity:1" />
      <path
         sodipodi:nodetypes="cc"
         inkscape:connector-curvature="0"
         id="path1522"
         d="m 329.91463,514.19379 c -41.2869,62.87417 -45.91866,52.43807 -63.32023,67.54157"
         style="fill:none;stroke:#000000;stroke-width:1px;stroke-linecap:butt;stroke-linejoin:miter;stroke-opacity:1" />
      <path
         sodipodi:nodetypes="cccccccc"
         inkscape:connector-curvature="0"
         id="path1536"
         d="m 423.94442,531.99071 c 17.89399,-2.25759 31.64512,5.42767 43.62606,17.36139 5.79551,7.86456 9.74657,15.72912 8.45812,23.59368 l -99.41994,94.67153 c -10.01588,-2.11197 -19.36492,-5.98197 -25.07757,-19.43883 -2.99359,-9.90117 0.0948,-23.29949 12.90976,-42.29057 l 24.33562,-43.92283 c 8.94629,-12.6471 17.39024,-25.77471 35.16795,-29.97437 z"
         style="opacity:1;fill:#aa5431;fill-opacity:1;stroke:#000000;stroke-width:1px;stroke-linecap:butt;stroke-linejoin:miter;stroke-opacity:1" />
      <path
         sodipodi:nodetypes="cccccccccc"
         inkscape:connector-curvature="0"
         id="path1538"
         d="m 397.97653,628.44288 c 13.63028,-17.45725 25.11875,-39.55509 40.95508,-52.23256 9.02504,-6.80346 18.56,-12.14093 30.71631,-9.94199 8.98841,5.76021 11.63625,12.78853 8.75489,20.9227 -15.13986,33.50184 -29.39233,38.1637 -43.77445,47.03899 l 3.56131,6.23229 -32.64536,27.30339 c -11.41189,6.13884 -20.08904,6.31097 -27.15499,2.96775 -7.01326,-6.99825 -5.73924,-15.60791 1.48388,-25.37434 z"
         style="fill:#ca906e;fill-opacity:1;stroke:#000000;stroke-width:1px;stroke-linecap:butt;stroke-linejoin:miter;stroke-opacity:1" />
      <path
         inkscape:connector-curvature="0"
         id="path1540"
         d="m 397.97653,628.44288 3.85808,6.38069 36.35506,5.63874"
         style="fill:none;stroke:#000000;stroke-width:1px;stroke-linecap:butt;stroke-linejoin:miter;stroke-opacity:1" />
      <path
         inkscape:connector-curvature="0"
         id="path1542"
         d="m 434.62836,634.23002 -36.65183,-5.78714"
         style="fill:none;stroke:#000000;stroke-width:1px;stroke-linecap:butt;stroke-linejoin:miter;stroke-opacity:1" />
      <path
         sodipodi:nodetypes="cc"
         inkscape:connector-curvature="0"
         id="path1544"
         d="m 401.83461,634.82357 c -11.0098,10.22739 -24.84654,18.91282 -23.44529,35.90988"
         style="fill:none;stroke:#000000;stroke-width:1px;stroke-linecap:butt;stroke-linejoin:miter;stroke-opacity:1" />
      <path
         sodipodi:nodetypes="ccc"
         inkscape:connector-curvature="0"
         id="path1546"
         d="m 476.0286,572.94578 c -9.49763,-10.7302 -35.56376,10.3876 -40.80669,17.06462 -24.39453,33.71607 -32.86372,39.64085 -37.24538,38.43248"
         style="fill:none;stroke:#000000;stroke-width:1px;stroke-linecap:butt;stroke-linejoin:miter;stroke-opacity:1" />
      <path
         sodipodi:nodetypes="ccc"
         inkscape:connector-curvature="0"
         id="path1558"
         d="m 229.43526,279.80632 c -12.93858,-29.01916 19.34663,-43.89341 39.05735,-15.1534 -16.0381,-4.23806 -30.36787,-3.21968 -39.05735,15.1534 z"
         style="opacity:1;fill:#000000;stroke:#000000;stroke-width:1px;stroke-linecap:butt;stroke-linejoin:miter;stroke-opacity:1" />
      <path
         sodipodi:nodetypes="ccc"
         inkscape:connector-curvature="0"
         id="path1560"
         d="m 291.11599,261.66493 c -7.83487,-20.28009 7.08793,-37.9008 15.1534,-2.56114 -7.71089,-12.06511 -11.30458,-4.1324 -15.1534,2.56114 z"
         style="opacity:1;fill:#000000;stroke:#000000;stroke-width:1px;stroke-linecap:butt;stroke-linejoin:miter;stroke-opacity:1" />
      <path
         transform="matrix(0.98547064,-0.16984584,0.17968363,0.98372445,0,0)"
         d="m 211.91325,318.61106 a 18.111036,24.780249 0 0 1 6.6336,33.83977 18.111036,24.780249 0 0 1 -24.72903,9.09319 18.111036,24.780249 0 0 1 -6.65821,-33.83073 18.111036,24.780249 0 0 1 24.72241,-9.12684"
         sodipodi:open="true"
         sodipodi:end="5.2339981"
         sodipodi:start="5.2359878"
         sodipodi:ry="24.780249"
         sodipodi:rx="18.111036"
         sodipodi:cy="340.07138"
         sodipodi:cx="202.85773"
         sodipodi:type="arc"
         id="path1562"
         style="opacity:1;fill:#ffffff;fill-opacity:1;stroke:#000000;stroke-width:0.96639538;stroke-linecap:round;stroke-linejoin:round;stroke-miterlimit:4;stroke-dasharray:none;stroke-dashoffset:0;stroke-opacity:1" />
      <path
         transform="rotate(-14.313306)"
         d="m 226.30651,332.73803 a 8.6438398,19.208532 0 0 1 3.16601,26.23107 8.6438398,19.208532 0 0 1 -11.8024,7.04863 8.6438398,19.208532 0 0 1 -3.17776,-26.22405 8.6438398,19.208532 0 0 1 11.79925,-7.07473"
         sodipodi:open="true"
         sodipodi:end="5.2339981"
         sodipodi:start="5.2359878"
         sodipodi:ry="19.208532"
         sodipodi:rx="8.6438398"
         sodipodi:cy="349.37311"
         sodipodi:cx="221.98459"
         sodipodi:type="arc"
         id="path1564"
         style="opacity:1;fill:#ffffff;fill-opacity:1;stroke:#000000;stroke-width:0.95244092;stroke-linecap:round;stroke-linejoin:round;stroke-miterlimit:4;stroke-dasharray:none;stroke-dashoffset:0;stroke-opacity:1" />
      <path
         transform="matrix(0.97951091,-0.20139108,0.30185247,0.95335465,0,0)"
         d="m 204.64134,333.07682 a 6.2325983,11.467183 0 0 1 2.28284,15.65952 6.2325983,11.467183 0 0 1 -8.51007,4.20792 6.2325983,11.467183 0 0 1 -2.2913,-15.65534 6.2325983,11.467183 0 0 1 8.50778,-4.22349"
         sodipodi:open="true"
         sodipodi:end="5.2339981"
         sodipodi:start="5.2359878"
         sodipodi:ry="11.467183"
         sodipodi:rx="6.2325983"
         sodipodi:cy="343.00769"
         sodipodi:cx="201.52504"
         sodipodi:type="arc"
         id="path1564-9"
         style="opacity:1;fill:#3771c8;fill-opacity:1;stroke:#000000;stroke-width:0.62488562;stroke-linecap:round;stroke-linejoin:round;stroke-miterlimit:4;stroke-dasharray:none;stroke-dashoffset:0;stroke-opacity:1" />
      <path
         transform="matrix(0.98083383,-0.1948461,0.15651793,0.98767512,0,0)"
         d="m 222.28202,333.41355 a 11.902932,18.608549 0 0 1 4.35973,25.41173 11.902932,18.608549 0 0 1 -16.25241,6.82847 11.902932,18.608549 0 0 1 -4.3759,-25.40494 11.902932,18.608549 0 0 1 16.24806,-6.85374"
         sodipodi:open="true"
         sodipodi:end="5.2339981"
         sodipodi:start="5.2359878"
         sodipodi:ry="18.608549"
         sodipodi:rx="11.902932"
         sodipodi:cy="349.52902"
         sodipodi:cx="216.33055"
         sodipodi:type="arc"
         id="path1562-3"
         style="opacity:1;fill:#3771c8;fill-opacity:1;stroke:#000000;stroke-width:0.67891216;stroke-linecap:round;stroke-linejoin:round;stroke-miterlimit:4;stroke-dasharray:none;stroke-dashoffset:0;stroke-opacity:1" />
      <path
         transform="matrix(0.89526338,-0.4455373,0.28492225,0.95855063,0,0)"
         d="m 177.05518,386.73687 a 6.6985879,13.037395 0 0 1 2.45352,17.8038 6.6985879,13.037395 0 0 1 -9.14633,4.78411 6.6985879,13.037395 0 0 1 -2.46262,-17.79903 6.6985879,13.037395 0 0 1 9.14388,-4.80182"
         sodipodi:open="true"
         sodipodi:end="5.2339981"
         sodipodi:start="5.2359878"
         sodipodi:ry="13.037395"
         sodipodi:rx="6.6985879"
         sodipodi:cy="398.02759"
         sodipodi:cx="173.70589"
         sodipodi:type="arc"
         id="path1562-3-4"
         style="opacity:1;fill:#000000;fill-opacity:1;stroke:none;stroke-width:0.42630205;stroke-linecap:round;stroke-linejoin:round;stroke-miterlimit:4;stroke-dasharray:none;stroke-dashoffset:0;stroke-opacity:1" />
      <path
         transform="matrix(0.97509963,-0.22176725,0.27518394,0.96139159,0,0)"
         d="m 212.05237,341.90937 a 3.7942944,7.6230717 0 0 1 1.38976,10.41002 3.7942944,7.6230717 0 0 1 -5.18078,2.79731 3.7942944,7.6230717 0 0 1 -1.3949,-10.40724 3.7942944,7.6230717 0 0 1 5.17938,-2.80767"
         sodipodi:open="true"
         sodipodi:end="5.2339981"
         sodipodi:start="5.2359878"
         sodipodi:ry="7.6230717"
         sodipodi:rx="3.7942944"
         sodipodi:cy="348.51114"
         sodipodi:cx="210.15523"
         sodipodi:type="arc"
         id="path1564-9-0"
         style="opacity:1;fill:#000000;fill-opacity:1;stroke:none;stroke-width:0.39752835;stroke-linecap:round;stroke-linejoin:round;stroke-miterlimit:4;stroke-dasharray:none;stroke-dashoffset:0;stroke-opacity:1" />
      <path
         d="m 268.54448,295.21999 a 2.5249312,2.5970721 0 0 1 0.92482,3.54654 2.5249312,2.5970721 0 0 1 -3.44758,0.95301 2.5249312,2.5970721 0 0 1 -0.92824,-3.5456 2.5249312,2.5970721 0 0 1 3.44665,-0.95653"
         sodipodi:open="true"
         sodipodi:end="5.2339981"
         sodipodi:start="5.2359878"
         sodipodi:ry="2.5970721"
         sodipodi:rx="2.5249312"
         sodipodi:cy="297.46912"
         sodipodi:cx="267.28201"
         sodipodi:type="arc"
         id="path1635"
         style="opacity:1;fill:#ffffff;fill-opacity:1;stroke:none;stroke-width:1.0042069;stroke-linecap:round;stroke-linejoin:round;stroke-miterlimit:4;stroke-dasharray:none;stroke-dashoffset:0;stroke-opacity:1" />
      <path
         transform="rotate(-17.58179)"
         d="m 200.84624,361.7997 a 1.7313814,2.5249312 0 0 1 0.63416,3.44804 1.7313814,2.5249312 0 0 1 -2.36405,0.92653 1.7313814,2.5249312 0 0 1 -0.63652,-3.44711 1.7313814,2.5249312 0 0 1 2.36342,-0.92996"
         sodipodi:open="true"
         sodipodi:end="5.2339981"
         sodipodi:start="5.2359878"
         sodipodi:ry="2.5249312"
         sodipodi:rx="1.7313814"
         sodipodi:cy="363.98636"
         sodipodi:cx="199.98055"
         sodipodi:type="arc"
         id="path1637"
         style="opacity:1;fill:#ffffff;fill-opacity:1;stroke:none;stroke-width:0.95244092;stroke-linecap:round;stroke-linejoin:round;stroke-miterlimit:4;stroke-dasharray:none;stroke-dashoffset:0;stroke-opacity:1" />
      <path
         sodipodi:nodetypes="cccccccc"
         inkscape:connector-curvature="0"
         id="path1639"
         d="m 242.63552,323.35915 c 12.56905,5.19964 26.21664,7.34341 42.41006,2.274 l 55.48553,8.86859 c -0.54986,5.02609 -2.97491,7.70819 -7.16309,8.18639 -4.89815,10.40305 -9.04745,11.44553 -12.73438,6.70829 -11.61514,10.74007 -20.09128,9.55197 -27.17427,3.0699 -11.23941,9.57589 -20.14168,7.9335 -26.83317,-4.3206 -18.52418,5.01135 -26.3871,-3.41977 -23.99068,-24.78657 z"
         style="opacity:1;fill:#000000;stroke:#000000;stroke-width:1px;stroke-linecap:butt;stroke-linejoin:miter;stroke-opacity:1" />
      <path
         sodipodi:nodetypes="cccccc"
         inkscape:connector-curvature="0"
         id="path1643"
         d="m 291.86757,298.34518 c 8.79675,-7.63223 19.06911,-14.05236 36.27026,-14.78098 16.50996,1.55394 26.58762,9.43116 25.24137,28.53866 -2.02883,15.6291 -10.52137,21.81121 -20.35228,26.03727 -13.50586,7.18661 -23.08636,2.92423 -33.08666,-0.1137 -4.96489,-2.83127 -9.92979,-6.25922 -14.89468,-12.39328"
         style="fill:#ffc09c;fill-opacity:1;stroke:#000000;stroke-width:1px;stroke-linecap:butt;stroke-linejoin:miter;stroke-opacity:1" />
      <path
         sodipodi:nodetypes="ccccc"
         inkscape:connector-curvature="0"
         id="path1645"
         d="m 307.67185,361.22121 c -1.97936,1.2672 -3.62973,3.35685 -5.00279,6.13979 0.0206,4.79131 1.69222,7.42923 8.64119,3.1836 0.75548,-1.76352 1.47633,-3.80412 1.93289,-7.95899 -1.8571,-4.8942 -3.71419,-2.13554 -5.57129,-1.3644 z"
         style="fill:#2b0000;stroke:#000000;stroke-width:1px;stroke-linecap:butt;stroke-linejoin:miter;stroke-opacity:1" />
      <path
         sodipodi:nodetypes="cccccccc"
         inkscape:connector-curvature="0"
         id="path1647"
         d="m 192.46122,291.39943 -26.45716,30.21291 c 9.41914,1.19943 15.92992,10.4528 22.53449,19.44643 l 7.17765,10.01532 c 4.02179,2.85492 7.95441,6.72052 13.27031,-5.09112 -0.072,-2.61178 -0.34299,-5.52214 -2.16999,-10.76648 7.70977,-3.67184 12.05055,-8.16735 2.75422,-18.69528 -8.36264,-2.65354 -14.31925,-13.56187 -17.10952,-25.12178 z"
         style="opacity:1;fill:#552200;fill-opacity:1;stroke:#000000;stroke-width:1px;stroke-linecap:butt;stroke-linejoin:miter;stroke-opacity:1" />
      <path
         sodipodi:nodetypes="cc"
         inkscape:connector-curvature="0"
         id="path1649"
         d="m 198.13657,333.0465 c 2.79391,2.21443 5.66399,3.28631 8.67995,2.16999"
         style="fill:none;stroke:#000000;stroke-width:1px;stroke-linecap:butt;stroke-linejoin:miter;stroke-opacity:1" />
      <path
         sodipodi:nodetypes="ccc"
         inkscape:connector-curvature="0"
         id="path1653"
         d="m 147.64263,352.32601 c -0.36063,-10.76464 -0.40179,-21.24122 12.51916,-20.03066 11.03395,1.91749 19.59119,8.58849 25.706,19.9472"
         style="fill:none;stroke:#000000;stroke-width:1px;stroke-linecap:butt;stroke-linejoin:miter;stroke-opacity:1" />
      <path
         sodipodi:nodetypes="cc"
         inkscape:connector-curvature="0"
         id="path1655"
         d="m 174.85093,338.72186 c -10.22884,1.94271 -11.91299,6.66245 -13.43723,11.43416"
         style="fill:none;stroke:#000000;stroke-width:1px;stroke-linecap:butt;stroke-linejoin:miter;stroke-opacity:1" />
      <path
         sodipodi:nodetypes="cccccccccccccc"
         inkscape:connector-curvature="0"
         id="path1661"
         d="m 139.18406,345.38417 c -13.37634,-9.21246 -23.84498,-20.33309 -17.39801,-42.55459 4.10324,-9.17368 8.55406,-18.20833 18.80866,-24.92147 5.27457,-28.41074 12.54311,-56.40893 35.73645,-81.11233 20.76328,-26.50499 45.92908,-37.60117 75.46973,-33.38537 23.70621,3.04754 37.38802,23.63779 48.6674,48.43229 11.49796,-2.72826 22.57905,-3.23325 32.20982,3.99684 6.00379,13.81647 1.04293,21.18315 -3.29151,28.91831 l -23.11721,14.34594 c -1.93172,-14.98276 -11.47463,-22.00836 -27.19595,-22.57472 -14.79863,0.91333 -20.79587,3.85775 -27.74277,6.58302 -18.88867,19.76816 -38.7355,34.74556 -58.86945,48.28734 l -26.45716,30.21291 c -20.06942,-1.35057 -25.4095,9.5733 -26.82,23.77183 z"
         style="opacity:1;fill:#ff0000;fill-opacity:1;stroke:#000000;stroke-width:1px;stroke-linecap:butt;stroke-linejoin:miter;stroke-opacity:1" />
      <path
         sodipodi:nodetypes="cc"
         inkscape:connector-curvature="0"
         id="path1665"
         d="m 192.46122,291.39943 c 26.08339,-35.12061 39.80661,-78.91361 108.00707,-79.55673"
         style="fill:none;stroke:#000000;stroke-width:1px;stroke-linecap:butt;stroke-linejoin:miter;stroke-opacity:1" />
      <path
         sodipodi:nodetypes="cccccc"
         inkscape:connector-curvature="0"
         id="path1667"
         d="m 284.01071,213.25335 c 3.95099,-11.53139 -1.10963,-22.16162 -9.63943,-32.44493 -7.52054,-4.16234 -14.74979,-9.19855 -24.68636,-6.11281 -14.8385,5.84722 -14.58884,16.52266 -14.1065,27.27255 4.97796,14.24365 11.71508,20.8643 20.45442,18.80866 8.7554,-4.21949 17.97061,-7.05955 27.97787,-7.52347 z"
         style="opacity:1;fill:#ffffff;stroke:#000000;stroke-width:1px;stroke-linecap:butt;stroke-linejoin:miter;stroke-opacity:1" />
      <path
         sodipodi:nodetypes="ccccccccccc"
         inkscape:connector-curvature="0"
         id="path1669"
         d="m 247.72581,182.06647 c 1.80022,11.08034 1.03912,20.71994 -1.05104,29.61194 l 9.45937,4.02137 c -0.0779,-8.02362 1.23163,-16.29209 -0.68546,-23.99115 3.81143,2.52196 7.41466,5.46033 10.73889,8.9567 0.56111,-3.21344 1.03953,-5.14523 1.8279,-11.88134 4.4251,6.86221 8.63485,13.7962 11.97273,21.02082 l 3.19882,-6.67182 c -5.61071,-10.47546 -12.56595,-17.64128 -19.74129,-24.26534 -0.77717,4.37795 -1.2768,7.73822 -1.69081,10.78459 -4.30006,-3.11993 -8.87842,-5.80255 -14.02911,-7.58577 z"
         style="fill:#ff0000;stroke:#000000;stroke-width:1px;stroke-linecap:butt;stroke-linejoin:miter;stroke-opacity:1" />
    </g>
  </g>
</svg>
