<?xml version="1.0" encoding="UTF-8" standalone="no"?>
<!-- Created with Inkscape (http://www.inkscape.org/) -->

<svg
   xmlns:dc="http://purl.org/dc/elements/1.1/"
   xmlns:cc="http://creativecommons.org/ns#"
   xmlns:rdf="http://www.w3.org/1999/02/22-rdf-syntax-ns#"
   xmlns:svg="http://www.w3.org/2000/svg"
   xmlns="http://www.w3.org/2000/svg"
   xmlns:sodipodi="http://sodipodi.sourceforge.net/DTD/sodipodi-0.dtd"
   xmlns:inkscape="http://www.inkscape.org/namespaces/inkscape"
   width="600"
   height="600"
   viewBox="0 0 600 600"
   version="1.1"
   id="svg1488"
   inkscape:version="0.92.4 (5da689c313, 2019-01-14)"
   sodipodi:docname="o.svg">
  <defs
     id="defs1482" />
  <sodipodi:namedview
     id="base"
     pagecolor="#ffffff"
     bordercolor="#666666"
     borderopacity="1.0"
     inkscape:pageopacity="0.0"
     inkscape:pageshadow="2"
     inkscape:zoom="1.72"
     inkscape:cx="300"
     inkscape:cy="300"
     inkscape:document-units="mm"
     inkscape:current-layer="layer1"
     showgrid="false"
     units="px"
     inkscape:window-width="1773"
     inkscape:window-height="1251"
     inkscape:window-x="611"
     inkscape:window-y="2"
     inkscape:window-maximized="0" />
  <metadata
     id="metadata1485">
    <rdf:RDF>
      <cc:Work
         rdf:about="">
        <dc:format>image/svg+xml</dc:format>
        <dc:type
           rdf:resource="http://purl.org/dc/dcmitype/StillImage" />
        <dc:title></dc:title>
      </cc:Work>
    </rdf:RDF>
  </metadata>
  <g
     inkscape:label="Layer 1"
     inkscape:groupmode="layer"
     id="layer1"
     transform="translate(0,-138.24998)">
    <g
       id="owl">
      <path
         sodipodi:nodetypes="cccccccccccccc"
         inkscape:connector-curvature="0"
         id="path2044"
         d="M 12.778316,652.28677 191.0939,617.43681 c 23.05587,-12.60349 50.13288,-21.85603 82.47822,-26.71829 l 151.01646,-29.62246 c 16.39193,2.38696 25.48409,-9.82563 37.75411,-15.68248 3.83774,-4.49056 15.5788,-6.72302 30.20329,-8.13165 l 45.88577,-8.71249 c 11.09084,-1.82832 10.21789,5.64854 7.55083,14.52081 l -62.72992,23.2333 -34.26912,24.39497 -152.17812,35.43078 c -47.15157,11.35924 -74.00578,27.06791 -99.90319,42.98161 -61.36846,16.64436 -124.920551,35.47234 -183.543082,49.37076 z"
         style="opacity:1;fill:#803300;stroke:#000000;stroke-width:1px;stroke-linecap:butt;stroke-linejoin:miter;stroke-opacity:1" />
      <path
         sodipodi:nodetypes="ccccccc"
         inkscape:connector-curvature="0"
         id="path2046"
         d="m 271.98931,547.03069 c 5.64043,9.57468 6.07258,18.71534 6.36048,27.84398 -1.14457,6.41411 -4.83689,11.12973 -8.81651,15.6538 l -0.89964,3.41864 c 50.67909,-9.21494 100.15137,-16.41853 153.47923,-30.0481 L 310.19718,553.64307 Z"
         style="opacity:1;fill:#ffcc00;stroke:#000000;stroke-width:1px;stroke-linecap:butt;stroke-linejoin:miter;stroke-opacity:1" />
      <path
         sodipodi:nodetypes="ccccccccccc"
         inkscape:connector-curvature="0"
         id="path2048"
         d="m 295.08317,579.73274 13.13479,8.27673 c -3.13918,4.96017 0.39713,15.76138 0.71972,23.75059 -2.83352,8.24165 -5.38285,12.5048 -7.73694,14.03445 l -5.39786,1.2595 c 3.49531,7.65507 7.07593,14.58498 11.51544,14.21437 8.72378,2.33394 17.56944,3.57103 27.70903,-6.83729 12.64259,-0.0492 23.04058,-7.03632 30.40796,-23.39074 -1.0355,-15.16515 -5.86521,-28.22242 -11.15558,-41.02376 l -12.23516,-12.59501 z"
         style="opacity:1;fill:#ffcc00;fill-opacity:1;stroke:#000000;stroke-width:1px;stroke-linecap:butt;stroke-linejoin:miter;stroke-opacity:1" />
      <path
         sodipodi:nodetypes="cccc"
         inkscape:connector-curvature="0"
         id="path2050"
         d="m 324.41155,566.59794 c 3.88783,3.36019 6.12818,6.95573 6.65737,10.79573 5.36471,14.15451 6.79607,19.80213 8.45665,28.7886 1.18477,15.16808 -2.68453,19.50602 -4.49822,28.24882"
         style="fill:none;stroke:#000000;stroke-width:1px;stroke-linecap:butt;stroke-linejoin:miter;stroke-opacity:1" />
      <path
         sodipodi:nodetypes="ccc"
         inkscape:connector-curvature="0"
         id="path2052"
         d="m 308.93768,607.08191 c 11.89333,4.22644 21.55163,2.49277 30.58789,-0.89964 9.53762,1.99431 17.12848,-1.28697 24.29038,-4.49822"
         style="fill:none;stroke:#000000;stroke-width:1px;stroke-linecap:butt;stroke-linejoin:miter;stroke-opacity:1" />
      <path
         sodipodi:nodetypes="cc"
         inkscape:connector-curvature="0"
         id="path2054"
         d="m 305.3391,585.13061 c 4.70449,-6.45109 12.8728,-9.43838 25.72982,-7.73694"
         style="fill:none;stroke:#000000;stroke-width:1px;stroke-linecap:butt;stroke-linejoin:miter;stroke-opacity:1" />
      <path
         sodipodi:nodetypes="cc"
         inkscape:connector-curvature="0"
         id="path2056"
         d="m 334.48756,585.67039 c 1.1042,-10.79498 12.28913,-9.73028 21.05167,-11.51544"
         style="fill:none;stroke:#000000;stroke-width:1px;stroke-linecap:butt;stroke-linejoin:miter;stroke-opacity:1" />
      <path
         sodipodi:nodetypes="ccccccccccc"
         inkscape:connector-curvature="0"
         id="path2058"
         d="m 367.95431,566.23809 7.55701,8.63658 3.59858,18.71259 c -4.5582,8.24466 -9.11639,14.9376 -13.67459,17.45309 6.15705,9.76658 12.74101,16.40241 20.33195,15.6538 6.87174,1.90262 11.28901,-3.55817 16.37352,-7.01722 11.5622,2.13493 19.18689,-2.94893 25.01009,-11.33551 3.66055,-5.12038 6.31737,-11.04374 5.21794,-19.9721 -1.83145,-8.55357 -4.60909,-16.87059 -10.25594,-24.47031 -0.55278,-4.79028 -0.80425,-9.63535 -6.47744,-13.49465 -15.99691,5.15177 -35.56681,5.93656 -47.68112,15.83373 z"
         style="opacity:1;fill:#ffcc00;fill-opacity:1;stroke:#000000;stroke-width:1px;stroke-linecap:butt;stroke-linejoin:miter;stroke-opacity:1" />
      <path
         sodipodi:nodetypes="ccc"
         inkscape:connector-curvature="0"
         id="path2060"
         d="m 379.1099,593.58726 c 9.30934,-0.0181 18.81981,-1.24307 28.60867,-4.13836 10.16816,2.7033 17.71618,0.16633 23.57067,-5.75772"
         style="fill:none;stroke:#000000;stroke-width:1px;stroke-linecap:butt;stroke-linejoin:miter;stroke-opacity:1" />
      <path
         sodipodi:nodetypes="cc"
         inkscape:connector-curvature="0"
         id="path2062"
         d="m 375.51132,574.87467 c 4.82745,-10.87754 13.80139,-9.77632 22.85095,-8.45666"
         style="fill:none;stroke:#000000;stroke-width:1px;stroke-linecap:butt;stroke-linejoin:miter;stroke-opacity:1" />
      <path
         sodipodi:nodetypes="cc"
         inkscape:connector-curvature="0"
         id="path2064"
         d="m 400.52142,573.25531 c 4.85512,-12.82148 13.52833,-9.82512 21.59145,-9.3563"
         style="fill:none;stroke:#000000;stroke-width:1px;stroke-linecap:butt;stroke-linejoin:miter;stroke-opacity:1" />
      <path
         sodipodi:nodetypes="ccc"
         inkscape:connector-curvature="0"
         id="path2066"
         d="m 396.38306,559.94058 c 2.91081,10.26995 5.63426,20.63358 11.33551,29.50832 0.8763,9.43235 1.52856,18.91741 -5.57779,30.22803"
         style="fill:none;stroke:#000000;stroke-width:1px;stroke-linecap:butt;stroke-linejoin:miter;stroke-opacity:1" />
      <path
         sodipodi:nodetypes="cccc"
         inkscape:connector-curvature="0"
         id="path2068"
         d="m 204.43506,515.01237 c -3.43772,16.37689 -26.59233,39.53145 -43.41681,60.51004 23.09777,-13.54709 39.87602,-33.98821 58.28792,-52.64716 z"
         style="opacity:1;fill:#813228;fill-opacity:1;stroke:#000000;stroke-width:1px;stroke-linecap:butt;stroke-linejoin:miter;stroke-opacity:1" />
      <path
         sodipodi:nodetypes="ccccccccc"
         inkscape:connector-curvature="0"
         id="path2070"
         d="m 212.81074,523.38805 c -34.75338,37.76566 -41.9634,41.37756 -55.21114,52.47622 -10.69535,13.79268 4.69376,10.67877 17.77696,9.05942 11.30782,2.52597 21.67756,0.9869 31.62248,-2.39305 11.26433,1.26748 20.96085,-1.38459 30.42595,-4.61518 10.83069,1.36633 20.63904,-2.89019 30.59689,-6.32449 4.39345,-1.11279 8.92713,-2.39386 11.1106,-0.85467 l 3.07678,-25.46891 z"
         style="opacity:1;fill:#6a5d39;fill-opacity:1;stroke:#000000;stroke-width:1px;stroke-linecap:butt;stroke-linejoin:miter;stroke-opacity:1" />
      <path
         sodipodi:nodetypes="cc"
         inkscape:connector-curvature="0"
         id="path2072"
         d="m 223.75041,536.72077 c -15.29497,17.93435 -31.25859,34.36423 -48.37385,48.20292"
         style="fill:none;stroke:#000000;stroke-width:1px;stroke-linecap:butt;stroke-linejoin:miter;stroke-opacity:1" />
      <path
         sodipodi:nodetypes="cc"
         inkscape:connector-curvature="0"
         id="path2074"
         d="m 236.9122,549.19883 c -8.4052,10.84963 -18.78622,22.02856 -29.91316,33.33181"
         style="fill:none;stroke:#000000;stroke-width:1px;stroke-linecap:butt;stroke-linejoin:miter;stroke-opacity:1" />
      <path
         sodipodi:nodetypes="cc"
         inkscape:connector-curvature="0"
         id="path2076"
         d="m 264.09044,541.84874 c -8.62166,13.35635 -17.59108,24.97392 -26.66545,36.06672"
         style="fill:none;stroke:#000000;stroke-width:1px;stroke-linecap:butt;stroke-linejoin:miter;stroke-opacity:1" />
      <path
         sodipodi:nodetypes="cc"
         inkscape:connector-curvature="0"
         id="path2080"
         d="m 277.93595,552.78841 c -1.78907,8.38939 -5.91316,13.50974 -9.91407,18.80256"
         style="fill:none;stroke:#000000;stroke-width:1px;stroke-linecap:butt;stroke-linejoin:miter;stroke-opacity:1" />
      <path
         sodipodi:nodetypes="cccccccccccccccccccccccccc"
         inkscape:connector-curvature="0"
         id="path2082"
         d="m 222.89575,366.64311 c 6.07792,-3.58067 11.19466,-7.2895 21.87933,-10.25594 3.48243,-3.57383 7.63622,-6.64415 8.68387,-12.04406 -1.49815,-4.91114 1.29989,-6.84799 3.86775,-8.94419 4.43612,-2.67847 1.46673,-5.0043 -0.60433,-7.37291 -3.97003,-3.45673 -6.58557,-7.42139 -7.97725,-11.845 -1.74324,-5.13967 1.29748,-7.46524 4.95556,-9.42766 4.06317,-1.99636 8.01186,-3.64926 12.69108,-7.49378 6.05248,-3.28577 7.50189,-7.49216 8.82332,-11.72414 1.78677,-4.88373 3.78055,-9.69846 6.52684,-14.26235 1.97157,-3.18681 5.08274,-6.49358 1.20867,-9.06506 l 41.21579,-35.89762 c 13.06675,-8.65801 27.8978,-14.58137 47.38002,-13.29541 29.77567,1.40311 58.78687,5.48188 84.72805,20.30572 14.74155,9.57189 28.47099,20.43703 37.46889,37.34803 l 15.71277,45.80875 c 2.79714,13.3568 9.54976,26.93335 18.13011,40.61144 1.44521,3.97399 0.62383,8.44072 -5.31817,14.02062 l -7.73551,3.26342 c -3.49872,0.66879 -6.40152,1.71003 -2.29648,7.13118 2.20282,4.14978 0.49604,8.29956 -4.71383,12.44934 -4.41368,0.60786 -6.38001,3.05123 -1.81301,10.3946 7.92749,17.54308 10.07995,35.96117 7.37291,55.11554 -2.61621,24.01905 -15.18125,35.04936 -29.24991,44.1166 -8.58345,5.92436 -17.61857,12.3004 -24.05262,16.07536 z"
         style="opacity:1;fill:#813228;fill-opacity:1;stroke:#000000;stroke-width:1px;stroke-linecap:butt;stroke-linejoin:miter;stroke-opacity:1" />
      <path
         sodipodi:nodetypes="ccccccccccc"
         inkscape:connector-curvature="0"
         id="path2104"
         d="m 293.68253,373.5029 1.27356,14.26385 -15.53741,8.6602 -24.45232,143.65737 c 33.57065,16.79575 67.46461,31.92879 105.70534,24.70703 30.7742,-3.62981 61.67669,-6.46428 89.14907,-30.5654 16.90047,-18.33005 32.48107,-39.29984 39.98973,-76.4135 0.82336,-17.11703 1.19929,-35.12893 0,-56.29127 L 462.04693,387.00261 314.31418,363.56914 c -8.12419,2.81246 -15.85599,5.78188 -20.63165,9.93376 z"
         style="opacity:1;fill:#ffffcd;fill-opacity:1;stroke:#000000;stroke-width:1px;stroke-linecap:butt;stroke-linejoin:miter;stroke-opacity:1" />
      <path
         sodipodi:nodetypes="cccccccc"
         inkscape:connector-curvature="0"
         id="path2084"
         d="m 212.98167,372.79668 c 15.264,-14.41866 36.90097,-10.15644 41.70749,-6.49543 5.06022,1.99833 26.30463,15.04182 33.50273,43.41681 3.84385,24.95612 0.40053,49.91224 -6.49542,74.86836 -10.36257,32.25255 -21.51659,51.8417 -32.81901,69.05665 -12.52903,2.1094 -23.16315,-8.23351 -33.50274,-20.51188 -18.29504,-24.88037 -19.4173,-39.22289 -24.61425,-56.0658 -9.13313,-51.79264 -0.31498,-85.09546 22.2212,-104.26871 z"
         style="opacity:1;fill:#813228;fill-opacity:1;stroke:#000000;stroke-width:1px;stroke-linecap:butt;stroke-linejoin:miter;stroke-opacity:1" />
      <path
         sodipodi:nodetypes="ccccccccccc"
         inkscape:connector-curvature="0"
         id="path2086"
         d="m 189.73752,461.78209 5.58401,33.02882 8.43542,0.11881 10.21755,23.28651 c 13.56316,3.16674 25.15856,2.83525 35.88024,0.95047 l -1.78213,-7.12852 c -10.8512,2.15078 -21.70239,2.55972 -32.55359,0.59404 l -10.21755,-25.9003 -8.55423,0.23762 -4.0395,-25.54388 z"
         style="fill:#a849bc;fill-opacity:1;stroke:none;stroke-width:1px;stroke-linecap:butt;stroke-linejoin:miter;stroke-opacity:1" />
      <path
         sodipodi:nodetypes="ccccccccccccccc"
         inkscape:connector-curvature="0"
         id="path2088"
         d="m 193.30179,409.38745 -2.13856,27.92004 6.7721,-2.01974 3.80187,25.66268 16.51442,-4.0395 7.00971,25.7815 c 0.0499,4.04438 2.25823,6.04383 8.31661,4.39592 l 25.54388,-8.31661 -1.90094,-9.26708 -24.35579,5.4652 -10.09874,-28.98933 -17.46488,4.98997 -3.80188,-23.64294 -7.36614,2.25737 z"
         style="fill:#a849bc;fill-opacity:1;stroke:none;stroke-width:1px;stroke-linecap:butt;stroke-linejoin:miter;stroke-opacity:1" />
      <path
         inkscape:connector-curvature="0"
         id="path2090"
         d="m 189.14348,439.56486 0.11881,13.663 3.32664,-2.13855 z"
         style="fill:#ff74c7;fill-opacity:1;stroke:none;stroke-width:1px;stroke-linecap:butt;stroke-linejoin:miter;stroke-opacity:1" />
      <path
         inkscape:connector-curvature="0"
         id="path2092"
         d="m 195.91558,462.01971 1.06928,16.03918 6.17805,-4.0395 z"
         style="fill:#ff74c7;fill-opacity:1;stroke:none;stroke-width:1px;stroke-linecap:butt;stroke-linejoin:miter;stroke-opacity:1" />
      <path
         sodipodi:nodetypes="cccc"
         inkscape:connector-curvature="0"
         id="path2094"
         d="m 214.92497,487.20716 c 0.2906,6.81148 0.98556,13.13774 2.85141,18.05892 l 12.11849,-6.05924 z"
         style="fill:#ff74c7;fill-opacity:1;stroke:none;stroke-width:1px;stroke-linecap:butt;stroke-linejoin:miter;stroke-opacity:1" />
      <path
         sodipodi:nodetypes="cccc"
         inkscape:connector-curvature="0"
         id="path2096"
         d="m 196.74724,407.60531 -0.35643,12.95016 c 2.2026,-1.99042 5.17846,-3.05294 5.94044,-6.7721 z"
         style="fill:#ff74c7;fill-opacity:1;stroke:none;stroke-width:1px;stroke-linecap:butt;stroke-linejoin:miter;stroke-opacity:1" />
      <path
         sodipodi:nodetypes="cccc"
         inkscape:connector-curvature="0"
         id="path2098"
         d="m 209.22215,422.93164 c -1.26355,7.36198 -1.11261,13.15231 0.47524,17.34607 3.91732,-1.78685 7.62635,-3.86529 9.97993,-7.84137 z"
         style="fill:#ff74c7;fill-opacity:1;stroke:none;stroke-width:1px;stroke-linecap:butt;stroke-linejoin:miter;stroke-opacity:1" />
      <path
         sodipodi:nodetypes="cccc"
         inkscape:connector-curvature="0"
         id="path2102"
         d="m 234.17199,443.12912 c -0.30267,7.24347 -0.16599,14.36712 2.97021,20.67272 6.09635,-2.20542 11.87028,-4.86222 16.39561,-9.26708 -5.83985,-5.03273 -12.25889,-8.90707 -19.36582,-11.40564 z"
         style="fill:#ff74c7;fill-opacity:1;stroke:none;stroke-width:1px;stroke-linecap:butt;stroke-linejoin:miter;stroke-opacity:1" />
      <path
         transform="matrix(0.98301937,0.18350183,-0.14163376,0.98991913,0,0)"
         d="m 418.36303,366.51114 a 3.0011418,22.011229 0 0 1 1.09924,30.05842 3.0011418,22.011229 0 0 1 -4.0978,8.07709 3.0011418,22.011229 0 0 1 -1.10331,-30.05038 3.0011418,22.011229 0 0 1 4.09669,-8.10699"
         sodipodi:open="true"
         sodipodi:end="5.2339981"
         sodipodi:start="5.2359878"
         sodipodi:ry="22.011229"
         sodipodi:rx="3.0011418"
         sodipodi:cy="385.57343"
         sodipodi:cx="416.86246"
         sodipodi:type="arc"
         id="path2106"
         style="opacity:1;fill:#a49a8d;fill-opacity:1;stroke:none;stroke-width:0.87514693;stroke-linecap:round;stroke-linejoin:round;stroke-miterlimit:4;stroke-dasharray:none;stroke-dashoffset:0;stroke-opacity:1" />
      <path
         transform="matrix(0.99781185,0.06611739,-0.02372745,0.99971846,0,0)"
         d="m 417.45937,424.5297 a 3.0011418,22.011229 0 0 1 1.09924,30.05841 3.0011418,22.011229 0 0 1 -4.09779,8.07709 3.0011418,22.011229 0 0 1 -1.10332,-30.05038 3.0011418,22.011229 0 0 1 4.0967,-8.10698"
         sodipodi:open="true"
         sodipodi:end="5.2339981"
         sodipodi:start="5.2359878"
         sodipodi:ry="22.011229"
         sodipodi:rx="3.0011418"
         sodipodi:cy="443.59198"
         sodipodi:cx="415.9588"
         sodipodi:type="arc"
         id="path2106-8"
         style="opacity:1;fill:#a49a8d;fill-opacity:1;stroke:none;stroke-width:0.87514693;stroke-linecap:round;stroke-linejoin:round;stroke-miterlimit:4;stroke-dasharray:none;stroke-dashoffset:0;stroke-opacity:1" />
      <path
         transform="matrix(0.99514524,0.0984172,-0.05611131,0.99842452,0,0)"
         d="m 478.97732,405.22327 a 3.0011418,22.011229 0 0 1 1.09924,30.05841 3.0011418,22.011229 0 0 1 -4.0978,8.0771 3.0011418,22.011229 0 0 1 -1.10332,-30.05038 3.0011418,22.011229 0 0 1 4.0967,-8.10699"
         sodipodi:open="true"
         sodipodi:end="5.2339981"
         sodipodi:start="5.2359878"
         sodipodi:ry="22.011229"
         sodipodi:rx="3.0011418"
         sodipodi:cy="424.28555"
         sodipodi:cx="477.47675"
         sodipodi:type="arc"
         id="path2106-6"
         style="opacity:1;fill:#a49a8d;fill-opacity:1;stroke:none;stroke-width:0.87514693;stroke-linecap:round;stroke-linejoin:round;stroke-miterlimit:4;stroke-dasharray:none;stroke-dashoffset:0;stroke-opacity:1" />
      <path
         transform="matrix(0.98513686,-0.17177129,0.21340935,0.97696287,0,0)"
         d="m 325.73073,486.09784 a 3.0011418,22.011229 0 0 1 1.09924,30.05842 3.0011418,22.011229 0 0 1 -4.09779,8.07709 3.0011418,22.011229 0 0 1 -1.10332,-30.05038 3.0011418,22.011229 0 0 1 4.0967,-8.10699"
         sodipodi:open="true"
         sodipodi:end="5.2339981"
         sodipodi:start="5.2359878"
         sodipodi:ry="22.011229"
         sodipodi:rx="3.0011418"
         sodipodi:cy="505.16013"
         sodipodi:cx="324.23016"
         sodipodi:type="arc"
         id="path2106-7"
         style="opacity:1;fill:#a49a8d;fill-opacity:1;stroke:none;stroke-width:0.87514693;stroke-linecap:round;stroke-linejoin:round;stroke-miterlimit:4;stroke-dasharray:none;stroke-dashoffset:0;stroke-opacity:1" />
      <path
         transform="matrix(0.99504271,0.09944846,-0.05714599,0.99836583,0,0)"
         d="m 404.8832,373.5293 a 3.0011418,22.011229 0 0 1 1.09924,30.05841 3.0011418,22.011229 0 0 1 -4.0978,8.0771 3.0011418,22.011229 0 0 1 -1.10331,-30.05038 3.0011418,22.011229 0 0 1 4.0967,-8.10699"
         sodipodi:open="true"
         sodipodi:end="5.2339981"
         sodipodi:start="5.2359878"
         sodipodi:ry="22.011229"
         sodipodi:rx="3.0011418"
         sodipodi:cy="392.59158"
         sodipodi:cx="403.38263"
         sodipodi:type="arc"
         id="path2106-7-4"
         style="opacity:1;fill:#a49a8d;fill-opacity:1;stroke:none;stroke-width:0.87514693;stroke-linecap:round;stroke-linejoin:round;stroke-miterlimit:4;stroke-dasharray:none;stroke-dashoffset:0;stroke-opacity:1" />
      <path
         transform="matrix(0.96888238,0.24752158,-0.20619561,0.97851079,0,0)"
         d="m 417.29964,304.79639 a 3.0011418,22.011229 0 0 1 1.09924,30.05841 3.0011418,22.011229 0 0 1 -4.09779,8.0771 3.0011418,22.011229 0 0 1 -1.10332,-30.05038 3.0011418,22.011229 0 0 1 4.0967,-8.10699"
         sodipodi:open="true"
         sodipodi:end="5.2339981"
         sodipodi:start="5.2359878"
         sodipodi:ry="22.011229"
         sodipodi:rx="3.0011418"
         sodipodi:cy="323.85867"
         sodipodi:cx="415.79907"
         sodipodi:type="arc"
         id="path2106-7-1"
         style="opacity:1;fill:#a49a8d;fill-opacity:1;stroke:none;stroke-width:0.87514693;stroke-linecap:round;stroke-linejoin:round;stroke-miterlimit:4;stroke-dasharray:none;stroke-dashoffset:0;stroke-opacity:1" />
      <path
         transform="matrix(0.91856627,0.39526701,-0.3386497,0.94091253,0,0)"
         d="m 571.01187,283.20088 a 2.7899787,20.634052 0 0 1 1.0219,28.17775 2.7899787,20.634052 0 0 1 -3.80947,7.57173 2.7899787,20.634052 0 0 1 -1.02569,-28.17021 2.7899787,20.634052 0 0 1 3.80845,-7.59976"
         sodipodi:open="true"
         sodipodi:end="5.2339981"
         sodipodi:start="5.2359878"
         sodipodi:ry="20.634052"
         sodipodi:rx="2.7899787"
         sodipodi:cy="301.0705"
         sodipodi:cx="569.61688"
         sodipodi:type="arc"
         id="path2106-7-7"
         style="opacity:1;fill:#a49a8d;fill-opacity:1;stroke:none;stroke-width:0.81697404;stroke-linecap:round;stroke-linejoin:round;stroke-miterlimit:4;stroke-dasharray:none;stroke-dashoffset:0;stroke-opacity:1" />
      <path
         transform="matrix(0.91856627,0.39526701,-0.3386497,0.94091253,0,0)"
         d="m 520.38425,291.06966 a 2.7899787,20.634052 0 0 1 1.02189,28.17775 2.7899787,20.634052 0 0 1 -3.80947,7.57173 2.7899787,20.634052 0 0 1 -1.02568,-28.17022 2.7899787,20.634052 0 0 1 3.80845,-7.59976"
         sodipodi:open="true"
         sodipodi:end="5.2339981"
         sodipodi:start="5.2359878"
         sodipodi:ry="20.634052"
         sodipodi:rx="2.7899787"
         sodipodi:cy="308.93927"
         sodipodi:cx="518.98926"
         sodipodi:type="arc"
         id="path2106-7-7-1"
         style="opacity:1;fill:#a49a8d;fill-opacity:1;stroke:none;stroke-width:0.81697404;stroke-linecap:round;stroke-linejoin:round;stroke-miterlimit:4;stroke-dasharray:none;stroke-dashoffset:0;stroke-opacity:1" />
      <path
         transform="matrix(0.93596303,0.35209829,-0.38069522,0.92470057,0,0)"
         d="m 479.74391,319.95132 a 2.4068246,16.134277 0 0 1 0.88156,22.03288 2.4068246,16.134277 0 0 1 -3.28631,5.92052 2.4068246,16.134277 0 0 1 -0.88483,-22.02699 2.4068246,16.134277 0 0 1 3.28543,-5.94244"
         sodipodi:open="true"
         sodipodi:end="5.2339981"
         sodipodi:start="5.2359878"
         sodipodi:ry="16.134277"
         sodipodi:rx="2.4068246"
         sodipodi:cy="333.92401"
         sodipodi:cx="478.5405"
         sodipodi:type="arc"
         id="path2106-7-7-0"
         style="opacity:1;fill:#a49a8d;fill-opacity:1;stroke:none;stroke-width:0.67098457;stroke-linecap:round;stroke-linejoin:round;stroke-miterlimit:4;stroke-dasharray:none;stroke-dashoffset:0;stroke-opacity:1" />
      <path
         transform="matrix(0.73414877,0.67898865,-0.7012292,0.71293591,0,0)"
         d="m 595.55766,133.63131 a 2.4068246,16.134277 0 0 1 0.88156,22.03288 2.4068246,16.134277 0 0 1 -3.28631,5.92053 2.4068246,16.134277 0 0 1 -0.88483,-22.027 2.4068246,16.134277 0 0 1 3.28543,-5.94243"
         sodipodi:open="true"
         sodipodi:end="5.2339981"
         sodipodi:start="5.2359878"
         sodipodi:ry="16.134277"
         sodipodi:rx="2.4068246"
         sodipodi:cy="147.604"
         sodipodi:cx="594.35425"
         sodipodi:type="arc"
         id="path2106-7-7-0-3"
         style="opacity:1;fill:#a49a8d;fill-opacity:1;stroke:none;stroke-width:0.67098457;stroke-linecap:round;stroke-linejoin:round;stroke-miterlimit:4;stroke-dasharray:none;stroke-dashoffset:0;stroke-opacity:1" />
      <path
         transform="matrix(0.7190464,0.69496207,-0.68537532,0.72818999,0,0)"
         d="m 616.44906,134.74051 a 1.8776081,12.612884 0 0 1 0.68772,17.22409 1.8776081,12.612884 0 0 1 -2.56371,4.62834 1.8776081,12.612884 0 0 1 -0.69027,-17.21949 1.8776081,12.612884 0 0 1 2.56302,-4.64546"
         sodipodi:open="true"
         sodipodi:end="5.2339981"
         sodipodi:start="5.2359878"
         sodipodi:ry="12.612884"
         sodipodi:rx="1.8776081"
         sodipodi:cy="145.66359"
         sodipodi:cx="615.51025"
         sodipodi:type="arc"
         id="path2106-7-7-0-3-2"
         style="opacity:1;fill:#a49a8d;fill-opacity:1;stroke:none;stroke-width:0.52399266;stroke-linecap:round;stroke-linejoin:round;stroke-miterlimit:4;stroke-dasharray:none;stroke-dashoffset:0;stroke-opacity:1" />
      <path
         transform="matrix(0.7190464,0.69496207,-0.68537532,0.72818999,0,0)"
         d="m 643.21419,100.53987 a 1.8776081,12.612884 0 0 1 0.68772,17.22409 1.8776081,12.612884 0 0 1 -2.56371,4.62834 1.8776081,12.612884 0 0 1 -0.69026,-17.21948 1.8776081,12.612884 0 0 1 2.56302,-4.64547"
         sodipodi:open="true"
         sodipodi:end="5.2339981"
         sodipodi:start="5.2359878"
         sodipodi:ry="12.612884"
         sodipodi:rx="1.8776081"
         sodipodi:cy="111.46295"
         sodipodi:cx="642.27539"
         sodipodi:type="arc"
         id="path2106-7-7-0-3-2-6"
         style="opacity:1;fill:#a49a8d;fill-opacity:1;stroke:none;stroke-width:0.52399266;stroke-linecap:round;stroke-linejoin:round;stroke-miterlimit:4;stroke-dasharray:none;stroke-dashoffset:0;stroke-opacity:1" />
      <path
         transform="matrix(0.7190464,0.69496207,-0.68537532,0.72818999,0,0)"
         d="m 662.68856,105.20377 a 1.8776081,12.612884 0 0 1 0.68772,17.22408 1.8776081,12.612884 0 0 1 -2.56371,4.62834 1.8776081,12.612884 0 0 1 -0.69027,-17.21948 1.8776081,12.612884 0 0 1 2.56302,-4.64547"
         sodipodi:open="true"
         sodipodi:end="5.2339981"
         sodipodi:start="5.2359878"
         sodipodi:ry="12.612884"
         sodipodi:rx="1.8776081"
         sodipodi:cy="116.12685"
         sodipodi:cx="661.74976"
         sodipodi:type="arc"
         id="path2106-7-7-0-3-2-5"
         style="opacity:1;fill:#a49a8d;fill-opacity:1;stroke:none;stroke-width:0.52399266;stroke-linecap:round;stroke-linejoin:round;stroke-miterlimit:4;stroke-dasharray:none;stroke-dashoffset:0;stroke-opacity:1" />
      <path
         transform="matrix(0.78819733,0.6154226,-0.54750381,0.83680319,0,0)"
         d="m 655.1865,129.05338 a 2.3053772,15.537994 0 0 1 0.8444,21.2186 2.3053772,15.537994 0 0 1 -3.14779,5.70171 2.3053772,15.537994 0 0 1 -0.84753,-21.21292 2.3053772,15.537994 0 0 1 3.14695,-5.72282"
         sodipodi:open="true"
         sodipodi:end="5.2339981"
         sodipodi:start="5.2359878"
         sodipodi:ry="15.537994"
         sodipodi:rx="2.3053772"
         sodipodi:cy="142.50967"
         sodipodi:cx="654.03381"
         sodipodi:type="arc"
         id="path2106-7-7-0-3-2-66"
         style="opacity:1;fill:#a49a8d;fill-opacity:1;stroke:none;stroke-width:0.64444226;stroke-linecap:round;stroke-linejoin:round;stroke-miterlimit:4;stroke-dasharray:none;stroke-dashoffset:0;stroke-opacity:1" />
      <path
         transform="matrix(0.9940017,-0.10936464,0.15143496,0.98846722,0,0)"
         d="m 397.06542,467.2764 a 3.0011418,22.011229 0 0 1 1.09924,30.05842 3.0011418,22.011229 0 0 1 -4.09779,8.07709 3.0011418,22.011229 0 0 1 -1.10332,-30.05038 3.0011418,22.011229 0 0 1 4.0967,-8.10699"
         sodipodi:open="true"
         sodipodi:end="5.2339981"
         sodipodi:start="5.2359878"
         sodipodi:ry="22.011229"
         sodipodi:rx="3.0011418"
         sodipodi:cy="486.33868"
         sodipodi:cx="395.56485"
         sodipodi:type="arc"
         id="path2106-6-8"
         style="opacity:1;fill:#a49a8d;fill-opacity:1;stroke:none;stroke-width:0.87514693;stroke-linecap:round;stroke-linejoin:round;stroke-miterlimit:4;stroke-dasharray:none;stroke-dashoffset:0;stroke-opacity:1" />
      <path
         transform="matrix(0.98345794,-0.18113666,0.09113642,0.99583842,0,0)"
         d="m 446.33477,490.54503 a 1.8119954,21.848301 0 0 1 0.66369,29.83593 1.8119954,21.848301 0 0 1 -2.47412,8.0173 1.8119954,21.848301 0 0 1 -0.66615,-29.82795 1.8119954,21.848301 0 0 1 2.47346,-8.04697"
         sodipodi:open="true"
         sodipodi:end="5.2339981"
         sodipodi:start="5.2359878"
         sodipodi:ry="21.848301"
         sodipodi:rx="1.8119954"
         sodipodi:cy="509.46622"
         sodipodi:cx="445.42877"
         sodipodi:type="arc"
         id="path2106-6-8-8"
         style="opacity:1;fill:#a49a8d;fill-opacity:1;stroke:none;stroke-width:0.67749012;stroke-linecap:round;stroke-linejoin:round;stroke-miterlimit:4;stroke-dasharray:none;stroke-dashoffset:0;stroke-opacity:1" />
      <path
         transform="matrix(0.99507274,-0.09914756,0.00843157,0.99996445,0,0)"
         d="m 477.71987,486.73333 a 1.8119954,21.848301 0 0 1 0.66369,29.83592 1.8119954,21.848301 0 0 1 -2.47412,8.0173 1.8119954,21.848301 0 0 1 -0.66615,-29.82794 1.8119954,21.848301 0 0 1 2.47346,-8.04698"
         sodipodi:open="true"
         sodipodi:end="5.2339981"
         sodipodi:start="5.2359878"
         sodipodi:ry="21.848301"
         sodipodi:rx="1.8119954"
         sodipodi:cy="505.65451"
         sodipodi:cx="476.81387"
         sodipodi:type="arc"
         id="path2106-6-8-8-2"
         style="opacity:1;fill:#a49a8d;fill-opacity:1;stroke:none;stroke-width:0.67749012;stroke-linecap:round;stroke-linejoin:round;stroke-miterlimit:4;stroke-dasharray:none;stroke-dashoffset:0;stroke-opacity:1" />
      <path
         transform="matrix(0.98390385,0.17869867,-0.26725446,0.96362599,0,0)"
         d="m 582.01153,387.10872 a 1.8119954,21.848301 0 0 1 0.66368,29.83593 1.8119954,21.848301 0 0 1 -2.47412,8.0173 1.8119954,21.848301 0 0 1 -0.66614,-29.82795 1.8119954,21.848301 0 0 1 2.47345,-8.04697"
         sodipodi:open="true"
         sodipodi:end="5.2339981"
         sodipodi:start="5.2359878"
         sodipodi:ry="21.848301"
         sodipodi:rx="1.8119954"
         sodipodi:cy="406.02991"
         sodipodi:cx="581.10553"
         sodipodi:type="arc"
         id="path2106-6-8-8-2-4"
         style="opacity:1;fill:#a49a8d;fill-opacity:1;stroke:none;stroke-width:0.67749012;stroke-linecap:round;stroke-linejoin:round;stroke-miterlimit:4;stroke-dasharray:none;stroke-dashoffset:0;stroke-opacity:1" />
      <path
         transform="matrix(0.99800986,0.06305802,-0.62336994,0.78192705,0,0)"
         d="m 829.08735,605.77166 a 2.118916,11.110551 0 0 1 0.7761,15.17251 2.118916,11.110551 0 0 1 -2.89319,4.07705 2.118916,11.110551 0 0 1 -0.77898,-15.16845 2.118916,11.110551 0 0 1 2.89242,-4.09215"
         sodipodi:open="true"
         sodipodi:end="5.2339981"
         sodipodi:start="5.2359878"
         sodipodi:ry="11.110551"
         sodipodi:rx="2.118916"
         sodipodi:cy="615.39368"
         sodipodi:cx="828.02789"
         sodipodi:type="arc"
         id="path2106-6-8-8-2-4-1"
         style="opacity:1;fill:#a49a8d;fill-opacity:1;stroke:none;stroke-width:0.52244461;stroke-linecap:round;stroke-linejoin:round;stroke-miterlimit:4;stroke-dasharray:none;stroke-dashoffset:0;stroke-opacity:1" />
      <path
         sodipodi:nodetypes="cccccc"
         inkscape:connector-curvature="0"
         id="path2315"
         d="m 368.95856,386.51168 c 1.00709,8.25547 3.25951,15.63189 7.99218,21.25755 2.36756,3.97818 7.99757,8.5655 13.34777,13.10058 6.74191,-2.17146 12.72665,-6.46301 18.37377,-11.69989 2.62192,-3.39929 4.70171,-6.6781 5.35559,-9.64005 z"
         style="opacity:1;fill:#aa8800;stroke:#000000;stroke-width:1px;stroke-linecap:butt;stroke-linejoin:miter;stroke-opacity:1" />
      <path
         sodipodi:nodetypes="cccc"
         inkscape:connector-curvature="0"
         id="path2317"
         d="m 369.45293,388.90109 c 5.46213,12.17528 11.99373,22.65199 21.17515,28.92016 9.5227,-2.68961 15.6804,-9.26191 22.49346,-15.07803 z"
         style="opacity:1;fill:#2b0000;stroke:#000000;stroke-width:1px;stroke-linecap:butt;stroke-linejoin:miter;stroke-opacity:1" />
      <path
         sodipodi:nodetypes="ccccccc"
         inkscape:connector-curvature="0"
         id="path2319"
         d="m 395.73649,415.34944 c 8.30781,-4.92199 17.15449,-9.17694 21.01036,-19.60968 3.74898,-8.48029 6.38552,-17.12912 2.96617,-26.69552 -3.03608,-6.81053 -8.63465,-12.23594 -19.77446,-14.66607 -10.82886,-0.51507 -20.37703,1.7142 -26.61314,11.04075 -5.15549,5.14604 -5.49805,11.53987 -4.77882,18.20898 1.23131,9.00745 10.57953,19.63828 27.18989,31.72154 z"
         style="opacity:1;fill:#ffcc00;fill-opacity:1;stroke:#000000;stroke-width:1px;stroke-linecap:butt;stroke-linejoin:miter;stroke-opacity:1" />
      <path
         transform="matrix(0.95735793,0.28890447,-0.30205711,0.95328983,0,0)"
         d="m 448.07804,154.463 a 46.904861,62.553566 0 0 1 17.18003,85.42281 46.904861,62.553566 0 0 1 -64.04447,22.95423 46.904861,62.553566 0 0 1 -17.24374,-85.39998 46.904861,62.553566 0 0 1 64.02731,-23.03919"
         sodipodi:open="true"
         sodipodi:end="5.2339981"
         sodipodi:start="5.2359878"
         sodipodi:ry="62.553566"
         sodipodi:rx="46.904861"
         sodipodi:cy="208.63597"
         sodipodi:cx="424.62561"
         sodipodi:type="arc"
         id="path2321"
         style="opacity:1;fill:#000000;fill-opacity:1;stroke:#000000;stroke-width:1.0405556;stroke-linecap:round;stroke-linejoin:round;stroke-miterlimit:4;stroke-dasharray:none;stroke-dashoffset:0;stroke-opacity:1" />
      <path
         transform="matrix(0.96626018,0.25756799,-0.19779736,0.98024293,0,0)"
         d="m 538.69037,165.25462 a 39.71619,59.109673 0 0 1 14.54701,80.71985 39.71619,59.109673 0 0 1 -54.22897,21.69048 39.71619,59.109673 0 0 1 -14.60096,-80.69827 39.71619,59.109673 0 0 1 54.21445,-21.77076"
         sodipodi:open="true"
         sodipodi:end="5.2339981"
         sodipodi:start="5.2359878"
         sodipodi:ry="59.109673"
         sodipodi:rx="39.71619"
         sodipodi:cy="216.4451"
         sodipodi:cx="518.83228"
         sodipodi:type="arc"
         id="path2321-0"
         style="opacity:1;fill:#000000;fill-opacity:1;stroke:#000000;stroke-width:0.93077219;stroke-linecap:round;stroke-linejoin:round;stroke-miterlimit:4;stroke-dasharray:none;stroke-dashoffset:0;stroke-opacity:1" />
      <path
         transform="matrix(0.96072729,0.27749428,-0.31427394,0.94933234,0,0)"
         d="m 448.31082,169.38363 a 40.337215,51.885574 0 0 1 14.77447,70.85466 40.337215,51.885574 0 0 1 -55.07692,19.03958 40.337215,51.885574 0 0 1 -14.82927,-70.83572 40.337215,51.885574 0 0 1 55.06217,-19.11005"
         sodipodi:open="true"
         sodipodi:end="5.2339981"
         sodipodi:start="5.2359878"
         sodipodi:ry="51.885574"
         sodipodi:rx="40.337215"
         sodipodi:cy="214.31786"
         sodipodi:cx="428.14221"
         sodipodi:type="arc"
         id="path2321-9"
         style="opacity:1;fill:#ffffbe;fill-opacity:1;stroke:#000000;stroke-width:0.87883347;stroke-linecap:round;stroke-linejoin:round;stroke-miterlimit:4;stroke-dasharray:none;stroke-dashoffset:0;stroke-opacity:1" />
      <path
         transform="matrix(0.99929571,0.03752445,-0.07566212,0.99713351,0,0)"
         d="m 502.48809,284.20955 a 33.514194,49.948845 0 0 1 12.27537,68.20988 33.514194,49.948845 0 0 1 -45.76069,18.32888 33.514194,49.948845 0 0 1 -12.3209,-68.19163 33.514194,49.948845 0 0 1 45.74843,-18.39673"
         sodipodi:open="true"
         sodipodi:end="5.2339981"
         sodipodi:start="5.2359878"
         sodipodi:ry="49.948845"
         sodipodi:rx="33.514194"
         sodipodi:cy="327.46652"
         sodipodi:cx="485.73099"
         sodipodi:type="arc"
         id="path2321-9-7"
         style="opacity:1;fill:#ffffbe;fill-opacity:1;stroke:#000000;stroke-width:0.7859726;stroke-linecap:round;stroke-linejoin:round;stroke-miterlimit:4;stroke-dasharray:none;stroke-dashoffset:0;stroke-opacity:1" />
      <path
         transform="matrix(0.99933255,0.03653023,-0.07771195,0.99697585,0,0)"
         d="m 498.24692,287.58749 a 28.112499,40.794613 0 0 1 10.29688,55.7089 28.112499,40.794613 0 0 1 -38.38515,14.96971 28.112499,40.794613 0 0 1 -10.33506,-55.69401 28.112499,40.794613 0 0 1 38.37487,-15.02512"
         sodipodi:open="true"
         sodipodi:end="5.2339981"
         sodipodi:start="5.2359878"
         sodipodi:ry="40.794613"
         sodipodi:rx="28.112499"
         sodipodi:cy="322.91666"
         sodipodi:cx="484.19067"
         sodipodi:type="arc"
         id="path2321-9-7-0"
         style="opacity:1;fill:#000000;fill-opacity:1;stroke:#000000;stroke-width:0.65055114;stroke-linecap:round;stroke-linejoin:round;stroke-miterlimit:4;stroke-dasharray:none;stroke-dashoffset:0;stroke-opacity:1" />
      <path
         transform="matrix(0.99937157,0.0354466,-0.08007575,0.99678878,0,0)"
         d="m 492.59789,296.26978 a 20.902384,29.437632 0 0 1 7.656,40.19987 20.902384,29.437632 0 0 1 -28.54037,10.80224 20.902384,29.437632 0 0 1 -7.68439,-40.18913 20.902384,29.437632 0 0 1 28.53272,-10.84221"
         sodipodi:open="true"
         sodipodi:end="5.2339981"
         sodipodi:start="5.2359878"
         sodipodi:ry="29.437632"
         sodipodi:rx="20.902384"
         sodipodi:cy="321.76352"
         sodipodi:cx="482.1467"
         sodipodi:type="arc"
         id="path2321-9-7-0-8"
         style="opacity:1;fill:#ffff78;fill-opacity:1;stroke:#000000;stroke-width:0.47651836;stroke-linecap:round;stroke-linejoin:round;stroke-miterlimit:4;stroke-dasharray:none;stroke-dashoffset:0;stroke-opacity:1" />
      <path
         transform="matrix(0.99939873,0.0346723,-0.08185433,0.9966443,0,0)"
         d="m 489.19215,305.04148 a 14.720474,20.281496 0 0 1 5.39172,27.6963 14.720474,20.281496 0 0 1 -20.09951,7.44236 14.720474,20.281496 0 0 1 -5.41172,-27.68889 14.720474,20.281496 0 0 1 20.09413,-7.46991"
         sodipodi:open="true"
         sodipodi:end="5.2339981"
         sodipodi:start="5.2359878"
         sodipodi:ry="20.281496"
         sodipodi:rx="14.720474"
         sodipodi:cy="322.60577"
         sodipodi:cx="481.83191"
         sodipodi:type="arc"
         id="path2321-9-7-0-8-6"
         style="opacity:1;fill:#000000;fill-opacity:1;stroke:#000000;stroke-width:0.33192593;stroke-linecap:round;stroke-linejoin:round;stroke-miterlimit:4;stroke-dasharray:none;stroke-dashoffset:0;stroke-opacity:1" />
      <path
         transform="matrix(0.96119971,0.27585342,-0.31609706,0.94872686,0,0)"
         d="m 448.06095,174.82017 a 33.244644,42.536705 0 0 1 12.17665,58.08789 33.244644,42.536705 0 0 1 -45.39264,15.60898 33.244644,42.536705 0 0 1 -12.22181,-58.07236 33.244644,42.536705 0 0 1 45.38048,-15.66676"
         sodipodi:open="true"
         sodipodi:end="5.2339981"
         sodipodi:start="5.2359878"
         sodipodi:ry="42.536705"
         sodipodi:rx="33.244644"
         sodipodi:cy="211.65804"
         sodipodi:cx="431.43863"
         sodipodi:type="arc"
         id="path2321-9-8"
         style="opacity:1;fill:#000000;fill-opacity:1;stroke:#000000;stroke-width:0.72239226;stroke-linecap:round;stroke-linejoin:round;stroke-miterlimit:4;stroke-dasharray:none;stroke-dashoffset:0;stroke-opacity:1" />
      <path
         transform="matrix(0.97544832,0.22022847,-0.27587543,0.9611934,0,0)"
         d="m 439.47626,206.11942 a 24.058783,30.56016 0 0 1 8.81211,41.73279 24.058783,30.56016 0 0 1 -32.85016,11.21415 24.058783,30.56016 0 0 1 -8.84479,-41.72163 24.058783,30.56016 0 0 1 32.84136,-11.25566"
         sodipodi:open="true"
         sodipodi:end="5.2339981"
         sodipodi:start="5.2359878"
         sodipodi:ry="30.56016"
         sodipodi:rx="24.058783"
         sodipodi:cy="232.5853"
         sodipodi:cx="427.44687"
         sodipodi:type="arc"
         id="path2321-9-8-7"
         style="opacity:1;fill:#ffff78;fill-opacity:1;stroke:#000000;stroke-width:0.52088875;stroke-linecap:round;stroke-linejoin:round;stroke-miterlimit:4;stroke-dasharray:none;stroke-dashoffset:0;stroke-opacity:1" />
      <path
         transform="matrix(0.96670386,0.25589774,-0.23777225,0.97132093,0,0)"
         d="m 427.66255,194.1335 a 15.971945,23.328176 0 0 1 5.85011,31.85683 15.971945,23.328176 0 0 1 -21.80829,8.56035 15.971945,23.328176 0 0 1 -5.87181,-31.84832 15.971945,23.328176 0 0 1 21.80245,-8.59203"
         sodipodi:open="true"
         sodipodi:end="5.2339981"
         sodipodi:start="5.2359878"
         sodipodi:ry="23.328176"
         sodipodi:rx="15.971945"
         sodipodi:cy="214.33629"
         sodipodi:cx="419.67657"
         sodipodi:type="arc"
         id="path2321-9-8-7-1"
         style="opacity:1;fill:#000000;fill-opacity:1;stroke:#000000;stroke-width:0.37080848;stroke-linecap:round;stroke-linejoin:round;stroke-miterlimit:4;stroke-dasharray:none;stroke-dashoffset:0;stroke-opacity:1" />
      <path
         sodipodi:nodetypes="ccccc"
         inkscape:connector-curvature="0"
         id="path2462"
         d="m 338.93158,258.24666 48.34178,79.07206 38.9969,3.41447 57.68666,-52.83451 C 440.58018,260.99167 392.37167,250.65074 338.93158,258.24666 Z"
         style="fill:#813228;fill-opacity:1;stroke:none;stroke-width:1px;stroke-linecap:butt;stroke-linejoin:miter;stroke-opacity:1" />
      <path
         sodipodi:nodetypes="cccccccccccccc"
         inkscape:connector-curvature="0"
         id="path2458"
         d="m 396.07481,354.64464 c -1.88212,1.07562 -3.91177,2.14256 -8.75517,3.04399 -17.59104,-31.13329 -44.37799,-53.93921 -62.45588,-68.28199 -16.83537,-10.75588 -34.40687,-20.28486 -49.87148,-33.32533 -6.41614,-4.24934 -10.93292,-9.44837 -15.38092,-14.68179 -4.70571,-8.71994 -0.9644,-11.19643 5.82611,-11.41917 -3.26527,-6.26007 -6.42137,-12.5638 -7.22438,-19.80877 -3.62382,-10.04065 1.46237,-9.0991 9.32177,-4.66089 3.40511,3.83007 6.31013,4.95969 7.22438,-4.66088 -0.60462,-6.34691 -2.2584,-9.28404 0.93218,-27.96532 2.829,-9.9595 4.49337,-6.33173 5.8261,1.16522 5.32231,22.68739 17.32432,33.12864 28.43141,45.2106 18.98064,16.7672 40.38694,32.43183 54.29932,51.50279 24.44469,24.05038 30.27931,53.36014 31.82656,83.88154 z"
         style="fill:#ffffff;stroke:#000000;stroke-width:1px;stroke-linecap:butt;stroke-linejoin:miter;stroke-opacity:1" />
      <path
         sodipodi:nodetypes="cccccccccccccc"
         inkscape:connector-curvature="0"
         id="path2460"
         d="m 413.01551,361.78785 c 18.1431,-11.86158 38.65673,-24.01948 68.20785,-37.30706 10.17565,-2.58375 26.99777,-10.23149 28.23275,-6.0033 17.12109,-6.42461 40.35767,-10.59615 49.39608,-19.99859 5.96701,-6.13421 2.07566,-9.52998 -0.18842,-13.37778 3.51716,-4.84511 7.03433,-8.60213 10.55149,-15.63882 1.8748,-4.16391 2.32621,-7.45798 -4.33365,-6.40626 -5.52859,2.64893 -7.77516,1.07811 -6.59468,-4.89891 4.55137,-7.28213 8.90303,-14.78214 8.29046,-27.69766 1.40463,-8.94435 -2.67376,-4.18114 -5.84101,-1.69578 -16.18516,17.23535 -31.10564,26.10141 -46.35119,37.11864 l -20.45124,8.24776 c -41.21095,18.15349 -73.12291,45.70683 -88.07838,82.57043 z"
         style="fill:#ffffff;stroke:#000000;stroke-width:1px;stroke-linecap:butt;stroke-linejoin:miter;stroke-opacity:1" />
      <path
         sodipodi:nodetypes="cc"
         inkscape:connector-curvature="0"
         id="path2464"
         d="m 295.12126,276.65344 c -8.88072,11.71007 -18.82322,17.04945 -28.7295,22.60613"
         style="fill:none;stroke:#000000;stroke-width:1px;stroke-linecap:butt;stroke-linejoin:miter;stroke-opacity:1" />
      <path
         sodipodi:nodetypes="cc"
         inkscape:connector-curvature="0"
         id="path2466"
         d="m 273.63633,333.33148 c -4.30179,-0.58647 -4.28026,2.65154 -16.91396,-5.30547"
         style="fill:none;stroke:#000000;stroke-width:1px;stroke-linecap:butt;stroke-linejoin:miter;stroke-opacity:1" />
      <path
         sodipodi:nodetypes="cc"
         inkscape:connector-curvature="0"
         id="path2468"
         d="m 293.68253,373.5029 c -13.74341,-4.85447 -27.18286,-14.11632 -40.22358,-29.15979"
         style="fill:none;stroke:#000000;stroke-width:1px;stroke-linecap:butt;stroke-linejoin:miter;stroke-opacity:1" />
      <path
         sodipodi:nodetypes="cc"
         inkscape:connector-curvature="0"
         id="path2470"
         d="m 480.18064,396.76451 c 9.02286,-0.058 17.23698,1.77106 27.34159,-0.81102"
         style="fill:none;stroke:#000000;stroke-width:1px;stroke-linecap:butt;stroke-linejoin:miter;stroke-opacity:1" />
      <path
         inkscape:connector-curvature="0"
         id="path2472"
         d="m 505.14882,376.82041 5.17633,1.75082"
         style="fill:none;stroke:#000000;stroke-width:1px;stroke-linecap:butt;stroke-linejoin:miter;stroke-opacity:1" />
    </g>
  </g>
</svg>
