<?xml version="1.0" encoding="UTF-8" standalone="no"?>
<!-- Created with Inkscape (http://www.inkscape.org/) -->

<svg
   xmlns:dc="http://purl.org/dc/elements/1.1/"
   xmlns:cc="http://creativecommons.org/ns#"
   xmlns:rdf="http://www.w3.org/1999/02/22-rdf-syntax-ns#"
   xmlns:svg="http://www.w3.org/2000/svg"
   xmlns="http://www.w3.org/2000/svg"
   xmlns:sodipodi="http://sodipodi.sourceforge.net/DTD/sodipodi-0.dtd"
   xmlns:inkscape="http://www.inkscape.org/namespaces/inkscape"
   width="600"
   height="600"
   viewBox="0 0 600 600"
   version="1.1"
   id="svg8"
   inkscape:version="0.92.4 (5da689c313, 2019-01-14)"
   sodipodi:docname="p.svg">
  <defs
     id="defs2" />
  <sodipodi:namedview
     id="base"
     pagecolor="#ffffff"
     bordercolor="#666666"
     borderopacity="1.0"
     inkscape:pageopacity="0.0"
     inkscape:pageshadow="2"
     inkscape:zoom="1.76"
     inkscape:cx="303.97727"
     inkscape:cy="298.86364"
     inkscape:document-units="mm"
     inkscape:current-layer="layer1"
     showgrid="false"
     units="px"
     inkscape:window-width="1817"
     inkscape:window-height="1249"
     inkscape:window-x="570"
     inkscape:window-y="1"
     inkscape:window-maximized="0" />
  <metadata
     id="metadata5">
    <rdf:RDF>
      <cc:Work
         rdf:about="">
        <dc:format>image/svg+xml</dc:format>
        <dc:type
           rdf:resource="http://purl.org/dc/dcmitype/StillImage" />
        <dc:title></dc:title>
      </cc:Work>
    </rdf:RDF>
  </metadata>
  <g
     inkscape:label="Layer 1"
     inkscape:groupmode="layer"
     id="layer1"
     transform="translate(0,-138.25001)">
    <path
       style="opacity:1;fill:#00ffff;fill-opacity:1;stroke:#000000;stroke-width:0.95244092;stroke-linecap:round;stroke-linejoin:round;stroke-miterlimit:4;stroke-dasharray:none;stroke-dashoffset:0;stroke-opacity:1"
       id="path826"
       sodipodi:type="arc"
       sodipodi:cx="284.01959"
       sodipodi:cy="179.74495"
       sodipodi:rx="5.1617842"
       sodipodi:ry="7.7123132"
       sodipodi:start="5.2359878"
       sodipodi:end="5.2339981"
       sodipodi:open="true"
       d="m 286.60048,173.06589 a 5.1617842,7.7123132 0 0 1 1.89063,10.53189 5.1617842,7.7123132 0 0 1 -7.04796,2.83006 5.1617842,7.7123132 0 0 1 -1.89764,-10.52908 5.1617842,7.7123132 0 0 1 7.04608,-2.84053" />
    <path
       style="fill:#fcaf17;stroke:#000000;stroke-width:1px;stroke-linecap:butt;stroke-linejoin:miter;stroke-opacity:1;fill-opacity:1;opacity:1"
       d="m 281.04397,153.45021 8.38031,42.63026 55.86873,-1.21453 1.8218,-42.26591 -22.95476,12.50974 -16.03189,-17.00352 -13.72427,15.91044 z"
       id="path828"
       inkscape:connector-curvature="0"
       sodipodi:nodetypes="cccccccc" />
    <path
       style="fill:none;stroke:#000000;stroke-width:1px;stroke-linecap:butt;stroke-linejoin:miter;stroke-opacity:1"
       d="m 286.14503,177.98387 c 20.95269,-3.51634 44.96969,-2.06044 59.75525,-2.06472"
       id="path847"
       inkscape:connector-curvature="0"
       sodipodi:nodetypes="cc" />
    <path
       style="opacity:1;fill:#fcaf17;fill-opacity:1;stroke:#000000;stroke-width:0.95244094;stroke-linecap:round;stroke-linejoin:round;stroke-miterlimit:4;stroke-dasharray:none;stroke-dashoffset:0;stroke-opacity:1"
       id="path830-8"
       sodipodi:type="arc"
       sodipodi:cx="343.47119"
       sodipodi:cy="176.76933"
       sodipodi:rx="7.6454968"
       sodipodi:ry="11.65815"
       sodipodi:start="5.2359878"
       sodipodi:end="5.2339981"
       sodipodi:open="true"
       d="m 347.29394,166.67308 a 7.6454968,11.65815 0 0 1 2.80035,15.92031 7.6454968,11.65815 0 0 1 -10.43926,4.27799 7.6454968,11.65815 0 0 1 -2.81073,-15.91605 7.6454968,11.65815 0 0 1 10.43646,-4.29383" />
    <path
       style="opacity:1;fill:#00ffff;fill-opacity:1;stroke:#000000;stroke-width:0.95244094;stroke-linecap:round;stroke-linejoin:round;stroke-miterlimit:4;stroke-dasharray:none;stroke-dashoffset:0;stroke-opacity:1"
       id="path826-1"
       sodipodi:type="arc"
       sodipodi:cx="346.67953"
       sodipodi:cy="176.64786"
       sodipodi:rx="5.0507674"
       sodipodi:ry="6.7991071"
       sodipodi:start="5.2359878"
       sodipodi:end="5.2339981"
       sodipodi:open="true"
       d="m 349.20492,170.75966 a 5.0507674,6.7991071 0 0 1 1.84996,9.28482 5.0507674,6.7991071 0 0 1 -6.89638,2.49496 5.0507674,6.7991071 0 0 1 -1.85682,-9.28235 5.0507674,6.7991071 0 0 1 6.89453,-2.50418" />
    <path
       style="opacity:1;fill:#ffe800;fill-opacity:1;stroke:#000000;stroke-width:1px;stroke-linecap:butt;stroke-linejoin:miter;stroke-opacity:1"
       d="m 248.66611,370.32566 c -6.17619,13.60904 1.03403,19.83247 16.63413,21.42701 -3.52844,9.06095 -2.50896,12.27456 -0.8458,14.66059 l 141.81298,22.83668 c 5.38373,-5.96424 4.04309,-12.76902 3.66515,-19.45347 8.19834,-2.51517 14.19333,-7.23368 12.68705,-19.45347 -13.77792,0.80437 -17.98654,-7.19502 -12.96898,-23.68249 7.28656,-11.92608 9.20634,-24.82795 0,-39.75274 16.08042,-3.70325 16.87441,-14.35487 8.17609,-29.32118 -11.48381,7.57122 -21.36578,10.55052 -21.70894,-13.81478 6.47308,-14.26129 2.3742,-25.18406 -5.35676,-34.95986 16.07547,-5.46504 17.65015,-16.6043 16.63413,-28.75731 l -13.81478,2.53741 c 4.76291,-6.11658 6.32594,-11.83317 5.07482,-17.198 -12.23572,4.82559 -23.09387,3.0389 -31.57665,-10.14963 -17.71258,-16.7496 -37.87253,-23.09791 -64.56297,-1.69161 -16.37055,-15.56894 -50.15347,-16.7085 -46.80111,21.70895 -4.66899,-0.094 -11.38317,1.22171 -18.04379,-2.53741 2.66335,5.05531 0.39917,9.49469 8.45802,15.22445 h -10.7135 c 1.19066,14.36382 7.64461,21.44001 18.60767,22.27282 -3.59575,10.37547 -0.0505,18.84668 7.61222,26.2199 4.25521,15.67629 1.26679,21.79098 -13.25091,12.68704 -10.04664,7.37818 -1.87924,16.57777 2.25547,25.37409 l 13.53285,43.4179 c -3.42973,17.17803 -9.0864,17.65404 -15.50639,12.40511 z"
       id="path914"
       inkscape:connector-curvature="0"
       sodipodi:nodetypes="cccccccccccccccccccccccccc" />
    <path
       style="opacity:1;fill:#fcaf17;fill-opacity:1;stroke:#000000;stroke-width:0.95244094;stroke-linecap:round;stroke-linejoin:round;stroke-miterlimit:4;stroke-dasharray:none;stroke-dashoffset:0;stroke-opacity:1"
       id="path830"
       sodipodi:type="arc"
       sodipodi:cx="305.88126"
       sodipodi:cy="176.58067"
       sodipodi:rx="9.0483046"
       sodipodi:ry="12.455499"
       sodipodi:start="5.2359878"
       sodipodi:end="5.2339981"
       sodipodi:open="true"
       d="m 310.40541,165.7939 a 9.0483046,12.455499 0 0 1 3.31416,17.00916 9.0483046,12.455499 0 0 1 -12.35467,4.57058 9.0483046,12.455499 0 0 1 -3.32645,-17.00461 9.0483046,12.455499 0 0 1 12.35136,-4.5875" />
    <path
       style="opacity:1;fill:#ff0000;fill-opacity:1;stroke:#000000;stroke-width:0.95244094;stroke-linecap:round;stroke-linejoin:round;stroke-miterlimit:4;stroke-dasharray:none;stroke-dashoffset:0;stroke-opacity:1"
       id="path830-4"
       sodipodi:type="arc"
       sodipodi:cx="305.42856"
       sodipodi:cy="176.76932"
       sodipodi:rx="5.5892143"
       sodipodi:ry="7.8704038"
       sodipodi:start="5.2359878"
       sodipodi:end="5.2339981"
       sodipodi:open="true"
       d="m 308.22317,169.95335 a 5.5892143,7.8704038 0 0 1 2.04718,10.74778 5.5892143,7.8704038 0 0 1 -7.63158,2.88807 5.5892143,7.8704038 0 0 1 -2.05478,-10.74491 5.5892143,7.8704038 0 0 1 7.62954,-2.89876" />
    <path
       style="fill:#fddcc6;stroke:#000000;stroke-width:1px;stroke-linecap:butt;stroke-linejoin:miter;stroke-opacity:1;fill-opacity:1;opacity:1"
       d="m 314.07939,301.01652 0.97163,15.78898 -56.84035,11.41666 -23.07621,6.07268 1.94326,17.73225 26.71982,-4.85815 90.11868,6.07269 6.07269,25.26238 19.18969,-6.55851 -3.4007,-19.6755 -41.05137,-35.95031 -0.48581,-25.7482 z"
       id="path879"
       inkscape:connector-curvature="0" />
    <path
       style="opacity:1;fill:#f49ac1;fill-opacity:1;stroke:#000000;stroke-width:1px;stroke-linecap:butt;stroke-linejoin:miter;stroke-opacity:1"
       d="m 252.6238,328.22216 c -4.39669,10.33574 4.05028,14.24966 6.5585,21.13295 0.97685,8.63199 7.0586,12.64525 21.61877,8.98757 l 21.86167,-38.62229 c -3.60521,-8.8852 -2.89043,-19.05472 -29.39181,-21.13295 -6.96455,-0.48782 -17.14152,6.70636 -21.13295,10.20211 -5.86058,2.00223 -5.72877,14.94735 0.48582,19.43261 z"
       id="path881"
       inkscape:connector-curvature="0"
       sodipodi:nodetypes="ccccccc" />
    <path
       style="opacity:1;fill:#00ffff;fill-opacity:1;stroke:#000000;stroke-width:0.95244092;stroke-linecap:round;stroke-linejoin:round;stroke-miterlimit:4;stroke-dasharray:none;stroke-dashoffset:0;stroke-opacity:1"
       id="path883"
       sodipodi:type="arc"
       sodipodi:cx="292.21774"
       sodipodi:cy="295.42963"
       sodipodi:rx="10.445023"
       sodipodi:ry="10.445023"
       sodipodi:start="5.2359878"
       sodipodi:end="5.2339981"
       sodipodi:open="true"
       d="m 297.44025,286.38397 a 10.445023,10.445023 0 0 1 3.82574,14.26367 10.445023,10.445023 0 0 1 -14.26176,3.83283 10.445023,10.445023 0 0 1 -3.83993,-14.25985 10.445023,10.445023 0 0 1 14.25795,-3.84702" />
    <path
       style="opacity:1;fill:#00ffff;fill-opacity:1;stroke:#000000;stroke-width:0.95244092;stroke-linecap:round;stroke-linejoin:round;stroke-miterlimit:4;stroke-dasharray:none;stroke-dashoffset:0;stroke-opacity:1"
       id="path883-0"
       sodipodi:type="arc"
       sodipodi:cx="357.80276"
       sodipodi:cy="290.08569"
       sodipodi:rx="10.445023"
       sodipodi:ry="10.445023"
       sodipodi:start="5.2359878"
       sodipodi:end="5.2339981"
       sodipodi:open="true"
       d="m 363.02528,281.04004 a 10.445023,10.445023 0 0 1 3.82574,14.26366 10.445023,10.445023 0 0 1 -14.26177,3.83284 10.445023,10.445023 0 0 1 -3.83992,-14.25985 10.445023,10.445023 0 0 1 14.25794,-3.84702" />
    <path
       style="opacity:1;fill:#dd55ff;fill-opacity:1;stroke:#000000;stroke-width:1px;stroke-linecap:butt;stroke-linejoin:miter;stroke-opacity:1"
       d="m 169.79234,665.37776 c -19.1985,-0.55478 -26.07274,27.31238 -9.28626,29.78337 12.66956,5.43337 25.78371,9.68115 41.29351,7.54055 -6.11618,24.95499 135.88786,46.55 157.27442,10.77222 14.29524,7.55644 93.91449,9.71468 101.25887,-13.28574 42.04129,-2.75699 42.34815,-15.80467 14.55128,-35.78203 z"
       id="path1075"
       inkscape:connector-curvature="0"
       sodipodi:nodetypes="ccccccc" />
    <path
       style="opacity:1;fill:#f49ac1;fill-opacity:1;stroke:#000000;stroke-width:1px;stroke-linecap:butt;stroke-linejoin:miter;stroke-opacity:1"
       d="m 305.57763,314.61934 c -24.0207,12.45379 -23.28758,19.24957 -25.50529,26.71982 -4.33836,10.41449 1.50587,24.57339 8.50177,48.82441 l -56.11164,62.91304 c -30.61006,62.70655 -58.23904,127.88522 -62.67013,212.30115 6.21615,13.93105 29.07222,12.67353 44.45207,11.41665 -9.96393,28.8814 127.94916,37.93487 141.61507,9.4734 48.551,6.96118 85.85431,6.97525 90.6045,-13.11701 12.85048,1.47532 22.04475,-1.80243 28.42018,-8.74467 C 472.2603,600.20306 454.6684,538.49465 424.84521,478.8248 l -85.50344,-93.76229 c -1.43889,-2.39028 0.0183,-8.83506 8.25886,-24.77657 l -3.40071,-36.19321 z"
       id="path900"
       inkscape:connector-curvature="0"
       sodipodi:nodetypes="cccccccccccccc" />
    <path
       style="fill:none;stroke:#000000;stroke-width:1px;stroke-linecap:butt;stroke-linejoin:miter;stroke-opacity:1"
       d="m 257.23904,321.90656 c -13.84332,13.52819 1.0188,26.55655 6.5585,25.26238"
       id="path902"
       inkscape:connector-curvature="0"
       sodipodi:nodetypes="cc" />
    <path
       style="fill:#ffffff;stroke:#000000;stroke-width:1px;stroke-linecap:butt;stroke-linejoin:miter;stroke-opacity:1;opacity:1"
       d="m 232.67202,320.85676 c 8.96986,6.34873 8.57659,14.08458 7.08197,21.9836 3.59099,5.52673 7.95856,10.49258 4.72131,20.95081 l -14.31147,-8.26229 c -19.38131,9.40878 -42.40566,10.9243 -63.88522,15.78687 -8.89617,10.20492 -18.5112,17.17494 -28.18031,23.90163 -4.00195,2.05926 -6.70715,2.00278 -8.85246,1.03279 -3.55238,0.73117 -6.11877,0.38093 -6.63934,-2.21311 -2.70436,-0.59979 -6.38734,-0.59025 -4.13115,-4.27869 2.05367,-4.98604 6.00034,-9.11162 10.18033,-13.13114 -11.40466,2.58119 -25.69195,6.70367 -4.27869,-8.26229 l 18.59016,-10.47541 -4.27869,-6.63934 c -1.39527,-6.94508 -3.90676,-15.32749 8.55737,-4.42623 l 15.34426,8.70492 c 33.38514,-16.16446 51.96141,-20.26243 64.1803,-19.18032 z"
       id="path904"
       inkscape:connector-curvature="0"
       sodipodi:nodetypes="ccccccccccccccccc" />
    <path
       style="fill:none;stroke:#000000;stroke-width:1px;stroke-linecap:butt;stroke-linejoin:miter;stroke-opacity:1"
       d="m 153.70898,364.45624 c -7.054,3.86292 -8.04637,8.9045 -9.0188,13.94995"
       id="path906"
       inkscape:connector-curvature="0"
       sodipodi:nodetypes="cc" />
    <path
       style="fill:none;stroke:#000000;stroke-width:1px;stroke-linecap:butt;stroke-linejoin:miter;stroke-opacity:1"
       d="m 141.57577,381.90989 c -4.67041,4.74647 -15.33081,9.13354 -12.32993,14.34028"
       id="path908"
       inkscape:connector-curvature="0"
       sodipodi:nodetypes="cc" />
    <path
       style="fill:none;stroke:#000000;stroke-width:1px;stroke-linecap:butt;stroke-linejoin:miter;stroke-opacity:1"
       d="m 137.29346,378.79549 c -5.12277,5.0117 -14.63922,8.69198 -14.68696,15.24157"
       id="path912"
       inkscape:connector-curvature="0"
       sodipodi:nodetypes="cc" />
    <path
       style="opacity:1;fill:#fddcc6;fill-opacity:1;stroke:#000000;stroke-width:1px;stroke-linecap:butt;stroke-linejoin:miter;stroke-opacity:1"
       d="m 268.01722,238.25845 c 4.7423,6.43296 7.34644,22.13125 10.28108,36.3974 3.63403,11.55809 10.73862,22.80996 35.57019,32.49768 17.57092,-7.05237 35.82791,-19.93633 54.00523,-32.14316 6.25468,-11.02526 10.06848,-20.83008 -2.95433,-22.21659 l -30.00434,-39.07386 -55.06557,6.72418 z"
       id="path836"
       inkscape:connector-curvature="0"
       sodipodi:nodetypes="cccccccc" />
    <path
       style="fill:none;stroke:#000000;stroke-width:1px;stroke-linecap:butt;stroke-linejoin:miter;stroke-opacity:1"
       d="m 302.05115,260.59322 c 1.13981,3.20493 1.40027,6.47267 -0.94538,9.92656"
       id="path838"
       inkscape:connector-curvature="0"
       sodipodi:nodetypes="cc" />
    <path
       style="fill:none;stroke:#000000;stroke-width:1px;stroke-linecap:butt;stroke-linejoin:miter;stroke-opacity:1"
       d="m 300.75125,273.47412 c 1.57661,2.68823 2.92353,3.07955 4.25424,3.30885"
       id="path840"
       inkscape:connector-curvature="0"
       sodipodi:nodetypes="cc" />
    <path
       style="opacity:1;fill:#dd55ff;fill-opacity:1;stroke:none;stroke-width:0.95244092;stroke-linecap:round;stroke-linejoin:round;stroke-miterlimit:4;stroke-dasharray:none;stroke-dashoffset:0;stroke-opacity:1"
       id="path844"
       sodipodi:type="arc"
       sodipodi:cx="308.49161"
       sodipodi:cy="288.89575"
       sodipodi:rx="4.7860217"
       sodipodi:ry="6.5586224"
       sodipodi:start="5.2359878"
       sodipodi:end="5.2339981"
       sodipodi:open="true"
       d="m 310.88462,283.21582 a 4.7860217,6.5586224 0 0 1 1.75299,8.95642 4.7860217,6.5586224 0 0 1 -6.53489,2.4067 4.7860217,6.5586224 0 0 1 -1.7595,-8.95402 4.7860217,6.5586224 0 0 1 6.53315,-2.41562" />
    <path
       style="fill:none;stroke:#000000;stroke-width:1px;stroke-linecap:butt;stroke-linejoin:miter;stroke-opacity:1"
       d="m 302.05115,286.82771 c 3.96007,2.27042 8.60593,2.14059 13.82629,0"
       id="path846"
       inkscape:connector-curvature="0"
       sodipodi:nodetypes="cc" />
    <path
       style="fill:none;stroke:#000000;stroke-width:1px;stroke-linecap:butt;stroke-linejoin:miter;stroke-opacity:1"
       d="m 312.04858,284.54392 c -3.82767,-4.25826 -5.90876,-2.1124 -7.98848,0.0385"
       id="path848"
       inkscape:connector-curvature="0"
       sodipodi:nodetypes="cc" />
    <path
       style="fill:none;stroke:#000000;stroke-width:1px;stroke-linecap:butt;stroke-linejoin:miter;stroke-opacity:1"
       d="m 304.09975,292.07116 c 5.04862,6.5068 6.93701,2.7298 9.22202,-1.20372"
       id="path850"
       inkscape:connector-curvature="0"
       sodipodi:nodetypes="cc" />
    <path
       style="opacity:1;fill:#000000;fill-opacity:1;stroke:none;stroke-width:0.95244092;stroke-linecap:round;stroke-linejoin:round;stroke-miterlimit:4;stroke-dasharray:none;stroke-dashoffset:0;stroke-opacity:1"
       id="path852"
       sodipodi:type="arc"
       sodipodi:cx="204.54373"
       sodipodi:cy="325.84027"
       sodipodi:rx="7.9819784"
       sodipodi:ry="13.381553"
       sodipodi:start="5.2359878"
       sodipodi:end="5.2339981"
       sodipodi:open="true"
       d="m 208.53472,314.25151 a 7.9819784,13.381553 0 0 1 2.92359,18.27377 7.9819784,13.381553 0 0 1 -10.89869,4.91041 7.9819784,13.381553 0 0 1 -2.93443,-18.26889 7.9819784,13.381553 0 0 1 10.89577,-4.92858"
       transform="rotate(-16.37361)" />
    <path
       style="opacity:1;fill:#ffffff;fill-opacity:1;stroke:none;stroke-width:0.8152951;stroke-linecap:round;stroke-linejoin:round;stroke-miterlimit:4;stroke-dasharray:none;stroke-dashoffset:0;stroke-opacity:1"
       id="path852-9"
       sodipodi:type="arc"
       sodipodi:cx="204.20558"
       sodipodi:cy="327.15546"
       sodipodi:rx="6.8574982"
       sodipodi:ry="11.413135"
       sodipodi:start="5.2359878"
       sodipodi:end="5.2339981"
       sodipodi:open="true"
       d="m 207.63433,317.27139 a 6.8574982,11.413135 0 0 1 2.51172,15.58572 6.8574982,11.413135 0 0 1 -9.36331,4.18808 6.8574982,11.413135 0 0 1 -2.52104,-15.58155 6.8574982,11.413135 0 0 1 9.36081,-4.20358"
       transform="matrix(0.96009784,-0.27966432,0.28414959,0.95877996,0,0)" />
    <path
       style="opacity:1;fill:#000000;fill-opacity:1;stroke:none;stroke-width:0.61671299;stroke-linecap:round;stroke-linejoin:round;stroke-miterlimit:4;stroke-dasharray:none;stroke-dashoffset:0;stroke-opacity:1"
       id="path852-9-0"
       sodipodi:type="arc"
       sodipodi:cx="258.89984"
       sodipodi:cy="284.08093"
       sodipodi:rx="5.1436815"
       sodipodi:ry="8.7062893"
       sodipodi:start="5.2359878"
       sodipodi:end="5.2339981"
       sodipodi:open="true"
       d="m 261.47168,276.54107 a 5.1436815,8.7062893 0 0 1 1.884,11.88926 5.1436815,8.7062893 0 0 1 -7.02325,3.1948 5.1436815,8.7062893 0 0 1 -1.89098,-11.88609 5.1436815,8.7062893 0 0 1 7.02136,-3.20662"
       transform="matrix(0.99584373,-0.09107833,0.1174932,0.99307369,0,0)" />
    <path
       style="opacity:1;fill:#00ffff;fill-opacity:1;stroke:none;stroke-width:0.52220398;stroke-linecap:round;stroke-linejoin:round;stroke-miterlimit:4;stroke-dasharray:none;stroke-dashoffset:0;stroke-opacity:1"
       id="path852-9-0-7"
       sodipodi:type="arc"
       sodipodi:cx="258.25171"
       sodipodi:cy="283.68039"
       sodipodi:rx="4.4031124"
       sodipodi:ry="7.2922497"
       sodipodi:start="5.2359878"
       sodipodi:end="5.2339981"
       sodipodi:open="true"
       d="m 260.45327,277.36512 a 4.4031124,7.2922497 0 0 1 1.61274,9.95825 4.4031124,7.2922497 0 0 1 -6.01206,2.67592 4.4031124,7.2922497 0 0 1 -1.61873,-9.9556 4.4031124,7.2922497 0 0 1 6.01045,-2.68582"
       transform="matrix(0.99602372,-0.08908843,0.12010151,0.99276162,0,0)" />
    <path
       style="opacity:1;fill:#000000;fill-opacity:1;stroke:none;stroke-width:0.28724995;stroke-linecap:round;stroke-linejoin:round;stroke-miterlimit:4;stroke-dasharray:none;stroke-dashoffset:0;stroke-opacity:1"
       id="path852-9-0-7-2"
       sodipodi:type="arc"
       sodipodi:cx="267.93204"
       sodipodi:cy="292.20135"
       sodipodi:rx="2.0873892"
       sodipodi:ry="4.6543331"
       sodipodi:start="5.2359878"
       sodipodi:end="5.2339981"
       sodipodi:open="true"
       d="m 268.97573,288.17058 a 2.0873892,4.6543331 0 0 1 0.76456,6.35594 2.0873892,4.6543331 0 0 1 -2.85015,1.70792 2.0873892,4.6543331 0 0 1 -0.76739,-6.35423 2.0873892,4.6543331 0 0 1 2.84938,-1.71425"
       transform="matrix(0.9927329,-0.12033865,0.08891171,0.99603951,0,0)" />
    <path
       style="opacity:1;fill:#ffffff;fill-opacity:1;stroke:none;stroke-width:0.20084809;stroke-linecap:round;stroke-linejoin:round;stroke-miterlimit:4;stroke-dasharray:none;stroke-dashoffset:0;stroke-opacity:1"
       id="path852-9-0-7-2-5"
       sodipodi:type="arc"
       sodipodi:cx="380.22552"
       sodipodi:cy="-216.33095"
       sodipodi:rx="2.624074"
       sodipodi:ry="1.8100907"
       sodipodi:start="5.2359878"
       sodipodi:end="5.2339981"
       sodipodi:open="true"
       d="m 381.53756,-217.89853 a 2.624074,1.8100907 0 0 1 0.96113,2.47185 2.624074,1.8100907 0 0 1 -3.58294,0.66422 2.624074,1.8100907 0 0 1 -0.9647,-2.47119 2.624074,1.8100907 0 0 1 3.58199,-0.66668"
       transform="matrix(0.27273937,0.96208796,-0.86079344,0.50895448,0,0)" />
    <path
       style="fill:none;stroke:#000000;stroke-width:1px;stroke-linecap:butt;stroke-linejoin:miter;stroke-opacity:1"
       d="m 277.37613,256.87702 c 1.08581,1.29395 1.95406,2.80545 4.4698,2.66947"
       id="path931"
       inkscape:connector-curvature="0"
       sodipodi:nodetypes="cc" />
    <path
       style="fill:none;stroke:#000000;stroke-width:1px;stroke-linecap:butt;stroke-linejoin:miter;stroke-opacity:1"
       d="m 275.69995,249.92399 c 1.31022,1.92329 2.38993,4.16351 4.96645,4.34564"
       id="path933"
       inkscape:connector-curvature="0"
       sodipodi:nodetypes="cc" />
    <path
       style="fill:none;stroke:#000000;stroke-width:1px;stroke-linecap:butt;stroke-linejoin:miter;stroke-opacity:1"
       d="m 275.57579,241.97768 c 1.79603,3.84116 3.62698,6.73954 5.58726,6.14598"
       id="path935"
       inkscape:connector-curvature="0"
       sodipodi:nodetypes="cc" />
    <path
       style="fill:none;stroke:#000000;stroke-width:1px;stroke-linecap:butt;stroke-linejoin:miter;stroke-opacity:1"
       d="m 279.73519,236.70082 c 2.05482,-2.66604 4.25681,-3.27169 6.64263,-1.30369"
       id="path937"
       inkscape:connector-curvature="0"
       sodipodi:nodetypes="cc" />
    <path
       style="fill:none;stroke:#000000;stroke-width:1px;stroke-linecap:butt;stroke-linejoin:miter;stroke-opacity:1"
       d="m 333.12451,231.36189 c -3.2576,-3.14976 -5.29425,-1.82273 -7.07719,0.43457"
       id="path939"
       inkscape:connector-curvature="0"
       sodipodi:nodetypes="cc" />
    <path
       style="opacity:1;fill:#000000;fill-opacity:1;stroke:none;stroke-width:0.95244092;stroke-linecap:round;stroke-linejoin:round;stroke-miterlimit:4;stroke-dasharray:none;stroke-dashoffset:0;stroke-opacity:1"
       id="path941"
       sodipodi:type="arc"
       sodipodi:cx="410.93805"
       sodipodi:cy="61.875778"
       sodipodi:rx="12.074677"
       sodipodi:ry="14.806224"
       sodipodi:start="5.2359878"
       sodipodi:end="5.2339981"
       sodipodi:open="true"
       d="m 416.97539,49.053213 a 12.074677,14.806224 0 0 1 4.42264,20.219299 12.074677,14.806224 0 0 1 -16.48691,5.433191 12.074677,14.806224 0 0 1 -4.43905,-20.213894 12.074677,14.806224 0 0 1 16.4825,-5.453301"
       transform="rotate(28.982749)" />
    <path
       style="opacity:1;fill:#ffffff;fill-opacity:1;stroke:none;stroke-width:0.83266759;stroke-linecap:round;stroke-linejoin:round;stroke-miterlimit:4;stroke-dasharray:none;stroke-dashoffset:0;stroke-opacity:1"
       id="path941-3"
       sodipodi:type="arc"
       sodipodi:cx="412.20941"
       sodipodi:cy="69.285583"
       sodipodi:rx="10.646132"
       sodipodi:ry="12.834983"
       sodipodi:start="5.2359878"
       sodipodi:end="5.2339981"
       sodipodi:open="true"
       d="m 417.53248,58.170163 a 10.646132,12.834983 0 0 1 3.8994,17.527383 10.646132,12.834983 0 0 1 -14.53636,4.709837 10.646132,12.834983 0 0 1 -3.91386,-17.522697 10.646132,12.834983 0 0 1 14.53246,-4.72727"
       transform="matrix(0.88119853,0.47274639,-0.49645818,0.86806064,0,0)" />
    <path
       style="opacity:1;fill:#000000;fill-opacity:1;stroke:none;stroke-width:0.98213571;stroke-linecap:round;stroke-linejoin:round;stroke-miterlimit:4;stroke-dasharray:none;stroke-dashoffset:0;stroke-opacity:1"
       id="path967"
       sodipodi:type="arc"
       sodipodi:cx="330.20673"
       sodipodi:cy="256.87701"
       sodipodi:rx="6.3322215"
       sodipodi:ry="9.5604134"
       sodipodi:start="5.2359878"
       sodipodi:end="5.2339981"
       sodipodi:open="true"
       d="m 333.37284,248.59745 a 6.3322215,9.5604134 0 0 1 2.31932,13.05565 6.3322215,9.5604134 0 0 1 -8.64609,3.50823 6.3322215,9.5604134 0 0 1 -2.32793,-13.05216 6.3322215,9.5604134 0 0 1 8.64378,-3.52121" />
    <path
       style="opacity:1;fill:#00ffff;fill-opacity:1;stroke:none;stroke-width:0.81595415;stroke-linecap:round;stroke-linejoin:round;stroke-miterlimit:4;stroke-dasharray:none;stroke-dashoffset:0;stroke-opacity:1"
       id="path967-1"
       sodipodi:type="arc"
       sodipodi:cx="330.39297"
       sodipodi:cy="257.62198"
       sodipodi:rx="4.8422871"
       sodipodi:ry="8.6292038"
       sodipodi:start="5.2359878"
       sodipodi:end="5.2339981"
       sodipodi:open="true"
       d="m 332.81412,250.14887 a 4.8422871,8.6292038 0 0 1 1.7736,11.78399 4.8422871,8.6292038 0 0 1 -6.61172,3.16652 4.8422871,8.6292038 0 0 1 -1.78018,-11.78085 4.8422871,8.6292038 0 0 1 6.60995,-3.17823" />
    <path
       style="opacity:1;fill:#000000;fill-opacity:1;stroke:none;stroke-width:0.35110649;stroke-linecap:round;stroke-linejoin:round;stroke-miterlimit:4;stroke-dasharray:none;stroke-dashoffset:0;stroke-opacity:1"
       id="path967-1-7"
       sodipodi:type="arc"
       sodipodi:cx="330.23773"
       sodipodi:cy="258.11862"
       sodipodi:rx="1.7072166"
       sodipodi:ry="4.5318842"
       sodipodi:start="5.2359878"
       sodipodi:end="5.2339981"
       sodipodi:open="true"
       d="m 331.09134,254.1939 a 1.7072166,4.5318842 0 0 1 0.62531,6.18871 1.7072166,4.5318842 0 0 1 -2.33106,1.66299 1.7072166,4.5318842 0 0 1 -0.62762,-6.18706 1.7072166,4.5318842 0 0 1 2.33043,-1.66915" />
    <path
       style="opacity:1;fill:#ffffff;fill-opacity:1;stroke:none;stroke-width:0.28373468;stroke-linecap:round;stroke-linejoin:round;stroke-miterlimit:4;stroke-dasharray:none;stroke-dashoffset:0;stroke-opacity:1"
       id="path967-1-7-2"
       sodipodi:type="arc"
       sodipodi:cx="327.90973"
       sodipodi:cy="254.76628"
       sodipodi:rx="1.7692972"
       sodipodi:ry="2.8557079"
       sodipodi:start="5.2359878"
       sodipodi:end="5.2339981"
       sodipodi:open="true"
       d="m 328.79438,252.29317 a 1.7692972,2.8557079 0 0 1 0.64805,3.89973 1.7692972,2.8557079 0 0 1 -2.41582,1.04792 1.7692972,2.8557079 0 0 1 -0.65046,-3.8987 1.7692972,2.8557079 0 0 1 2.41518,-1.05179" />
    <path
       style="fill:none;stroke:#000000;stroke-width:1px;stroke-linecap:butt;stroke-linejoin:miter;stroke-opacity:1"
       d="m 344.17486,237.88036 c -0.88094,4.0659 -2.69248,6.27062 -5.06118,7.36102"
       id="path1014"
       inkscape:connector-curvature="0"
       sodipodi:nodetypes="cc" />
    <path
       style="fill:none;stroke:#000000;stroke-width:1px;stroke-linecap:butt;stroke-linejoin:miter;stroke-opacity:1"
       d="m 347.27889,245.45419 c -1.4464,2.61437 -3.23035,4.1317 -5.33893,4.59396"
       id="path1016"
       inkscape:connector-curvature="0"
       sodipodi:nodetypes="cc" />
    <path
       style="fill:none;stroke:#000000;stroke-width:1px;stroke-linecap:butt;stroke-linejoin:miter;stroke-opacity:1"
       d="m 346.2856,254.02131 c -2.21586,2.22082 -3.96897,2.59065 -5.52517,2.17282"
       id="path1018"
       inkscape:connector-curvature="0"
       sodipodi:nodetypes="cc" />
    <path
       style="fill:none;stroke:#000000;stroke-width:1px;stroke-linecap:butt;stroke-linejoin:miter;stroke-opacity:1"
       d="m 314.60001,285.45107 1.79656,2.3728"
       id="path1020"
       inkscape:connector-curvature="0" />
    <path
       style="fill:none;stroke:#000000;stroke-width:1px;stroke-linecap:butt;stroke-linejoin:miter;stroke-opacity:1"
       d="m 302.73599,285.79004 -0.67795,2.54229"
       id="path1022"
       inkscape:connector-curvature="0" />
    <path
       style="fill:#dd55ff;stroke:#000000;stroke-width:1px;stroke-linecap:butt;stroke-linejoin:miter;stroke-opacity:1;opacity:1;fill-opacity:1"
       d="m 294.83115,310.38244 c 3.81003,4.30972 7.62526,8.62009 9.00158,12.6256 l 34.36969,0.23381 9.2354,-12.6256 c -5.33943,-4.09661 -9.77925,-2.79553 -13.56083,2.45498 -7.24801,-5.50642 -10.36538,-2.43382 -13.67774,0.2338 -4.05266,-3.87774 -8.10532,-3.55701 -12.15798,-0.58451 -4.54101,-3.8074 -8.97999,-5.37007 -13.21012,-2.33808 z"
       id="path1028"
       inkscape:connector-curvature="0"
       sodipodi:nodetypes="cccccccc" />
    <path
       style="fill:#dd55ff;stroke:#000000;stroke-width:1px;stroke-linecap:butt;stroke-linejoin:miter;stroke-opacity:1;fill-opacity:1;opacity:1"
       d="m 302.09547,401.46011 c 10.45773,-6.33596 17.3396,-14.26118 37.2463,-16.3976 5.7043,-0.71785 11.52552,-1.31044 24.94982,6.24313 l 32.36737,28.34789 c 11.24989,5.18649 12.00302,16.4656 13.5393,27.29014 1.485,28.48244 -27.85727,20.80948 -52.88786,18.19342 -23.65885,-3.94644 -42.06305,-18.12561 -55.00338,-42.94494 -15.24815,14.19002 -31.97804,26.65134 -53.94562,33.00202 -14.456,2.48907 -21.44566,-2.25394 -18.40498,-16.71256 4.94261,-7.77337 9.02051,-16.04086 21.57825,-19.46273 3.61319,-7.84882 4.22758,-17.26844 19.03963,-19.25119 2.58305,-5.68278 8.78199,-14.31904 16.63062,-13.44694 0.857,0.0952 0.67296,2.84193 1.36919,3.84282 z"
       id="path1065"
       inkscape:connector-curvature="0"
       sodipodi:nodetypes="cccccccccccscc" />
    <path
       style="fill:none;stroke:#000000;stroke-width:1px;stroke-linecap:butt;stroke-linejoin:miter;stroke-opacity:1"
       d="m 311.58996,415.97697 c 22.8101,14.77689 45.97317,22.49445 69.83572,16.22246"
       id="path1071"
       inkscape:connector-curvature="0"
       sodipodi:nodetypes="cc" />
    <path
       style="fill:none;stroke:#000000;stroke-width:1px;stroke-linecap:butt;stroke-linejoin:miter;stroke-opacity:1"
       d="m 314.55748,404.89821 c 17.4742,4.43044 35.28498,5.49518 53.81109,-0.5935"
       id="path1069"
       inkscape:connector-curvature="0"
       sodipodi:nodetypes="cc" />
    <path
       style="fill:#ffffff;stroke:#000000;stroke-width:1px;stroke-linecap:butt;stroke-linejoin:miter;stroke-opacity:1;opacity:1"
       d="m 349.03475,378.21982 c 5.95916,-9.7796 12.8301,-7.09805 19.7354,-3.94708 7.32082,-11.10481 14.42736,-11.92374 21.42701,-7.61223 -3.07244,4.35183 -6.11423,8.73431 -7.61222,14.66059 8.24792,18.29495 14.86013,37.29092 18.60766,57.51461 15.59482,9.05508 26.29938,19.74024 31.85859,32.14052 3.15462,7.40217 -0.7856,6.46081 -7.10554,2.7209 1.04376,7.21801 -1.07568,4.94643 -2.47282,4.84176 1.49341,5.73644 -0.62083,8.184 -3.02734,6.29203 2.02774,8.8597 0.28646,14.9914 -4.31036,7.57232 -4.99129,-9.74686 -10.5304,-18.7894 -17.76187,-25.65603 2.51178,16.5797 -2.49076,20.06279 -6.08129,10.39064 -2.56271,-7.41555 -5.66222,-16.04811 -4.63221,-29.56217 -12.73364,-20.44182 -22.54774,-40.98096 -25.65603,-61.74363 z"
       id="path834"
       inkscape:connector-curvature="0"
       sodipodi:nodetypes="ccccccccccccccc" />
    <path
       style="opacity:1;fill:#f49ac1;fill-opacity:1;stroke:#000000;stroke-width:1px;stroke-linecap:butt;stroke-linejoin:miter;stroke-opacity:1"
       d="m 372.2214,356.4425 c 15.60983,2.00379 19.73548,-7.02624 19.52292,-20.22434 -0.75602,-10.61452 -5.02962,-19.4057 -15.782,-26.65405 -11.23799,-5.19737 -22.31253,-7.17773 -36.12324,5.9621 -11.04029,17.76619 -6.77312,26.88033 -3.97473,36.82466 4.87748,8.69937 10.82011,14.27432 20.34125,9.3523 z"
       id="path1024"
       inkscape:connector-curvature="0"
       sodipodi:nodetypes="ccccccc" />
    <path
       style="fill:#f49ac1;fill-opacity:1;stroke:#000000;stroke-width:1px;stroke-linecap:butt;stroke-linejoin:miter;stroke-opacity:1"
       d="m 349.07447,356.4425 c 9.03651,11.43863 29.87577,5.41378 26.53714,-12.04108"
       id="path1026"
       inkscape:connector-curvature="0"
       sodipodi:nodetypes="cc" />
    <path
       style="opacity:1;fill:#ffff00;fill-opacity:1;stroke:#000000;stroke-width:0.95244092;stroke-linecap:round;stroke-linejoin:round;stroke-miterlimit:4;stroke-dasharray:none;stroke-dashoffset:0;stroke-opacity:1"
       id="path1030"
       sodipodi:type="arc"
       sodipodi:cx="385.20691"
       sodipodi:cy="249.88594"
       sodipodi:rx="14.905223"
       sodipodi:ry="19.055304"
       sodipodi:start="5.2359878"
       sodipodi:end="5.2339981"
       sodipodi:open="true"
       d="m 392.65952,233.38356 a 14.905223,19.055304 0 0 1 5.4594,26.02182 14.905223,19.055304 0 0 1 -20.35178,6.99241 14.905223,19.055304 0 0 1 -5.47964,-26.01487 14.905223,19.055304 0 0 1 20.34632,-7.01828"
       transform="rotate(15.801452)" />
    <path
       style="opacity:1;fill:#00ffff;fill-opacity:1;stroke:#000000;stroke-width:0.95342149;stroke-linecap:round;stroke-linejoin:round;stroke-miterlimit:4;stroke-dasharray:none;stroke-dashoffset:0;stroke-opacity:1"
       id="path1030-4"
       sodipodi:type="arc"
       sodipodi:cx="376.87524"
       sodipodi:cy="236.57455"
       sodipodi:rx="7.9974337"
       sodipodi:ry="11.344485"
       sodipodi:start="5.2359878"
       sodipodi:end="5.2339981"
       sodipodi:open="true"
       d="m 380.87396,226.74994 a 7.9974337,11.344485 0 0 1 2.92925,15.49197 7.9974337,11.344485 0 0 1 -10.91979,4.16289 7.9974337,11.344485 0 0 1 -2.94012,-15.48782 7.9974337,11.344485 0 0 1 10.91687,-4.1783"
       transform="matrix(0.95247976,0.30460189,-0.24293142,0.97004347,0,0)" />
    <path
       style="fill:#ffe800;stroke:#000000;stroke-width:1px;stroke-linecap:butt;stroke-linejoin:miter;stroke-opacity:1;fill-opacity:1"
       d="m 263.51154,245.18011 c 8.30025,-7.28777 20.62123,-11.73161 16.10279,-28.08626"
       id="path1047"
       inkscape:connector-curvature="0"
       sodipodi:nodetypes="cc" />
    <path
       style="opacity:1;fill:#ffe800;fill-opacity:1;stroke:#000000;stroke-width:1px;stroke-linecap:butt;stroke-linejoin:miter;stroke-opacity:1"
       d="m 352.38895,237.94009 c 0.54872,26.13725 -8.66993,35.57545 -18.22487,44.43871 l 9.48692,-0.99862 -2.99587,14.97933 c 10.68381,-12.21005 24.22102,-17.33578 25.83936,-52.0532"
       id="path1053"
       inkscape:connector-curvature="0"
       sodipodi:nodetypes="ccccc" />
    <path
       style="fill:#ffe800;fill-opacity:1;stroke:#000000;stroke-width:1px;stroke-linecap:butt;stroke-linejoin:miter;stroke-opacity:1"
       d="m 359.3793,243.43252 c -17.1754,-4.71514 -36.88372,-30.18296 -22.467,-32.70847"
       id="path1049"
       inkscape:connector-curvature="0"
       sodipodi:nodetypes="cc" />
    <path
       style="fill:#ffe800;stroke:#000000;stroke-width:1px;stroke-linecap:butt;stroke-linejoin:miter;stroke-opacity:1;fill-opacity:1"
       d="m 277.35292,215.45099 c 5.90805,12.21317 13.66282,19.22191 23.23248,21.116 15.47235,-7.31236 30.92812,-14.63113 36.3269,-25.84294"
       id="path1051"
       inkscape:connector-curvature="0"
       sodipodi:nodetypes="ccc" />
    <path
       style="fill:none;stroke:#000000;stroke-width:1px;stroke-linecap:butt;stroke-linejoin:miter;stroke-opacity:1"
       d="m 299.11687,199.39524 3.39871,-5.84243"
       id="path1055"
       inkscape:connector-curvature="0" />
    <path
       style="fill:none;stroke:#000000;stroke-width:1px;stroke-linecap:butt;stroke-linejoin:miter;stroke-opacity:1"
       d="m 421.37784,464.17331 c 1.88717,2.97207 4.28096,5.66268 4.56781,9.52382"
       id="path1057"
       inkscape:connector-curvature="0"
       sodipodi:nodetypes="cc" />
    <path
       style="fill:none;stroke:#000000;stroke-width:1px;stroke-linecap:butt;stroke-linejoin:miter;stroke-opacity:1"
       d="m 419.24716,469.85512 c 1.93139,2.59583 3.60821,5.33713 4.22567,8.68377"
       id="path1061"
       inkscape:connector-curvature="0"
       sodipodi:nodetypes="cc" />
    <path
       style="fill:none;stroke:#000000;stroke-width:1px;stroke-linecap:butt;stroke-linejoin:miter;stroke-opacity:1"
       d="m 414.48864,472.69603 c 2.69036,3.83354 5.13578,7.74056 5.95685,12.13489"
       id="path1063"
       inkscape:connector-curvature="0"
       sodipodi:nodetypes="cc" />
    <path
       style="fill:none;stroke:#000000;stroke-width:1px;stroke-linecap:butt;stroke-linejoin:miter;stroke-opacity:1"
       d="m 272.22082,404.50254 c 5.30818,3.80113 12.3898,2.72533 19.78348,0.79134"
       id="path1067"
       inkscape:connector-curvature="0"
       sodipodi:nodetypes="cc" />
    <path
       style="fill:none;stroke:#000000;stroke-width:1px;stroke-linecap:butt;stroke-linejoin:miter;stroke-opacity:1"
       d="m 292.59781,413.00944 c -13.2166,9.44554 -26.21023,16.10382 -38.37997,12.4636"
       id="path1073"
       inkscape:connector-curvature="0"
       sodipodi:nodetypes="cc" />
    <path
       style="fill:none;stroke:#000000;stroke-width:1px;stroke-linecap:butt;stroke-linejoin:miter;stroke-opacity:1"
       d="m 207.54478,690.13409 c -5.22417,4.53752 -8.95776,8.91814 -5.74519,12.56759"
       id="path1079"
       inkscape:connector-curvature="0"
       sodipodi:nodetypes="cc" />
    <path
       style="fill:none;stroke:#000000;stroke-width:1px;stroke-linecap:butt;stroke-linejoin:miter;stroke-opacity:1"
       d="m 357.99679,702.34261 c 3.1648,2.83625 1.60326,15.76858 1.07722,11.13129"
       id="path1081"
       inkscape:connector-curvature="0"
       sodipodi:nodetypes="cc" />
    <path
       style="fill:none;stroke:#000000;stroke-width:1px;stroke-linecap:butt;stroke-linejoin:miter;stroke-opacity:1"
       d="m 453.51048,682.59354 c 4.57814,6.32568 7.03054,12.2262 6.8224,17.59462"
       id="path1083"
       inkscape:connector-curvature="0"
       sodipodi:nodetypes="cc" />
    <path
       style="fill:none;stroke:#000000;stroke-width:1px;stroke-linecap:butt;stroke-linejoin:miter;stroke-opacity:1"
       d="m 250.22631,495.15943 c -23.54861,69.0184 -31.24909,126.41484 -35.9819,181.63498"
       id="path1085"
       inkscape:connector-curvature="0"
       sodipodi:nodetypes="cc" />
    <path
       style="fill:none;stroke:#000000;stroke-width:1px;stroke-linecap:butt;stroke-linejoin:miter;stroke-opacity:1"
       d="m 337.28223,497.53801 c 12.26357,65.18661 16.36855,127.31376 18.57725,188.7298"
       id="path1087"
       inkscape:connector-curvature="0"
       sodipodi:nodetypes="cc" />
    <path
       style="fill:none;stroke:#000000;stroke-width:1px;stroke-linecap:butt;stroke-linejoin:miter;stroke-opacity:1"
       d="m 404.71796,496.20896 c 26.68551,59.56108 42.92842,118.64749 41.74602,176.94184"
       id="path1089"
       inkscape:connector-curvature="0"
       sodipodi:nodetypes="cc" />
  </g>
</svg>
