<?xml version="1.0" encoding="UTF-8" standalone="no"?>
<!-- Created with Inkscape (http://www.inkscape.org/) -->

<svg
   xmlns:dc="http://purl.org/dc/elements/1.1/"
   xmlns:cc="http://creativecommons.org/ns#"
   xmlns:rdf="http://www.w3.org/1999/02/22-rdf-syntax-ns#"
   xmlns:svg="http://www.w3.org/2000/svg"
   xmlns="http://www.w3.org/2000/svg"
   xmlns:sodipodi="http://sodipodi.sourceforge.net/DTD/sodipodi-0.dtd"
   xmlns:inkscape="http://www.inkscape.org/namespaces/inkscape"
   width="600"
   height="600"
   viewBox="0 0 600 600"
   version="1.1"
   id="svg5427"
   inkscape:version="0.92.4 (5da689c313, 2019-01-14)"
   sodipodi:docname="s.svg">
  <defs
     id="defs5421" />
  <sodipodi:namedview
     id="base"
     pagecolor="#ffffff"
     bordercolor="#666666"
     borderopacity="1.0"
     inkscape:pageopacity="0.0"
     inkscape:pageshadow="2"
     inkscape:zoom="1.7966667"
     inkscape:cx="300"
     inkscape:cy="300"
     inkscape:document-units="mm"
     inkscape:current-layer="layer1"
     showgrid="false"
     units="px"
     inkscape:window-width="2400"
     inkscape:window-height="1271"
     inkscape:window-x="-9"
     inkscape:window-y="-9"
     inkscape:window-maximized="1" />
  <metadata
     id="metadata5424">
    <rdf:RDF>
      <cc:Work
         rdf:about="">
        <dc:format>image/svg+xml</dc:format>
        <dc:type
           rdf:resource="http://purl.org/dc/dcmitype/StillImage" />
        <dc:title></dc:title>
      </cc:Work>
    </rdf:RDF>
  </metadata>
  <g
     inkscape:label="Layer 1"
     inkscape:groupmode="layer"
     id="layer1"
     transform="translate(0,-138.24998)">
    <path
       style="fill:#ff0000;stroke:#000000;stroke-width:1px;stroke-linecap:butt;stroke-linejoin:miter;stroke-opacity:1;opacity:1"
       d="m 186.50932,530.1892 c -5.8508,-0.89679 -12.03066,-3.43888 -18.31065,-6.48165 l -20.9033,-22.19963 c -6.57997,-12.69842 -8.91349,-26.19304 -8.58818,-40.1862 2.20352,-18.6204 5.71205,-36.8058 18.1486,-52.01519 11.99801,-16.7786 28.59666,-27.47247 53.95969,-26.57474 13.44112,3.2583 25.61673,8.59566 33.05639,21.71351 l 9.88451,33.86659 -24.46821,87.01607 z"
       id="path5983"
       inkscape:connector-curvature="0"
       sodipodi:nodetypes="cccccccccc" />
    <path
       style="opacity:1;fill:#2b1100;fill-opacity:1;stroke:#000000;stroke-width:1px;stroke-linecap:butt;stroke-linejoin:miter;stroke-opacity:1"
       d="m 172.76384,517.18827 c 3.3813,4.79722 8.43332,6.253 12.985,8.70945 0.65601,21.94499 9.41202,20.16857 21.85281,7.60098 1.31959,5.54517 1.29523,11.79768 10.29298,13.30171 l 0.47507,-29.29543 -36.5797,-10.9264 z"
       id="path6043"
       inkscape:connector-curvature="0"
       sodipodi:nodetypes="ccccccc" />
    <path
       style="fill:#e4ab8d;stroke:#000000;stroke-width:1px;stroke-linecap:butt;stroke-linejoin:miter;stroke-opacity:1;fill-opacity:1;opacity:1"
       d="m 194.44933,421.62165 c -27.86228,10.19385 -32.92505,26.38757 -36.62129,42.9409 l 13.12533,31.59801 c -7.969,-5.63326 -15.4647,-7.4801 -21.71351,0.64817 -7.05559,8.97277 -3.99324,15.99979 0,22.84779 4.0999,5.9168 13.92435,8.89473 19.5471,4.67028 5.84404,-3.76523 9.15327,-7.27188 13.67133,-10.6658 8.29684,6.64879 22.42303,8.19691 34.35271,11.66696 l 33.54251,-39.21395 -5.67144,-51.04295 c -0.0631,-1.12613 -4.1542,-5.18178 -8.91226,-9.72246 z"
       id="path5987"
       inkscape:connector-curvature="0"
       sodipodi:nodetypes="cccccccccccc" />
    <path
       style="opacity:1;fill:#ffffff;fill-opacity:1;stroke:#000000;stroke-width:0.95244094;stroke-linecap:round;stroke-linejoin:round;stroke-miterlimit:4;stroke-dasharray:none;stroke-dashoffset:0;stroke-opacity:1"
       id="path5995"
       sodipodi:type="arc"
       sodipodi:cx="189.74164"
       sodipodi:cy="444.6644"
       sodipodi:rx="10.361801"
       sodipodi:ry="10.244592"
       sodipodi:start="5.2359878"
       sodipodi:end="5.2339981"
       sodipodi:open="true"
       d="m 194.92254,435.79232 a 10.361801,10.244592 0 0 1 3.79526,13.98996 10.361801,10.244592 0 0 1 -14.14813,3.75929 10.361801,10.244592 0 0 1 -3.80934,-13.98622 10.361801,10.244592 0 0 1 14.14434,-3.7732" />
    <path
       style="fill:none;stroke:#000000;stroke-width:1px;stroke-linecap:butt;stroke-linejoin:miter;stroke-opacity:1;opacity:1"
       d="m 157.82804,464.56255 c -6.40279,-14.77274 -19.4296,-24.20354 12.63921,-70.00176"
       id="path5985"
       inkscape:connector-curvature="0"
       sodipodi:nodetypes="cc" />
    <path
       style="fill:#000000;stroke:#000000;stroke-width:1px;stroke-linecap:butt;stroke-linejoin:miter;stroke-opacity:1;opacity:1"
       d="m 168.88244,446.69005 c -2.52139,-9.74141 14.90519,-26.1497 24.70961,-13.49319 -11.57738,-2.23308 -19.19007,3.5215 -24.70961,13.49319 z"
       id="path5993"
       inkscape:connector-curvature="0"
       sodipodi:nodetypes="ccc" />
    <path
       style="opacity:1;fill:#2a7fff;fill-opacity:1;stroke:#000000;stroke-width:0.95244094;stroke-linecap:round;stroke-linejoin:round;stroke-miterlimit:4;stroke-dasharray:none;stroke-dashoffset:0;stroke-opacity:1"
       id="path5995-0"
       sodipodi:type="arc"
       sodipodi:cx="191.33139"
       sodipodi:cy="441.74515"
       sodipodi:rx="7.1465611"
       sodipodi:ry="6.8854671"
       sodipodi:start="5.2359878"
       sodipodi:end="5.2339981"
       sodipodi:open="true"
       d="m 194.90467,435.78216 a 7.1465611,6.8854671 0 0 1 2.6176,9.40275 7.1465611,6.8854671 0 0 1 -9.758,2.52665 7.1465611,6.8854671 0 0 1 -2.62731,-9.40024 7.1465611,6.8854671 0 0 1 9.75539,-2.536" />
    <path
       style="opacity:1;fill:#2b1100;stroke:#000000;stroke-width:1px;stroke-linecap:butt;stroke-linejoin:miter;stroke-opacity:1"
       d="m 180.26627,455.79711 c -3.45332,2.37655 -3.89567,4.87856 -3.08033,7.43297 0.4276,1.39924 1.00288,2.50314 1.60713,3.54908 3.32452,-0.48635 7.14682,-2.71495 11.18294,-5.69192 5.88669,3.98064 11.54554,1.58164 17.07574,-4.4196 4.69964,2.37522 11.35453,-2.31852 18.34805,-8.23654 5.74595,0.3769 13.17305,2.72733 15.1338,-1.33927 l 8.23653,1.20535 -2.41069,-14.12934 -11.2499,1.94194 c -7.19624,5.13454 -15.17521,6.35541 -23.4373,6.16066 -10.76203,3.80479 -21.51617,7.62853 -31.40597,13.52667 z"
       id="path6029"
       inkscape:connector-curvature="0"
       sodipodi:nodetypes="cccccccccccc" />
    <path
       style="fill:#ff0000;stroke:#000000;stroke-width:1px;stroke-linecap:butt;stroke-linejoin:miter;stroke-opacity:1;fill-opacity:1;opacity:1"
       d="m 245.16028,411.36961 c -0.21319,26.47397 1.0743,37.941 3.60985,36.92757 l -6.13928,4.12705 c 1.24927,11.20833 1.68078,22.21222 1.55657,33.07718 -5.34501,5.77103 -9.88142,10.5987 -14.20373,15.17659 l -12.87746,36.72509 c -0.67081,11.39504 0.54652,18.17465 1.33168,26.01065 l 70.89013,-65.65432 c -0.42534,-3.24035 -4.61484,-3.97126 -7.97744,-5.25343 1.2802,-8.49084 2.39384,-18.20314 2.14029,-37.94147 -1.25441,-2.75345 -2.09007,-6.17692 -0.77828,-13.0363 l -0.19458,-33.46633 c -11.40511,-3.15145 -23.89542,-2.26357 -37.35775,3.30772 z"
       id="path6081"
       inkscape:connector-curvature="0"
       sodipodi:nodetypes="ccccccccccccc" />
    <path
       style="opacity:1;fill:#e4ab8d;fill-opacity:1;stroke:#000000;stroke-width:0.95244094;stroke-linecap:round;stroke-linejoin:round;stroke-miterlimit:4;stroke-dasharray:none;stroke-dashoffset:0;stroke-opacity:1"
       id="path5991"
       sodipodi:type="arc"
       sodipodi:cx="215.89919"
       sodipodi:cy="427.4874"
       sodipodi:rx="22.750477"
       sodipodi:ry="21.805552"
       sodipodi:start="5.2359878"
       sodipodi:end="5.2339981"
       sodipodi:open="true"
       d="m 227.27442,408.60324 a 22.750477,21.805552 0 0 1 8.33291,29.77754 22.750477,21.805552 0 0 1 -31.06378,8.00161 22.750477,21.805552 0 0 1 -8.36381,-29.76958 22.750477,21.805552 0 0 1 31.05546,-8.03123" />
    <path
       style="opacity:1;fill:#000000;fill-opacity:1;stroke:#000000;stroke-width:0.68248683;stroke-linecap:round;stroke-linejoin:round;stroke-miterlimit:4;stroke-dasharray:none;stroke-dashoffset:0;stroke-opacity:1"
       id="path5995-0-1"
       sodipodi:type="arc"
       sodipodi:cx="192.16907"
       sodipodi:cy="441.51138"
       sodipodi:rx="5.1209831"
       sodipodi:ry="4.9338918"
       sodipodi:start="5.2359878"
       sodipodi:end="5.2339981"
       sodipodi:open="true"
       d="m 194.72956,437.23851 a 5.1209831,4.9338918 0 0 1 1.87568,6.73769 5.1209831,4.9338918 0 0 1 -6.99225,1.81051 5.1209831,4.9338918 0 0 1 -1.88264,-6.73589 5.1209831,4.9338918 0 0 1 6.99038,-1.81721" />
    <path
       style="opacity:1;fill:#ffffff;fill-opacity:1;stroke:none;stroke-width:1.14778268;stroke-linecap:round;stroke-linejoin:round;stroke-miterlimit:4;stroke-dasharray:none;stroke-dashoffset:0;stroke-opacity:1"
       id="path6027"
       sodipodi:type="arc"
       sodipodi:cx="101.34373"
       sodipodi:cy="487.13629"
       sodipodi:rx="2.0880971"
       sodipodi:ry="0.9589954"
       sodipodi:start="5.2359878"
       sodipodi:end="5.2339981"
       sodipodi:open="true"
       d="m 102.38778,486.30578 a 2.0880971,0.9589954 0 0 1 0.76481,1.3096 2.0880971,0.9589954 0 0 1 -2.85111,0.3519 2.0880971,0.9589954 0 0 1 -0.767654,-1.30925 2.0880971,0.9589954 0 0 1 2.850354,-0.35321"
       transform="matrix(0.92386593,-0.38271627,0.19970894,0.97985526,0,0)" />
    <path
       style="fill:#550000;stroke:#000000;stroke-width:1px;stroke-linecap:butt;stroke-linejoin:miter;stroke-opacity:1;opacity:1"
       d="m 218.83736,457.60513 c -2.48135,2.27677 -3.38184,4.55353 -3.54908,6.8303 2.54892,4.13073 5.19328,8.11549 10.71419,7.70082 6.01576,-0.77413 10.89518,-1.90711 13.52667,-3.74996 2.12385,-3.53578 2.6717,-6.64175 0.87053,-9.10707 -1.11684,-3.03456 -3.03491,-4.91179 -5.75888,-5.62495 -5.88629,-0.45012 -11.16711,0.82966 -15.80343,3.95086 z"
       id="path6031"
       inkscape:connector-curvature="0"
       sodipodi:nodetypes="ccccccc" />
    <path
       style="opacity:1;fill:#ffffff;stroke:#000000;stroke-width:1px;stroke-linecap:butt;stroke-linejoin:miter;stroke-opacity:1"
       d="m 215.28828,464.43543 c 6.1351,-4.49622 12.65855,-8.28048 21.96409,-6.96423 l -2.61158,-3.81693 c -16.95836,1.51665 -17.16518,6.34465 -19.35251,10.78116 z"
       id="path6033"
       inkscape:connector-curvature="0"
       sodipodi:nodetypes="cccc" />
    <path
       style="fill:none;stroke:#000000;stroke-width:1px;stroke-linecap:butt;stroke-linejoin:miter;stroke-opacity:1;opacity:1"
       d="m 149.92657,503.70088 c 3.46225,-7.93018 8.96498,-10.67413 17.273,-6.28797 5.71483,6.6196 2.15781,12.86833 -2.04549,19.0912"
       id="path6037"
       inkscape:connector-curvature="0"
       sodipodi:nodetypes="ccc" />
    <path
       style="fill:none;stroke:#000000;stroke-width:1px;stroke-linecap:butt;stroke-linejoin:miter;stroke-opacity:1;opacity:1"
       d="m 167.19957,497.41291 c -4.67922,3.01104 -5.1456,7.42636 -6.36374,11.59109"
       id="path6039"
       inkscape:connector-curvature="0"
       sodipodi:nodetypes="cc" />
    <path
       style="opacity:1;fill:#2b1100;fill-opacity:1;stroke:#000000;stroke-width:1px;stroke-linecap:butt;stroke-linejoin:miter;stroke-opacity:1"
       d="m 157.82804,464.56255 c -2.48919,10.87418 -2.28786,20.29962 3.08355,26.94118 3.56388,0.68578 6.88149,2.35668 10.04178,4.65683 -1.04713,-8.97505 -1.93677,-17.83198 0.18565,-24.42987 -0.7065,-3.13858 -3.3367,-3.27139 -7.27284,-1.36366 -1.79185,-2.59741 -2.7789,-7.60924 -6.03814,-5.80448 z"
       id="path6041"
       inkscape:connector-curvature="0"
       sodipodi:nodetypes="cccccc" />
    <path
       style="fill:#ffffff;stroke:#000000;stroke-width:1px;stroke-linecap:butt;stroke-linejoin:miter;stroke-opacity:1;opacity:1"
       d="m 197.37726,622.41619 c -1.08181,-1.70276 -2.68627,-2.40773 -1.02724,-9.34301 l 12.71823,-2.83715 z"
       id="path6051"
       inkscape:connector-curvature="0"
       sodipodi:nodetypes="cccc" />
    <path
       style="fill:#ffffff;stroke:#000000;stroke-width:1px;stroke-linecap:butt;stroke-linejoin:miter;stroke-opacity:1;opacity:1"
       d="m 206.28003,585.28872 c 3.70544,-1.65075 6.18094,-2.79835 12.52257,-5.52754 l 5.57646,14.7238 -12.57149,12.03341 -7.58203,-2.83714 c 0.47922,-6.14369 -0.2911,-12.36548 2.05449,-18.39253 z"
       id="path6045"
       inkscape:connector-curvature="0"
       sodipodi:nodetypes="cccccc" />
    <path
       style="opacity:1;fill:#ffffff;stroke:#000000;stroke-width:1px;stroke-linecap:butt;stroke-linejoin:miter;stroke-opacity:1"
       d="m 204.22554,603.68125 c -1.84914,0.61677 -4.34722,0.23064 -7.63094,-1.36966 -1.12335,-4.70897 -0.83097,-7.45165 0.39133,-8.90277 8.24927,-9.22971 11.04834,-8.10404 10.17459,0 z"
       id="path6047"
       inkscape:connector-curvature="0"
       sodipodi:nodetypes="ccccc" />
    <path
       style="opacity:1;fill:#ffffff;stroke:#000000;stroke-width:1px;stroke-linecap:butt;stroke-linejoin:miter;stroke-opacity:1"
       d="m 196.83918,599.76794 c -4.61305,2.29825 -6.35305,6.44041 -2.25015,14.33248 7.13607,-0.31985 10.58536,-1.22958 11.20183,-2.59257 l 6.79937,-7.38636 c -9.89802,-4.93694 -12.37405,-4.30738 -15.75105,-4.35355 z"
       id="path6049"
       inkscape:connector-curvature="0"
       sodipodi:nodetypes="ccccc" />
    <path
       style="fill:#552200;stroke:#000000;stroke-width:1px;stroke-linecap:butt;stroke-linejoin:miter;stroke-opacity:1;opacity:1"
       d="m 220.17225,585.97355 c -2.50641,2.41352 -1.27256,6.96432 -1.27182,10.8105 l 4.54922,-2.9839 z"
       id="path6053"
       inkscape:connector-curvature="0"
       sodipodi:nodetypes="cccc" />
    <path
       style="fill:#803300;stroke:#000000;stroke-width:1px;stroke-linecap:butt;stroke-linejoin:miter;stroke-opacity:1;opacity:1"
       d="m 175.903,702.44325 c -3.69572,-9.77587 -12.10077,-17.07048 7.33745,-39.0352 19.87949,-9.76965 37.45682,-5.7264 54.49275,1.56532 l 22.40367,10.56592 c 7.05189,13.42624 6.20398,22.3383 0.48916,28.46928"
       id="path6057"
       inkscape:connector-curvature="0"
       sodipodi:nodetypes="ccccc" />
    <path
       style="fill:#917c6f;stroke:#000000;stroke-width:1px;stroke-linecap:butt;stroke-linejoin:miter;stroke-opacity:1;fill-opacity:1;opacity:1"
       d="m 175.903,702.44325 0.48917,7.92444 c 28.09139,0.26663 55.64401,1.61079 84.42953,0.48916 l -0.19567,-6.84828 c -8.48141,-0.35354 -17.24984,-0.13305 -26.51263,1.07616 -20.84707,-1.81883 -42.38034,-4.0837 -58.2104,-2.64148 z"
       id="path6055"
       inkscape:connector-curvature="0"
       sodipodi:nodetypes="cccccc" />
    <path
       style="opacity:1;fill:#803300;fill-opacity:1;stroke:#000000;stroke-width:1px;stroke-linecap:butt;stroke-linejoin:miter;stroke-opacity:1"
       d="m 386.61577,675.7471 2.04047,5.04748 c -0.93874,2.46657 -2.41441,5.00026 -1.18132,7.19535 -0.0236,10.70801 4.20532,12.30361 8.05449,14.71288 20.93389,4.60791 39.63576,4.30539 56.27407,-0.53697 4.27488,-8.1552 6.66479,-17.41921 1.28872,-31.25144 l -2.89961,-13.53155 c -6.58679,-6.6193 -13.17358,-14.43622 -19.76037,-22.76737 z"
       id="path6059"
       inkscape:connector-curvature="0"
       sodipodi:nodetypes="ccccccccc" />
    <path
       style="fill:#917c6f;stroke:#000000;stroke-width:1px;stroke-linecap:butt;stroke-linejoin:miter;stroke-opacity:1;fill-opacity:1;opacity:1"
       d="m 395.52941,702.70281 1.07393,7.51753 c 26.44469,3.84301 43.21682,2.18593 55.09275,-2.25526 l 0.10739,-5.79924"
       id="path6061"
       inkscape:connector-curvature="0"
       sodipodi:nodetypes="cccc" />
    <path
       style="opacity:1;fill:#5170c3;fill-opacity:1;stroke:#000000;stroke-width:1px;stroke-linecap:butt;stroke-linejoin:miter;stroke-opacity:1"
       d="m 198.24798,658.99375 -4.29574,-24.91524 c -1.75694,-3.75202 1.48201,-10.35883 7.73232,-18.68643 13.04892,-13.85533 15.75693,-15.82745 21.76509,-21.59193 -4.12099,-9.27649 -9.03605,-18.27678 -5.01174,-30.38641 0.38445,-7.33265 0.30078,-12.48818 1.50351,-23.62652 l 13.74633,-22.55259 c 19.97517,-7.37446 40.33463,-17.82334 59.92545,-22.12301 4.47102,7.77592 10.21505,12.86438 16.32378,17.18292 25.60033,24.12126 37.86205,57.81504 30.49968,62.71767 l 29.21097,25.34481 c 4.57534,-0.81172 9.0122,-0.6541 12.45762,6.4436 14.52598,6.02599 27.83505,11.1393 37.80243,13.74634 3.75054,4.20479 7.34404,8.72365 10.52454,14.06852 -1.27922,23.91719 -12.98731,30.01841 -27.92225,30.60708 -4.49562,6.39699 -8.64163,14.05257 -15.8942,10.52454 -6.29745,-7.92873 -8.89984,-16.44089 -25.34481,-22.76738 l -13.53155,-5.58445 c 0.40753,-4.12923 -4.82338,-6.52356 -11.81326,-8.37667 l -35.225,-18.68643 c -11.41009,16.14283 -27.25167,21.94553 -47.25303,18.04207 10.75204,12.02805 11.59255,24.05609 12.88719,36.08414 -12.77634,3.51621 -18.7086,0.54855 -20.61951,-6.22881 -17.09419,-7.91062 -33.23019,-12.18014 -47.46782,-9.23582 z"
       id="path6063"
       inkscape:connector-curvature="0"
       sodipodi:nodetypes="cccccccccccccccccccccccc" />
    <path
       style="fill:none;stroke:#000000;stroke-width:1px;stroke-linecap:butt;stroke-linejoin:miter;stroke-opacity:1;opacity:1"
       d="m 276.38589,501.14736 c 4.06812,4.51521 8.22342,8.99872 18.03824,11.42422 38.32929,28.25206 43.37546,45.73605 46.01253,62.44063"
       id="path6065"
       inkscape:connector-curvature="0"
       sodipodi:nodetypes="ccc" />
    <path
       style="fill:none;stroke:#000000;stroke-width:1px;stroke-linecap:butt;stroke-linejoin:miter;stroke-opacity:1;opacity:1"
       d="m 223.44965,593.80015 2.6296,-6.87094 c 5.65396,6.31363 8.69948,10.54051 21.84631,22.84843 27.0754,-13.88979 26.37995,13.87671 37.27903,24.25141"
       id="path6067"
       inkscape:connector-curvature="0"
       sodipodi:nodetypes="cccc" />
    <path
       style="fill:none;stroke:#000000;stroke-width:1px;stroke-linecap:butt;stroke-linejoin:miter;stroke-opacity:1;opacity:1"
       d="m 238.10474,599.7564 c 23.99764,-36.44354 49.99114,-65.4026 84.5793,-62.13171"
       id="path6069"
       inkscape:connector-curvature="0"
       sodipodi:nodetypes="cc" />
    <path
       style="fill:none;stroke:#000000;stroke-width:1px;stroke-linecap:butt;stroke-linejoin:miter;stroke-opacity:1;opacity:1"
       d="m 311.86109,526.4009 c -54.59513,9.30181 -59.81534,42.62385 -77.364,69.94827"
       id="path6071"
       inkscape:connector-curvature="0"
       sodipodi:nodetypes="cc" />
    <path
       style="fill:none;stroke:#000000;stroke-width:1px;stroke-linecap:butt;stroke-linejoin:miter;stroke-opacity:1;opacity:1"
       d="m 289.61393,545.04041 c 15.98057,12.02573 30.49256,9.36569 45.49645,11.62464"
       id="path6073"
       inkscape:connector-curvature="0"
       sodipodi:nodetypes="cc" />
    <path
       style="fill:none;stroke:#000000;stroke-width:1px;stroke-linecap:butt;stroke-linejoin:miter;stroke-opacity:1;opacity:1"
       d="m 283.20034,550.25146 c 18.17185,7.46398 36.34371,12.97544 54.51556,15.63313"
       id="path6075"
       inkscape:connector-curvature="0"
       sodipodi:nodetypes="cc" />
    <path
       style="fill:none;stroke:#000000;stroke-width:1px;stroke-linecap:butt;stroke-linejoin:miter;stroke-opacity:1;opacity:1"
       d="m 242.31366,629.82013 c 2.28047,2.63121 2.35229,4.92264 11.13446,8.55411"
       id="path6077"
       inkscape:connector-curvature="0"
       sodipodi:nodetypes="cc" />
    <path
       style="fill:none;stroke:#000000;stroke-width:1px;stroke-linecap:butt;stroke-linejoin:miter;stroke-opacity:1;opacity:1"
       d="m 221.46948,648.25921 c 11.55417,1.95744 22.18487,6.55339 37.27902,-1.60339"
       id="path6079"
       inkscape:connector-curvature="0"
       sodipodi:nodetypes="cc" />
    <path
       style="fill:#5170c3;stroke:#000000;stroke-width:1px;stroke-linecap:butt;stroke-linejoin:miter;stroke-opacity:1;fill-opacity:1;opacity:1"
       d="m 230.71534,498.9184 c 0.4148,9.69639 1.23282,17.37672 3.07723,19.92507 l 6.23139,9.53941 c -0.89714,5.57806 -2.07901,10.72902 -3.38496,15.69387 l -13.15516,7.69308 c -3.31115,-10.5198 -10.80108,-19.93991 -7.07762,-32.31092 4.65822,-10.08 9.25706,-21.8819 14.30912,-20.54051 z"
       id="path6083"
       inkscape:connector-curvature="0"
       sodipodi:nodetypes="ccccccc" />
    <path
       style="opacity:1;fill:#ffff00;fill-opacity:1;stroke:#000000;stroke-width:0.95244092;stroke-linecap:round;stroke-linejoin:round;stroke-miterlimit:4;stroke-dasharray:none;stroke-dashoffset:0;stroke-opacity:1"
       id="path6085"
       sodipodi:type="arc"
       sodipodi:cx="262.9722"
       sodipodi:cy="514.73541"
       sodipodi:rx="7.6161447"
       sodipodi:ry="11.15496"
       sodipodi:start="5.2359878"
       sodipodi:end="5.2339981"
       sodipodi:open="true"
       d="m 266.78027,505.07493 a 7.6161447,11.15496 0 0 1 2.7896,15.23316 7.6161447,11.15496 0 0 1 -10.39918,4.09334 7.6161447,11.15496 0 0 1 -2.79994,-15.22908 7.6161447,11.15496 0 0 1 10.39639,-4.10849"
       transform="rotate(3.985391)" />
    <path
       style="opacity:1;fill:#ffffff;fill-opacity:1;stroke:#000000;stroke-width:0.95244092;stroke-linecap:round;stroke-linejoin:round;stroke-miterlimit:4;stroke-dasharray:none;stroke-dashoffset:0;stroke-opacity:1"
       id="path6089"
       sodipodi:type="arc"
       sodipodi:cx="292.76852"
       sodipodi:cy="404.12265"
       sodipodi:rx="4.9834609"
       sodipodi:ry="3.8062654"
       sodipodi:start="5.2359878"
       sodipodi:end="5.2339981"
       sodipodi:open="true"
       d="m 295.26025,400.82633 a 4.9834609,3.8062654 0 0 1 1.82532,5.19781 4.9834609,3.8062654 0 0 1 -6.80448,1.39672 4.9834609,3.8062654 0 0 1 -1.83208,-5.19642 4.9834609,3.8062654 0 0 1 6.80265,-1.40189" />
    <path
       style="opacity:1;fill:#ffffff;stroke:#000000;stroke-width:1px;stroke-linecap:butt;stroke-linejoin:miter;stroke-opacity:1"
       d="m 284.0965,412.24532 c 2.27591,0.8158 4.55183,-0.1909 6.82774,-3.76703 5.38894,-3.83361 10.75144,-7.71048 13.8909,-15.22506 -0.10066,-0.90069 2.51624,-2.3449 6.5923,-4.08094 1.66186,-0.56261 3.27191,-0.633 5.33662,-5.0227 0.005,-3.3094 0.77135,-4.44075 -0.54936,-11.53652 0.15998,-3.58693 -2.18849,-4.66541 -4.47334,-5.8075 -3.24683,-2.59154 -6.29951,-4.32021 -7.69101,1.33416 l -0.15696,5.8075 c 0.0112,2.78475 -9.20789,3.48526 -15.06811,4.94422 -7.86587,5.60307 -9.45749,3.06773 -14.50635,4.89052 l -11.9413,-3.47789 c -6.57459,-1.48338 -8.1267,-4.28847 -10.98716,-6.74925 -11.27657,-12.80081 -11.20717,1.11279 -10.0454,5.57206 l 2.35439,11.45803 c -2.25757,5.98584 -1.0201,9.91577 0.19241,13.86038 z"
       id="path6091"
       inkscape:connector-curvature="0"
       sodipodi:nodetypes="ccccccccccccccccc" />
    <path
       style="fill:#ffffff;stroke:#000000;stroke-width:1px;stroke-linecap:butt;stroke-linejoin:miter;stroke-opacity:1"
       d="m 242.26682,404.55431 c -3.03544,3.22232 -4.84982,6.51791 2.43287,10.35932 11.19312,-7.07733 24.14315,-5.44148 39.39681,-2.66831 3.45509,-2.89716 6.1228,-6.12503 -0.70631,-13.34155 -21.01805,-4.7855 -31.88504,-0.31037 -41.12337,5.65054 z"
       id="path6093"
       inkscape:connector-curvature="0"
       sodipodi:nodetypes="ccccc" />
    <path
       style="fill:none;stroke:#000000;stroke-width:1px;stroke-linecap:butt;stroke-linejoin:miter;stroke-opacity:1"
       d="m 251.99831,382.50151 c -0.40906,6.35459 -5.18858,9.9489 -9.41757,13.89091"
       id="path6095"
       inkscape:connector-curvature="0"
       sodipodi:nodetypes="cc" />
    <path
       style="fill:none;stroke:#000000;stroke-width:1px;stroke-linecap:butt;stroke-linejoin:miter;stroke-opacity:1"
       d="m 304.03035,374.88898 c 4.30098,5.90379 7.75447,3.16293 7.69101,-8.08341 0.28642,5.68576 2.33208,18.24631 -5.65054,16.87314 l -7.14165,5.10118 c -6.21285,5.16554 -11.99225,6.71893 -17.57946,6.67077"
       id="path6097"
       inkscape:connector-curvature="0"
       sodipodi:nodetypes="ccccc" />
    <path
       style="fill:none;stroke:#000000;stroke-width:1px;stroke-linecap:butt;stroke-linejoin:miter;stroke-opacity:1"
       d="m 255.06727,381.00214 c 12.66219,4.48105 16.48957,8.6223 11.39608,12.42044"
       id="path6099"
       inkscape:connector-curvature="0"
       sodipodi:nodetypes="cc" />
    <path
       style="fill:#ffff00;stroke:#000000;stroke-width:1px;stroke-linecap:butt;stroke-linejoin:miter;stroke-opacity:1;opacity:1"
       d="m 270.18856,166.78922 -27.17102,53.47256 c -2.60512,4.1569 -6.52902,7.21481 -12.60735,8.47736 l -56.08097,9.12946 c -8.12158,0.0132 -9.47866,3.03286 -1.95631,9.99893 l 40.2131,41.08257 c 4.09135,3.48184 6.59459,7.39681 4.34736,12.60735 l -8.47735,55.2115 c -3.49881,12.10828 0.8588,10.95887 6.52104,7.60788 l 52.60308,-25.64943 c 4.74566,-3.51558 9.96382,-3.72366 15.86787,0.86947 l 47.82099,23.47576 c 7.88393,4.57531 13.34787,6.0584 10.8684,-2.60842 l -8.25999,-55.42887 c -3.65334,-9.65192 -0.22737,-15.76419 6.52105,-20.21523 l 36.95257,-37.38732 c 8.53185,-5.65723 5.84176,-8.60571 -2.39104,-10.2163 l -56.08098,-8.47735 c -5.50918,-0.90004 -10.27917,-3.46322 -13.47682,-9.5642 l -25.64944,-52.16835 c -2.67046,-4.38583 -5.21016,-9.86131 -9.56419,-0.21737 z"
       id="path6103"
       inkscape:connector-curvature="0"
       sodipodi:nodetypes="ccccccccccccccccccccc" />
    <path
       style="fill:#ffffff;stroke:none;stroke-width:1px;stroke-linecap:butt;stroke-linejoin:miter;stroke-opacity:1"
       d="m 273.88382,170.26711 c -6.01385,42.69937 -7.24561,39.79877 -10.86841,52.38571 -6.5089,12.92016 -21.8878,21.03709 -32.82258,25.43208 -24.90033,1.21948 -40.16481,-2.37897 -56.08098,-5.65157 50.08273,0.85162 78.33121,8.88577 99.77197,-72.16622 z"
       id="path6105"
       inkscape:connector-curvature="0"
       sodipodi:nodetypes="ccccc" />
    <path
       style="opacity:1;fill:#000000;fill-opacity:1;stroke:#000000;stroke-width:0.95244092;stroke-linecap:round;stroke-linejoin:round;stroke-miterlimit:4;stroke-dasharray:none;stroke-dashoffset:0;stroke-opacity:1"
       id="path6107-8"
       sodipodi:type="arc"
       sodipodi:cx="292.57748"
       sodipodi:cy="265.25708"
       sodipodi:rx="6.086307"
       sodipodi:ry="21.19339"
       sodipodi:start="5.2359878"
       sodipodi:end="5.2339981"
       sodipodi:open="true"
       d="m 295.62064,246.90307 a 6.086307,21.19339 0 0 1 2.22925,28.94157 6.086307,21.19339 0 0 1 -8.31031,7.77699 6.086307,21.19339 0 0 1 -2.23753,-28.93384 6.086307,21.19339 0 0 1 8.30809,-7.80577"
       inkscape:transform-center-x="-0.21738094"
       inkscape:transform-center-y="-6.303578" />
    <path
       style="opacity:1;fill:#000000;fill-opacity:1;stroke:#000000;stroke-width:0.95244092;stroke-linecap:round;stroke-linejoin:round;stroke-miterlimit:4;stroke-dasharray:none;stroke-dashoffset:0;stroke-opacity:1"
       id="path6107-8-7"
       sodipodi:type="arc"
       sodipodi:cx="256.76648"
       sodipodi:cy="265.19409"
       sodipodi:rx="6.086307"
       sodipodi:ry="21.19339"
       sodipodi:start="5.2359878"
       sodipodi:end="5.2339981"
       sodipodi:open="true"
       d="m 259.80963,246.84008 a 6.086307,21.19339 0 0 1 2.22926,28.94158 6.086307,21.19339 0 0 1 -8.31032,7.77698 6.086307,21.19339 0 0 1 -2.23752,-28.93384 6.086307,21.19339 0 0 1 8.30809,-7.80577"
       inkscape:transform-center-x="-0.21738094"
       inkscape:transform-center-y="-6.303578" />
    <path
       style="opacity:1;fill:#ffffff;fill-opacity:1;stroke:none;stroke-width:1.03338492;stroke-linecap:round;stroke-linejoin:round;stroke-miterlimit:4;stroke-dasharray:none;stroke-dashoffset:0;stroke-opacity:1"
       id="path6124"
       sodipodi:type="arc"
       sodipodi:cx="256.95029"
       sodipodi:cy="251.54309"
       sodipodi:rx="3.7103255"
       sodipodi:ry="6.7384114"
       sodipodi:start="5.2359878"
       sodipodi:end="5.2339981"
       sodipodi:open="true"
       d="m 258.80545,245.70746 a 3.7103255,6.7384114 0 0 1 1.359,9.20193 3.7103255,6.7384114 0 0 1 -5.06613,2.47269 3.7103255,6.7384114 0 0 1 -1.36403,-9.19948 3.7103255,6.7384114 0 0 1 5.06476,-2.48184" />
    <path
       style="opacity:1;fill:#ffffff;fill-opacity:1;stroke:none;stroke-width:1.03338492;stroke-linecap:round;stroke-linejoin:round;stroke-miterlimit:4;stroke-dasharray:none;stroke-dashoffset:0;stroke-opacity:1"
       id="path6124-6"
       sodipodi:type="arc"
       sodipodi:cx="292.69238"
       sodipodi:cy="251.73993"
       sodipodi:rx="3.7103255"
       sodipodi:ry="6.7384114"
       sodipodi:start="5.2359878"
       sodipodi:end="5.2339981"
       sodipodi:open="true"
       d="m 294.54755,245.90429 a 3.7103255,6.7384114 0 0 1 1.35899,9.20194 3.7103255,6.7384114 0 0 1 -5.06612,2.47268 3.7103255,6.7384114 0 0 1 -1.36404,-9.19947 3.7103255,6.7384114 0 0 1 5.06477,-2.48184" />
  </g>
</svg>
