<?xml version="1.0" encoding="UTF-8" standalone="no"?>
<!-- Created with Inkscape (http://www.inkscape.org/) -->

<svg
   xmlns:dc="http://purl.org/dc/elements/1.1/"
   xmlns:cc="http://creativecommons.org/ns#"
   xmlns:rdf="http://www.w3.org/1999/02/22-rdf-syntax-ns#"
   xmlns:svg="http://www.w3.org/2000/svg"
   xmlns="http://www.w3.org/2000/svg"
   xmlns:sodipodi="http://sodipodi.sourceforge.net/DTD/sodipodi-0.dtd"
   xmlns:inkscape="http://www.inkscape.org/namespaces/inkscape"
   width="600"
   height="600"
   viewBox="0 0 600 600"
   version="1.1"
   id="svg6180"
   inkscape:version="0.92.4 (5da689c313, 2019-01-14)"
   sodipodi:docname="t.svg">
  <defs
     id="defs6174" />
  <sodipodi:namedview
     id="base"
     pagecolor="#ffffff"
     bordercolor="#666666"
     borderopacity="1.0"
     inkscape:pageopacity="0.0"
     inkscape:pageshadow="2"
     inkscape:zoom="1.7966667"
     inkscape:cx="300"
     inkscape:cy="300"
     inkscape:document-units="mm"
     inkscape:current-layer="layer1"
     showgrid="false"
     units="px"
     inkscape:window-width="2400"
     inkscape:window-height="1271"
     inkscape:window-x="-9"
     inkscape:window-y="-9"
     inkscape:window-maximized="1" />
  <metadata
     id="metadata6177">
    <rdf:RDF>
      <cc:Work
         rdf:about="">
        <dc:format>image/svg+xml</dc:format>
        <dc:type
           rdf:resource="http://purl.org/dc/dcmitype/StillImage" />
        <dc:title></dc:title>
      </cc:Work>
    </rdf:RDF>
  </metadata>
  <g
     inkscape:label="Layer 1"
     inkscape:groupmode="layer"
     id="layer1"
     transform="translate(0,-138.24998)">
    <g
       id="toad">
      <path
         transform="rotate(28.109845)"
         d="m 569.03876,187.39172 a 3.9294412,6.6629653 0 0 1 1.43925,9.09891 3.9294412,6.6629653 0 0 1 -5.36531,2.445 3.9294412,6.6629653 0 0 1 -1.44459,-9.09648 3.9294412,6.6629653 0 0 1 5.36387,-2.45405"
         sodipodi:open="true"
         sodipodi:end="5.2339981"
         sodipodi:start="5.2359878"
         sodipodi:ry="6.6629653"
         sodipodi:rx="3.9294412"
         sodipodi:cy="193.16202"
         sodipodi:cx="567.07404"
         sodipodi:type="arc"
         id="path6750"
         style="opacity:1;fill:#e4ab8d;fill-opacity:1;stroke:#000000;stroke-width:0.95244092;stroke-linecap:round;stroke-linejoin:round;stroke-miterlimit:4;stroke-dasharray:none;stroke-dashoffset:0;stroke-opacity:1" />
      <path
         d="m 367.77452,215.29408 a 140.5583,122.38968 0 0 1 51.48284,167.13468 140.5583,122.38968 0 0 1 -191.92002,44.91129 140.5583,122.38968 0 0 1 -51.67378,-167.09 140.5583,122.38968 0 0 1 191.86862,-45.07752"
         sodipodi:open="true"
         sodipodi:end="5.2339981"
         sodipodi:start="5.2359878"
         sodipodi:ry="122.38968"
         sodipodi:rx="140.5583"
         sodipodi:cy="321.28665"
         sodipodi:cx="297.49536"
         sodipodi:type="arc"
         id="path6736"
         style="opacity:1;fill:#ffffff;fill-opacity:1;stroke:#000000;stroke-width:0.95244092;stroke-linecap:round;stroke-linejoin:round;stroke-miterlimit:4;stroke-dasharray:none;stroke-dashoffset:0;stroke-opacity:1" />
      <path
         d="m 328.66419,209.27219 a 67.346939,60.667904 0 0 1 24.66743,82.84776 67.346939,60.667904 0 0 1 -91.95633,22.26228 67.346939,60.667904 0 0 1 -24.75891,-82.82561 67.346939,60.667904 0 0 1 91.9317,-22.34468"
         sodipodi:open="true"
         sodipodi:end="5.2339981"
         sodipodi:start="5.2359878"
         sodipodi:ry="60.667904"
         sodipodi:rx="67.346939"
         sodipodi:cy="261.81213"
         sodipodi:cx="294.99072"
         sodipodi:type="arc"
         id="path6738"
         style="opacity:1;fill:#ff0000;fill-opacity:1;stroke:#000000;stroke-width:0.95244092;stroke-linecap:round;stroke-linejoin:round;stroke-miterlimit:4;stroke-dasharray:none;stroke-dashoffset:0;stroke-opacity:1" />
      <path
         sodipodi:nodetypes="cc"
         inkscape:connector-curvature="0"
         id="path6740"
         d="m 170.49714,272.11569 c -22.33243,44.6044 -14.86948,83.40793 11.91033,118.45065 z"
         style="fill:#ff0000;stroke:#000000;stroke-width:1px;stroke-linecap:butt;stroke-linejoin:miter;stroke-opacity:1" />
      <path
         sodipodi:nodetypes="cc"
         inkscape:connector-curvature="0"
         id="path6742"
         d="m 415.71935,255.14755 c 40.34765,65.96032 18.10305,98.14785 -0.16316,132.48199 z"
         style="fill:#ff0000;stroke:#000000;stroke-width:1px;stroke-linecap:butt;stroke-linejoin:miter;stroke-opacity:1" />
      <path
         transform="matrix(0.95527645,0.29571423,-0.35958968,0.93311053,0,0)"
         d="m 494.66496,490.41978 a 37.334503,51.738342 0 0 1 13.67466,70.6536 37.334503,51.738342 0 0 1 -50.97699,18.98555 37.334503,51.738342 0 0 1 -13.72537,-70.63471 37.334503,51.738342 0 0 1 50.96334,-19.05582"
         sodipodi:open="true"
         sodipodi:end="5.2339981"
         sodipodi:start="5.2359878"
         sodipodi:ry="51.738342"
         sodipodi:rx="37.334503"
         sodipodi:cy="535.2265"
         sodipodi:cx="475.99771"
         sodipodi:type="arc"
         id="path6744"
         style="opacity:1;fill:#803300;fill-opacity:1;stroke:#000000;stroke-width:0.95353132;stroke-linecap:round;stroke-linejoin:round;stroke-miterlimit:4;stroke-dasharray:none;stroke-dashoffset:0;stroke-opacity:1" />
      <path
         sodipodi:nodetypes="cccccccccccccccccccccccccc"
         inkscape:connector-curvature="0"
         id="path6746"
         d="m 209.4563,447.30049 c 17.48472,8.64995 35.09031,16.81637 53.47456,21.8682 l 76.88037,-2.56268 c 16.48068,-8.25429 32.45959,-16.58027 45.78653,-25.2851 0.13539,-5.61104 -0.2469,-10.49731 2.05015,-19.13467 0.44413,-9.24873 6.73223,-4.13183 5.97958,0.34169 6.32128,8.59758 12.64255,15.36919 18.96383,18.96382 l 7.34634,-1.02507 c 5.60504,3.15612 8.83922,6.75678 7.1755,11.27579 4.57444,2.05412 7.91277,4.15974 1.70846,6.66297 l -7.68804,0.85422 c -5.86207,3.55943 -13.34443,2.79808 -20.50143,2.90437 -12.82619,9.50887 -25.80445,19.67671 -39.9778,35.02328 l -13.32593,16.05946 -82.85995,4.44197 -19.81805,-14.69269 -46.46991,-35.02328 c -4.40351,1.92558 -16.58309,1.07399 -26.99355,0.85423 -7.34634,2.90436 -9.22565,1.02507 -5.6379,-5.6379 -0.58868,-3.55 -0.33673,-6.25936 3.58775,-5.2962 -1.33633,-3.84327 3.84888,-5.17825 8.20058,-6.83381 -5.50247,-3.88215 -1.96114,-5.29781 2.39183,-6.49212 l 9.39649,-0.17085 5.63789,-9.90902 c 0.29256,-11.50742 3.58801,-8.85834 7.00466,-5.6379 1.62773,6.15043 4.7456,12.30086 7.68804,18.45129 z"
         style="opacity:1;fill:#e4ab8d;fill-opacity:1;stroke:#000000;stroke-width:1px;stroke-linecap:butt;stroke-linejoin:miter;stroke-opacity:1" />
      <path
         sodipodi:nodetypes="cccccccc"
         inkscape:connector-curvature="0"
         id="path6748"
         d="m 264.46847,517.68874 -35.02328,39.80695 c 0.85465,40.43083 14.80053,52.43501 31.43553,58.59993 13.43791,5.25843 27.33716,5.90343 41.68624,2.05014 l 38.26934,-13.32593 13.15509,-67.65473 -6.66297,-23.91833 c -26.24017,-0.35909 -52.60584,-0.55086 -82.85995,4.44197 z"
         style="opacity:1;fill:#ffffff;stroke:#000000;stroke-width:1px;stroke-linecap:butt;stroke-linejoin:miter;stroke-opacity:1" />
      <path
         sodipodi:nodetypes="cc"
         inkscape:connector-curvature="0"
         id="path6752"
         d="m 189.12571,444.39612 c -8.10658,7.50553 -14.38399,15.55981 -17.93875,24.43088"
         style="fill:none;stroke:#000000;stroke-width:1px;stroke-linecap:butt;stroke-linejoin:miter;stroke-opacity:1" />
      <path
         inkscape:connector-curvature="0"
         id="path6754"
         d="m 177.33739,451.05909 5.99701,-0.66848"
         style="fill:none;stroke:#000000;stroke-width:1px;stroke-linecap:butt;stroke-linejoin:miter;stroke-opacity:1" />
      <path
         inkscape:connector-curvature="0"
         id="path6756"
         d="m 169.13681,457.8929 8.28108,-0.50303"
         style="fill:none;stroke:#000000;stroke-width:1px;stroke-linecap:butt;stroke-linejoin:miter;stroke-opacity:1" />
      <path
         inkscape:connector-curvature="0"
         id="path6758"
         d="m 165.54906,463.1891 8.34987,-0.26942"
         style="fill:none;stroke:#000000;stroke-width:1px;stroke-linecap:butt;stroke-linejoin:miter;stroke-opacity:1" />
      <path
         inkscape:connector-curvature="0"
         id="path6760"
         d="m 427.11316,451.74247 -7.15952,-0.74728"
         style="fill:none;stroke:#000000;stroke-width:1px;stroke-linecap:butt;stroke-linejoin:miter;stroke-opacity:1" />
      <path
         sodipodi:nodetypes="ccccc"
         inkscape:connector-curvature="0"
         id="path6766"
         d="m 262.93086,469.16869 c -18.81543,25.45425 -25.7052,48.46221 -32.62651,71.47664 l 23.44065,-1.87525 18.1665,-64.22737 z"
         style="opacity:1;fill:#0000ff;stroke:#000000;stroke-width:1px;stroke-linecap:butt;stroke-linejoin:miter;stroke-opacity:1" />
      <path
         sodipodi:nodetypes="cccccccc"
         inkscape:connector-curvature="0"
         id="path6764"
         d="m 277.65446,474.3083 c -10.02569,25.00695 -12.38284,48.34683 -15.47083,71.84558 -0.50255,2.83845 -2.46689,5.09219 -6.09457,6.68059 -8.32985,0.85524 -14.09129,-1.54282 -26.64387,4.66122 -2.99191,0.36446 -2.7257,-6.25274 -1.3677,-15.20951 7.09415,-5.42508 15.35522,-5.59903 23.67505,-5.50855 1.14648,-18.81788 6.52099,-39.74977 18.28371,-63.87577 z"
         style="fill:#ffff00;stroke:#000000;stroke-width:1px;stroke-linecap:butt;stroke-linejoin:miter;stroke-opacity:1" />
      <path
         inkscape:connector-curvature="0"
         id="path6768"
         d="m 332.85718,469.73738 6.95405,-3.13137 36.17674,54.34918 -13.00956,5.15694"
         style="fill:#0000ff;stroke:#000000;stroke-width:1px;stroke-linecap:butt;stroke-linejoin:miter;stroke-opacity:1" />
      <path
         sodipodi:nodetypes="ccccc"
         inkscape:connector-curvature="0"
         id="path6762"
         d="m 325.70778,474.3083 c 16.46048,19.24739 21.7552,41.20163 28.28361,62.8568 l 8.98702,-11.05297 c -6.45007,-19.25989 -16.4827,-38.05249 -30.12123,-56.37475 z"
         style="opacity:1;fill:#ffff00;stroke:#000000;stroke-width:1px;stroke-linecap:butt;stroke-linejoin:miter;stroke-opacity:1" />
      <path
         transform="matrix(0.99041167,0.13814744,-0.27535132,0.96134367,0,0)"
         d="m 551.12769,468.61514 a 45.036007,56.135654 0 0 1 16.49551,76.65855 45.036007,56.135654 0 0 1 -61.49271,20.59915 45.036007,56.135654 0 0 1 -16.55669,-76.63805 45.036007,56.135654 0 0 1 61.47624,-20.6754"
         sodipodi:open="true"
         sodipodi:end="5.2339981"
         sodipodi:start="5.2359878"
         sodipodi:ry="56.135654"
         sodipodi:rx="45.036007"
         sodipodi:cy="517.23004"
         sodipodi:cx="528.60968"
         sodipodi:type="arc"
         id="path6744-7"
         style="opacity:1;fill:#803300;fill-opacity:1;stroke:#000000;stroke-width:0.95715934;stroke-linecap:round;stroke-linejoin:round;stroke-miterlimit:4;stroke-dasharray:none;stroke-dashoffset:0;stroke-opacity:1" />
      <path
         transform="matrix(0.99984656,0.01751727,-0.25211613,0.96769699,0,0)"
         d="m 546.01055,555.8636 a 34.216908,40.207588 0 0 1 12.53277,54.90726 34.216908,40.207588 0 0 1 -46.72019,14.7543 34.216908,40.207588 0 0 1 -12.57924,-54.89258 34.216908,40.207588 0 0 1 46.70767,-14.80892"
         sodipodi:open="true"
         sodipodi:end="5.2339981"
         sodipodi:start="5.2359878"
         sodipodi:ry="40.207588"
         sodipodi:rx="34.216908"
         sodipodi:cy="590.68439"
         sodipodi:cx="528.9021"
         sodipodi:type="arc"
         id="path6744-7-7"
         style="opacity:1;fill:#e4b05a;fill-opacity:1;stroke:#000000;stroke-width:0.96607929;stroke-linecap:round;stroke-linejoin:round;stroke-miterlimit:4;stroke-dasharray:none;stroke-dashoffset:0;stroke-opacity:1" />
      <path
         sodipodi:nodetypes="ccccccc"
         inkscape:connector-curvature="0"
         id="path6800"
         d="m 251.94061,373.2676 c -24.08941,12.13793 -22.05494,25.7008 -22.70781,39.11709 3.00883,26.55011 12.59851,47.0009 33.69806,56.784 22.21105,12.26603 44.96321,23.15227 84.48198,-8.71638 12.45271,-10.01242 21.8919,-24.97562 22.0448,-55.19488 0.67053,-22.53018 -12.961,-29.4581 -26.52006,-36.46509 -26.15533,-12.51347 -57.34853,-8.13524 -90.99697,4.47526 z"
         style="opacity:1;fill:#e4ab8d;fill-opacity:1;stroke:#000000;stroke-width:1px;stroke-linecap:butt;stroke-linejoin:miter;stroke-opacity:1" />
      <path
         sodipodi:nodetypes="ccccccc"
         inkscape:connector-curvature="0"
         id="path6802"
         d="m 281.44418,430.28574 c -5.1245,-0.95034 -6.47509,1.11844 -4.97251,5.46976 3.53344,7.35084 7.69204,14.07651 13.42578,19.22705 9.80672,4.19817 18.91635,5.0503 26.52006,-1.32601 4.42001,-4.1862 8.84002,-8.91796 13.26003,-20.05579 1.21261,-7.17151 -1.6844,-6.53472 -4.80676,-5.46977 -12.602,4.46532 -26.84932,5.64001 -43.4266,2.15476 z"
         style="fill:#550000;stroke:#000000;stroke-width:1px;stroke-linecap:butt;stroke-linejoin:miter;stroke-opacity:1" />
      <path
         sodipodi:nodetypes="ccc"
         inkscape:connector-curvature="0"
         id="path6804"
         d="m 287.74269,450.67304 c 9.04896,7.35334 18.58463,12.27309 31.98983,-2.15476 -10.05328,-5.25969 -19.81204,-13.40574 -31.98983,2.15476 z"
         style="fill:#d40000;stroke:#000000;stroke-width:1px;stroke-linecap:butt;stroke-linejoin:miter;stroke-opacity:1" />
      <path
         d="m 273.52958,380.50355 a 6.5471406,14.420285 0 0 1 2.39805,19.69226 6.5471406,14.420285 0 0 1 -8.93955,5.29157 6.5471406,14.420285 0 0 1 -2.40694,-19.687 6.5471406,14.420285 0 0 1 8.93715,-5.31115"
         sodipodi:open="true"
         sodipodi:end="5.2339981"
         sodipodi:start="5.2359878"
         sodipodi:ry="14.420285"
         sodipodi:rx="6.5471406"
         sodipodi:cy="392.99188"
         sodipodi:cx="270.25601"
         sodipodi:type="arc"
         id="path6806"
         style="opacity:1;fill:#000000;fill-opacity:1;stroke:#000000;stroke-width:0.95244092;stroke-linecap:round;stroke-linejoin:round;stroke-miterlimit:4;stroke-dasharray:none;stroke-dashoffset:0;stroke-opacity:1" />
      <path
         d="m 331.29362,376.19407 a 6.5471406,14.420285 0 0 1 2.39805,19.69226 6.5471406,14.420285 0 0 1 -8.93955,5.29157 6.5471406,14.420285 0 0 1 -2.40694,-19.687 6.5471406,14.420285 0 0 1 8.93715,-5.31115"
         sodipodi:open="true"
         sodipodi:end="5.2339981"
         sodipodi:start="5.2359878"
         sodipodi:ry="14.420285"
         sodipodi:rx="6.5471406"
         sodipodi:cy="388.6824"
         sodipodi:cx="328.02005"
         sodipodi:type="arc"
         id="path6806-0"
         style="opacity:1;fill:#000000;fill-opacity:1;stroke:#000000;stroke-width:0.95244092;stroke-linecap:round;stroke-linejoin:round;stroke-miterlimit:4;stroke-dasharray:none;stroke-dashoffset:0;stroke-opacity:1" />
      <path
         d="m 272.07927,382.34346 a 3.1492577,5.8841391 0 0 1 1.15349,8.03534 3.1492577,5.8841391 0 0 1 -4.30004,2.15921 3.1492577,5.8841391 0 0 1 -1.15777,-8.0332 3.1492577,5.8841391 0 0 1 4.29889,-2.1672"
         sodipodi:open="true"
         sodipodi:end="5.2339981"
         sodipodi:start="5.2359878"
         sodipodi:ry="5.8841391"
         sodipodi:rx="3.1492577"
         sodipodi:cy="387.43927"
         sodipodi:cx="270.50464"
         sodipodi:type="arc"
         id="path6823"
         style="opacity:1;fill:#ffffff;fill-opacity:1;stroke:none;stroke-width:0.95244092;stroke-linecap:round;stroke-linejoin:round;stroke-miterlimit:4;stroke-dasharray:none;stroke-dashoffset:0;stroke-opacity:1" />
      <path
         d="m 329.92616,377.61955 a 3.1492577,5.8841391 0 0 1 1.15349,8.03535 3.1492577,5.8841391 0 0 1 -4.30003,2.1592 3.1492577,5.8841391 0 0 1 -1.15777,-8.0332 3.1492577,5.8841391 0 0 1 4.29888,-2.16719"
         sodipodi:open="true"
         sodipodi:end="5.2339981"
         sodipodi:start="5.2359878"
         sodipodi:ry="5.8841391"
         sodipodi:rx="3.1492577"
         sodipodi:cy="382.71536"
         sodipodi:cx="328.35153"
         sodipodi:type="arc"
         id="path6823-1"
         style="opacity:1;fill:#ffffff;fill-opacity:1;stroke:none;stroke-width:0.95244092;stroke-linecap:round;stroke-linejoin:round;stroke-miterlimit:4;stroke-dasharray:none;stroke-dashoffset:0;stroke-opacity:1" />
    </g>
  </g>
</svg>
