<?xml version="1.0" encoding="UTF-8" standalone="no"?>
<!-- Created with Inkscape (http://www.inkscape.org/) -->

<svg
   xmlns:dc="http://purl.org/dc/elements/1.1/"
   xmlns:cc="http://creativecommons.org/ns#"
   xmlns:rdf="http://www.w3.org/1999/02/22-rdf-syntax-ns#"
   xmlns:svg="http://www.w3.org/2000/svg"
   xmlns="http://www.w3.org/2000/svg"
   xmlns:sodipodi="http://sodipodi.sourceforge.net/DTD/sodipodi-0.dtd"
   xmlns:inkscape="http://www.inkscape.org/namespaces/inkscape"
   width="600"
   height="600"
   viewBox="0 0 600 600"
   version="1.1"
   id="svg8"
   inkscape:version="0.92.4 (5da689c313, 2019-01-14)"
   sodipodi:docname="w.svg">
  <defs
     id="defs2" />
  <sodipodi:namedview
     id="base"
     pagecolor="#ffffff"
     bordercolor="#666666"
     borderopacity="1.0"
     inkscape:pageopacity="0.0"
     inkscape:pageshadow="2"
     inkscape:zoom="1.7966667"
     inkscape:cx="300"
     inkscape:cy="300"
     inkscape:document-units="mm"
     inkscape:current-layer="layer1"
     showgrid="false"
     units="px"
     inkscape:window-width="2400"
     inkscape:window-height="1271"
     inkscape:window-x="-9"
     inkscape:window-y="-9"
     inkscape:window-maximized="1" />
  <metadata
     id="metadata5">
    <rdf:RDF>
      <cc:Work
         rdf:about="">
        <dc:format>image/svg+xml</dc:format>
        <dc:type
           rdf:resource="http://purl.org/dc/dcmitype/StillImage" />
        <dc:title></dc:title>
      </cc:Work>
    </rdf:RDF>
  </metadata>
  <g
     inkscape:label="Layer 1"
     inkscape:groupmode="layer"
     id="layer1"
     transform="translate(0,-138.24998)">
    <g
       id="wario">
      <path
         sodipodi:nodetypes="ccccccccccc"
         inkscape:connector-curvature="0"
         id="path891"
         d="m 435.83288,347.82686 c 7.7547,-0.70586 14.80025,1.77946 21.47244,5.94489 0.23759,-2.79963 2.88823,-6.28869 6.91654,-10.17138 l 66.9277,7.52682 c 1.05651,10.4284 1.36247,20.48153 -0.81372,29.29358 -3.20715,9.54845 -6.32191,19.46643 -10.57823,24.81817 -4.20387,4.35667 -7.11848,8.39102 -9.15425,12.20566 -4.13636,4.26403 -8.27272,5.20402 -12.40908,6.91654 -5.76378,1.18847 -11.52757,4.24558 -17.29135,8.1371 -12.92237,6.39244 -25.18523,7.83861 -37.02383,6.10283 z"
         style="opacity:1;fill:#f4a874;fill-opacity:1;stroke:#000000;stroke-width:1px;stroke-linecap:butt;stroke-linejoin:miter;stroke-opacity:1" />
      <path
         sodipodi:nodetypes="ccccccccccc"
         inkscape:connector-curvature="0"
         id="path837"
         d="m 193.73746,564.14071 c -13.22935,5.57797 -19.3037,17.35694 -25.44395,29.07879 -6.56335,13.03253 -7.1312,24.9409 -5.9975,36.53023 0.75031,9.15713 1.18729,17.37431 1.45394,25.08046 l 20.35516,19.2647 26.5344,-4.18007 -0.54523,-12.35849 c 1.29647,-3.95897 3.57219,-8.16275 8.72364,-13.08546 1.68816,-1.66 3.0938,-4.16753 3.81659,-8.72364 16.24353,0.49195 32.83613,-2.27405 50.5244,-15.26636 z"
         style="opacity:1;fill:#b445a4;fill-opacity:1;stroke:#000000;stroke-width:1px;stroke-linecap:butt;stroke-linejoin:miter;stroke-opacity:1" />
      <path
         sodipodi:nodetypes="ccccccccccccccc"
         inkscape:connector-curvature="0"
         id="path839"
         d="m 181.9242,664.82603 c 2.62901,2.28371 5.18325,4.75019 8.90538,4.36182 11.3263,-0.67318 17.76826,-6.15238 20.6746,-14.59231 5.44281,5.49784 7.46676,12.31062 8.04071,19.6811 -0.0901,9.71752 -5.66912,13.55413 -12.72198,15.81159 -9.00354,0.30504 -15.4093,5.6974 -21.44561,11.81326 -11.12842,7.67128 -21.78048,16.4685 -36.89371,14.72114 -18.02731,-1.92811 -30.04484,-7.96047 -37.80243,-16.90205 -4.60685,-8.29146 -6.05601,-17.32361 -0.54523,-27.98834 3.2964,-4.23507 6.56584,-8.50124 11.44977,-10.90455 6.92592,-6.38822 9.66236,1.97779 13.99417,4.72531 l 11.08629,-4.36182 c 2.14904,-2.0964 4.88074,-3.70726 6.36099,-6.36099 4.72587,-4.45701 8.59467,-2.20023 12.60267,-1.03393 7.09964,2.8425 11.9224,6.82344 16.29438,11.02977 z"
         style="opacity:1;fill:#3c9b47;fill-opacity:1;stroke:#000000;stroke-width:1px;stroke-linecap:butt;stroke-linejoin:miter;stroke-opacity:1" />
      <path
         sodipodi:nodetypes="ccccccccc"
         inkscape:connector-curvature="0"
         id="path841"
         d="m 406.93582,599.66206 c -1.84359,7.22398 -3.68717,13.59774 -5.53076,20.31489 l 14.99685,6.59436 32.54636,-3.29718 6.91344,-8.40249 c 8.17717,-7.64273 16.00256,-15.51998 19.9958,-25.952 1.49157,-8.12924 3.9063,-16.28826 -3.08446,-24.14387 l -11.38059,-9.46609 z"
         style="opacity:1;fill:#b445a4;fill-opacity:1;stroke:#000000;stroke-width:1px;stroke-linecap:butt;stroke-linejoin:miter;stroke-opacity:1" />
      <path
         sodipodi:nodetypes="cccccccccccccccccc"
         inkscape:connector-curvature="0"
         id="path843"
         d="m 403.95772,612.10626 c -0.70308,2.58526 -4.03866,5.74281 1.27633,7.0198 6.79177,2.87013 16.28891,3.93668 28.18557,3.40354 6.11821,-0.24752 11.80631,-1.04804 15.95409,-3.82898 l 9.89154,-6.06256 c 2.35082,-0.66438 4.55407,-0.49254 6.06256,3.61626 l 0.42544,5.63712 c 3.64921,-1.98647 7.48475,-2.57544 11.69967,-0.31908 2.54241,1.08304 4.48877,2.26542 8.61521,3.08445 3.66867,-3.08446 7.38909,-6.16891 9.67882,-9.25337 2.31941,-1.03562 3.57399,-3.87325 9.35974,0.95724 4.96148,5.22514 5.58676,12.90119 4.0417,21.80394 -2.32515,11.25109 -10.24555,17.83948 -21.05941,22.01665 -9.2292,2.23089 -19.48997,2.05479 -30.41914,0.31908 l -18.18767,-4.99895 c -9.14671,-4.53926 -19.67124,-3.56726 -29.88734,-3.82898 -12.0729,0.65686 -18.44944,-4.38264 -20.31488,-13.93325 0.69139,-9.27951 2.79303,-18.31223 14.67777,-25.63291 z"
         style="opacity:1;fill:#3c9b47;fill-opacity:1;stroke:#000000;stroke-width:1px;stroke-linecap:butt;stroke-linejoin:miter;stroke-opacity:1" />
      <path
         sodipodi:nodetypes="cccccccccc"
         inkscape:connector-curvature="0"
         id="path847"
         d="m 192.79558,490.82239 c -11.55037,24.56066 -10.51447,49.80167 -2.57325,75.41593 26.36507,29.75385 57.76245,49.68271 95.21014,57.79908 36.57913,6.0805 77.46552,1.03387 126.68293,-25.53452 27.19647,-13.48438 49.58805,-34.57649 64.13323,-68.09208 5.10827,-30.35112 1.42211,-60.70223 -28.10778,-91.05335 l -24.74275,7.32386 c -36.70371,36.76464 -79.20573,39.70575 -122.13026,40.18224 l -47.30816,5.34443 c -20.38803,7.71427 -40.77607,16.54658 -61.1641,-1.38559 z"
         style="opacity:1;fill:#b445a4;fill-opacity:1;stroke:#000000;stroke-width:1px;stroke-linecap:butt;stroke-linejoin:miter;stroke-opacity:1" />
      <path
         sodipodi:nodetypes="ccccccccccccc"
         inkscape:connector-curvature="0"
         id="path887"
         d="m 173.79314,346.12673 16.20827,2.96618 5.49255,69.1654 -31.32786,46.17807 -18.87662,-0.93 c -7.85127,-1.4719 -15.29396,-3.45451 -20.99519,-7.61396 L 95.814416,441.24563 c -9.281189,-2.61402 -16.208956,-8.65121 -19.529053,-19.93591 -8.951994,-21.76416 -14.559111,-44.88717 -6.306256,-73.6408 3.965424,-20.18544 9.427637,-40.50695 19.325625,-61.23172 l 72.216808,45.97465 c 0.16687,6.97964 0.32196,14.08881 1.01714,15.25707 3.75149,-1.26089 7.50297,-1.9065 11.25446,-1.54219 z"
         style="opacity:1;fill:#f4a874;fill-opacity:1;stroke:#000000;stroke-width:1px;stroke-linecap:butt;stroke-linejoin:miter;stroke-opacity:1" />
      <path
         sodipodi:nodetypes="ccccccccccccccc"
         inkscape:connector-curvature="0"
         id="path849"
         d="m 173.79314,346.12673 c 11.82758,-3.05854 20.5017,2.29215 29.29543,7.32386 18.56875,-0.24648 32.16242,8.07526 41.36989,23.95099 l 172.25708,-28.14447 8.43678,0.63939 c 2.88634,-1.74878 6.83603,-1.82658 10.68056,-2.06964 21.12319,14.2778 21.57438,42.09933 12.17266,76.3762 l -4.21941,8.22642 23.35717,49.8814 -271.54299,24.67218 -2.80473,-16.16067 c -9.57835,-5.73976 -10.02209,-16.64256 -7.71974,-29.09749 -11.74845,3.24276 -23.93828,5.71309 -39.78636,1.78148 19.40654,-3.28402 31.65677,-29.22968 41.76578,-61.95587 2.89005,-24.20852 9.34411,-51.21234 -13.26212,-55.42378 z"
         style="opacity:1;fill:#ffff00;stroke:#000000;stroke-width:1px;stroke-linecap:butt;stroke-linejoin:miter;stroke-opacity:1" />
      <path
         sodipodi:nodetypes="cc"
         inkscape:connector-curvature="0"
         id="path851"
         d="m 223.32577,406.28452 c -5.60527,28.22292 -15.57753,50.49084 -38.24993,55.44038"
         style="opacity:1;fill:none;stroke:#000000;stroke-width:1px;stroke-linecap:butt;stroke-linejoin:miter;stroke-opacity:1" />
      <path
         sodipodi:nodetypes="cc"
         inkscape:connector-curvature="0"
         id="path853"
         d="m 214.35373,372.15176 c -1.76368,-6.23372 -4.8414,-12.46745 -11.26516,-18.70117"
         style="opacity:1;fill:none;stroke:#000000;stroke-width:1px;stroke-linecap:butt;stroke-linejoin:miter;stroke-opacity:1" />
      <path
         sodipodi:nodetypes="cc"
         inkscape:connector-curvature="0"
         id="path855"
         d="m 432.21825,396.14221 c 9.66506,10.64851 14.96421,20.01292 15.78729,28.06085"
         style="opacity:1;fill:none;stroke:#000000;stroke-width:1px;stroke-linecap:butt;stroke-linejoin:miter;stroke-opacity:1" />
      <path
         sodipodi:nodetypes="cc"
         inkscape:connector-curvature="0"
         id="path857"
         d="m 435.72905,360.83919 c -1.0641,-3.26888 -2.85034,-6.64885 -10.57673,-10.94269"
         style="opacity:1;fill:none;stroke:#000000;stroke-width:1px;stroke-linecap:butt;stroke-linejoin:miter;stroke-opacity:1" />
      <path
         sodipodi:nodetypes="cc"
         inkscape:connector-curvature="0"
         id="path859"
         d="m 162.47193,679.15155 c -9.52732,-3.1246 -19.36109,-5.48307 -26.89206,-13.59855"
         style="opacity:1;fill:none;stroke:#000000;stroke-width:1px;stroke-linecap:butt;stroke-linejoin:miter;stroke-opacity:1" />
      <path
         sodipodi:nodetypes="cc"
         inkscape:connector-curvature="0"
         id="path861"
         d="m 452.69791,628.04993 c 5.28352,-1.86648 10.331,-3.78017 13.05534,-6.15849"
         style="opacity:1;fill:none;stroke:#000000;stroke-width:1px;stroke-linecap:butt;stroke-linejoin:miter;stroke-opacity:1" />
      <path
         sodipodi:nodetypes="cc"
         inkscape:connector-curvature="0"
         id="path865"
         d="m 474.54287,629.61028 c 4.4951,-0.56224 8.58222,-1.80446 11.52526,-4.95347"
         style="opacity:1;fill:none;stroke:#000000;stroke-width:1px;stroke-linecap:butt;stroke-linejoin:miter;stroke-opacity:1" />
      <path
         sodipodi:nodetypes="cc"
         inkscape:connector-curvature="0"
         id="path867"
         d="m 175.92999,675.25066 c -5.32492,-7.34431 -16.16969,-11.3767 -29.26383,-14.05948"
         style="opacity:1;fill:none;stroke:#000000;stroke-width:1px;stroke-linecap:butt;stroke-linejoin:miter;stroke-opacity:1" />
      <path
         sodipodi:nodetypes="cc"
         inkscape:connector-curvature="0"
         id="path871"
         d="m 186.46239,575.38796 c 27.78916,24.4897 36.37831,43.64606 36.17212,60.35927"
         style="opacity:1;fill:none;stroke:#000000;stroke-width:1px;stroke-linecap:butt;stroke-linejoin:miter;stroke-opacity:1" />
      <path
         id="path873"
         transform="translate(0,138.24998)"
         d="m 244.45898,239.15234 c 4.79544,12.29325 6.63584,24.58566 6.75782,36.87891 6.96531,24.85497 9.76598,50.48024 2.74218,77.92578 -2.30001,13.56448 -2.68379,26.09747 8.375,32.46875 11.79271,5.28988 23.30166,7.3513 33.54883,-4.875 4.04109,-11.0753 6.75732,-24.39221 4.09571,-46.81055 -3.01386,-24.79707 -8.37077,-49.2351 -24.77149,-71.97265 z m 34.6504,87.20118 6.63085,20.67382 -13.65429,-0.19531 z"
         style="opacity:1;fill:#b445a4;fill-opacity:1;stroke:#000000;stroke-width:1px;stroke-linecap:butt;stroke-linejoin:miter;stroke-opacity:1"
         inkscape:connector-curvature="0" />
      <path
         d="m 285.97616,483.32371 a 18.755733,19.43619 0 0 1 6.86974,26.54196 18.755733,19.43619 0 0 1 -25.60931,7.13217 18.755733,19.43619 0 0 1 -6.89521,-26.53486 18.755733,19.43619 0 0 1 25.60245,-7.15857"
         sodipodi:open="true"
         sodipodi:end="5.2339981"
         sodipodi:start="5.2359878"
         sodipodi:ry="19.43619"
         sodipodi:rx="18.755733"
         sodipodi:cy="500.15594"
         sodipodi:cx="276.5983"
         sodipodi:type="arc"
         id="path878"
         style="opacity:1;fill:#ffffff;fill-opacity:1;stroke:#000000;stroke-width:0.95244092;stroke-linecap:round;stroke-linejoin:round;stroke-miterlimit:4;stroke-dasharray:none;stroke-dashoffset:0;stroke-opacity:1" />
      <path
         id="path880"
         transform="translate(0,138.24998)"
         d="m 407.38086,250.29492 -10.38672,12.92774 c 12.56206,10.50262 22.07923,24.70431 26.4043,45.20898 3.54691,12.69217 8.10133,22.25862 14.58789,25.83789 8.49411,2.66996 15.10013,1.16688 18.00976,-8.50781 -1.66148,-14.20961 -9.29594,-25.06031 -15.35742,-36.79492 -8.54101,-14.92659 -18.84601,-28.44193 -33.25781,-38.67188 z m 19.11523,29.39063 12.04297,16.02148 -6.96094,2.32031 z"
         style="opacity:1;fill:#b445a4;fill-opacity:1;stroke:#000000;stroke-width:1px;stroke-linecap:butt;stroke-linejoin:miter;stroke-opacity:1"
         inkscape:connector-curvature="0" />
      <path
         transform="matrix(0.89443535,-0.44719728,0.48360776,0.87528483,0,0)"
         d="m 175.12776,584.48724 a 10.440476,18.245382 0 0 1 3.82407,24.9158 10.440476,18.245382 0 0 1 -14.25555,6.6952 10.440476,18.245382 0 0 1 -3.83826,-24.90913 10.440476,18.245382 0 0 1 14.25173,-6.71999"
         sodipodi:open="true"
         sodipodi:end="5.2339981"
         sodipodi:start="5.2359878"
         sodipodi:ry="18.245382"
         sodipodi:rx="10.440476"
         sodipodi:cy="600.28821"
         sodipodi:cx="169.90752"
         sodipodi:type="arc"
         id="path885"
         style="opacity:1;fill:#ffffff;fill-opacity:1;stroke:#000000;stroke-width:0.9528442;stroke-linecap:round;stroke-linejoin:round;stroke-miterlimit:4;stroke-dasharray:none;stroke-dashoffset:0;stroke-opacity:1" />
      <path
         sodipodi:nodetypes="cc"
         inkscape:connector-curvature="0"
         id="path889"
         d="m 126.73542,406.45951 c 16.42689,-8.45553 32.63444,-17.45504 35.80326,-58.79059"
         style="opacity:1;fill:none;stroke:#000000;stroke-width:1px;stroke-linecap:butt;stroke-linejoin:miter;stroke-opacity:1" />
      <path
         sodipodi:nodetypes="ccccc"
         inkscape:connector-curvature="0"
         id="path893"
         d="m 445.09967,285.62349 c -9.37637,7.96524 -12.78593,14.27303 -12.40909,19.52905 -0.1065,5.24205 1.19724,10.08118 4.88226,14.23994 6.2409,8.18895 13.30666,11.01641 22.7839,-1.83085 z"
         style="opacity:1;fill:#ffffff;stroke:#000000;stroke-width:1px;stroke-linecap:butt;stroke-linejoin:miter;stroke-opacity:1" />
      <path
         sodipodi:nodetypes="ccccccccccc"
         inkscape:connector-curvature="0"
         id="path899"
         d="m 464.22186,343.60037 c 16.23078,25.06401 47.20663,21.11098 66.9277,7.52682 7.53278,-5.06533 9.28032,-12.56656 6.50968,-21.97018 3.49205,-20.82555 -7.58665,-35.1194 -19.52905,-49.02606 -7.49402,-8.04621 -14.26697,-16.41289 -26.4456,-22.37704 -9.76805,-0.37472 -20.08276,-1.02276 -24.61474,1.22056 -10.97559,4.70907 -14.42839,8.09059 -16.27421,11.18852 -9.85988,4.53404 -7.4005,13.17449 -8.13711,20.74962 5.1386,12.77946 8.65134,14.17788 12.20566,15.86736 2.14417,4.26171 2.09692,10.77765 8.13711,14.85021 -4.52361,9.29558 -2.30433,15.89401 1.22056,21.97019 z"
         style="opacity:1;fill:#ffffff;stroke:#000000;stroke-width:1px;stroke-linecap:butt;stroke-linejoin:miter;stroke-opacity:1" />
      <path
         sodipodi:nodetypes="cc"
         inkscape:connector-curvature="0"
         id="path901"
         d="m 482.25684,272.43814 c -15.99217,7.71393 -28.87141,17.12166 -27.39265,34.34183"
         style="opacity:1;fill:none;stroke:#000000;stroke-width:1px;stroke-linecap:butt;stroke-linejoin:miter;stroke-opacity:1" />
      <path
         sodipodi:nodetypes="ccc"
         inkscape:connector-curvature="0"
         id="path903"
         d="m 495.49068,290.24544 c -21.70884,9.25471 -27.2963,19.91128 -25.20268,31.23577 l -7.2867,0.14897"
         style="opacity:1;fill:none;stroke:#000000;stroke-width:1px;stroke-linecap:butt;stroke-linejoin:miter;stroke-opacity:1" />
      <path
         sodipodi:nodetypes="ccc"
         inkscape:connector-curvature="0"
         id="path905"
         d="m 470.288,321.48121 c 1.08005,7.36916 6.21835,11.89754 15.08269,13.81769 1.21289,-9.55295 2.56417,-19.1122 26.07845,-29.67885"
         style="opacity:1;fill:none;stroke:#000000;stroke-width:1px;stroke-linecap:butt;stroke-linejoin:miter;stroke-opacity:1" />
      <path
         sodipodi:nodetypes="cccc"
         inkscape:connector-curvature="0"
         id="path907"
         d="m 525.07222,321.48121 c -2.83168,6.89225 -7.94266,9.90971 -13.33115,12.45538 1.93931,7.62564 -3.02815,11.469 -11.96885,13.13653 -10.48041,0.89457 -12.2375,-5.61247 -14.40153,-11.77422"
         style="opacity:1;fill:none;stroke:#000000;stroke-width:1px;stroke-linecap:butt;stroke-linejoin:miter;stroke-opacity:1" />
      <path
         inkscape:connector-curvature="0"
         id="path909"
         d="m 513.13175,274.86816 -3.42316,1.59747 11.86696,7.98738 z"
         style="opacity:1;fill:#6b6cff;fill-opacity:1;stroke:#000000;stroke-width:1px;stroke-linecap:butt;stroke-linejoin:miter;stroke-opacity:1" />
      <path
         inkscape:connector-curvature="0"
         id="path911"
         d="m 527.16671,291.41343 -4.90653,1.25516 4.45011,6.04759 4.2219,-2.0539 z"
         style="opacity:1;fill:#6b6cff;fill-opacity:1;stroke:#000000;stroke-width:1px;stroke-linecap:butt;stroke-linejoin:miter;stroke-opacity:1" />
      <path
         sodipodi:nodetypes="cc"
         inkscape:connector-curvature="0"
         id="path915"
         d="m 460.98561,329.0682 c 34.71586,49.2792 65.95021,23.52339 76.67363,0.0888"
         style="opacity:1;fill:none;stroke:#000000;stroke-width:1px;stroke-linecap:butt;stroke-linejoin:miter;stroke-opacity:1" />
      <path
         sodipodi:nodetypes="cccccc"
         inkscape:connector-curvature="0"
         id="path917"
         d="m 200.17791,308.14053 c -3.46709,20.95962 0.99925,27.30502 6.96762,30.88352 5.71949,2.99113 12.3097,3.37013 19.01973,3.38965 l 13.3703,-30.50688 -30.6952,-17.51322 z"
         style="opacity:1;fill:#f4a874;fill-opacity:1;stroke:#000000;stroke-width:1px;stroke-linecap:butt;stroke-linejoin:miter;stroke-opacity:1" />
      <path
         sodipodi:nodetypes="cccccc"
         inkscape:connector-curvature="0"
         id="path919"
         d="m 423.70677,292.88709 c 8.11438,2.13734 8.39636,8.37737 6.02605,16.0067 l -6.02605,16.75996 -12.24042,-12.24042 6.77931,-19.20804 z"
         style="opacity:1;fill:#f4a874;fill-opacity:1;stroke:#000000;stroke-width:1px;stroke-linecap:butt;stroke-linejoin:miter;stroke-opacity:1" />
      <path
         sodipodi:nodetypes="ccccccccccccccc"
         inkscape:connector-curvature="0"
         id="path921"
         d="m 224.12926,357.69143 c -0.0841,-12.69341 -1.46616,-24.62329 5.80228,-41.6417 l 26.17566,-64.59174 27.87049,-6.02606 70.99442,1.12989 59.88389,27.49386 c 1.24931,26.44051 5.10546,58.56868 1.85954,75.20143 -1.26421,17.54693 -3.96065,34.71697 -13.72333,50.02746 -4.48438,5.63939 -11.14487,10.10702 -18.6431,14.12356 -1.03204,7.70051 -6.87573,11.86304 -15.81838,13.74693 -14.3465,-2.02099 -28.5222,-4.22054 -37.85114,-11.48716 -11.17157,3.1799 -24.4114,4.11426 -43.68887,-1.50652 -6.74001,-3.15098 -8.46879,-8.49436 -11.78369,-13.14382 -10.34356,-5.70494 -20.6357,-12.59239 -30.74805,-23.61524 -5.81161,-9.4652 -12.42453,-16.52645 -20.32972,-19.71089 z"
         style="opacity:1;fill:#f4a874;fill-opacity:1;stroke:#000000;stroke-width:1px;stroke-linecap:butt;stroke-linejoin:miter;stroke-opacity:1" />
      <path
         sodipodi:nodetypes="ccccccc"
         inkscape:connector-curvature="0"
         id="path1002"
         d="m 258.94265,252.77641 c -1.23519,14.10291 -5.33838,23.06734 -9.73355,31.50862 -0.12874,2.82275 -0.65791,5.40525 -1.45502,7.82698 l -7.12456,2.91004 0.5519,-26.19029 6.27162,-14.14877 z"
         style="opacity:1;fill:#824022;fill-opacity:1;stroke:#000000;stroke-width:1px;stroke-linecap:butt;stroke-linejoin:miter;stroke-opacity:1" />
      <path
         sodipodi:nodetypes="cccccc"
         inkscape:connector-curvature="0"
         id="path923"
         d="m 256.46801,319.39178 c -4.43523,12.26105 -4.18595,22.02369 -1.86461,30.68124 19.49168,26.9505 72.50668,38.86351 130.6919,34.24094 5.07406,1.65475 9.33295,-9.18958 13.05223,-28.3081 l -6.27185,-14.23881 z"
         style="opacity:1;fill:#550000;stroke:#000000;stroke-width:1px;stroke-linecap:butt;stroke-linejoin:miter;stroke-opacity:1" />
      <path
         sodipodi:nodetypes="ccccccccc"
         inkscape:connector-curvature="0"
         id="path925"
         d="m 258.33261,322.78198 c -0.2724,7.9269 1.29785,13.70403 3.72922,18.47654 5.65948,3.2428 11.32567,6.52254 16.10341,4.91578 6.48656,6.99511 16.85173,8.17229 27.79957,8.47548 8.25762,5.80723 18.97693,7.81002 32.20682,5.93283 10.08283,7.09089 19.67783,4.91282 29.32516,3.72922 8.08767,0.82165 16.06354,3.65578 24.57889,-3.22069 l 6.44136,-9.49253 C 374.0076,341.25244 305.06075,332.38752 258.33261,322.78198 Z"
         style="opacity:1;fill:#ffffff;stroke:#000000;stroke-width:1px;stroke-linecap:butt;stroke-linejoin:miter;stroke-opacity:1" />
      <path
         sodipodi:nodetypes="cccccccccc"
         inkscape:connector-curvature="0"
         id="path927"
         d="m 262.06183,341.25852 c -8.25205,0.0552 -6.92628,4.89934 -7.45843,8.8145 22.42633,27.26687 68.52087,36.78259 130.6919,34.24094 9.42908,-4.70792 8.96498,-13.60142 6.78038,-23.22282 l -16.95096,4.74627 c -2.48558,-0.0602 -4.78969,-1.29985 -8.13646,4.23774 -10.27573,-4.03831 -20.3489,-5.84853 -30.17271,-4.91578 -10.28358,-3.43798 -20.56716,-6.62295 -30.85074,-6.94989 -7.99109,-3.70343 -18.48787,-5.90344 -28.64712,-8.30597 z"
         style="opacity:1;fill:#ffffff;stroke:#000000;stroke-width:1px;stroke-linecap:butt;stroke-linejoin:miter;stroke-opacity:1" />
      <path
         sodipodi:nodetypes="ccccc"
         inkscape:connector-curvature="0"
         id="path996"
         d="m 279.98974,267.37799 c -2.34584,7.83005 -0.9858,17.18605 -0.4368,26.20809 l 11.57524,4.14962 0.0413,-31.51213 z"
         style="opacity:1;fill:#457fab;fill-opacity:1;stroke:#000000;stroke-width:1px;stroke-linecap:butt;stroke-linejoin:miter;stroke-opacity:1" />
      <path
         sodipodi:nodetypes="ccccccc"
         inkscape:connector-curvature="0"
         id="path937"
         d="m 291.1695,266.22357 c -9.21426,12.8097 -3.57192,19.11964 -2.91296,27.60981 l 36.09539,10.63864 10.13204,-10.51199 -1.0132,-10.00539 c -6.84974,-7.04491 -14.46452,-13.7073 -25.3301,-18.74428 -6.21943,-1.57432 -12.40336,-3.02797 -16.97117,1.01321 z"
         style="opacity:1;fill:#ffffff;stroke:#000000;stroke-width:1px;stroke-linecap:butt;stroke-linejoin:miter;stroke-opacity:1" />
      <path
         sodipodi:nodetypes="cccc"
         inkscape:connector-curvature="0"
         id="path933"
         d="m 313.83994,300.54585 c -11.57023,-3.86295 -19.92017,-7.60204 -39.64161,-11.77849 -11.23139,-4.81529 -18.19052,-3.22219 -24.06359,0 -8.60731,4.51818 -9.78631,10.52203 -11.90515,16.33791"
         style="opacity:1;fill:#f4a874;fill-opacity:1;stroke:#000000;stroke-width:1px;stroke-linecap:butt;stroke-linejoin:miter;stroke-opacity:1" />
      <path
         sodipodi:nodetypes="ccccc"
         inkscape:connector-curvature="0"
         id="path1000"
         d="m 399.58233,290.41381 c -0.75402,9.69718 -3.10358,14.60774 -4.9322,21.08113 l -10.92004,-0.2184 7.42563,-30.7945 c 2.91913,3.1383 6.79007,4.78941 8.42661,9.93177 z"
         style="opacity:1;fill:#457fab;fill-opacity:1;stroke:#000000;stroke-width:1px;stroke-linecap:butt;stroke-linejoin:miter;stroke-opacity:1" />
      <path
         sodipodi:nodetypes="cccccc"
         inkscape:connector-curvature="0"
         id="path939"
         d="m 360.44732,290.54046 c 6.56751,-5.06062 14.02838,-9.43405 24.95015,-11.14524 5.65295,1.40242 6.9449,3.67704 7.59903,6.07922 1.58031,13.95817 -2.5669,17.68864 -5.44597,23.68365 l -23.93695,-0.37995 z"
         style="opacity:1;fill:#ffffff;stroke:#000000;stroke-width:1px;stroke-linecap:butt;stroke-linejoin:miter;stroke-opacity:1" />
      <path
         sodipodi:nodetypes="cccc"
         inkscape:connector-curvature="0"
         id="path935"
         d="m 368.55295,308.52484 31.28268,-0.63326 c 9.46213,1.99732 15.52896,7.59588 18.87092,16.08462 l 0.37995,11.90514"
         style="opacity:1;fill:#f4a874;fill-opacity:1;stroke:#000000;stroke-width:1px;stroke-linecap:butt;stroke-linejoin:miter;stroke-opacity:1" />
      <path
         d="m 315.80301,284.49882 a 5.9525733,5.9525733 0 0 1 2.18027,8.1288 5.9525733,5.9525733 0 0 1 -8.12772,2.18432 5.9525733,5.9525733 0 0 1 -2.18835,-8.12663 5.9525733,5.9525733 0 0 1 8.12554,-2.1924"
         sodipodi:open="true"
         sodipodi:end="5.2339981"
         sodipodi:start="5.2359878"
         sodipodi:ry="5.9525733"
         sodipodi:rx="5.9525733"
         sodipodi:cy="289.6539"
         sodipodi:cx="312.82672"
         sodipodi:type="arc"
         id="path941"
         style="opacity:1;fill:#000000;fill-opacity:1;stroke:none;stroke-width:0.95244092;stroke-linecap:round;stroke-linejoin:round;stroke-miterlimit:4;stroke-dasharray:none;stroke-dashoffset:0;stroke-opacity:1" />
      <path
         d="m 369.72449,292.08026 a 4.7493935,4.8760443 0 0 1 1.73958,6.6587 4.7493935,4.8760443 0 0 1 -6.48488,1.78928 4.7493935,4.8760443 0 0 1 -1.74603,-6.65692 4.7493935,4.8760443 0 0 1 6.48314,-1.7959"
         sodipodi:open="true"
         sodipodi:end="5.2339981"
         sodipodi:start="5.2359878"
         sodipodi:ry="4.8760443"
         sodipodi:rx="4.7493935"
         sodipodi:cy="296.30304"
         sodipodi:cx="367.34979"
         sodipodi:type="arc"
         id="path941-9"
         style="opacity:1;fill:#000000;fill-opacity:1;stroke:none;stroke-width:0.76999193;stroke-linecap:round;stroke-linejoin:round;stroke-miterlimit:4;stroke-dasharray:none;stroke-dashoffset:0;stroke-opacity:1" />
      <path
         d="m 313.84529,287.57073 a 1.889066,1.9394413 0 0 1 0.69192,2.64849 1.889066,1.9394413 0 0 1 -2.57936,0.71169 1.889066,1.9394413 0 0 1 -0.69448,-2.64779 1.889066,1.9394413 0 0 1 2.57866,-0.71432"
         sodipodi:open="true"
         sodipodi:end="5.2339981"
         sodipodi:start="5.2359878"
         sodipodi:ry="1.9394413"
         sodipodi:rx="1.889066"
         sodipodi:cy="289.25034"
         sodipodi:cx="312.90076"
         sodipodi:type="arc"
         id="path941-9-6"
         style="opacity:1;fill:#ffffff;fill-opacity:1;stroke:none;stroke-width:0.30626345;stroke-linecap:round;stroke-linejoin:round;stroke-miterlimit:4;stroke-dasharray:none;stroke-dashoffset:0;stroke-opacity:1" />
      <path
         d="m 369.11754,294.18017 a 1.889066,1.9394413 0 0 1 0.69191,2.64849 1.889066,1.9394413 0 0 1 -2.57935,0.71168 1.889066,1.9394413 0 0 1 -0.69448,-2.64778 1.889066,1.9394413 0 0 1 2.57866,-0.71432"
         sodipodi:open="true"
         sodipodi:end="5.2339981"
         sodipodi:start="5.2359878"
         sodipodi:ry="1.9394413"
         sodipodi:rx="1.889066"
         sodipodi:cy="295.85977"
         sodipodi:cx="368.173"
         sodipodi:type="arc"
         id="path941-9-6-5"
         style="opacity:1;fill:#ffffff;fill-opacity:1;stroke:none;stroke-width:0.30626345;stroke-linecap:round;stroke-linejoin:round;stroke-miterlimit:4;stroke-dasharray:none;stroke-dashoffset:0;stroke-opacity:1" />
      <path
         sodipodi:nodetypes="cccccccc"
         inkscape:connector-curvature="0"
         id="path988"
         d="m 270.52547,250.0123 c -5.18426,10.99038 -1.94796,15.59275 2.53301,19.25088 9.46075,2.33446 16.56552,-2.77895 24.44354,-5.19267 17.44162,0.71317 23.37482,11.1973 34.21748,20.64144 3.25018,4.5626 6.38215,4.21822 9.22364,3.54881 l 1.01321,-10.89195 c -10.99538,-7.94078 -20.2062,-16.39965 -23.43034,-26.5966 z"
         style="opacity:1;fill:#000000;stroke:#000000;stroke-width:1px;stroke-linecap:butt;stroke-linejoin:miter;stroke-opacity:1" />
      <path
         sodipodi:nodetypes="ccccccccc"
         inkscape:connector-curvature="0"
         id="path990"
         d="m 357.28106,279.90182 c 9.43485,-4.97965 19.31783,-9.16972 26.21665,-18.61762 l 27.48316,12.7917 c -0.72583,4.17947 -1.22332,8.35893 -2.65966,12.5384 -2.42818,4.24446 -5.42902,4.97109 -8.73888,3.79951 -5.92195,-6.45807 -11.26494,-11.56524 -14.18486,-11.01859 -10.49331,1.13542 -17.79715,6.05094 -24.95015,11.14524 l -7.97898,-1.13985 c 2.11434,-2.93083 4.29335,-5.83182 4.81272,-9.49879 z"
         style="opacity:1;fill:#000000;stroke:#000000;stroke-width:1px;stroke-linecap:butt;stroke-linejoin:miter;stroke-opacity:1" />
      <path
         sodipodi:nodetypes="cc"
         inkscape:connector-curvature="0"
         id="path992"
         d="m 345.75815,265.83217 c -8.06002,9.80694 -7.81636,17.60352 -3.92853,24.51782"
         style="opacity:1;fill:#f4a874;fill-opacity:1;stroke:#000000;stroke-width:1px;stroke-linecap:butt;stroke-linejoin:miter;stroke-opacity:1" />
      <path
         sodipodi:nodetypes="cc"
         inkscape:connector-curvature="0"
         id="path994"
         d="m 354.41986,266.49481 c 4.91185,10.94852 5.81949,19.95325 -2.22459,24.61249"
         style="opacity:1;fill:#f4a874;fill-opacity:1;stroke:#000000;stroke-width:1px;stroke-linecap:butt;stroke-linejoin:miter;stroke-opacity:1" />
      <path
         sodipodi:nodetypes="ccccccccc"
         inkscape:connector-curvature="0"
         id="path1004"
         d="m 411.41828,276.45805 c -0.64428,10.86268 -0.9069,21.49636 -2.80969,33.11415 5.9388,4.17606 5.8141,5.92957 7.02422,8.32871 4.70784,7.21743 3.18568,14.10695 3.11072,21.07265 l 8.02767,-2.91003 c -1.2864,-0.94395 -1.92832,-9.2995 -2.70934,-16.05535 l -6.62283,-6.72318 c -2.02592,-1.21783 -2.75211,-3.43546 -1.30449,-7.32525 7.54651,-21.66868 -0.45554,-23.1573 -4.71626,-29.5017 z"
         style="opacity:1;fill:#824022;fill-opacity:1;stroke:#000000;stroke-width:1px;stroke-linecap:butt;stroke-linejoin:miter;stroke-opacity:1" />
      <path
         sodipodi:nodetypes="ccccccccccccccccccccccccc"
         inkscape:connector-curvature="0"
         id="path929"
         d="m 230.53304,302.44083 10.00107,22.54477 16.81148,-4.99302 16.75142,18.7233 18.81556,-4.91578 16.44243,14.40831 36.95309,-12.71321 26.27399,22.37526 14.2388,-8.64499 11.52665,6.78039 12.88273,-10.34009 10.08718,7.13248 18.22093,-28.99922 -17.79851,13.22175 -6.94989,-10.34008 -11.18764,10.6791 -12.03518,-10.84861 -8.47548,5.93283 -81.53411,-12.03518 -9.83156,-9.83155 -17.45948,5.4243 -13.56077,-14.2388 -13.89979,7.79744 -10.84861,-8.8145 z"
         style="opacity:1;fill:#000000;stroke:#000000;stroke-width:1px;stroke-linecap:butt;stroke-linejoin:miter;stroke-opacity:1" />
      <path
         sodipodi:nodetypes="ccccccccc"
         inkscape:connector-curvature="0"
         id="path931"
         d="m 323.21207,301.05246 c -11.18949,-4.16283 -16.40892,1.15621 -22.03718,5.82592 -6.73453,15.66661 0.78631,22.34137 15.95796,24.19024 14.93845,22.93472 34.9667,32.52458 53.31986,8.48559 6.54314,-0.87759 14.40355,2.69063 15.83131,-15.45136 -0.91999,-5.62334 -3.09728,-11.03713 -12.03179,-15.32471 -2.09274,-6.21127 -5.35618,-12.36093 -13.80491,-18.23768 -6.51351,-5.37511 -14.68876,-4.34065 -23.55699,-0.63325 -6.69231,3.71508 -9.88193,7.43017 -13.67826,11.14525 z"
         style="opacity:1;fill:#fa7aa8;fill-opacity:1;stroke:#000000;stroke-width:1px;stroke-linecap:butt;stroke-linejoin:miter;stroke-opacity:1" />
      <path
         sodipodi:nodetypes="ccccccscc"
         inkscape:connector-curvature="0"
         id="path1006"
         d="m 236.96996,224.78933 c 18.99021,-22.20381 39.68627,-43.55469 78.11518,-56.03915 35.97796,-10.23318 70.61453,-6.94936 101.27185,36.43317 11.2174,17.11301 21.14451,35.04712 18.98848,60.67049 -1.35861,18.53471 -6.70964,21.98694 -11.6387,27.03325 l -5.46111,1.3182 c 0,0 0.77944,-8.10735 -3.30784,-13.63792 C 391.14099,248.3674 304.84047,232.34855 245.7695,258.4437 Z"
         style="opacity:1;fill:#ffff00;stroke:#000000;stroke-width:1px;stroke-linecap:butt;stroke-linejoin:miter;stroke-opacity:1" />
      <path
         d="m 371.46804,203.23607 a 29.44689,25.665503 0 0 1 10.78563,35.04867 29.44689,25.665503 0 0 1 -40.20714,9.41804 29.44689,25.665503 0 0 1 -10.82563,-35.03931 29.44689,25.665503 0 0 1 40.19637,-9.45289"
         sodipodi:open="true"
         sodipodi:end="5.2339981"
         sodipodi:start="5.2359878"
         sodipodi:ry="25.665503"
         sodipodi:rx="29.44689"
         sodipodi:cy="225.46304"
         sodipodi:cx="356.7446"
         sodipodi:type="arc"
         id="path1008"
         style="opacity:1;fill:#ffffff;fill-opacity:1;stroke:#000000;stroke-width:0.95244092;stroke-linecap:round;stroke-linejoin:round;stroke-miterlimit:4;stroke-dasharray:none;stroke-dashoffset:0;stroke-opacity:1" />
      <path
         inkscape:connector-curvature="0"
         id="path1010"
         d="m 322.3409,194.06815 17.13594,35.66128 20.841,-19.14285 12.65898,24.85483 23.77419,-27.78801 -7.25576,-8.49078 -14.51151,16.6728 -12.35023,-26.08985 -18.52534,21.14976 -11.42396,-22.38478 z"
         style="opacity:1;fill:#5858f3;fill-opacity:1;stroke:#000000;stroke-width:1px;stroke-linecap:butt;stroke-linejoin:miter;stroke-opacity:1" />
      <path
         sodipodi:nodetypes="cc"
         inkscape:connector-curvature="0"
         id="path1014"
         d="m 276.33631,239.76398 c 53.82475,-18.31764 101.12518,-15.5635 137.24188,23.31106"
         style="opacity:1;fill:#ffff00;stroke:#000000;stroke-width:1px;stroke-linecap:butt;stroke-linejoin:miter;stroke-opacity:1" />
      <path
         sodipodi:nodetypes="ccccccc"
         inkscape:connector-curvature="0"
         id="path1012"
         d="m 268.60792,251.56109 c -3.36908,-5.55379 -0.58407,-9.42919 7.72839,-11.79711 11.63873,7.19319 24.88442,3.13771 37.66819,2.31567 34.1143,-0.38764 67.87516,0.66375 96.33176,23.31105 l 3.24193,-2.31566 c 2.93779,9.62586 -2.08892,10.90301 -2.15991,13.38301 -37.61377,-27.56996 -92.14525,-26.47774 -142.81036,-24.89696 z"
         style="opacity:1;fill:#ffffff;stroke:#000000;stroke-width:1px;stroke-linecap:butt;stroke-linejoin:miter;stroke-opacity:1" />
      <path
         sodipodi:nodetypes="ccccccccccccc"
         inkscape:connector-curvature="0"
         id="path1016"
         d="m 178.27076,204.0077 c 5.18062,-1.17563 10.59372,-2.27973 24.22545,-0.85501 11.77199,5.53751 23.42635,11.17584 32.9181,18.66784 14.67505,7.68455 13.5943,16.75118 9.54767,26.07798 9.25109,12.43553 4.04158,17.36267 -3.78056,20.93325 8.08042,10.957 6.5371,20.44951 -0.63702,29.08516 -10.35519,16.10785 -20.71038,8.27596 -31.06557,2.56505 -9.53301,14.47045 -23.18254,20.46572 -38.3332,23.37043 -5.14413,8.51898 -11.37994,12.96172 -21.37539,12.54023 -29.96665,-2.83492 -51.908853,-16.47197 -62.131136,-45.88584 -1.498113,-8.7365 -5.736616,-16.74224 3.562565,-28.35802 4.103359,-3.34332 11.010771,-4.93411 18.097831,-6.41262 9.43012,-19.29741 34.49673,-36.22565 68.97126,-51.72845 z"
         style="opacity:1;fill:#ffffff;stroke:#000000;stroke-width:1px;stroke-linecap:butt;stroke-linejoin:miter;stroke-opacity:1" />
      <path
         sodipodi:nodetypes="cc"
         inkscape:connector-curvature="0"
         id="path1018"
         d="m 109.2995,255.73615 c 4.63797,52.05926 28.73335,68.37117 61.84613,68.11625"
         style="opacity:1;fill:none;stroke:#000000;stroke-width:1px;stroke-linecap:butt;stroke-linejoin:miter;stroke-opacity:1" />
      <path
         sodipodi:nodetypes="ccc"
         inkscape:connector-curvature="0"
         id="path1020"
         d="m 209.47883,300.48197 c 4.65441,-4.55865 8.52595,-10.23568 10.86106,-18.10763 0.63642,9.52134 11.18785,5.95487 19.67988,5.1068"
         style="opacity:1;fill:none;stroke:#000000;stroke-width:1px;stroke-linecap:butt;stroke-linejoin:miter;stroke-opacity:1" />
      <path
         inkscape:connector-curvature="0"
         id="path1022"
         d="m 224.94847,288.7267 5.58457,13.71413"
         style="opacity:1;fill:none;stroke:#000000;stroke-width:1px;stroke-linecap:butt;stroke-linejoin:miter;stroke-opacity:1" />
      <path
         sodipodi:nodetypes="cc"
         inkscape:connector-curvature="0"
         id="path1028"
         d="m 218.59611,248.24594 c 12.24417,6.66545 18.2495,13.59085 22.58531,20.58582"
         style="opacity:1;fill:none;stroke:#000000;stroke-width:1px;stroke-linecap:butt;stroke-linejoin:miter;stroke-opacity:1" />
      <path
         sodipodi:nodetypes="cc"
         inkscape:connector-curvature="0"
         id="path1030"
         d="m 216.85232,229.3134 c 10.05897,4.95469 19.70178,10.65847 28.10966,18.58511"
         style="opacity:1;fill:none;stroke:#000000;stroke-width:1px;stroke-linecap:butt;stroke-linejoin:miter;stroke-opacity:1" />
      <path
         sodipodi:nodetypes="ccccccccccc"
         inkscape:connector-curvature="0"
         id="path1032"
         d="m 173.50677,209.1353 -5.60503,-0.49823 c -14.95923,8.88501 -26.06657,17.77002 -37.86508,26.65503 11.64994,-3.42924 23.0021,-6.56068 33.00739,-8.34527 l -27.90059,24.1639 c 17.82821,-7.81461 35.00938,-7.21784 52.18905,-6.60148 l 1.99289,-8.34526 -29.14614,1.9929 c 4.66562,-5.64538 13.97897,-12.3236 21.2991,-18.55887 -12.03221,0.83411 -22.26224,2.4874 -30.64082,4.98225 6.74133,-5.05776 13.05751,-10.06828 22.66923,-15.44497 z"
         style="opacity:1;fill:#5858f3;fill-opacity:1;stroke:#000000;stroke-width:1px;stroke-linecap:butt;stroke-linejoin:miter;stroke-opacity:1" />
    </g>
  </g>
</svg>
