<?xml version="1.0" encoding="UTF-8" standalone="no"?>
<!-- Created with Inkscape (http://www.inkscape.org/) -->

<svg
   xmlns:dc="http://purl.org/dc/elements/1.1/"
   xmlns:cc="http://creativecommons.org/ns#"
   xmlns:rdf="http://www.w3.org/1999/02/22-rdf-syntax-ns#"
   xmlns:svg="http://www.w3.org/2000/svg"
   xmlns="http://www.w3.org/2000/svg"
   xmlns:sodipodi="http://sodipodi.sourceforge.net/DTD/sodipodi-0.dtd"
   xmlns:inkscape="http://www.inkscape.org/namespaces/inkscape"
   width="600"
   height="600"
   viewBox="0 0 600 600"
   version="1.1"
   id="svg1109"
   inkscape:version="0.92.4 (5da689c313, 2019-01-14)"
   sodipodi:docname="x.svg">
  <defs
     id="defs1103" />
  <sodipodi:namedview
     id="base"
     pagecolor="#ffffff"
     bordercolor="#666666"
     borderopacity="1.0"
     inkscape:pageopacity="0.0"
     inkscape:pageshadow="2"
     inkscape:zoom="1.7966667"
     inkscape:cx="300"
     inkscape:cy="300"
     inkscape:document-units="mm"
     inkscape:current-layer="layer1"
     showgrid="false"
     units="px"
     inkscape:window-width="2400"
     inkscape:window-height="1271"
     inkscape:window-x="-9"
     inkscape:window-y="-9"
     inkscape:window-maximized="1" />
  <metadata
     id="metadata1106">
    <rdf:RDF>
      <cc:Work
         rdf:about="">
        <dc:format>image/svg+xml</dc:format>
        <dc:type
           rdf:resource="http://purl.org/dc/dcmitype/StillImage" />
        <dc:title></dc:title>
      </cc:Work>
    </rdf:RDF>
  </metadata>
  <g
     inkscape:label="Layer 1"
     inkscape:groupmode="layer"
     id="layer1"
     transform="translate(0,-138.24997)">
    <rect
       style="opacity:1;fill:#000000;fill-opacity:1;stroke:#000000;stroke-width:0.95244092;stroke-linecap:round;stroke-linejoin:round;stroke-miterlimit:4;stroke-dasharray:none;stroke-dashoffset:0;stroke-opacity:1"
       id="rect1114"
       width="472.41809"
       height="590.52258"
       x="61.286308"
       y="142.50166"
       ry="4.43821" />
    <path
       style="opacity:1;fill:#022622;fill-opacity:1;stroke:#00ffff;stroke-width:1px;stroke-linecap:butt;stroke-linejoin:miter;stroke-opacity:1"
       d="m 190.31615,238.3343 8.92706,-3.75876 c 2.3347,-18.9046 10.78508,-34.834 36.17811,-42.52103 13.95389,2.06932 25.73847,8.60488 29.13043,32.41935 4.50102,21.90009 36.30649,35.02375 56.38146,51.91793 8.04364,7.34031 12.81943,14.99687 1.64446,24.19705 -7.28261,4.89339 -14.56521,6.68956 -21.84782,6.57783 7.13826,5.84288 12.82569,12.16937 16.20968,19.26367 3.69015,6.73445 2.33324,13.46891 -5.87307,20.20336 l -17.85413,6.81276 c 6.87004,5.49909 24.20632,6.47224 9.86675,21.14305 l -15.03506,19.49859 c 16.32862,-3.16893 34.17578,-8.38207 34.76858,9.63184 l -7.28261,22.55258 c -0.46905,2.85274 -7.94056,9.05448 4.69845,5.63815 7.51976,3.04508 14.15712,9.61974 22.78751,8.2223 14.21036,2.45563 26.04218,4.0669 37.1178,7.75245 7.43922,1.92703 14.87845,1.8216 22.31767,-1.87938 5.69204,-2.93135 11.93467,-2.74263 19.49859,4.93337 2.63583,3.85218 -0.46638,9.75366 18.5589,7.75246 12.10013,1.1515 34.06071,-8.45385 52.38778,-14.09537 27.23789,-5.20461 46.51337,-5.2071 27.25104,19.96844 -32.11249,49.67523 -72.53019,88.11401 -125.91861,109.00416 l -17.14936,21.14305 c 10.07428,4.87878 21.52096,9.13018 10.3366,23.7272 8.27949,4.99565 12.6066,13.50453 15.26998,23.49228 3.55029,20.15151 -4.82703,28.3754 -20.67321,29.13043 -32.9932,-0.94903 -63.67946,0.69723 -101.25171,-5.40323 -16.07762,1.30154 -19.70227,-8.81214 -20.90813,-21.14305 2.62792,-17.21321 9.34438,-32.53357 45.3401,-34.29872 0.86117,-5.92645 -4.13276,-11.58677 9.39691,-18.08906 l -6.10799,-9.86675 c -62.0223,7.91327 -101.79718,-18.95465 -119.34077,-80.57852 -10.72095,7.40351 -8.97788,-5.32717 -12.45091,-9.63183 -3.34748,6.68827 -6.96207,12.09446 -13.3906,3.99369 -8.75608,-1.31802 -11.5163,-7.06776 -5.87307,-19.02875 3.01342,-6.05033 10.30826,-12.3525 23.96212,-19.02874 0.20502,-19.49168 3.03833,-38.60788 11.98107,-56.85131 4.34865,-8.10329 7.70109,-16.8043 8.92706,-26.7812 -37.63409,12.80145 -51.98049,4.01919 -64.36884,-6.57784 -26.04989,3.95836 -45.043832,-8.05202 -59.200541,-31.00981 C 65.903756,308.17143 66.761922,280.32223 88.359663,253.60428 111.58466,231.3953 139.79166,217.11226 190.31615,238.3343 Z"
       id="path1665"
       inkscape:connector-curvature="0"
       sodipodi:nodetypes="ccccccccccccccccccccccccccccccccccccccccccc" />
    <path
       style="fill:#096965;stroke:#00ffff;stroke-width:1px;stroke-linecap:butt;stroke-linejoin:miter;stroke-opacity:1;fill-opacity:1;opacity:1"
       d="m 367.41922,640.99194 c 3.3802,0.64809 7.49897,2.52711 16.4446,12.45091 1.19268,-17.41752 -1.09538,-31.22539 -16.67952,-31.24473 z"
       id="path1667"
       inkscape:connector-curvature="0"
       sodipodi:nodetypes="cccc" />
    <path
       style="opacity:1;fill:#096965;fill-opacity:1;stroke:#00ffff;stroke-width:1px;stroke-linecap:butt;stroke-linejoin:miter;stroke-opacity:1"
       d="m 343.11895,622.79654 c -2.94687,-2.54389 -1.53207,-3.99737 0.38587,-5.32506 l 10.26424,-5.40223 c 3.12781,-1.01205 6.31545,-2.16084 6.63703,3.24134 l 3.08699,10.26424 -17.59584,6.94573 z"
       id="path1695"
       inkscape:connector-curvature="0"
       sodipodi:nodetypes="ccccccc" />
    <path
       style="opacity:1;fill:#096965;fill-opacity:1;stroke:#00ffff;stroke-width:1px;stroke-linecap:butt;stroke-linejoin:miter;stroke-opacity:1"
       d="m 362.18111,617.78018 c -0.81845,-5.15354 0.60221,-4.63468 2.85547,-2.00654 l 2.54676,8.33487 -0.92609,4.39896 -3.70439,0.46305 z"
       id="path1697"
       inkscape:connector-curvature="0"
       sodipodi:nodetypes="cccccc" />
    <path
       style="opacity:1;fill:#096965;fill-opacity:1;stroke:#00ffff;stroke-width:1px;stroke-linecap:butt;stroke-linejoin:miter;stroke-opacity:1"
       d="m 340.18631,633.29231 c 6.96637,-3.03551 10.37578,-7.76481 21.22305,-8.95227 11.68035,1.47372 13.39201,7.45709 7.79465,16.74692 l -20.37413,10.10989 c -6.96291,0.29964 -10.45084,-1.24042 -6.94573,-6.48268 6.8503,-7.31315 2.4808,-9.32239 -1.69784,-11.42186 z"
       id="path1671"
       inkscape:connector-curvature="0"
       sodipodi:nodetypes="cccccc" />
    <path
       style="opacity:1;fill:#096965;fill-opacity:1;stroke:#00ffff;stroke-width:1px;stroke-linecap:butt;stroke-linejoin:miter;stroke-opacity:1"
       d="m 286.16398,626.65528 c 1.81439,0.36478 2.54066,-3.15658 5.63376,1.77502 1.46421,0.94381 2.70221,2.86788 3.55004,6.48268 l -0.3087,5.32506 -12.65666,5.01635 c -1.64025,-0.98985 -2.11476,-4.31117 -1.69785,-9.41532 0.63813,-3.76029 1.41362,-7.43977 5.47941,-9.18379 z"
       id="path1677"
       inkscape:connector-curvature="0"
       sodipodi:nodetypes="ccccccc" />
    <path
       style="opacity:1;fill:#096965;fill-opacity:1;stroke:#00ffff;stroke-width:1px;stroke-linecap:butt;stroke-linejoin:miter;stroke-opacity:1"
       d="m 294.49885,637.38257 2.54677,2.46959 c -3.29005,1.72138 -2.65509,3.81657 -1.69784,5.94246 1.07636,2.77111 -0.48479,3.2815 -2.23807,3.62721 l -9.64685,1.5435 c -7.33393,0.63652 -5.98092,-2.30395 -2.93264,-5.94246 z"
       id="path1675"
       inkscape:connector-curvature="0"
       sodipodi:nodetypes="ccccccc" />
    <path
       style="opacity:1;fill:#096965;fill-opacity:1;stroke:#00ffff;stroke-width:1px;stroke-linecap:butt;stroke-linejoin:miter;stroke-opacity:1"
       d="m 293.10971,617.47148 c 2.33393,-0.91063 4.33702,-1.45735 2.62394,2.08372 l -1.15762,3.24134 -0.23153,4.24461 -2.46959,3.00982 -4.32178,-1.77502 c -0.74286,-2.14926 -2.84936,-3.76822 -0.15435,-7.25443 z"
       id="path1679"
       inkscape:connector-curvature="0"
       sodipodi:nodetypes="cccccccc" />
    <path
       style="opacity:1;fill:#096965;fill-opacity:1;stroke:#00ffff;stroke-width:1px;stroke-linecap:butt;stroke-linejoin:miter;stroke-opacity:1"
       d="m 336.01887,624.41721 c 0.66939,-1.8356 1.77728,-3.06407 5.09353,-1.23479 l 1.38915,6.17398 -1.38915,7.0229 -25.85354,1.08044 z"
       id="path1691"
       inkscape:connector-curvature="0"
       sodipodi:nodetypes="cccccc" />
    <path
       style="opacity:1;fill:#096965;fill-opacity:1;stroke:#00ffff;stroke-width:1px;stroke-linecap:butt;stroke-linejoin:miter;stroke-opacity:1"
       d="m 297.58584,619.47803 c 2.27675,-2.52354 4.55949,-5.00375 7.6403,-1.69785 l 9.02945,3.93591 c 2.04725,0.0951 4.14222,0.12087 1.77502,6.63703 l -7.87183,4.78484 -12.65666,-4.78484 z"
       id="path1685"
       inkscape:connector-curvature="0"
       sodipodi:nodetypes="ccccccc" />
    <path
       style="fill:#096965;stroke:#00ffff;stroke-width:1px;stroke-linecap:butt;stroke-linejoin:miter;stroke-opacity:1;fill-opacity:1;opacity:1"
       d="m 295.888,626.26941 9.64684,1.62066 2.62394,5.24789 0.6174,3.78156 -8.72074,3.55004 -2.62395,-4.55331 z"
       id="path1687"
       inkscape:connector-curvature="0" />
    <path
       style="fill:#096965;stroke:#00ffff;stroke-width:1px;stroke-linecap:butt;stroke-linejoin:miter;stroke-opacity:1;fill-opacity:1;opacity:1"
       d="m 312.55774,636.76517 -0.46304,-8.5664 17.44149,2.77829 -8.8751,6.63703 z"
       id="path1689"
       inkscape:connector-curvature="0" />
    <path
       style="opacity:1;fill:#096965;fill-opacity:1;stroke:#00ffff;stroke-width:1px;stroke-linecap:butt;stroke-linejoin:miter;stroke-opacity:1"
       d="m 310.08815,634.91298 c -6.28785,-0.57961 -9.9596,2.42071 -12.34796,7.17725 -0.11747,4.45373 0.17838,8.63528 8.33488,7.6403 7.75508,0.91918 15.01422,1.59038 22.38067,2.31524 5.89498,1.10514 8.82856,-2.66731 11.26752,-7.25442 -1.84739,-1.1237 -1.29066,-3.99585 1.38914,-8.41205 -8.32669,-2.21568 -19.94867,-1.60683 -31.02425,-1.46632 z"
       id="path1673"
       inkscape:connector-curvature="0"
       sodipodi:nodetypes="ccccccc" />
    <path
       style="opacity:1;fill:#096965;fill-opacity:1;stroke:#00ffff;stroke-width:1px;stroke-linecap:butt;stroke-linejoin:miter;stroke-opacity:1"
       d="m 317.03388,630.97706 3.55004,-7.71747 c 3.96499,2.74586 9.91575,1.52017 15.43495,1.15762 l -10.26424,8.64357 z"
       id="path1693"
       inkscape:connector-curvature="0"
       sodipodi:nodetypes="ccccc" />
    <path
       style="fill:#096965;stroke:#00ffff;stroke-width:1px;stroke-linecap:butt;stroke-linejoin:miter;stroke-opacity:1;fill-opacity:1"
       d="m 316.49366,572.32425 c 2.00869,21.02444 11.03924,36.08029 25.39049,46.61355 l 5.63376,-3.93591 C 335.92456,602.11474 328.21682,586.574 325.06005,567.92529 Z"
       id="path1699"
       inkscape:connector-curvature="0"
       sodipodi:nodetypes="ccccc" />
    <path
       style="fill:#096965;stroke:#00ffff;stroke-width:1px;stroke-linecap:butt;stroke-linejoin:miter;stroke-opacity:1;fill-opacity:1"
       d="m 333.70363,564.06656 c 17.09968,10.50427 18.62702,28.49523 14.43168,49.23749 l 5.63375,-1.2348 c 7.52448,-13.42651 17.6154,-25.18485 1.31197,-54.0995 z"
       id="path1701"
       inkscape:connector-curvature="0"
       sodipodi:nodetypes="ccccc" />
    <path
       style="fill:#096965;stroke:#00ffff;stroke-width:1px;stroke-linecap:butt;stroke-linejoin:miter;stroke-opacity:1;fill-opacity:1"
       d="m 350.84562,455.75979 c 0.0881,-1.17038 -2.40808,-2.45823 2.22433,-3.42205 1.56451,0.19125 3.24836,0.20349 3.93535,1.71103 1.67298,0.83414 3.00182,1.92639 6.41635,1.45437 4.13035,-1.83512 7.72864,-1.54195 10.26615,2.99429 l 0.1711,24.29655 -17.53801,13.34599 -8.12736,-5.21862 c -3.03283,0.94745 -3.55728,-2.76352 -3.42205,-7.69961 0.0579,-9.92357 7.08319,-16.90777 6.07414,-27.46195 z"
       id="path863"
       inkscape:connector-curvature="0"
       sodipodi:nodetypes="cccccccccc" />
    <path
       style="opacity:1;fill:#096965;fill-opacity:1;stroke:#00ffff;stroke-width:1px;stroke-linecap:butt;stroke-linejoin:miter;stroke-opacity:1"
       d="m 344.55997,505.34184 c 12.83947,-23.02038 25.04728,-11.93068 37.32642,-4.69309 14.80122,9.04745 25.92918,18.16692 25.9757,27.50368 -0.48135,19.87483 -9.05484,22.34164 -19.31806,21.17346 l -21.06433,-3.81995 c -10.07034,-0.0591 -11.10956,6.29104 -12.39867,12.46381 -14.98701,4.29511 -31.02365,7.87456 -39.88014,16.34957 -10.89557,-3.58362 -10.58714,-10.9019 -7.63992,-19.09978 l 8.07648,-7.20335 c 1.43666,-2.00764 5.72898,0.173 3.28516,-7.526 -0.91205,-3.43872 1.52933,-4.36237 2.71763,-6.22583 11.26808,-7.09546 17.94021,-12.94878 18.44493,-17.13523 z"
       id="path1703"
       inkscape:connector-curvature="0"
       sodipodi:nodetypes="ccccccccccccc" />
    <path
       style="fill:none;stroke:#00ffff;stroke-width:1px;stroke-linecap:butt;stroke-linejoin:miter;stroke-opacity:1"
       d="m 356.89297,513.6366 c 2.90923,-7.60777 4.64368,-19.32729 13.09699,-7.53077 2.09224,3.45477 5.66719,6.2176 12.11471,7.63991 12.23157,4.46588 17.92632,21.65601 7.74906,25.86655"
       id="path1705"
       inkscape:connector-curvature="0"
       sodipodi:nodetypes="cccc" />
    <path
       style="fill:none;stroke:#00ffff;stroke-width:1px;stroke-linecap:butt;stroke-linejoin:miter;stroke-opacity:1"
       d="m 368.13455,515.92857 c 3.10005,1.81389 5.36357,4.18546 10.91416,4.36566 3.12874,2.19494 7.9131,2.18238 7.85819,8.62219 -0.49695,6.86457 -3.73297,5.16956 -6.43935,5.12965 -0.72597,-1.34608 -4.03247,-2.69216 -7.31249,-4.03824 -3.21491,3.28202 -5.48402,0.88926 -7.85819,-0.87313 -2.9999,-4.32623 -8.18753,-17.34189 2.83768,-13.20613 z"
       id="path1711"
       inkscape:connector-curvature="0"
       sodipodi:nodetypes="ccccccc" />
    <path
       style="fill:none;stroke:#00ffff;stroke-width:1px;stroke-linecap:butt;stroke-linejoin:miter;stroke-opacity:1"
       d="m 341.39486,553.47327 c -3.85118,-7.80865 0.92581,-11.40844 8.94961,-13.42441 3.97364,0.99342 8.68771,-0.85144 14.40669,-6.5485 6.15333,-3.43323 11.19164,-4.66884 15.06154,-3.60167 4.80028,-0.89989 8.34634,-4.38659 8.51304,-14.84325"
       id="path1713"
       inkscape:connector-curvature="0"
       sodipodi:nodetypes="ccccc" />
    <path
       style="fill:none;stroke:#00ffff;stroke-width:1px;stroke-linecap:butt;stroke-linejoin:miter;stroke-opacity:1"
       d="m 340.08517,520.51252 c 0.041,4.32084 -0.23297,8.84637 5.45707,9.49531 4.11608,-0.11422 7.03769,0.96603 9.71361,2.29198 3.3199,1.73066 5.59645,-0.53583 6.43935,-8.29476"
       id="path1715"
       inkscape:connector-curvature="0"
       sodipodi:nodetypes="cccc" />
    <path
       style="fill:none;stroke:#00ffff;stroke-width:1px;stroke-linecap:butt;stroke-linejoin:miter;stroke-opacity:1"
       d="m 320.65796,541.4677 c 4.9908,-5.52317 10.05593,-10.97202 22.15575,-9.38618 7.18181,0.0987 13.73022,-1.79341 18.88149,-8.07647 0.40966,-6.96236 0.51591,-13.29261 -2.51026,-13.09699"
       id="path839"
       inkscape:connector-curvature="0"
       sodipodi:nodetypes="cccc" />
    <path
       style="fill:#096965;stroke:#00ffff;stroke-width:1px;stroke-linecap:butt;stroke-linejoin:miter;stroke-opacity:1;fill-opacity:1"
       d="m 414.95629,469.21597 c -0.40136,-2.79752 2.58757,-4.84164 10.04103,-5.89364 2.56355,1.21853 6.03331,-1.43788 6.22107,5.56622 -1.99541,9.16444 0.13882,15.74787 2.72854,22.0466 0.959,15.88138 -2.49217,18.21724 -5.45708,22.0466 -5.8181,3.29743 -6.89767,6.2564 -8.84047,9.27703 -2.88693,4.97547 -7.05423,5.46964 -11.67815,4.36566 -1.32464,-6.09972 -4.97103,-10.70689 -10.36845,-14.1884 z"
       id="path841"
       inkscape:connector-curvature="0"
       sodipodi:nodetypes="ccccccccc" />
    <path
       style="fill:#096965;stroke:#00ffff;stroke-width:1px;stroke-linecap:butt;stroke-linejoin:miter;stroke-opacity:1;fill-opacity:1"
       d="m 396.62051,470.41653 c 1.03864,-9.44434 5.37753,-9.76447 11.35072,-5.56622 7.82851,-1.27906 5.74376,5.93896 5.89364,11.24158 0.97906,5.85879 -0.86894,8.48664 -1.74626,12.22386 -3.20638,2.83138 -3.31418,5.04305 -3.71081,7.31249 l -11.45987,-6.5485 c -1.52993,-6.45787 -0.3484,-12.46383 -0.32742,-18.66321 z"
       id="path843"
       inkscape:connector-curvature="0"
       sodipodi:nodetypes="ccccccc" />
    <path
       style="fill:#096965;stroke:#00ffff;stroke-width:1px;stroke-linecap:butt;stroke-linejoin:miter;stroke-opacity:1;fill-opacity:1"
       d="m 396.94793,489.07974 c -2.74406,6.01327 -6.61669,10.67226 -10.80502,14.9524 6.63948,2.8013 8.72369,5.6026 11.45987,8.4039 3.10708,-4.93994 8.61738,-2.67021 8.07648,-18.55407 z"
       id="path845"
       inkscape:connector-curvature="0"
       sodipodi:nodetypes="ccccc" />
    <path
       style="fill:#096965;stroke:#00ffff;stroke-width:1px;stroke-linecap:butt;stroke-linejoin:miter;stroke-opacity:1;fill-opacity:1"
       d="m 373.48249,462.55834 c -1.92951,-4.89507 1.82935,-5.45615 5.89365,-5.78451 3.15321,0.50006 7.47176,0.12611 6.22107,3.9291 0.224,4.28146 2.0959,5.26714 3.71081,6.76678 2.96169,1.74548 6.90055,1.04803 6.00279,12.44214 -1.7608,7.2761 -7.21329,14.55221 -11.35073,21.82831 -4.61528,-0.50428 -9.14399,-0.92199 -15.17068,-2.83768 -2.40963,-1.11385 -5.42284,-0.9535 -5.34794,-7.31248 l 3.81996,-12.87871 c 3.09313,-4.81088 7.50901,-8.87772 6.22107,-16.15295 z"
       id="path847"
       inkscape:connector-curvature="0"
       sodipodi:nodetypes="cccccccccc" />
    <path
       style="fill:#096965;stroke:#00ffff;stroke-width:1px;stroke-linecap:butt;stroke-linejoin:miter;stroke-opacity:1;fill-opacity:1"
       d="m 439.94971,464.41374 c -3.88021,1.42089 -4.49746,6.5398 -4.03824,12.87871 3.81938,7.63991 5.59743,15.27982 6.22107,22.91973 0.33512,6.49866 3.4857,8.70709 9.93189,5.89365 6.42556,-2.36198 8.70738,-9.53604 6.11193,-22.37403 -0.74616,-6.51349 -2.06241,-12.98312 -6.5485,-19.20892 -2.77542,-2.82792 -7.19176,-1.55604 -11.67815,-0.10914 z"
       id="path849"
       inkscape:connector-curvature="0"
       sodipodi:nodetypes="ccccccc" />
    <path
       style="fill:#096965;stroke:#00ffff;stroke-width:1px;stroke-linecap:butt;stroke-linejoin:miter;stroke-opacity:1;fill-opacity:1"
       d="m 400.33132,455.35499 c 1.08465,-2.57122 0.89851,-5.74046 6.65764,-6.11193 5.38234,-0.43019 8.51409,1.52259 8.9496,6.33022 0.99031,7.6266 0.52641,11.95697 -2.83768,9.7136 -8.33074,1.69484 -14.5437,0.78783 -12.76956,-9.93189 z"
       id="path851"
       inkscape:connector-curvature="0"
       sodipodi:nodetypes="ccccc" />
    <path
       style="fill:#096965;stroke:#00ffff;stroke-width:1px;stroke-linecap:butt;stroke-linejoin:miter;stroke-opacity:1;fill-opacity:1"
       d="m 467.96526,458.92519 c -7.14022,1.8081 -5.17465,5.89264 -5.47528,9.41063 2.51242,7.0801 4.81046,14.1066 6.41634,20.96006 2.59626,1.09402 2.70405,6.00962 11.20721,-1.96768 4.16995,-2.56156 7.90937,-5.93037 10.26615,-11.89162 3.03297,-6.73377 0.26742,-11.71449 -6.50189,-15.48478 -5.5921,-2.26167 -11.00138,-3.30457 -15.91253,-1.02661 z"
       id="path855"
       inkscape:connector-curvature="0"
       sodipodi:nodetypes="ccccccc" />
    <path
       style="fill:#096965;stroke:#00ffff;stroke-width:1px;stroke-linecap:butt;stroke-linejoin:miter;stroke-opacity:1;fill-opacity:1"
       d="m 499.10591,452.9366 c -7.34584,2.88023 -6.64013,5.76045 -4.27757,8.64068 2.36273,1.74896 3.22212,4.47067 1.71103,8.72622 -0.50595,2.65478 -1.5942,5.84872 3.8498,2.99429 1.77786,-1.25386 1.57067,0.007 6.41635,-5.13307 2.36797,-4.29581 3.70398,-8.4978 8.38402,-13.00379 2.62082,-4.48785 2.44601,-7.14107 -2.22433,-6.8441 -4.07847,1.53992 -8.64074,3.07985 -13.8593,4.61977 z"
       id="path861"
       inkscape:connector-curvature="0"
       sodipodi:nodetypes="cccccccc" />
    <path
       style="fill:#096965;stroke:#00ffff;stroke-width:1px;stroke-linecap:butt;stroke-linejoin:miter;stroke-opacity:1;fill-opacity:1"
       d="m 344.25817,448.83014 c 2.02461,0.35681 4.45738,-0.71493 5.64638,2.56654 l -4.96197,37.55699 c -2.9756,1.26505 -4.80814,-0.32754 -6.92965,-1.19772 l -3.42205,-4.27756 c -0.75197,-1.82107 -0.40091,-4.56134 -3.6787,-4.27756 -1.55775,-0.31724 -3.57,0.72901 -3.84981,-3.42205 -0.96033,-3.23553 -2.33135,-6.14252 -1.11216,-11.12166 l 0.94106,-6.24524 1.88213,-7.87071 c 3.44933,-2.79629 7.52924,-4.7728 15.48477,-1.71103 z"
       id="path865"
       inkscape:connector-curvature="0"
       sodipodi:nodetypes="ccccccccccc" />
    <path
       style="fill:#096965;stroke:#00ffff;stroke-width:1px;stroke-linecap:butt;stroke-linejoin:miter;stroke-opacity:1;fill-opacity:1"
       d="m 313.28862,435.99746 c 2.93726,-0.6161 5.87452,-1.18718 8.81178,0.42775 4.50617,3.01508 8.9039,6.0203 10.95056,8.81178 -0.29755,3.45737 -4.04959,4.66182 -9.58174,4.70532 l -10.3517,-3.93536 c -2.6837,-2.69162 -4.76974,-5.52386 0.1711,-10.00949 z"
       id="path867"
       inkscape:connector-curvature="0"
       sodipodi:nodetypes="cccccc" />
    <path
       style="fill:#096965;stroke:#00ffff;stroke-width:1px;stroke-linecap:butt;stroke-linejoin:miter;stroke-opacity:1;fill-opacity:1"
       d="m 305.93122,452.25219 c -0.75268,-3.31851 1.55142,-5.43613 7.1863,-6.24524 l 12.40493,6.92965 c 3.56985,6.12844 -0.16702,7.68824 -2.13878,10.3517 -2.21492,3.98269 -6.17319,4.4787 -9.92394,5.38973 -2.96321,0.44985 -5.64581,0.19818 -7.69962,-1.62548 -3.8797,-3.25903 -1.68471,-3.9603 -1.62547,-5.56083 1.33151,-2.34719 1.58178,-5.77563 1.79658,-9.23953 z"
       id="path871"
       inkscape:connector-curvature="0"
       sodipodi:nodetypes="cccccccc" />
    <path
       style="fill:#096965;stroke:#00ffff;stroke-width:1px;stroke-linecap:butt;stroke-linejoin:miter;stroke-opacity:1;fill-opacity:1"
       d="m 310.29433,468.42137 c -3.02945,1.8605 -5.55238,4.03269 -5.64638,7.69962 -0.89255,8.05982 1.77585,10.863 5.64638,11.89162 2.79467,0.84831 5.58935,0.86114 8.38402,0.3422 l 7.35741,-6.58744 0.85551,-9.15399 c -0.91945,-1.65831 -3.04459,-3.07549 -6.24524,-4.27756 z"
       id="path873"
       inkscape:connector-curvature="0"
       sodipodi:nodetypes="cccccccc" />
    <path
       style="fill:#096965;stroke:#00ffff;stroke-width:1px;stroke-linecap:butt;stroke-linejoin:miter;stroke-opacity:1;fill-opacity:1"
       d="m 311.23539,496.82438 c -3.27207,5.39017 -1.62926,8.58159 3.76426,10.09505 6.27381,4.62346 9.75604,2.61691 12.40493,-1.36882 l 3.6787,-10.26615 c -2.51806,-3.90517 -5.64281,-7.86091 -5.56083,-11.54941 -8.81826,4.47899 -13.45317,8.83846 -14.28706,13.08933 z"
       id="path875"
       inkscape:connector-curvature="0"
       sodipodi:nodetypes="cccccc" />
    <path
       style="fill:#096965;stroke:#00ffff;stroke-width:1px;stroke-linecap:butt;stroke-linejoin:miter;stroke-opacity:1;fill-opacity:1"
       d="m 325.35135,513.16467 c -0.91284,2.83953 -2.28018,5.74398 2.99429,7.69961 4.91775,4.23591 8.09898,0.94688 11.73953,-0.35176 0.60599,-6.66678 2.67953,-14.55651 -0.53232,-18.04175 l -9.23953,-5.38973 c -1.8311,5.61776 -2.6454,13.56187 -4.96197,16.08363 z"
       id="path877"
       inkscape:connector-curvature="0"
       sodipodi:nodetypes="cccccc" />
    <path
       style="fill:#096965;stroke:#00ffff;stroke-width:1px;stroke-linecap:butt;stroke-linejoin:miter;stroke-opacity:1;fill-opacity:1"
       d="m 253.81418,367.30226 c -1.2046,-6.95208 1.10673,-9.50927 6.26702,-8.50524 4.14744,2.72375 8.43708,3.88321 12.98168,2.23822 11.65808,0.023 19.07774,2.11582 13.72775,10.44503 -1.43442,5.09328 -3.604,8.34863 -5.81937,11.48953 -1.81569,3.58115 -3.75628,7.16231 -5.96859,10.74346 -7.53375,5.07726 -8.45894,0.7924 -11.63875,-0.29843 -4.3494,-5.57016 -11.09985,-4.68748 -9.54974,-26.11257 z"
       id="path879"
       inkscape:connector-curvature="0"
       sodipodi:nodetypes="cccccccc" />
    <path
       style="fill:#096965;stroke:#00ffff;stroke-width:1px;stroke-linecap:butt;stroke-linejoin:miter;stroke-opacity:1;fill-opacity:1"
       d="m 277.24089,414.15567 c 0.72471,-3.82614 -0.28656,-8.84005 7.60995,-7.75916 4.71225,0.016 7.89471,-1.89983 11.04188,-3.43194 4.98326,-1.89821 10.45378,-5.50183 12.38482,3.28272 -3.32536,9.05946 -1.73773,15.09556 0,21.03927 1.91505,5.67417 -0.62751,8.2984 -6.26701,8.80367 -16.93177,-1.88951 -16.62584,-14.55257 -24.76964,-21.93456 z"
       id="path881"
       inkscape:connector-curvature="0"
       sodipodi:nodetypes="ccccccc" />
    <path
       style="fill:#096965;stroke:#00ffff;stroke-width:1px;stroke-linecap:butt;stroke-linejoin:miter;stroke-opacity:1;fill-opacity:1"
       d="m 267.98958,411.91745 c -3.22783,-9.75529 -5.59644,-4.04476 -8.0576,0 -4.51218,20.09544 -12.40888,30.88343 -19.99476,42.52619 -11.87953,10.22137 -8.54092,13.92068 1.79057,14.62304 7.62227,-0.29001 13.94834,-10.62552 19.99477,-23.12828 4.35549,-10.7737 6.68391,-22.05416 6.26702,-34.02095 z"
       id="path883"
       inkscape:connector-curvature="0"
       sodipodi:nodetypes="cccccc" />
    <path
       style="fill:#096965;stroke:#00ffff;stroke-width:1px;stroke-linecap:butt;stroke-linejoin:miter;stroke-opacity:1;fill-opacity:1"
       d="m 277.24089,414.15567 c -6.35674,0.18218 -10.90589,1.12239 -5.0733,6.41623 2.55591,7.34596 0.53566,14.38685 -2.83508,21.3377 0.21386,9.23139 -2.43346,12.74042 -4.47644,17.45812 -5.32268,6.35176 -8.83714,7.88158 -11.78796,7.90838 l -11.34032,1.79058 c -0.28147,9.46953 0.90334,16.5197 8.50524,12.98167 6.21931,-3.86944 10.56052,-3.32534 24.32199,-24.91885 5.98827,-10.18359 2.96233,-27.69649 2.68587,-42.97383 z"
       id="path885"
       inkscape:connector-curvature="0"
       sodipodi:nodetypes="ccccccccc" />
    <path
       style="fill:#096965;stroke:#00ffff;stroke-width:1px;stroke-linecap:butt;stroke-linejoin:miter;stroke-opacity:1;fill-opacity:1"
       d="m 277.53932,431.01693 0.89529,-9.25131 9.69895,11.1911 c 5.38058,4.52618 2.45829,9.05236 1.93979,13.57854 -1.28393,8.00161 -4.14153,15.37375 -9.40052,21.78534 l -12.53404,15.2199 c -1.76531,2.20953 -4.15887,4.31831 -7.1623,5.0733 -11.55313,-0.70585 -11.69231,-2.67991 -5.37173,-5.37173 6.22735,-4.21422 10.19417,-1.42077 19.99477,-16.71204 2.78534,-0.84932 5.57068,-9.27687 8.35602,-14.77226 5.37152,-7.98651 -1.01878,-14.29276 -6.41623,-20.74084 z"
       id="path887"
       inkscape:connector-curvature="0"
       sodipodi:nodetypes="ccccccccccc" />
    <path
       style="fill:#096965;stroke:#00ffff;stroke-width:1px;stroke-linecap:butt;stroke-linejoin:miter;stroke-opacity:1;fill-opacity:1"
       d="m 283.95555,422.36248 4.92408,1.49215 c 1.80776,1.84422 3.32866,4.45343 6.26702,3.28272 5.16887,-1.22627 6.85282,2.6408 6.86388,8.95288 -8.44722,0.54201 -8.38089,11.56223 -12.23561,17.75655 -2.81932,3.51071 -6.13434,4.54294 -10.1466,2.089 -0.421,-10.88053 -2.09861,-21.55163 4.32723,-33.5733 z"
       id="path889"
       inkscape:connector-curvature="0"
       sodipodi:nodetypes="ccccccc" />
    <path
       style="fill:#096965;stroke:#00ffff;stroke-width:1px;stroke-linecap:butt;stroke-linejoin:miter;stroke-opacity:1;fill-opacity:1"
       d="m 296.04194,446.68447 -4.62566,22.97906 -5.37173,12.68325 c -5.86386,13.06606 -12.09947,13.12074 -18.3534,12.53404 l 7.01309,-14.32461 c 7.11257,2.05217 14.22513,-22.39882 21.3377,-33.87174 z"
       id="path891"
       inkscape:connector-curvature="0"
       sodipodi:nodetypes="cccccc" />
    <path
       style="fill:#096965;stroke:#00ffff;stroke-width:1px;stroke-linecap:butt;stroke-linejoin:miter;stroke-opacity:1;fill-opacity:1"
       d="m 302.01053,436.09023 6.41623,9.99738 c -5.25167,8.69047 -5.65928,18.83416 -7.16231,28.64922 -0.37795,9.54646 -2.19609,18.1328 -8.50523,23.72514 -13.20758,6.60093 -7.60761,-1.04628 -8.95289,-3.43194 10.25435,-7.76456 9.65898,-16.50046 7.60995,-25.3665 z"
       id="path893"
       inkscape:connector-curvature="0"
       sodipodi:nodetypes="ccccccc" />
    <path
       style="fill:#096965;stroke:#00ffff;stroke-width:1px;stroke-linecap:butt;stroke-linejoin:miter;stroke-opacity:1;fill-opacity:1"
       d="m 259.48434,425.19756 c -0.89049,3.02624 -5.43167,6.574 1.34293,8.50523 l 3.58115,7.01309 c 2.18429,0.52953 6.80649,1.65006 4.92409,1.19372 2.30895,-1.09538 4.30539,-3.28453 5.81937,-7.1623 3.5817,1.04885 5.86911,-8.25655 8.80367,-12.38482 2.01854,-5.10047 -1.63149,-7.05174 -6.71466,-8.20681 z"
       id="path895"
       inkscape:connector-curvature="0"
       sodipodi:nodetypes="cccccccc" />
    <path
       style="fill:#096965;stroke:#00ffff;stroke-width:1px;stroke-linecap:butt;stroke-linejoin:miter;stroke-opacity:1;fill-opacity:1"
       d="m 265.1545,395.95148 5.67016,6.26702 2.98429,7.46073 -14.32461,15.51833 -8.20681,1.0445 -1.34293,-9.69895 -4.0288,-6.71467 z"
       id="path899"
       inkscape:connector-curvature="0" />
    <path
       style="fill:#096965;stroke:#00ffff;stroke-width:1px;stroke-linecap:butt;stroke-linejoin:miter;stroke-opacity:1;fill-opacity:1"
       d="m 241.42936,406.09808 c 0.44242,1.88944 -0.80027,4.81587 4.47644,3.73036 5.8277,-5.45732 12.74988,-9.09052 17.45812,-16.41361 0.5665,2.07717 -0.63953,-2.34493 -1.34293,-4.92409 -0.29843,-0.29843 -0.59686,-0.59686 -0.89529,-0.89528 -4.23065,0.2077 -4.40679,-3.13229 -5.67016,-5.52095 -3.9196,8.77337 -12.10437,9.01641 -18.50262,12.83247 -3.48353,3.2328 0.12732,7.17504 4.47644,11.1911 z"
       id="path901"
       inkscape:connector-curvature="0"
       sodipodi:nodetypes="cccccccc" />
    <path
       style="fill:#096965;stroke:#00ffff;stroke-width:1px;stroke-linecap:butt;stroke-linejoin:miter;stroke-opacity:1;fill-opacity:1"
       d="m 233.81941,402.81535 c -7.39016,7.74147 -4.95226,11.47891 -1.79057,14.92147 l 4.62565,4.77487 1.34294,-5.0733 c 0.25516,-2.01647 -4.92829,-7.9883 3.1335,-4.32722 l 4.62566,3.13351 c 2.50222,3.49433 -0.15102,6.59209 -2.68587,9.69895 l 0.29843,6.1178 c 1.19699,-0.55086 0.91346,0.5903 4.62566,-2.83508 3.8622,-9.02781 4.65957,-4.82049 7.1623,-7.1623 l 4.77487,-10.1466 c 2.59409,-6.46982 4.82513,-12.75811 -2.38743,-14.32461 -8.27839,3.47953 -23.88768,-3.28926 -23.72514,5.22251 z"
       id="path905"
       inkscape:connector-curvature="0"
       sodipodi:nodetypes="ccccccccccccc" />
    <path
       style="fill:#096965;stroke:#00ffff;stroke-width:1px;stroke-linecap:butt;stroke-linejoin:miter;stroke-opacity:1;fill-opacity:1"
       d="m 231.84864,383.59351 c -4.91055,0.22598 -7.31329,1.45509 -3.91107,5.00618 l 3.44175,4.3804 c 1.54583,4.69884 3.64247,2.23702 5.5736,1.92689 8.3162,-2.45939 15.56299,-5.82367 18.50262,-12.83247 l -1.64136,-14.77225 c -12.01943,16.50329 -15.14889,12.05165 -21.96554,16.29125 z"
       id="path907"
       inkscape:connector-curvature="0"
       sodipodi:nodetypes="ccccccc" />
    <path
       style="fill:#096965;stroke:#00ffff;stroke-width:1px;stroke-linecap:butt;stroke-linejoin:miter;stroke-opacity:1;fill-opacity:1"
       d="m 228.56334,373.11182 c -1.65108,1.35438 -4.82376,2.01712 -2.1902,5.31907 -0.90533,2.64175 -3.16504,6.00584 1.87731,5.4755 12.10312,-1.35586 20.96665,-6.49123 25.56373,-16.60413 0.0806,-3.40051 -1.34421,-5.86015 -4.60035,-7.17521 z"
       id="path909"
       inkscape:connector-curvature="0"
       sodipodi:nodetypes="cccccc" />
    <path
       style="fill:#096965;stroke:#00ffff;stroke-width:1px;stroke-linecap:butt;stroke-linejoin:miter;stroke-opacity:1;fill-opacity:1"
       d="m 240.07714,415.87564 c -3.26187,6.84327 -6.58534,13.62494 -11.44472,18.87069 -4.97102,4.18038 -3.48954,7.48088 -3.6693,11.00791 l 2.97038,1.48519 c 5.69852,-12.00907 10.16052,-21.66172 12.14364,-31.36379 z"
       id="path911"
       inkscape:connector-curvature="0"
       sodipodi:nodetypes="ccccc" />
    <path
       style="fill:#096965;stroke:#00ffff;stroke-width:1px;stroke-linecap:butt;stroke-linejoin:miter;stroke-opacity:1;fill-opacity:1"
       d="m 240.07714,415.87564 c 0.1381,20.68699 -6.17835,25.59619 -12.14364,31.36379 3.79546,3.51851 7.78799,5.15076 13.19202,-6.72705 3.34301,-12.38562 2.10957,-19.59876 -1.04838,-24.63674 z"
       id="path913"
       inkscape:connector-curvature="0"
       sodipodi:nodetypes="cccc" />
    <path
       style="fill:#096965;stroke:#00ffff;stroke-width:1px;stroke-linecap:butt;stroke-linejoin:miter;stroke-opacity:1;fill-opacity:1"
       d="m 212.99421,450.90873 -1.74729,6.3776 5.67868,5.50395 5.24186,-3.49458 5.76604,-12.05627 z"
       id="path915"
       inkscape:connector-curvature="0" />
    <path
       style="fill:#096965;stroke:#00ffff;stroke-width:1px;stroke-linecap:butt;stroke-linejoin:miter;stroke-opacity:1;fill-opacity:1"
       d="m 210.02382,455.10222 c -16.50622,6.27604 -15.57932,8.67804 -20.61798,12.40573 7.5193,-2.95678 14.29373,-5.99632 23.76309,-8.73643 z"
       id="path917"
       inkscape:connector-curvature="0"
       sodipodi:nodetypes="cccc" />
    <path
       style="fill:#096965;stroke:#00ffff;stroke-width:1px;stroke-linecap:butt;stroke-linejoin:miter;stroke-opacity:1;fill-opacity:1"
       d="m 189.40584,467.50795 c 4.7981,11.40203 16.11974,3.4584 27.51976,-4.71767 l -3.75667,-4.01876 c -6.43339,7.02504 -13.41799,12.52613 -23.76309,8.73643 z"
       id="path925"
       inkscape:connector-curvature="0"
       sodipodi:nodetypes="cccc" />
    <path
       style="fill:#096965;stroke:#00ffff;stroke-width:1px;stroke-linecap:butt;stroke-linejoin:miter;stroke-opacity:1;fill-opacity:1"
       d="m 174.29181,472.57508 c 0.0804,-2.81246 0.93997,-4.55368 2.88303,-4.80504 3.05397,0.2638 4.37257,-0.91855 6.1155,-1.74728 2.71974,-0.18618 5.01768,0.0494 6.1155,1.48519 0.77668,2.31586 2.13718,4.71513 1.39783,6.81442 l -3.6693,1.48519 -5.85341,0.87364 -4.45558,0.2621 z"
       id="path927"
       inkscape:connector-curvature="0"
       sodipodi:nodetypes="ccccccccc" />
    <path
       style="fill:#096965;stroke:#00ffff;stroke-width:1px;stroke-linecap:butt;stroke-linejoin:miter;stroke-opacity:1;fill-opacity:1"
       d="m 181.28096,476.6812 c -1.11546,0.79356 -2.33617,1.45316 -0.96101,5.41659 0.1485,2.00437 2.10431,2.53003 4.80504,2.4462 2.12842,-0.82678 4.92203,-1.16978 4.63031,-3.75666 0.92707,-3.14287 0.40592,-5.09307 -2.62093,-4.97977 z"
       id="path933"
       inkscape:connector-curvature="0"
       sodipodi:nodetypes="cccccc" />
    <path
       style="fill:#096965;stroke:#00ffff;stroke-width:1px;stroke-linecap:butt;stroke-linejoin:miter;stroke-opacity:1;fill-opacity:1"
       d="m 185.12499,484.54399 c -3.67048,0.9313 -3.43018,3.81799 -3.49457,6.55233 1.32963,2.61922 1.80454,6.75792 5.06713,5.94077 3.3094,-0.28203 2.54013,-3.4774 2.79565,-5.94077 -0.82653,-2.32097 1.28446,-5.28053 -4.36821,-6.55233 z"
       id="path937"
       inkscape:connector-curvature="0"
       sodipodi:nodetypes="ccccc" />
    <path
       style="fill:#096965;stroke:#00ffff;stroke-width:1px;stroke-linecap:butt;stroke-linejoin:miter;stroke-opacity:1;fill-opacity:1"
       d="m 174.29181,472.57508 -4.19348,-0.61155 -3.49458,2.88302 c -3.77315,-0.63847 -4.27509,1.17646 -3.40721,4.01876 -4.37686,2.30059 -3.48233,4.60119 -3.6693,6.90178 -1.14632,2.85698 1.5947,2.81701 4.19349,2.88303 3.36521,7.49384 6.11112,8.6697 8.03752,1.48519 1.04216,-1.88831 3.11376,-3.57073 0.87364,-6.1155 l 7.51333,-4.28085 z"
       id="path939"
       inkscape:connector-curvature="0"
       sodipodi:nodetypes="cccccccccc" />
    <path
       style="fill:#096965;stroke:#00ffff;stroke-width:1px;stroke-linecap:butt;stroke-linejoin:miter;stroke-opacity:1;fill-opacity:1"
       d="m 273.85077,260.86417 c 1.73619,-7.34542 6.41055,-9.34873 14.02308,-6.00989 l 25.44188,24.64056 c 6.83045,8.48832 3.84866,13.05174 -2.60428,16.22671 l -11.21847,3.80626 c -4.2737,2.96718 -8.5474,0.63496 -12.8211,-1.60264 z"
       id="path941"
       inkscape:connector-curvature="0"
       sodipodi:nodetypes="ccccccc" />
    <path
       style="fill:#096965;stroke:#00ffff;stroke-width:1px;stroke-linecap:butt;stroke-linejoin:miter;stroke-opacity:1;fill-opacity:1"
       d="m 284.66858,305.93836 c 3.2129,-1.53678 6.0664,-1.45625 8.21352,1.80297 1.84135,4.85472 3.72292,9.54853 6.61088,10.21682 13.19731,12.82414 5.23207,13.36034 3.00495,17.22836 -9.56408,1.51434 -13.65816,5.4598 -18.63067,9.01484 -9.69871,8.08091 -13.96984,2.98058 -16.22671,-7.01154 z"
       id="path945"
       inkscape:connector-curvature="0"
       sodipodi:nodetypes="ccccccc" />
    <path
       style="fill:#096965;stroke:#00ffff;stroke-width:1px;stroke-linecap:butt;stroke-linejoin:miter;stroke-opacity:1;fill-opacity:1"
       d="m 199.92909,246.84109 c 6.90835,-17.85491 12.03584,-37.30321 28.64716,-46.47651 13.61737,-5.65952 21.13537,3.54818 26.2432,18.63067 1.72198,10.35037 1.17171,20.70074 14.62407,31.05111 9.23499,12.02661 17.27183,24.8827 19.63231,41.66859 -2.44477,32.47449 -16.10679,44.0441 -30.04946,55.09068 -7.66367,19.22634 -20.68022,26.903 -35.25804,28.04617 -19.59319,-12.50868 -24.76488,-10.57529 -40.06595,-3.20528 -15.88754,4.63025 -26.33832,1.35249 -36.46001,-2.40395 12.1735,-4.49378 26.64806,-12.6522 53.08738,-39.86562 3.70482,-7.29066 7.91924,-9.82494 13.22177,-2.20363 4.64799,7.42423 10.93762,8.43114 21.43528,-7.01154 5.2817,-12.62848 -1.11934,-18.53053 -13.42209,-21.03463 l -34.45672,17.02803 c -10.92459,18.72214 -21.09073,37.79138 -62.70321,42.46991 -37.247471,-14.80853 -41.013617,-39.66145 -41.468263,-65.50783 6.076614,-19.19047 11.546603,-38.53582 42.069253,-51.48475 24.23225,-10.50999 49.66907,-1.14447 74.92332,5.20858 z"
       id="path947"
       inkscape:connector-curvature="0"
       sodipodi:nodetypes="cccccccccccccccccc" />
    <path
       style="fill:#022622;stroke:#00ffff;stroke-width:1px;stroke-linecap:butt;stroke-linejoin:miter;stroke-opacity:1;opacity:1;fill-opacity:1"
       d="m 198.32645,312.74958 1.20198,3.80626 c 4.24399,-1.79051 6.46912,1.8026 9.21517,4.0066 0.003,-5.06965 4.27799,-3.49538 9.01484,-1.20198 3.2622,6.9316 7.26993,-0.30169 11.01814,-2.60429 1.55675,-10.55718 -3.08849,-13.78473 -7.21187,-17.62902 -7.78318,4.53021 -18.91782,8.10286 -23.23826,13.62243 z"
       id="path949"
       inkscape:connector-curvature="0"
       sodipodi:nodetypes="ccccccc" />
    <path
       style="fill:none;stroke:#00ffff;stroke-width:1px;stroke-linecap:butt;stroke-linejoin:miter;stroke-opacity:1"
       d="m 278.25803,287.3077 -0.20033,21.43528 c -1.71534,4.20469 -0.81337,9.80528 -10.01649,10.01649 -9.10117,-1.1752 -10.54935,4.15465 -9.01484,12.01978 1.54104,5.95854 1.11543,11.13043 0,16.02638"
       id="path951"
       inkscape:connector-curvature="0"
       sodipodi:nodetypes="ccccc" />
    <path
       style="fill:none;stroke:#00ffff;stroke-width:1px;stroke-linecap:butt;stroke-linejoin:miter;stroke-opacity:1"
       d="m 231.98185,294.31924 c -15.68611,-1.13978 -16.98901,4.11297 -18.63066,9.21517"
       id="path953"
       inkscape:connector-curvature="0"
       sodipodi:nodetypes="cc" />
    <path
       style="fill:none;stroke:#00ffff;stroke-width:1px;stroke-linecap:butt;stroke-linejoin:miter;stroke-opacity:1"
       d="m 201.3314,284.10242 c -4.40478,2.24381 -10.72628,-0.78335 -11.21846,12.22012 1.8014,12.36984 -0.45363,16.4056 -3.00495,19.83264"
       id="path955"
       inkscape:connector-curvature="0"
       sodipodi:nodetypes="ccc" />
    <path
       style="fill:#022622;stroke:#00ffff;stroke-width:1px;stroke-linecap:butt;stroke-linejoin:miter;stroke-opacity:1;opacity:1;fill-opacity:1"
       d="m 251.01318,252.85098 c -0.0906,-7.86616 3.67389,-3.52429 6.61088,-1.80297 1.31966,3.32865 3.9179,6.40158 2.80462,10.21682 -0.5231,2.02926 -1.14681,4.02498 -4.80792,5.00824 -5.06568,-1.79363 -5.72069,0.82342 -8.41385,1.40231 -4.50689,3.37826 -4.14744,0.91692 -3.4056,-2.0033 1.4689,-2.71527 4.15075,-7.45212 7.21187,-12.8211 z"
       id="path957"
       inkscape:connector-curvature="0"
       sodipodi:nodetypes="ccccccc" />
    <path
       style="opacity:1;fill:#022622;fill-opacity:1;stroke:#00ffff;stroke-width:0.95244094;stroke-linecap:round;stroke-linejoin:round;stroke-miterlimit:4;stroke-dasharray:none;stroke-dashoffset:0;stroke-opacity:1"
       id="path959"
       sodipodi:type="arc"
       sodipodi:cx="271.67773"
       sodipodi:cy="121.69436"
       sodipodi:rx="6.9113765"
       sodipodi:ry="15.22213"
       sodipodi:start="5.2359878"
       sodipodi:end="5.2339981"
       sodipodi:open="true"
       d="m 275.13342,108.51161 a 6.9113765,15.22213 0 0 1 2.53146,20.78726 6.9113765,15.22213 0 0 1 -9.43688,5.5858 6.9113765,15.22213 0 0 1 -2.54084,-20.7817 6.9113765,15.22213 0 0 1 9.43435,-5.60648"
       transform="rotate(36.911332)" />
    <path
       style="fill:none;stroke:#00ffff;stroke-width:1px;stroke-linecap:butt;stroke-linejoin:miter;stroke-opacity:1"
       d="m 181.29843,256.25659 c 3.6792,3.2975 5.02735,6.4493 0.20033,9.21516"
       id="path961"
       inkscape:connector-curvature="0"
       sodipodi:nodetypes="cc" />
    <path
       style="fill:none;stroke:#00ffff;stroke-width:1px;stroke-linecap:butt;stroke-linejoin:miter;stroke-opacity:1"
       d="m 105.37345,291.71495 c -2.92327,2.51865 -10.012029,3.52257 -2.0033,10.01649"
       id="path963"
       inkscape:connector-curvature="0"
       sodipodi:nodetypes="cc" />
    <path
       style="fill:none;stroke:#00ffff;stroke-width:1px;stroke-linecap:butt;stroke-linejoin:miter;stroke-opacity:1"
       d="m 172.08326,306.13869 c 1.58102,8.72681 0.23769,16.4301 -8.81451,21.43529 -7.19491,2.19456 -14.87447,4.01218 -17.42869,9.81616 -1.1013,5.21247 -6.00005,6.24776 -12.42044,5.60923 -5.59874,-1.9446 -7.75657,-6.53604 -6.41056,-13.82275"
       id="path965"
       inkscape:connector-curvature="0"
       sodipodi:nodetypes="ccccc" />
    <path
       style="opacity:1;fill:#022622;fill-opacity:1;stroke:#00ffff;stroke-width:0.95250202;stroke-linecap:round;stroke-linejoin:round;stroke-miterlimit:4;stroke-dasharray:none;stroke-dashoffset:0;stroke-opacity:1"
       id="path967"
       sodipodi:type="arc"
       sodipodi:cx="286.87631"
       sodipodi:cy="160.96068"
       sodipodi:rx="18.258461"
       sodipodi:ry="39.568596"
       sodipodi:start="5.2359878"
       sodipodi:end="5.2339981"
       sodipodi:open="true"
       d="m 296.00554,126.69327 a 18.258461,39.568596 0 0 1 6.6876,54.03466 18.258461,39.568596 0 0 1 -24.93032,14.51982 18.258461,39.568596 0 0 1 -6.7124,-54.02021 18.258461,39.568596 0 0 1 24.92364,-14.57357"
       transform="matrix(0.95197752,0.30616794,-0.29088296,0.95675864,0,0)" />
    <path
       style="opacity:1;fill:#022622;fill-opacity:1;stroke:#008080;stroke-width:0.95244092;stroke-linecap:round;stroke-linejoin:round;stroke-miterlimit:4;stroke-dasharray:none;stroke-dashoffset:0;stroke-opacity:1"
       id="path969"
       sodipodi:type="arc"
       sodipodi:cx="296.77924"
       sodipodi:cy="527.54333"
       sodipodi:rx="4.5301371"
       sodipodi:ry="4.5301371"
       sodipodi:start="5.2359878"
       sodipodi:end="5.2339981"
       sodipodi:open="true"
       d="m 299.0443,523.62012 a 4.5301371,4.5301371 0 0 1 1.65928,6.18633 4.5301371,4.5301371 0 0 1 -6.18551,1.66235 4.5301371,4.5301371 0 0 1 -1.66542,-6.18468 4.5301371,4.5301371 0 0 1 6.18384,-1.6685" />
    <path
       style="opacity:1;fill:#022622;fill-opacity:1;stroke:#008080;stroke-width:0.95244092;stroke-linecap:round;stroke-linejoin:round;stroke-miterlimit:4;stroke-dasharray:none;stroke-dashoffset:0;stroke-opacity:1"
       id="path969-5"
       sodipodi:type="arc"
       sodipodi:cx="299.21005"
       sodipodi:cy="520.14044"
       sodipodi:rx="4.5301371"
       sodipodi:ry="4.5301371"
       sodipodi:start="5.2359878"
       sodipodi:end="5.2339981"
       sodipodi:open="true"
       d="m 301.47512,516.21723 a 4.5301371,4.5301371 0 0 1 1.65927,6.18633 4.5301371,4.5301371 0 0 1 -6.1855,1.66235 4.5301371,4.5301371 0 0 1 -1.66543,-6.18468 4.5301371,4.5301371 0 0 1 6.18385,-1.6685" />
    <path
       style="opacity:1;fill:#022622;fill-opacity:1;stroke:#008080;stroke-width:0.95244092;stroke-linecap:round;stroke-linejoin:round;stroke-miterlimit:4;stroke-dasharray:none;stroke-dashoffset:0;stroke-opacity:1"
       id="path969-9"
       sodipodi:type="arc"
       sodipodi:cx="298.76807"
       sodipodi:cy="536.82458"
       sodipodi:rx="4.5301371"
       sodipodi:ry="4.5301371"
       sodipodi:start="5.2359878"
       sodipodi:end="5.2339981"
       sodipodi:open="true"
       d="m 301.03314,532.90137 a 4.5301371,4.5301371 0 0 1 1.65927,6.18633 4.5301371,4.5301371 0 0 1 -6.18551,1.66235 4.5301371,4.5301371 0 0 1 -1.66542,-6.18468 4.5301371,4.5301371 0 0 1 6.18384,-1.6685" />
    <path
       style="opacity:1;fill:#022622;fill-opacity:1;stroke:#008080;stroke-width:0.95244092;stroke-linecap:round;stroke-linejoin:round;stroke-miterlimit:4;stroke-dasharray:none;stroke-dashoffset:0;stroke-opacity:1"
       id="path969-57"
       sodipodi:type="arc"
       sodipodi:cx="304.62411"
       sodipodi:cy="543.01208"
       sodipodi:rx="4.5301371"
       sodipodi:ry="4.5301371"
       sodipodi:start="5.2359878"
       sodipodi:end="5.2339981"
       sodipodi:open="true"
       d="m 306.88918,539.08887 a 4.5301371,4.5301371 0 0 1 1.65927,6.18633 4.5301371,4.5301371 0 0 1 -6.1855,1.66235 4.5301371,4.5301371 0 0 1 -1.66542,-6.18468 4.5301371,4.5301371 0 0 1 6.18384,-1.6685" />
    <path
       style="opacity:1;fill:#022622;fill-opacity:1;stroke:#008080;stroke-width:0.95244092;stroke-linecap:round;stroke-linejoin:round;stroke-miterlimit:4;stroke-dasharray:none;stroke-dashoffset:0;stroke-opacity:1"
       id="path969-2"
       sodipodi:type="arc"
       sodipodi:cx="304.84509"
       sodipodi:cy="535.71967"
       sodipodi:rx="4.5301371"
       sodipodi:ry="4.5301371"
       sodipodi:start="5.2359878"
       sodipodi:end="5.2339981"
       sodipodi:open="true"
       d="m 307.11016,531.79645 a 4.5301371,4.5301371 0 0 1 1.65927,6.18633 4.5301371,4.5301371 0 0 1 -6.1855,1.66235 4.5301371,4.5301371 0 0 1 -1.66543,-6.18468 4.5301371,4.5301371 0 0 1 6.18385,-1.6685" />
    <path
       style="opacity:1;fill:#022622;fill-opacity:1;stroke:#008080;stroke-width:0.95244092;stroke-linecap:round;stroke-linejoin:round;stroke-miterlimit:4;stroke-dasharray:none;stroke-dashoffset:0;stroke-opacity:1"
       id="path969-54"
       sodipodi:type="arc"
       sodipodi:cx="311.1431"
       sodipodi:cy="537.81903"
       sodipodi:rx="4.5301371"
       sodipodi:ry="4.5301371"
       sodipodi:start="5.2359878"
       sodipodi:end="5.2339981"
       sodipodi:open="true"
       d="m 313.40817,533.89582 a 4.5301371,4.5301371 0 0 1 1.65927,6.18633 4.5301371,4.5301371 0 0 1 -6.18551,1.66235 4.5301371,4.5301371 0 0 1 -1.66542,-6.18468 4.5301371,4.5301371 0 0 1 6.18385,-1.6685" />
    <path
       style="opacity:1;fill:#022622;fill-opacity:1;stroke:#008080;stroke-width:0.95244092;stroke-linecap:round;stroke-linejoin:round;stroke-miterlimit:4;stroke-dasharray:none;stroke-dashoffset:0;stroke-opacity:1"
       id="path969-0"
       sodipodi:type="arc"
       sodipodi:cx="303.07724"
       sodipodi:cy="527.65381"
       sodipodi:rx="4.5301371"
       sodipodi:ry="4.5301371"
       sodipodi:start="5.2359878"
       sodipodi:end="5.2339981"
       sodipodi:open="true"
       d="m 305.34231,523.73059 a 4.5301371,4.5301371 0 0 1 1.65927,6.18634 4.5301371,4.5301371 0 0 1 -6.1855,1.66234 4.5301371,4.5301371 0 0 1 -1.66543,-6.18467 4.5301371,4.5301371 0 0 1 6.18385,-1.6685" />
    <path
       style="opacity:1;fill:#022622;fill-opacity:1;stroke:#008080;stroke-width:0.95244092;stroke-linecap:round;stroke-linejoin:round;stroke-miterlimit:4;stroke-dasharray:none;stroke-dashoffset:0;stroke-opacity:1"
       id="path969-1"
       sodipodi:type="arc"
       sodipodi:cx="311.47455"
       sodipodi:cy="529.75317"
       sodipodi:rx="4.5301371"
       sodipodi:ry="4.5301371"
       sodipodi:start="5.2359878"
       sodipodi:end="5.2339981"
       sodipodi:open="true"
       d="m 313.73962,525.82996 a 4.5301371,4.5301371 0 0 1 1.65927,6.18633 4.5301371,4.5301371 0 0 1 -6.18551,1.66235 4.5301371,4.5301371 0 0 1 -1.66542,-6.18468 4.5301371,4.5301371 0 0 1 6.18385,-1.6685" />
    <path
       style="fill:#022622;fill-opacity:1;stroke:#008080;stroke-width:1px;stroke-linecap:butt;stroke-linejoin:miter;stroke-opacity:1"
       d="m 305.17656,520.02994 c 1.22845,-3.46464 -0.71802,-5.48613 -2.65178,-7.5134 l 1.65736,-2.98326 c 1.77309,3.17356 4.80735,6.00317 3.58315,9.99417 z"
       id="path1034"
       inkscape:connector-curvature="0"
       sodipodi:nodetypes="ccccc" />
    <path
       style="opacity:1;fill:#022622;fill-opacity:1;stroke:#008080;stroke-width:0.95244092;stroke-linecap:round;stroke-linejoin:round;stroke-miterlimit:4;stroke-dasharray:none;stroke-dashoffset:0;stroke-opacity:1"
       id="path969-8"
       sodipodi:type="arc"
       sodipodi:cx="308.3808"
       sodipodi:cy="521.68732"
       sodipodi:rx="4.5301371"
       sodipodi:ry="4.5301371"
       sodipodi:start="5.2359878"
       sodipodi:end="5.2339981"
       sodipodi:open="true"
       d="m 310.64587,517.7641 a 4.5301371,4.5301371 0 0 1 1.65927,6.18633 4.5301371,4.5301371 0 0 1 -6.18551,1.66235 4.5301371,4.5301371 0 0 1 -1.66542,-6.18467 4.5301371,4.5301371 0 0 1 6.18385,-1.66851" />
    <path
       style="opacity:1;fill:#022622;fill-opacity:1;stroke:#008080;stroke-width:0.95244092;stroke-linecap:round;stroke-linejoin:round;stroke-miterlimit:4;stroke-dasharray:none;stroke-dashoffset:0;stroke-opacity:1"
       id="path969-3"
       sodipodi:type="arc"
       sodipodi:cx="314.34732"
       sodipodi:cy="522.57123"
       sodipodi:rx="4.5301371"
       sodipodi:ry="4.5301371"
       sodipodi:start="5.2359878"
       sodipodi:end="5.2339981"
       sodipodi:open="true"
       d="m 316.61239,518.64801 a 4.5301371,4.5301371 0 0 1 1.65927,6.18633 4.5301371,4.5301371 0 0 1 -6.1855,1.66235 4.5301371,4.5301371 0 0 1 -1.66543,-6.18467 4.5301371,4.5301371 0 0 1 6.18385,-1.6685" />
    <path
       style="fill:none;stroke:#008080;stroke-width:1px;stroke-linecap:butt;stroke-linejoin:miter;stroke-opacity:1"
       d="m 239.32384,499.14712 c 2.59876,2.12134 5.28411,2.94378 8.17634,0.66294 6.90104,0.46919 10.82553,3.53086 8.61831,11.93305 -2.05041,2.96017 -4.25333,5.86315 -8.61831,7.95536 -4.20513,3.10589 -6.2895,2.23534 -8.17634,0.99442 -5.53298,-2.29002 -9.30762,-5.9616 -10.71765,-11.49108 0.48312,-4.93589 -0.78458,-10.76963 10.71765,-10.05469 z"
       id="path1036"
       inkscape:connector-curvature="0"
       sodipodi:nodetypes="ccccccc" />
    <path
       style="opacity:1;fill:#008080;fill-opacity:1;stroke:#008080;stroke-width:0.95244092;stroke-linecap:round;stroke-linejoin:round;stroke-miterlimit:4;stroke-dasharray:none;stroke-dashoffset:0;stroke-opacity:1"
       id="path1038"
       sodipodi:type="arc"
       sodipodi:cx="239.43433"
       sodipodi:cy="506.82626"
       sodipodi:rx="0.88392919"
       sodipodi:ry="3.922436"
       sodipodi:start="5.2359878"
       sodipodi:end="5.2339981"
       sodipodi:open="true"
       d="m 239.87629,503.42933 a 0.88392919,3.922436 0 0 1 0.32376,5.35646 0.88392919,3.922436 0 0 1 -1.20693,1.43935 0.88392919,3.922436 0 0 1 -0.32496,-5.35502 0.88392919,3.922436 0 0 1 1.20661,-1.44468" />
    <path
       style="opacity:1;fill:#008080;fill-opacity:1;stroke:#008080;stroke-width:0.95244092;stroke-linecap:round;stroke-linejoin:round;stroke-miterlimit:4;stroke-dasharray:none;stroke-dashoffset:0;stroke-opacity:1"
       id="path1038-8"
       sodipodi:type="arc"
       sodipodi:cx="245.0694"
       sodipodi:cy="506.88147"
       sodipodi:rx="0.88392919"
       sodipodi:ry="3.922436"
       sodipodi:start="5.2359878"
       sodipodi:end="5.2339981"
       sodipodi:open="true"
       d="m 245.51136,503.48454 a 0.88392919,3.922436 0 0 1 0.32376,5.35646 0.88392919,3.922436 0 0 1 -1.20693,1.43935 0.88392919,3.922436 0 0 1 -0.32496,-5.35503 0.88392919,3.922436 0 0 1 1.20661,-1.44467" />
    <path
       style="fill:none;stroke:#008080;stroke-width:1px;stroke-linecap:butt;stroke-linejoin:miter;stroke-opacity:1"
       d="m 233.90977,511.96409 c 6.11158,6.54594 11.7501,7.17863 16.68416,-0.99442"
       id="path1057"
       inkscape:connector-curvature="0"
       sodipodi:nodetypes="cc" />
    <path
       style="fill:#022622;fill-opacity:1;stroke:#008080;stroke-width:1px;stroke-linecap:butt;stroke-linejoin:miter;stroke-opacity:1"
       d="m 284.6713,553.04679 c -5.73608,4.56578 -10.48563,5.12246 -15.06383,4.9828 -4.45875,2.88362 -4.05426,4.88086 -0.56272,6.31548 5.3781,0.71298 11.4977,-1.38047 18.73297,-7.69661 z"
       id="path1059"
       inkscape:connector-curvature="0"
       sodipodi:nodetypes="ccccc" />
    <path
       style="fill:#022622;fill-opacity:1;stroke:#008080;stroke-width:1px;stroke-linecap:butt;stroke-linejoin:miter;stroke-opacity:1"
       d="m 285.24704,553.78412 2.55428,-2.2904 1.96119,1.22577 -2.49961,3.07856"
       id="path1061"
       inkscape:connector-curvature="0" />
    <path
       style="fill:#022622;fill-opacity:1;stroke:#008080;stroke-width:1px;stroke-linecap:butt;stroke-linejoin:miter;stroke-opacity:1"
       d="m 285.24704,553.78412 c -3.44278,6.47272 -7.57757,8.87516 -11.83254,10.57064 -2.94119,4.42099 -1.77463,6.09184 1.9994,6.017 5.21705,-1.48821 9.99639,-5.84596 14.11711,-14.52135 z"
       id="path1059-7"
       inkscape:connector-curvature="0"
       sodipodi:nodetypes="ccccc" />
    <path
       style="fill:#022622;fill-opacity:1;stroke:#008080;stroke-width:1px;stroke-linecap:butt;stroke-linejoin:miter;stroke-opacity:1"
       d="m 286.06882,554.23112 1.43062,-3.11829 2.28713,0.34316 -1.06652,3.81944"
       id="path1061-0"
       inkscape:connector-curvature="0" />
    <path
       style="fill:#022622;fill-opacity:1;stroke:#008080;stroke-width:1px;stroke-linecap:butt;stroke-linejoin:miter;stroke-opacity:1"
       d="m 288.76202,554.79656 c -0.62898,7.30433 -3.49058,11.1357 -6.73996,14.36385 -0.97209,5.22023 0.75622,6.29984 4.19866,4.75112 4.21568,-3.41473 6.9035,-9.29756 7.29242,-18.89399 z"
       id="path1059-9"
       inkscape:connector-curvature="0"
       sodipodi:nodetypes="ccccc" />
    <path
       style="fill:#022622;fill-opacity:1;stroke:#008080;stroke-width:1px;stroke-linecap:butt;stroke-linejoin:miter;stroke-opacity:1"
       d="m 289.69327,554.88552 0.0933,-3.42953 2.23852,-0.58115 0.51658,3.93176"
       id="path1061-2"
       inkscape:connector-curvature="0" />
    <path
       style="opacity:1;fill:#022622;fill-opacity:1;stroke:#008080;stroke-width:0.95244092;stroke-linecap:round;stroke-linejoin:round;stroke-miterlimit:4;stroke-dasharray:none;stroke-dashoffset:0;stroke-opacity:1"
       id="path1100"
       sodipodi:type="arc"
       sodipodi:cx="83.307159"
       sodipodi:cy="585.72809"
       sodipodi:rx="15.994369"
       sodipodi:ry="12.985549"
       sodipodi:start="5.2359878"
       sodipodi:end="5.2339981"
       sodipodi:open="true"
       d="m 91.304344,574.48227 a 15.994369,12.985549 0 0 1 5.858321,17.733 15.994369,12.985549 0 0 1 -21.838906,4.76509 15.994369,12.985549 0 0 1 -5.880047,-17.72826 15.994369,12.985549 0 0 1 21.833056,-4.78272"
       transform="rotate(-19.415084)" />
    <path
       style="fill:none;stroke:#008080;stroke-width:1px;stroke-linecap:butt;stroke-linejoin:miter;stroke-opacity:1"
       d="m 277.87286,516.18341 -2.51032,6.95165"
       id="path1102"
       inkscape:connector-curvature="0" />
    <path
       style="fill:none;stroke:#008080;stroke-width:1px;stroke-linecap:butt;stroke-linejoin:miter;stroke-opacity:1"
       d="m 273.14187,519.94888 7.43441,0.0965"
       id="path1104"
       inkscape:connector-curvature="0" />
    <path
       style="fill:none;stroke:#008080;stroke-width:1px;stroke-linecap:butt;stroke-linejoin:miter;stroke-opacity:1"
       d="m 283.08659,526.41778 -1.06205,5.69649"
       id="path1108"
       inkscape:connector-curvature="0" />
    <path
       style="fill:none;stroke:#008080;stroke-width:1px;stroke-linecap:butt;stroke-linejoin:miter;stroke-opacity:1"
       d="m 279.32112,529.5074 6.27579,-0.28965"
       id="path1110"
       inkscape:connector-curvature="0" />
    <path
       style="opacity:1;fill:#022622;fill-opacity:1;stroke:#008080;stroke-width:0.95244092;stroke-linecap:round;stroke-linejoin:round;stroke-miterlimit:4;stroke-dasharray:none;stroke-dashoffset:0;stroke-opacity:1"
       id="path1112"
       sodipodi:type="arc"
       sodipodi:cx="265.75574"
       sodipodi:cy="532.35565"
       sodipodi:rx="1.3034341"
       sodipodi:ry="1.3034341"
       sodipodi:start="5.2359878"
       sodipodi:end="5.2339981"
       sodipodi:open="true"
       d="m 266.40745,531.22684 a 1.3034341,1.3034341 0 0 1 0.47742,1.77997 1.3034341,1.3034341 0 0 1 -1.77973,0.4783 1.3034341,1.3034341 0 0 1 -0.47918,-1.77949 1.3034341,1.3034341 0 0 1 1.77925,-0.48007" />
  </g>
</svg>
