<?xml version="1.0" encoding="UTF-8" standalone="no"?>
<!-- Created with Inkscape (http://www.inkscape.org/) -->

<svg
   xmlns:dc="http://purl.org/dc/elements/1.1/"
   xmlns:cc="http://creativecommons.org/ns#"
   xmlns:rdf="http://www.w3.org/1999/02/22-rdf-syntax-ns#"
   xmlns:svg="http://www.w3.org/2000/svg"
   xmlns="http://www.w3.org/2000/svg"
   xmlns:sodipodi="http://sodipodi.sourceforge.net/DTD/sodipodi-0.dtd"
   xmlns:inkscape="http://www.inkscape.org/namespaces/inkscape"
   width="600"
   height="600"
   viewBox="0 0 600 600"
   version="1.1"
   id="svg8"
   inkscape:version="0.92.4 (5da689c313, 2019-01-14)"
   sodipodi:docname="y.svg">
  <defs
     id="defs2" />
  <sodipodi:namedview
     id="base"
     pagecolor="#ffffff"
     bordercolor="#666666"
     borderopacity="1.0"
     inkscape:pageopacity="0.0"
     inkscape:pageshadow="2"
     inkscape:zoom="1.7966667"
     inkscape:cx="300"
     inkscape:cy="300"
     inkscape:document-units="mm"
     inkscape:current-layer="layer1"
     showgrid="false"
     units="px"
     inkscape:window-width="2400"
     inkscape:window-height="1271"
     inkscape:window-x="-9"
     inkscape:window-y="-9"
     inkscape:window-maximized="1" />
  <metadata
     id="metadata5">
    <rdf:RDF>
      <cc:Work
         rdf:about="">
        <dc:format>image/svg+xml</dc:format>
        <dc:type
           rdf:resource="http://purl.org/dc/dcmitype/StillImage" />
        <dc:title></dc:title>
      </cc:Work>
    </rdf:RDF>
  </metadata>
  <g
     inkscape:label="Layer 1"
     inkscape:groupmode="layer"
     id="layer1"
     transform="translate(0,-138.24998)">
    <path
       style="fill:#ffff00;stroke:#000000;stroke-width:1px;stroke-linecap:butt;stroke-linejoin:miter;stroke-opacity:1;fill-opacity:1"
       d="m 307.70246,723.70319 c -0.19637,1.6001 -0.18189,3.02769 0.21418,4.14307 9.38716,8.1347 26.42639,5.06458 43.79632,1.51021 17.96487,-4.4634 29.53726,-14.3838 35.57402,-29.02974 8.78963,-22.17384 17.42696,-44.42382 24.49909,-67.4564 1.91357,-11.45326 0.19042,-18.36063 -6.04087,-19.63283 z"
       id="path837"
       inkscape:connector-curvature="0"
       sodipodi:nodetypes="ccccccc" />
    <path
       style="fill:#fa7331;stroke:#000000;stroke-width:1px;stroke-linecap:butt;stroke-linejoin:miter;stroke-opacity:1;fill-opacity:1"
       d="m 332.89909,658.38039 -20.84029,10.25647 c -13.04218,9.07377 -16.30381,20.10365 -14.83916,32.07878 1.14899,10.90983 5.60556,17.23994 10.48282,22.98755 17.92142,4.20739 35.71682,3.75194 53.34739,-2.80193 9.66169,-3.33002 17.97801,-11.55228 24.44096,-26.51409 7.77943,-20.91997 15.86346,-41.29167 22.25874,-64.7031 0.43139,-5.63926 1.47191,-11.36554 -2.00435,-16.44657 -5.17723,-8.7767 -11.92095,-16.19577 -21.45461,-21.19689 -6.34944,-2.23852 -11.46947,-1.71086 -16.69406,-1.41845 z"
       id="path839"
       inkscape:connector-curvature="0"
       sodipodi:nodetypes="ccccccccccc" />
    <path
       style="fill:#fa7331;stroke:#000000;stroke-width:1px;stroke-linecap:butt;stroke-linejoin:miter;stroke-opacity:1;fill-opacity:1"
       d="m 340.10044,588.65816 c 3.96955,-3.4217 9.30723,-4.97778 16.47584,-4.03713 5.82066,1.22188 11.15152,3.98311 14.94827,11.56582 2.97844,14.65284 -2.49566,25.72961 -6.76491,37.31612 -6.61041,12.41283 -13.02275,25.38493 -24.44097,24.22275 -12.0422,2.63726 -20.73997,-1.11924 -22.91341,-17.34873 z"
       id="path841"
       inkscape:connector-curvature="0"
       sodipodi:nodetypes="ccccccc" />
    <path
       style="fill:#64dd51;stroke:#000000;stroke-width:1px;stroke-linecap:butt;stroke-linejoin:miter;stroke-opacity:1;fill-opacity:1"
       d="m 331.37153,643.97767 c 11.34473,-4.42331 27.35634,-24.43237 22.04051,-49.10016 -3.97939,-1.30068 -7.61147,-3.6433 -12.11137,-3.38245 l -2.61868,-5.23735 -58.0473,12.32959 -0.43644,21.49496 c 10.94212,10.76814 26.30841,19.50853 51.17328,23.89541 z"
       id="path843"
       inkscape:connector-curvature="0"
       sodipodi:nodetypes="ccccccc" />
    <path
       style="fill:#ffffff;stroke:#000000;stroke-width:1px;stroke-linecap:butt;stroke-linejoin:miter;stroke-opacity:1"
       d="m 351.66626,579.05635 c -15.52905,9.62829 -25.71284,21.09232 -68.74023,21.27674 l -2.07311,-8.07425 15.93027,-9.92915 z"
       id="path847"
       inkscape:connector-curvature="0"
       sodipodi:nodetypes="ccccc" />
    <path
       style="fill:#fc4a37;stroke:#000000;stroke-width:1px;stroke-linecap:butt;stroke-linejoin:miter;stroke-opacity:1;fill-opacity:1"
       d="m 362.23388,482.36538 c 6.90811,-16.43017 10.6388,-33.13663 -0.29378,-51.11816 l -23.5026,3.52539 z"
       id="path849"
       inkscape:connector-curvature="0"
       sodipodi:nodetypes="cccc" />
    <path
       style="fill:#64dd51;stroke:#000000;stroke-width:1px;stroke-linecap:butt;stroke-linejoin:miter;stroke-opacity:1;fill-opacity:1"
       d="m 334.61832,380.42283 -5.87565,14.39535 22.03369,-3.23161 c 11.18507,-1.72486 22.23798,-1.86381 32.90365,2.64404 l 37.89795,13.22022 c 14.88498,0.66222 29.76997,3.23012 44.65495,9.10726 10.85021,4.23062 19.00152,11.16015 22.03369,23.20882 3.29123,11.40519 0.26239,17.97738 -5.28809,22.62126 1.15311,9.92761 -3.52522,14.50974 -8.51969,18.80208 -5.11818,13.97331 -14.32856,22.66637 -35.54769,15.86426 -6.82181,4.36097 -15.50944,3.33179 -27.028,-5.87565 -7.4523,-7.6734 -12.89888,-21.53106 -14.10156,-48.47412 -6.67014,-4.08571 -13.61033,-8.1039 -24.38395,-11.16374 -5.48071,-5.08149 -13.39043,0.16033 -20.85856,3.52539 -6.08117,1.13497 -10.00739,3.94601 -14.68913,6.16943 -6.75448,3.23756 -5.73557,8.92987 -2.64404,15.2767 10.57597,15.86591 21.09739,32.16817 33.19743,35.84147 5.53679,0.82073 11.99306,-1.11699 19.09586,-4.99431 6.15055,-2.82261 12.1087,-5.01554 12.63265,10.57617 -8.81059,23.18506 -13.65516,63.60519 -61.44984,88.32186 -15.66473,1.30913 -31.31309,2.59302 -41.8988,-3.92802 l -67.33902,-59.12854 v -34.66634 l 76.67725,-111.34358 z"
       id="path851"
       inkscape:connector-curvature="0"
       sodipodi:nodetypes="ccccccccccccccccccccccccc" />
    <path
       style="fill:#ffffff;stroke:#000000;stroke-width:1px;stroke-linecap:butt;stroke-linejoin:miter;stroke-opacity:1"
       d="m 343.50015,438.17646 c 7.08632,18.38078 15.42451,33.54249 23.66976,48.94316 1.54911,7.42557 -0.42603,10.0216 -3.46387,11.16135 -16.47807,-12.13116 -24.65076,-26.39479 -28.50015,-41.76845 -4.35522,-6.46449 -4.5199,-12.72154 8.29426,-18.33606 z"
       id="path853"
       inkscape:connector-curvature="0"
       sodipodi:nodetypes="ccccc" />
    <path
       style="fill:#64dd51;stroke:#000000;stroke-width:1px;stroke-linecap:butt;stroke-linejoin:miter;stroke-opacity:1;fill-opacity:1"
       d="m 252.54973,397.82364 c -18.89099,3.74069 -35.103,7.2753 -47.37695,10.50699 l -22.16019,-20.44086 v -2.67451 c 4.03342,-4.11713 6.78885,-10.47074 8.78766,-18.14843 0.74101,-3.12947 1.54754,-6.08857 -0.19104,-15.66496 -1.58218,-10.41249 -4.5978,-17.34378 -9.74284,-19.10361 h -11.08009 c -3.01305,-7.05488 -7.39214,-12.3339 -15.47393,-12.79942 -13.46916,-0.65326 -15.56963,4.37782 -18.14843,9.16973 -7.70488,3.45999 -12.53418,8.26192 -12.60838,15.28289 -6.81624,4.84327 -12.35588,10.27574 -12.60838,18.14843 -2.15373,19.0673 9.4343,30.45539 24.45262,39.92655 7.84547,1.33044 13.61979,6.28539 19.48568,11.08009 l 27.70024,22.35122 c 5.12443,6.63448 15.84184,6.3853 27.5092,4.96694 z"
       id="path857"
       inkscape:connector-curvature="0"
       sodipodi:nodetypes="ccccccccccccccccc" />
    <path
       style="fill:#ffffff;stroke:#000000;stroke-width:1px;stroke-linecap:butt;stroke-linejoin:miter;stroke-opacity:1"
       d="m 277.95753,379.29314 c -78.37614,44.63064 -75.94133,83.00128 -85.01106,122.26311 l 36.4977,21.6449 c 6.07644,-26.60089 20.34158,-41.40042 43.73746,-43.04095 4.05964,-30.17373 1.26485,-58.24691 35.34168,-97.61945 l 2.68592,-3.92816 -29.81497,-4.18915 z"
       id="path855"
       inkscape:connector-curvature="0"
       sodipodi:nodetypes="cccccccc" />
    <path
       style="fill:none;stroke:#000000;stroke-width:1px;stroke-linecap:butt;stroke-linejoin:miter;stroke-opacity:1"
       d="m 120.16171,373.56206 6.30614,-0.33919"
       id="path859"
       inkscape:connector-curvature="0"
       sodipodi:nodetypes="cc" />
    <path
       style="fill:none;stroke:#000000;stroke-width:1px;stroke-linecap:butt;stroke-linejoin:miter;stroke-opacity:1"
       d="m 170.78628,332.29826 c -13.11143,8.15087 -9.16635,16.30175 -8.78766,24.45262 3.63568,3.17794 4.89705,8.73019 17.19325,3.24761 4.5981,-4.90012 8.07315,-11.14789 10.12491,-19.10361"
       id="path861"
       inkscape:connector-curvature="0"
       sodipodi:nodetypes="cccc" />
    <path
       style="fill:none;stroke:#000000;stroke-width:1px;stroke-linecap:butt;stroke-linejoin:miter;stroke-opacity:1"
       d="m 119.77964,362.48196 c 2.79611,1.4257 4.20479,5.35773 9.16973,2.86554 -6.5372,8.75067 -0.51972,10.73331 5.34901,11.65321 6.78141,1.57818 13.13021,1.94505 14.90082,-10.50699 6.06687,0.57822 10.79682,-1.68449 12.79942,-9.74284"
       id="path863"
       inkscape:connector-curvature="0"
       sodipodi:nodetypes="ccccc" />
    <path
       style="fill:none;stroke:#000000;stroke-width:1px;stroke-linecap:butt;stroke-linejoin:miter;stroke-opacity:1"
       d="m 124.55554,343.95146 c 12.3082,0.37944 24.52628,0.91595 24.64366,22.54226"
       id="path865"
       inkscape:connector-curvature="0"
       sodipodi:nodetypes="cc" />
    <path
       style="fill:none;stroke:#000000;stroke-width:1px;stroke-linecap:butt;stroke-linejoin:miter;stroke-opacity:1"
       d="m 137.16392,328.66857 c 9.04871,1.08271 18.25463,1.37938 25.57974,11.0801"
       id="path867"
       inkscape:connector-curvature="0"
       sodipodi:nodetypes="cc" />
    <path
       style="fill:none;stroke:#000000;stroke-width:1px;stroke-linecap:butt;stroke-linejoin:miter;stroke-opacity:1"
       d="m 176.65109,392.03525 c 2.25321,-1.47704 4.46025,-3.23117 6.3615,-6.81999"
       id="path869"
       inkscape:connector-curvature="0"
       sodipodi:nodetypes="cc" />
    <path
       style="fill:none;stroke:#000000;stroke-width:1px;stroke-linecap:butt;stroke-linejoin:miter;stroke-opacity:1"
       d="m 477.41678,437.58239 -0.34232,5.47705 c 3.8468,5.6914 5.05847,12.43685 5.90405,19.32873"
       id="path871"
       inkscape:connector-curvature="0"
       sodipodi:nodetypes="ccc" />
    <path
       style="fill:none;stroke:#000000;stroke-width:1px;stroke-linecap:butt;stroke-linejoin:miter;stroke-opacity:1"
       d="m 466.57677,453.32892 -0.45642,5.81938 c 4.49161,6.91929 6.16385,14.54342 8.33847,22.04195"
       id="path873"
       inkscape:connector-curvature="0"
       sodipodi:nodetypes="ccc" />
    <path
       style="fill:none;stroke:#000000;stroke-width:1px;stroke-linecap:butt;stroke-linejoin:miter;stroke-opacity:1"
       d="m 438.91113,497.05451 c -4.10262,-7.92716 -7.70128,-15.75056 -1.65943,-21.58915 h 9.58485 c -0.56852,6.10363 3.3641,9.9567 8.21558,13.35033"
       id="path875"
       inkscape:connector-curvature="0"
       sodipodi:nodetypes="cccc" />
    <path
       style="fill:none;stroke:#000000;stroke-width:1px;stroke-linecap:butt;stroke-linejoin:miter;stroke-opacity:1"
       d="m 296.35741,529.48366 c 0.33757,12.60525 -1.44721,22.23921 -5.14352,29.19703"
       id="path877"
       inkscape:connector-curvature="0"
       sodipodi:nodetypes="cc" />
    <path
       style="fill:none;stroke:#000000;stroke-width:1px;stroke-linecap:butt;stroke-linejoin:miter;stroke-opacity:1"
       d="M 323.73908,499.53023 C 308.26892,488.00505 292.24132,478.52378 273.18163,480.1602"
       id="path879"
       inkscape:connector-curvature="0"
       sodipodi:nodetypes="cc" />
    <path
       style="fill:none;stroke:#000000;stroke-width:1px;stroke-linecap:butt;stroke-linejoin:miter;stroke-opacity:1"
       d="m 347.79259,530.54262 c 4.99467,46.04671 -18.30887,55.06493 -51.0094,51.78707"
       id="path881"
       inkscape:connector-curvature="0"
       sodipodi:nodetypes="cc" />
    <path
       style="fill:#fa7331;stroke:#000000;stroke-width:1px;stroke-linecap:butt;stroke-linejoin:miter;stroke-opacity:1;fill-opacity:1"
       d="m 233.42495,526.1555 c 18.015,4.29259 33.85295,0.72885 60.66326,36.76103 8.50036,18.92232 1.89498,29.7106 -10.89216,31.46623 1.23113,25.48362 -6.69476,39.848 -20.27151,47.35062 L 140.23651,544.46037 c 3.01094,-14.19017 1.59075,-28.48975 36.00462,-41.90454 22.87516,-7.62735 40.7129,5.2098 57.18382,23.59967 z"
       id="path885"
       inkscape:connector-curvature="0"
       sodipodi:nodetypes="ccccccc" />
    <path
       style="fill:none;stroke:#000000;stroke-width:1px;stroke-linecap:butt;stroke-linejoin:miter;stroke-opacity:1"
       d="m 249.4143,565.88405 c -2.5834,-13.24285 -4.82616,-26.4857 -15.98935,-39.72855"
       id="path887"
       inkscape:connector-curvature="0"
       sodipodi:nodetypes="cc" />
    <path
       style="fill:none;stroke:#000000;stroke-width:1px;stroke-linecap:butt;stroke-linejoin:miter;stroke-opacity:1"
       d="m 247.5609,556.35229 c 18.20926,8.64809 32.85263,19.56537 35.63515,38.03047"
       id="path889"
       inkscape:connector-curvature="0"
       sodipodi:nodetypes="cc" />
    <path
       style="fill:#ffff00;stroke:#000000;stroke-width:1px;stroke-linecap:butt;stroke-linejoin:miter;stroke-opacity:1"
       d="m 140.23651,544.46037 -3.61466,7.78797 c -3.45696,9.32738 8.77059,21.72346 21.18168,34.15546 14.00239,10.87715 27.47399,25.20443 40.77473,40.64235 14.86599,10.15234 28.69399,21.80399 49.64457,23.16747 5.36392,0.0692 10.71712,0.0714 14.70171,-8.48024 2.2515,-8.02205 -4.69356,-14.51135 -10.59776,-21.17412 C 240.09056,611.282 229.1852,600.88402 223.59913,586.00664 201.74904,553.74121 163.94577,532.1885 140.23651,544.46037 Z"
       id="path891"
       inkscape:connector-curvature="0"
       sodipodi:nodetypes="ccccccccc" />
    <path
       style="fill:none;stroke:#000000;stroke-width:1px;stroke-linecap:butt;stroke-linejoin:miter;stroke-opacity:1"
       d="m 136.62185,552.24834 c 26.06407,-10.88008 40.65861,5.42685 57.72008,15.88626 13.42239,8.61089 24.08528,22.14945 32.56683,39.58327 9.98631,12.34798 23.36023,23.00215 36.01578,34.01551"
       id="path893"
       inkscape:connector-curvature="0"
       sodipodi:nodetypes="cccc" />
    <path
       style="fill:#fc4a37;stroke:#000000;stroke-width:1px;stroke-linecap:butt;stroke-linejoin:miter;stroke-opacity:1;fill-opacity:1"
       d="m 409.87984,228.89713 c 16.02004,23.0458 -1.37377,34.42827 -15.5586,46.93086 l -8.92707,-23.72049 z"
       id="path895"
       inkscape:connector-curvature="0"
       sodipodi:nodetypes="cccc" />
    <path
       style="fill:#fc4a37;stroke:#000000;stroke-width:1px;stroke-linecap:butt;stroke-linejoin:miter;stroke-opacity:1;fill-opacity:1"
       d="m 393.81112,284.75505 c 12.18574,5.13797 21.06775,13.10771 20.91484,28.82167 -4.14099,12.75788 -12.21847,17.08042 -20.40472,21.1699 z"
       id="path897"
       inkscape:connector-curvature="0"
       sodipodi:nodetypes="cccc" />
    <path
       style="fill:#fc4a37;stroke:#000000;stroke-width:1px;stroke-linecap:butt;stroke-linejoin:miter;stroke-opacity:1;fill-opacity:1"
       d="m 384.88405,352.85581 c 1.49027,24.32678 -10.88106,30.46021 -31.1172,26.27108 z"
       id="path899"
       inkscape:connector-curvature="0"
       sodipodi:nodetypes="cc" />
    <path
       style="fill:#64dd51;stroke:#000000;stroke-width:1px;stroke-linecap:butt;stroke-linejoin:miter;stroke-opacity:1;fill-opacity:1"
       d="m 315.52762,292.31079 81.8125,17.8278 -5.37276,-54.46027 c 14.12414,-19.22411 27.57356,-38.93682 23.20056,-71.55541 -7.28942,-23.80618 -22.59103,-32.68056 -44.20317,-29.7944 -15.57096,-14.63676 -29.59236,-11.71186 -43.22631,-4.3959 -16.40654,6.72044 -18.82398,17.89196 -21.24683,29.06176 z"
       id="path901"
       inkscape:connector-curvature="0"
       sodipodi:nodetypes="cccccccc" />
    <path
       style="fill:#ffffff;stroke:#000000;stroke-width:1px;stroke-linecap:butt;stroke-linejoin:miter;stroke-opacity:1"
       d="m 315.52762,292.31079 c 30.70155,-9.59653 61.8695,-21.30558 81.8125,17.8278 0.0371,34.11011 -17.42696,57.0676 -49.33171,70.82276 -17.7288,6.41298 -38.41579,2.17648 -59.3446,-2.9306 -20.77105,6.12531 -33.69111,3.7957 -46.1569,0.97687 -16.0411,-8.27481 -9.29462,-24.14549 -2.44216,-40.05149 z"
       id="path903"
       inkscape:connector-curvature="0"
       sodipodi:nodetypes="ccccccc" />
    <path
       style="fill:#000000;stroke:#000000;stroke-width:1px;stroke-linecap:butt;stroke-linejoin:miter;stroke-opacity:1"
       d="m 247.39124,338.95613 c -10.24378,17.79746 -1.70183,21.50563 8.54757,23.9332 18.06286,-1.24774 29.78286,-9.68406 38.09777,-21.97947 1.44772,-9.45229 3.85635,-19.28893 8.54757,-30.03862 z"
       id="path905"
       inkscape:connector-curvature="0"
       sodipodi:nodetypes="ccccc" />
    <path
       style="fill:#550000;stroke:#000000;stroke-width:1px;stroke-linecap:butt;stroke-linejoin:miter;stroke-opacity:1"
       d="m 295.95723,331.31927 c -19.29553,0.38889 -28.05608,7.49251 -37.32569,14.44819 -6.51976,5.55803 -6.60439,11.2869 -2.69273,17.12187 14.98656,-1.05758 28.09542,-7.26147 38.09777,-21.97947 0.55975,-3.56526 1.32051,-7.48556 1.92065,-9.59059 z"
       id="path907"
       inkscape:connector-curvature="0"
       sodipodi:nodetypes="ccccc" />
    <path
       style="fill:none;stroke:#000000;stroke-width:1px;stroke-linecap:butt;stroke-linejoin:miter;stroke-opacity:1"
       d="m 345.71236,170.29396 c 5.79585,-7.77958 13.25392,-14.00083 25.25239,-15.96545"
       id="path909"
       inkscape:connector-curvature="0"
       sodipodi:nodetypes="cc" />
    <path
       style="fill:#ffffff;stroke:#000000;stroke-width:1px;stroke-linecap:butt;stroke-linejoin:miter;stroke-opacity:1"
       d="m 306.49161,178.99437 c 5.62012,-7.8673 10.07204,-18.88875 19.34886,-16.88295 12.24972,1.6314 14.62012,12.28305 18.2646,21.77141 l -18.11848,34.62968 z"
       id="path911"
       inkscape:connector-curvature="0"
       sodipodi:nodetypes="ccccc" />
    <path
       style="opacity:1;fill:#426772;fill-opacity:1;stroke:#000000;stroke-width:0.95244092;stroke-linecap:round;stroke-linejoin:round;stroke-miterlimit:4;stroke-dasharray:none;stroke-dashoffset:0;stroke-opacity:1"
       id="path913"
       sodipodi:type="arc"
       sodipodi:cx="369.51508"
       sodipodi:cy="98.387978"
       sodipodi:rx="10.447351"
       sodipodi:ry="15.99979"
       sodipodi:start="5.2359878"
       sodipodi:end="5.2339981"
       sodipodi:open="true"
       d="m 374.73875,84.531753 a 10.447351,15.99979 0 0 1 3.82659,21.849227 10.447351,15.99979 0 0 1 -14.26494,5.87117 10.447351,15.99979 0 0 1 -3.84078,-21.843382 10.447351,15.99979 0 0 1 14.26112,-5.892905"
       transform="rotate(17.042718)" />
    <path
       style="opacity:1;fill:#000000;fill-opacity:1;stroke:#000000;stroke-width:0.74125224;stroke-linecap:round;stroke-linejoin:round;stroke-miterlimit:4;stroke-dasharray:none;stroke-dashoffset:0;stroke-opacity:1"
       id="path913-9"
       sodipodi:type="arc"
       sodipodi:cx="369.31158"
       sodipodi:cy="98.721336"
       sodipodi:rx="8.1308174"
       sodipodi:ry="12.452091"
       sodipodi:start="5.2359878"
       sodipodi:end="5.2339981"
       sodipodi:open="true"
       d="m 373.37699,87.937509 a 8.1308174,12.452091 0 0 1 2.97811,17.004511 8.1308174,12.452091 0 0 1 -11.10192,4.56933 8.1308174,12.452091 0 0 1 -2.98915,-16.99996 8.1308174,12.452091 0 0 1 11.09894,-4.586247"
       transform="rotate(17.042718)" />
    <path
       style="fill:#ffffff;stroke:#000000;stroke-width:1px;stroke-linecap:butt;stroke-linejoin:miter;stroke-opacity:1"
       d="m 349.95594,175.00016 c -11.74095,14.00396 -16.57274,28.92914 -23.96935,43.51235 l 4.48057,24.81869 c 4.31366,5.60753 11.61677,10.26499 22.97751,11.0677 7.05985,0.25848 12.30663,-2.23164 16.60156,-11.30831 7.90601,-22.04304 16.63616,-44.00683 -7.93988,-69.17314 -4.29242,-2.90987 -8.49194,-4.56571 -12.15041,1.08271 z"
       id="path977"
       inkscape:connector-curvature="0"
       sodipodi:nodetypes="ccccccc" />
    <path
       style="opacity:1;fill:#426772;fill-opacity:1;stroke:#000000;stroke-width:1.26219952;stroke-linecap:round;stroke-linejoin:round;stroke-miterlimit:4;stroke-dasharray:none;stroke-dashoffset:0;stroke-opacity:1"
       id="path913-5"
       sodipodi:type="arc"
       sodipodi:cx="408.21521"
       sodipodi:cy="108.0368"
       sodipodi:rx="13.825728"
       sodipodi:ry="21.233053"
       sodipodi:start="5.2359878"
       sodipodi:end="5.2339981"
       sodipodi:open="true"
       d="m 415.12807,89.648434 a 13.825728,21.233053 0 0 1 5.06401,28.995746 13.825728,21.233053 0 0 1 -18.87782,7.79153 13.825728,21.233053 0 0 1 -5.08278,-28.987989 13.825728,21.233053 0 0 1 18.87276,-7.820375"
       transform="matrix(0.95580796,0.29399173,-0.29217977,0.95636342,0,0)" />
    <path
       style="opacity:1;fill:#000000;fill-opacity:1;stroke:#000000;stroke-width:0.99134815;stroke-linecap:round;stroke-linejoin:round;stroke-miterlimit:4;stroke-dasharray:none;stroke-dashoffset:0;stroke-opacity:1"
       id="path913-5-6"
       sodipodi:type="arc"
       sodipodi:cx="407.21469"
       sodipodi:cy="106.09148"
       sodipodi:rx="10.791243"
       sodipodi:ry="16.78129"
       sodipodi:start="5.2359878"
       sodipodi:end="5.2339981"
       sodipodi:open="true"
       d="m 412.61031,91.558453 a 10.791243,16.78129 0 0 1 3.95255,22.916437 10.791243,16.78129 0 0 1 -14.73449,6.15795 10.791243,16.78129 0 0 1 -3.96721,-22.910313 10.791243,16.78129 0 0 1 14.73055,-6.18074"
       transform="matrix(0.95454437,0.29806886,-0.28816826,0.95757979,0,0)" />
    <path
       style="opacity:1;fill:#ffffff;fill-opacity:1;stroke:#000000;stroke-width:0.95244092;stroke-linecap:round;stroke-linejoin:round;stroke-miterlimit:4;stroke-dasharray:none;stroke-dashoffset:0;stroke-opacity:1"
       id="path960"
       sodipodi:type="arc"
       sodipodi:cx="362.88107"
       sodipodi:cy="211.71808"
       sodipodi:rx="4.4565625"
       sodipodi:ry="4.4565625"
       sodipodi:start="5.2359878"
       sodipodi:end="5.2339981"
       sodipodi:open="true"
       d="m 365.10935,207.85858 a 4.4565625,4.4565625 0 0 1 1.63233,6.08586 4.4565625,4.4565625 0 0 1 -6.08505,1.63535 4.4565625,4.4565625 0 0 1 -1.63837,-6.08423 4.4565625,4.4565625 0 0 1 6.08341,-1.6414" />
    <path
       style="opacity:1;fill:#ffffff;fill-opacity:1;stroke:#000000;stroke-width:0.95244092;stroke-linecap:round;stroke-linejoin:round;stroke-miterlimit:4;stroke-dasharray:none;stroke-dashoffset:0;stroke-opacity:1"
       id="path960-9"
       sodipodi:type="arc"
       sodipodi:cx="326.46521"
       sodipodi:cy="195.44096"
       sodipodi:rx="4.4565625"
       sodipodi:ry="4.4565625"
       sodipodi:start="5.2359878"
       sodipodi:end="5.2339981"
       sodipodi:open="true"
       d="m 328.69349,191.58147 a 4.4565625,4.4565625 0 0 1 1.63232,6.08586 4.4565625,4.4565625 0 0 1 -6.08504,1.63534 4.4565625,4.4565625 0 0 1 -1.63838,-6.08423 4.4565625,4.4565625 0 0 1 6.08342,-1.6414" />
    <path
       style="fill:#64dd51;stroke:#000000;stroke-width:1px;stroke-linecap:butt;stroke-linejoin:miter;stroke-opacity:1;fill-opacity:1;opacity:1"
       d="m 253.39648,151.37416 c 71.73126,20.61114 75.86601,60.53556 77.69232,101.11954 -8.84514,49.09761 -42.61688,82.28083 -67.89113,83.66865 -64.29678,7.75288 -81.31607,-17.52371 -100.40238,-41.35622 -11.70152,-27.74941 -21.80691,-56.08999 0.23905,-96.33847 20.33346,-26.50459 40.20813,-53.51576 90.36214,-47.0935 z"
       id="path979"
       inkscape:connector-curvature="0"
       sodipodi:nodetypes="cccccc" />
    <path
       style="fill:none;stroke:#000000;stroke-width:1px;stroke-linecap:butt;stroke-linejoin:miter;stroke-opacity:1"
       d="m 213.16013,156.84043 c -1.49968,2.86227 -4.55559,4.45125 -7.90426,5.80071"
       id="path995"
       inkscape:connector-curvature="0"
       sodipodi:nodetypes="cc" />
    <path
       style="opacity:1;fill:#64dd51;fill-opacity:1;stroke:#000000;stroke-width:0.95244092;stroke-linecap:round;stroke-linejoin:round;stroke-miterlimit:4;stroke-dasharray:none;stroke-dashoffset:0;stroke-opacity:1"
       id="path997"
       sodipodi:type="arc"
       sodipodi:cx="159.07333"
       sodipodi:cy="230.82625"
       sodipodi:rx="7.2349505"
       sodipodi:ry="1.5936015"
       sodipodi:start="5.2359878"
       sodipodi:end="5.2339981"
       sodipodi:open="true"
       d="m 162.69081,229.44615 a 7.2349505,1.5936015 0 0 1 2.64997,2.17621 7.2349505,1.5936015 0 0 1 -9.87869,0.58478 7.2349505,1.5936015 0 0 1 -2.6598,-2.17563 7.2349505,1.5936015 0 0 1 9.87605,-0.58694"
       transform="rotate(-18.869209)" />
  </g>
</svg>
